<?xml version="1.0" standalone="no"?>
<!DOCTYPE svg PUBLIC "-//W3C//DTD SVG 1.1//EN" "http://www.w3.org/Graphics/SVG/1.1/DTD/svg11.dtd" >
<svg>
<metadata>
Created by FontForge 20090914 at Thu Nov 20 15:08:45 2014
 By www-data
Generated by Fontographer 4.0
</metadata>
<defs>
<font id="DanielBold" horiz-adv-x="1194" >
  <font-face 
    font-family="Daniel"
    font-weight="700"
    font-stretch="normal"
    units-per-em="2048"
    panose-1="2 11 8 0 0 0 0 0 0 0"
    ascent="1638"
    descent="-410"
    x-height="679.002"
    cap-height="1516"
    bbox="-521.001 -1055 3598 1761"
    underline-thickness="20"
    underline-position="-123"
    unicode-range="U+0009-U+F002"
  />
<missing-glyph horiz-adv-x="1536" 
d="M256 0v1280h1023v-1280h-1023zM1248 32v1216h-961v-1216h961z" />
    <glyph glyph-name=".notdef" horiz-adv-x="1536" 
d="M256 0v1280h1023v-1280h-1023zM1248 32v1216h-961v-1216h961z" />
    <glyph glyph-name=".null" horiz-adv-x="0" 
 />
    <glyph glyph-name=".null" horiz-adv-x="0" 
 />
    <glyph glyph-name="space" unicode="&#x9;" horiz-adv-x="1021" 
 />
    <glyph glyph-name="nonmarkingreturn" unicode="&#xd;" horiz-adv-x="1021" 
 />
    <glyph glyph-name="space.0" unicode=" " horiz-adv-x="1021" 
 />
    <glyph glyph-name="exclam" unicode="!" horiz-adv-x="655" 
d="M483 1605c-10.667 -49.333 -24 -108.001 -40 -176.001c-27.333 -118 -47 -207.667 -59 -269c-6.66699 -31.333 -17.667 -93 -33 -185c-5.33301 -44 -16.666 -130 -33.999 -258l-42 -218c0 -32.667 -1.66699 -80.667 -5 -144c-2 -8.66699 -11.333 -18.667 -28 -30
s-30 -17 -40 -17c-67.333 0 -101 53.667 -101 161c15.333 93.333 23 153.333 23 180c0 22.667 1.66699 56.334 5 101.001c13.333 62.667 29.666 169.667 48.999 321c40 134 68.333 239.333 85 316l56 296c8 37.333 27.667 56 59 56c10 0 21.333 -3.33301 34 -10
c9.33301 -20.667 29.333 -42 60 -64c0 -2 1.83301 -12 5.5 -30s5.5 -28 5.5 -30zM246 80.999c0 -74 -26 -111 -78 -111c-18 0 -42 18.333 -72 55c-29.333 35.333 -44 62.333 -44 81c0 42.667 31 64 93 64c15.333 0 36 -11.5 62 -34.5s39 -41.167 39 -54.5z" />
    <glyph glyph-name="quotedbl" unicode="&#x22;" horiz-adv-x="668" 
d="M578 1608c0 -42.667 -11 -132.999 -33 -270.999c-4 -24.667 -13.333 -64 -28 -118h-24h-53c-14 20.667 -29 49 -45 85c-8 30 -12 68 -12 114c0 49.333 7.33301 111.666 22 186.999c17.333 92 39.333 143.667 66 155c71.333 -27.333 107 -78 107 -152zM264 1615
l0.000976562 0.999023c-2 0 -20.333 -108 -55 -324l-18 -21c0 -8 -1 -20.333 -3 -37c-3.33301 -5.33301 -5 -10.333 -5 -15c-26.667 0 -48.334 -1.66699 -65.001 -5c-0.666992 1.33301 -14 18.333 -40 51c-21.333 28 -32 44 -32 48c0 28.667 7.66699 63 23 103v0
c0 2.66699 -4 15 -12 37c0 26 4 50.667 12 74c5.33301 30 31.333 101.667 78 215h33c56 -31.333 84 -73.666 84 -126.999z" />
    <glyph glyph-name="numbersign" unicode="#" horiz-adv-x="1624" 
d="M1540 365c-20 -12 -50.3447 -27.0029 -91.0117 -45.0029c-102.667 -27.333 -198 -41 -286 -41c-2 0 -4.33301 1 -7 3s-4.66699 3 -6 3c-21.333 0 -63 -17.333 -125 -52c-9.33301 -5.33301 -22.666 -32 -39.999 -80c-5.33301 -6.66699 -13.666 -33.667 -24.999 -81
c-2 -3.33301 -6.33301 -8.33301 -13 -15c-15.333 12.667 -25 19.667 -29 21c-4 0 -15.333 -4.66699 -34 -14c-0.666992 2.66699 -10.334 6.66699 -29.001 12c-18.667 6 -28 9.33301 -28 10c0 46 8.33301 83 25 111c-0.666992 8 -0.666992 16 0 24c-2.66699 14 -7 21 -13 21
c-14 0 -49.667 -5 -107 -15c-70 -12 -115 -23 -135 -33c-12 -5.33301 -22.667 -30.333 -32 -75c-9.33301 -48.667 -18.666 -77 -27.999 -85c-32 1.33301 -77.333 11.666 -136 30.999c-10 7.33301 -15 17 -15 29l13 46c4 16.667 6 30.334 6 41.001
c0 6.66699 -0.666992 12 -2 16c-2.66699 2 -6 3 -10 3c-4.66699 0 -37 -4.66699 -97 -14c-43.333 -6.66699 -70.666 -10 -81.999 -10c-3.33301 0 -5.33301 0.333008 -6 1c-46 27.333 -69 58.333 -69 93c0 20.667 13 37.334 39 50.001c20.667 9.33301 41.334 14 62.001 14
c0.666992 0 31 6 91 18c59.333 10.667 90.333 16 93 16c12 0 29.333 15.833 52 47.5s34 53.834 34 66.501v38c-5.33301 0.666992 -11.666 1 -18.999 1c-28 0 -71.333 -3 -130 -9l-134 -13c-39.333 0 -78.666 7.33301 -117.999 22c-5.33301 15.333 -18.666 34.333 -39.999 57
l32 49c8.66699 13.333 20.334 20 35.001 20c2.66699 0 7.33398 -1.16699 14.001 -3.5l10 -3.5c2 0 9.66699 3.33301 23 10c14 7.33301 22.333 11 25 11c2 0 7.33301 -2.33301 16 -7c7.33301 -4.66699 11.666 -7 12.999 -7c26.667 0 116.334 9.66699 269.001 29
c6.66699 0 21.334 6 44.001 18c4.66699 -0.666992 9.33398 -1 14.001 -1c20.667 0 39.334 12.333 56.001 37l43 78c29.333 52 52 90.667 68 116c29.333 65.333 53.666 98 72.999 98c15.333 0 28 -6 38 -18c36 -38.667 57.333 -60.667 64 -66
c0 -55.333 -3 -91.666 -9 -108.999c-8 -23.333 -29.667 -51.333 -65 -84c9.33301 -13.333 32.333 -20 69 -20c64.667 0 101.667 3 111 9c5.33301 2.66699 39 44.334 101 125.001c66 86.667 108 130 126 130c15.333 0 34 -12.667 56 -38c20.667 -25.333 31 -46.333 31 -63
c0 -24 -30 -75 -90 -153c5.33301 -16 25.666 -24 60.999 -24c4.66699 0 9.66699 0.333008 15 1c26.667 1.33301 47 2 61 2c14.667 0 23.334 -0.666992 26.001 -2c16.667 -16 35.334 -37 56.001 -63c-38.667 -34 -70.667 -55 -96 -63c-19.333 -6 -60 -9 -122 -9
c-2.66699 0 -8.66699 1 -18 3s-15.333 3 -18 3c-22.667 0 -39.334 -4.66699 -50.001 -14c-33.333 -35.333 -50 -68 -50 -98l-10 -58c0 7.33301 13.667 11.666 41 12.999c20.667 1.33301 88 2 202 2c2 0 11 -2 27 -6s25 -6 27 -6c2.66699 0 17.334 2 44.001 6
s40.334 6 41.001 6c23.333 0 45.666 -21 66.999 -63zM940.988 559.997c0 20 -8.99902 30 -26.999 30c-82 0 -139.333 -10 -172 -30c-13.333 -8.66699 -29.333 -28 -48 -58s-28 -51.667 -28 -65v-54c1.33301 0 6.83301 -1 16.5 -3s15.834 -3 18.501 -3
c1.33301 0 10.666 1.33301 27.999 4c16.667 1.33301 25.667 2 27 2c34 0 80.333 9.33301 139 28c1.33301 7.33301 16.666 57 45.999 149z" />
    <glyph glyph-name="dollar" unicode="$" horiz-adv-x="1285" 
d="M1178 992c0 -18 -11.332 -41.6641 -33.999 -70.9971h-5c-18 0 -44.333 3 -79 9c-28.667 13.333 -59.334 29 -92.001 47c-50 26.667 -86.333 40 -109 40c-22 0 -40.333 -8 -55 -24c-6 -6 -17.667 -24.667 -35 -56c-50 -92 -75 -149 -75 -171c0 -8 1.33301 -15.333 4 -22
c30 -23.333 48 -42 54 -56c4.66699 -2.66699 15 -5.66699 31 -9c22 -18 47.667 -45.667 77 -83c41.333 -80.667 62 -126.667 62 -138c-2 -4 -6.33301 -10 -13 -18c-19.333 -54.667 -71.666 -91.667 -156.999 -111l-213 -48c-14.667 -7.33301 -27.667 -34 -39 -80
c-16.667 -66.667 -25 -110.334 -25 -131.001v-3c-16 -30 -26.667 -56.667 -32 -80c-1.33301 0 -8 2.83301 -20 8.5s-18.667 8.5 -20 8.5s-6.33301 -2 -15 -6c-8 -4.66699 -12.667 -7 -14 -7c-33.333 0 -50 21 -50 63v-1c1.33301 0 8 11 20 33c7.33301 32.667 11 74 11 124
v18c0 12 -6 31.667 -18 59c-18.667 0.666992 -54.334 3 -107.001 7c-31.333 2.66699 -64 12.667 -98 30c-10 5.33301 -22.667 19 -38 41c-15.333 22.667 -23 38.334 -23 47.001c2.66699 1.33301 10.667 14 24 38c107.333 -17.333 175.333 -26 204 -26
c0.666992 0 9.33398 1 26.001 3s26.667 3 30 3c22.667 0 37.334 16.333 44.001 49c3.33301 14.667 6.66602 34.667 9.99902 60c6.66699 5.33301 15 15.666 25 30.999c16.667 38 25 76.667 25 116c0 5.33301 -26.667 30.666 -80 75.999
c-62.667 53.333 -104.667 91.666 -126 114.999c-62 67.333 -93 127 -93 179c0 41.333 6.66699 67.333 20 78c41.333 22.667 128 43.334 260 62.001h62c56 0 127.333 3.33301 214 10l99 129c65.333 84.667 104.666 127 117.999 127c18 0 35.667 -9 53 -27
c18 -18.667 27 -37.334 27 -56.001c0 -15.333 -14.333 -48.666 -43 -99.999c-34.667 -62.667 -53 -96.334 -55 -101.001c30 -18.667 81 -42.667 153 -72c48 -19.333 74.667 -41 80 -65c9.33301 -10 18.333 -16.333 27 -19c2 -3.33301 3 -13.333 3 -30zM608.001 993.003
l0.000976562 38c-14.667 4 -24.667 6 -30 6c-105.333 0 -177.333 -13.667 -216 -41c59.333 -67.333 115.666 -112 168.999 -134c51.333 43.333 77 87 77 131zM729.002 506.003c0 8.66699 -12.001 23.333 -36.001 44c-25.333 24.667 -46.333 37 -63 37
c-9.33301 0 -20.666 -6 -33.999 -18c0 -2 -4 -11.833 -12 -29.5s-12 -27.167 -12 -28.5v-48h93c42.667 0 64 14.333 64 43z" />
    <glyph glyph-name="percent" unicode="%" horiz-adv-x="1756" 
d="M1745 291c0 -30 -12.665 -58.999 -37.998 -86.999c-17.333 -18.667 -49.333 -45 -96 -79c-44.667 -20.667 -111.334 -43.334 -200.001 -68.001c-78 -22 -123.333 -33 -136 -33h-138c-68 0 -142 19.667 -222 59l-165 129c-9.33301 10.667 -14 23.667 -14 39
c0 79.333 29 148.666 87 207.999s126 89 204 89c1.33301 0 5.33301 -1 12 -3c7.33301 -2.66699 11.666 -4 12.999 -4c6.66699 0 21.334 6 44.001 18l34 19c21.333 8 86.666 12 195.999 12c82 0 179.667 -17.333 293 -52c54 -56 88.667 -99 104 -129
c14.667 -29.333 22 -68.666 22 -117.999zM1361 1076c0 1.33301 -0.333008 1.99707 -1 1.99707c-3.33301 0 -16.333 -26.667 -39 -80c-5.33301 -12 -27.333 -37.667 -66 -77c-108 -109.333 -341.333 -295.666 -700 -558.999c-41.333 -30.667 -95.333 -80.667 -162 -150
l-80 -160c-54 -12.667 -82.667 -19 -86 -19c-20.667 0 -39.667 20 -57 60c-15.333 34.667 -23 58.667 -23 72c0 36.667 26.333 81.334 79 134.001l101 102v5c0 6 3.33301 12.333 10 19l395 286c145.333 106.667 259.666 213.334 342.999 320.001l45 58
c0 9.33301 -6 16.666 -18 21.999c-65.333 6.66699 -105 10 -119 10c-105.333 0 -175 -12.667 -209 -38c0 -6 4.66699 -16 14 -30c-6.66699 -36.667 -12.667 -71.667 -18 -105c-39.333 -33.333 -65 -63 -77 -89c-110.667 -66.667 -214.667 -100 -312 -100
c-83.333 0 -159.333 20 -228 60c-28 15.333 -47.667 33.333 -59 54c-34 58 -51 127.667 -51 209c0 18 17 50 51 96h112c3.33301 8.66699 5 17.334 5 26.001c0 9.33301 -1.66699 18.666 -5 27.999c-2 6 -5.66699 17.667 -11 35c0 50 17 80 51 90
c12.667 4.66699 56.667 7 132 7c2 0 48 -10.667 138 -32c90.667 -22.667 137 -34 139 -34c8 0.666992 31 1.66699 69 3c40 0.666992 100 1.33398 180 2.00098l247 3h1c16.667 0 44.334 -8.33301 83.001 -25c40 -18 62.333 -32.333 67 -43
c39.333 -86.667 59 -140.667 59 -162zM615.002 1037c0 18.667 -7 37.001 -21 55.001l-160 24c-10.667 1.33301 -46.5 10.666 -107.5 27.999s-91.833 26 -92.5 26h-29v1c1.33301 0 8.33301 -20.667 21 -62c-4.66699 -6 -7 -15 -7 -27c0 -35.333 12 -67 36 -95
c24.667 -28 53 -42 85 -42h73c16.667 0 64 13.667 142 41c40 14 60 31 60 51zM1558 328.999c-103.333 39.333 -178.333 59.001 -225 59.001c-144.667 0 -255 -12.667 -331 -38c-16 -16 -24 -33 -24 -51c0 -28.667 33.333 -53.334 100 -74.001c52 -15.333 94.667 -23 128 -23
c66.667 0 136 13 208 39c72.667 26 120.667 55.333 144 88z" />
    <glyph glyph-name="ampersand" unicode="&#x26;" horiz-adv-x="1444" 
d="M1327 541c-4 -3.33301 -19.3359 -23.002 -46.0029 -59.002c-131.333 -40 -232.666 -91 -303.999 -153v-32c19.333 -6.66699 34 -13 44 -19c22 -27.333 55 -61.333 99 -102c10.667 -7.33301 24 -18.333 40 -33c16.667 -26 25 -46.667 25 -62c0 -47.333 -21 -71 -63 -71
c-28.667 0 -52 7 -70 21c-20.667 17.333 -74.334 65 -161.001 143c-63.333 58 -98.333 87 -105 87c-1.33301 0 -31.666 -13 -90.999 -39s-89.666 -39 -90.999 -39c-2 0 -5.33301 1.66699 -10 5c-4 2 -6.66699 3 -8 3s-20.5 -10.333 -57.5 -31s-58.167 -31.667 -63.5 -33
c-102 -30.667 -178.667 -46 -230 -46c-128.667 0 -193 73.667 -193 221c0 34 1 54 3 60c2.66699 5.33301 22.334 31.333 59.001 78c20.667 26.667 50.334 50.334 89.001 71.001l95 55l201 120c6.66699 3.33301 10 11.666 10 24.999c0 0.666992 -5.33301 39.334 -16 116.001
l-15 115c0 42.667 28.667 103.334 86 182.001c68.667 94.667 110.667 169.667 126 225c87.333 84 184 126 290 126c23.333 0 60.666 -23.333 111.999 -70c41.333 -38.667 67.333 -66.667 78 -84c41.333 -69.333 62 -140 62 -212c0 -73.333 -21.667 -134 -65 -182
c-7.33301 -8.66699 -75.666 -64.667 -204.999 -168c-34 -19.333 -78.333 -47.333 -133 -84c-19.333 -7.33301 -38.333 -15 -57 -23c-36 -16.667 -54 -32.667 -54 -48c0 -8.66699 17.667 -33.834 53 -75.501s56.666 -62.5 63.999 -62.5c97.333 40 223.333 84 378 132
c15.333 10 23 16 23 18v0c21.333 0 43.5 -8.66699 66.5 -26s34.5 -33.666 34.5 -48.999zM1067 1136c0 23.333 -9 53.332 -27 89.999c-23.333 49.333 -51 74 -83 74c-30.667 0 -80.334 -27.667 -149.001 -83c-59.333 -46.667 -94.333 -79.667 -105 -99
c-18 -31.333 -37.667 -79.333 -59 -144c-18.667 -55.333 -28 -87.666 -28 -96.999c0 -56.667 11.667 -87.667 35 -93c36.667 18 87.667 49 153 93c100.667 68 178.334 138.333 233.001 211c20 26.667 30 42.667 30 48zM662.997 385.997
c-6.66699 22 -22.333 49.832 -47 83.499s-43 50.5 -55 50.5c-6 -2.66699 -23.333 -13.334 -52 -32.001l-158 -69c-12.667 -6 -35.667 -25.667 -69 -59c-35.333 -35.333 -53 -58.666 -53 -69.999v-29c4 0 16 -1.16699 36 -3.5s31 -3.5 33 -3.5c40 0 99.333 14.333 178 43
s141 58.334 187 89.001z" />
    <glyph glyph-name="quotesingle" unicode="'" horiz-adv-x="361" 
d="M225 1378c0 2.66699 -0.333008 3.99805 -1 3.99805c-2 0 -13 -65.333 -33 -196c2.66699 -12.667 6.33398 -31.667 11.001 -57v-92c-2 -5.33301 -8.33301 -8 -19 -8c-0.666992 0 -8.33398 3.33301 -23.001 10s-23.667 10 -27 10c-0.666992 0 -3.66699 -1.33301 -9 -4
c-4.66699 -2.66699 -8.66699 -4 -12 -4c-10 0 -19.667 5 -29 15c-26.667 70.667 -40 130.334 -40 179.001c0 72.667 8.66699 138.334 26 197.001l38 60h33c56.667 -58 85 -96 85 -114z" />
    <glyph glyph-name="parenleft" unicode="(" horiz-adv-x="683" 
d="M819 1555c-10 -14 -29.001 -31.998 -57.001 -53.998c-6.66699 0 -15.667 -1.33301 -27 -4c-198.667 -164.667 -340.667 -349.667 -426 -555c-8.66699 -16.667 -24.667 -56.334 -48 -119.001c-4.66699 -6.66699 -9.66699 -16 -15 -28c-2.66699 -20 -7 -45.667 -13 -77
c-6.66699 -33.333 -10 -55.333 -10 -66c0 -112.667 39 -220.334 117 -323.001c42 -55.333 124.667 -137.666 248 -246.999c12 -39.333 18 -61.333 18 -66v0c-0.666992 0 -4 -14.667 -10 -44h-84c-36 0 -102.333 45.667 -199 137c-77.333 72.667 -127.333 126 -150 160
c-12 17.333 -35 68.333 -69 153c-20.667 76 -31 153.667 -31 233c0 93.333 45 254 135 482c7.33301 6 15.333 16 24 30c20 80.667 94.333 194.667 223 342c134.667 155.333 233.334 233 296.001 233c27.333 0 48.333 -25.667 63 -77c10 -32.667 15 -64.334 15 -95.001v-15z
" />
    <glyph glyph-name="parenright" unicode=")" horiz-adv-x="683" 
d="M617 786c-0.666992 -4 -2.66797 -13.999 -6.00098 -29.999c-1.33301 -6 -2 -12.333 -2 -19c0 -10 1.33301 -21 4 -33c-18 -88.667 -41.667 -176.667 -71 -264c-20 -58 -59.333 -122 -118 -192l-102 -123c-7.33301 -8.66699 -48.333 -45 -123 -109
c-77.333 -66 -124.666 -99 -141.999 -99c-14.667 0 -24.334 0.333008 -29.001 1c-31.333 36.667 -47 63 -47 79c0 32 14.667 63.333 44 94c228.667 236.667 360 413.667 394 531c16 56 24 135.333 24 238c0 105.333 -40.333 235.333 -121 390
c-61.333 116 -120.333 207.667 -177 275c-15.333 19.333 -25.666 40 -30.999 62c0 29.333 -3.33301 71.666 -10 126.999c30 25.333 47.333 38 52 38c44.667 0 106 -64 184 -192l187 -317c60 -104.667 90 -257 90 -457z" />
    <glyph glyph-name="asterisk" unicode="*" horiz-adv-x="1008" 
d="M915 1491c0 -24 -40.3311 -53.332 -120.998 -87.999c-32 -20.667 -81 -50 -147 -88c0 -10.667 16.667 -46 50 -106c42 -76 63 -122 63 -138c0 -12.667 -11 -32.667 -33 -60c-6 -0.666992 -26.333 -1 -61 -1c-4.66699 0 -23.667 20.667 -57 62
c-32.667 40.667 -53 61 -61 61h-1c-4 0 -7.33301 -1.66699 -10 -5l-62 -233h-10c-18.667 0 -36.334 -2.33301 -53.001 -7c-8.66699 12 -24.334 29 -47.001 51c-0.666992 19.333 -1 37 -1 53c0 57.333 4 101.333 12 132c1.33301 8 2 14.667 2 20c0 10.667 -3.66699 16 -11 16
h-21c-23.333 0 -102.333 -56 -237 -168h-57c-13.333 41.333 -21.333 63 -24 65c-2 -1.33301 -3 -3 -3 -5c0 19.333 18.667 53.333 56 102c24 31.333 60.667 60.333 110 87c34 18 74 40.667 120 68c30.667 17.333 46 32.333 46 45c0 3.33301 -14.667 20.333 -44 51
c-38.667 40 -61 66 -67 78c-11.333 22 -17 59 -17 111c0 8 5.16699 18 15.5 30s18.833 18 25.5 18c16 0 78.333 -45 187 -135c2 0.666992 28.167 38.667 78.5 114s83.5 116.666 99.5 123.999c50.667 -28 76 -70.667 76 -128c0 -25.333 -6.66699 -44.333 -20 -57v-17
c-0.666992 0 -1.33398 -0.333008 -2.00098 -1c1.33301 -2 6 -3 14 -3c2 0 21.167 5.5 57.5 16.5s55.833 16.5 58.5 16.5c18.667 0 39.334 -10 62.001 -30c22.667 -19.333 34 -36.333 34 -51z" />
    <glyph glyph-name="plus" unicode="+" horiz-adv-x="970" 
d="M929 362c-10 -12 -26.3311 -27.666 -48.998 -46.999c-18.667 -10 -51.334 -15 -98.001 -15c-105.333 0 -192 -7 -260 -21c-18.667 -6.66699 -30 -18 -34 -34c-12 -56 -32.667 -123.333 -62 -202h-38c-51.333 0 -77 23.667 -77 71c0 4.66699 1.33301 21.167 4 49.5
s4 43.833 4 46.5c0 39.333 -18.333 59 -55 59c-2 0 -7.66699 -1 -17 -3s-15.333 -3 -18 -3c-3.33301 0 -18.666 2 -45.999 6l-61 9c-14.667 10 -24.334 23 -29.001 39c-1.33301 3.33301 -2 7.33301 -2 12c0 10 2 21.333 6 34c-9.33301 13.333 -14 21.666 -14 24.999
c0 14.667 14.667 28.667 44 42s59.666 20 90.999 20c0.666992 0 16.5 -1.16699 47.5 -3.5s48.167 -3.5 51.5 -3.5c32 0 51 7.66699 57 23l63 174c7.33301 11.333 14 22.333 20 33c12 14 31 21 57 21c56.667 0 85 -40.667 85 -122c-16 -56.667 -24 -89 -24 -97l304 -48
c14 -8 30.667 -29.667 50 -65z" />
    <glyph glyph-name="comma" unicode="," horiz-adv-x="555" 
d="M378 49c0 -4.66699 -14.335 -68.333 -43.002 -191l-117 -161c-6 -9.33301 -32 -28.333 -78 -57c-53.333 -32.667 -86.666 -49 -99.999 -49c-25.333 0 -47.666 8.33301 -66.999 25c-18.667 16 -28 34.333 -28 55c0 8 24.667 43 74 105l104 134
c40.667 54 64.334 101.333 71.001 142c5.33301 34 12.666 72.667 21.999 116c8.66699 12 20.667 29.667 36 53h33c62 0 93 -57.333 93 -172z" />
    <glyph glyph-name="hyphen" unicode="-" horiz-adv-x="706" 
d="M631 440c0 -15.333 -13.333 -29.333 -40 -42c-6.66699 -8 -17 -19 -31 -33c-12 -10.667 -32.667 -16 -62 -16c-7.33301 0 -15 0.333008 -23 1c-22.667 -6 -54 -11.667 -94 -17c-23.333 0.666992 -68.333 1 -135 1c-6 0 -51 5.33301 -135 16
c-6.66699 2.66699 -22.667 12 -48 28c-6.66699 26 -10 47.333 -10 64c0 62.667 32 94 96 94c109.333 0 167.333 -1 174 -3c39.333 -6 92 -9 158 -9l28 6c26 0 55.333 -5.33301 88 -16c22.667 -28 34 -52.667 34 -74z" />
    <glyph glyph-name="period" unicode="." horiz-adv-x="386" 
d="M326 94c-32 -48 -72.667 -72 -122 -72c-87.333 0 -131 29 -131 87c0 39.333 25.333 94 76 164h80c52.667 -60 79 -99.333 79 -118c0 -36 6 -56.333 18 -61z" />
    <glyph glyph-name="slash" unicode="/" horiz-adv-x="1569" 
d="M1510 1608c0 -35.333 -14.3311 -67.334 -42.998 -96.001l-62 -63c-10.667 -18.667 -30 -44.334 -58 -77.001c-184.667 -143.333 -333.334 -282 -446.001 -416c-406.667 -483.333 -631.334 -839 -674.001 -1067h-105c0 4.66699 -9 24.667 -27 60c-14 28 -21 47.333 -21 58
c0 36.667 19.667 104.334 59 203.001c34 86.667 59 142 75 166l147 229c48 75.333 162.667 224.333 344 447l251 294c22 24.667 120 111.334 294 260.001c111.333 94.667 180.333 142 207 142c12.667 0 26.667 -21.667 42 -65c11.333 -36 17 -61 17 -75z" />
    <glyph glyph-name="zero" unicode="0" horiz-adv-x="2012" 
d="M1981 1014c0 -94 -19.667 -186.672 -59 -278.005c-25.333 -34.667 -61 -86.667 -107 -156c-2 -7.33301 -4.33301 -20 -7 -38c-20.667 -28.667 -52 -66.667 -94 -114c-4 -2.66699 -109 -64.334 -315 -185.001l-70 -25c-27.333 -10 -41 -23.333 -41 -40
c0 -3.33301 0.333008 -6.66602 1 -9.99902l-430 -98c-2.66699 0 -11 -1 -25 -3c-13.333 -2 -21 -3 -23 -3c-8.66699 -5.33301 -13.667 -8.66602 -15 -9.99902c-4.66699 -3.33301 -15.667 -5.66602 -33 -6.99902l-24 7c-15.333 4 -25 6 -29 6
c-1.33301 0 -9.83301 -1 -25.5 -3s-24.167 -3 -25.5 -3c-28 0 -144.667 36.333 -350 109c-5.33301 9.33301 -53.666 64.666 -144.999 165.999c-52 58.667 -85.667 116.334 -101 173.001c-11.333 38.667 -17 92.334 -17 161.001c0 130.667 44.667 262.667 134 396
c31.333 46 118.333 142.333 261 289c45.333 46 140.666 86 285.999 120c128 30.667 240.333 46 337 46c50 0 117 -7.33301 201 -22c18 2.66699 40.667 4 68 4c218.667 -53.333 349.667 -89.666 393 -108.999c126 -57.333 199.333 -147.666 220 -270.999
c23.333 -60 35 -94 35 -102zM1823 973.995c0 58 -5.00098 95 -15.001 111c-44 76 -109.333 139.667 -196 191c-86 51.333 -176.667 80 -272 86c-24.667 8.66699 -59 18.334 -103 29.001c-71.333 6.66699 -122.333 10 -153 10c-31.333 0 -117.666 -8.66699 -258.999 -26
c-18 -7.33301 -46.667 -17 -86 -29c-28 -6 -70.667 -26 -128 -60c-5.33301 -18 -17 -42 -35 -72l-152 -147c-42.667 -41.333 -77.667 -97.333 -105 -168c-20.667 -53.333 -31 -94.666 -31 -123.999c0 -1.33301 6.5 -35.833 19.5 -103.5s19.5 -102.834 19.5 -105.501
c0 -1.33301 -6.5 -20.333 -19.5 -57s-19.5 -56.334 -19.5 -59.001c0 -8.66699 8.33301 -26.667 25 -54c28 -49.333 80.333 -92 157 -128c75.333 -35.333 151 -53 227 -53c4 0 22.667 1.33301 56 4l54 5c44.667 0 132.667 20.333 264 61c204 62.667 357.333 129 460 199
c74.667 51.333 142 127 202 227s90 187.667 90 263z" />
    <glyph glyph-name="one" unicode="1" horiz-adv-x="534" 
d="M445 1270l-128.001 -731l14 -189c10.667 -106.667 16 -171 16 -193v-7c0.666992 -5.33301 5.66699 -13 15 -23v-84l-32 -27c-19.333 10 -39 16 -59 18c-72 69.333 -112.333 157 -121 263c-3.33301 30 -10 122.667 -20 278l93 606
c2.66699 24.667 8.33398 71.667 17.001 141c9.33301 69.333 39 104 89 104c19.333 0 38.333 -7 57 -21c15.333 -25.333 35 -70.333 59 -135z" />
    <glyph glyph-name="two" unicode="2" horiz-adv-x="1511" 
d="M1454 249c0 -34.667 -28.667 -57.333 -86 -68l-111 -23c7.33301 -3.33301 17.666 -5 30.999 -5c-186.667 -10 -317 -30 -391 -60l-183 -28c-132 -18.667 -253.333 -28 -364 -28c-9.33301 0 -40 -2.33301 -92 -7l-78 -6c-22 0 -44 7 -66 21v0c0 12 -12.667 28.333 -38 49
c0.666992 2 1 4.33301 1 7c0 6.66699 -2 17 -6 31l-8 31c0 7.33301 0.666992 13.666 2 18.999c168.667 120 299.334 219.667 392.001 299l216 192l92 101c14 6.66699 31.667 17 53 31c71.333 66 155.333 164.667 252 296c62.667 117.333 94 202 94 254
c0 24.667 -12.167 45.5 -36.5 62.5s-53.5 25.5 -87.5 25.5c-72 0 -258.333 -44.333 -559 -133c-15.333 -4.66699 -73.666 -30.667 -174.999 -78l-140 -60c-1.33301 -2.66699 -5.66602 -4 -12.999 -4c-18 0 -40.333 12.667 -67 38c-27.333 24 -41 43.667 -41 59
c0 25.333 16.333 45.333 49 60c11.333 4.66699 39.333 15.334 84 32.001c40.667 24 103 54 187 90l334 98c128.667 38 238.667 57 330 57c47.333 0 73.666 -1 78.999 -3c137.333 -50.667 211.333 -116 222 -196c-5.33301 -6.66699 -10 -16 -14 -28
c12 -7.33301 18 -22 18 -44c0 -52 -18.333 -115.667 -55 -191s-77.334 -133.333 -122.001 -174c-6.66699 -16 -18.334 -37 -35.001 -63c-51.333 -64.667 -125 -141.334 -221 -230.001c-14.667 -14 -160 -142.667 -436 -386c0 -7.33301 -2.33301 -19.333 -7 -36
c-7.33301 -4 -20.333 -13 -39 -27c21.333 -16.667 48 -25 80 -25c16.667 2.66699 44.667 9.33398 84 20.001c53.333 14.667 93.333 23.667 120 27c197.333 26 406.333 39 627 39l45 -7c30.667 -5.33301 50.334 -8 59.001 -8c13.333 -10 20 -17 20 -21z" />
    <glyph glyph-name="three" unicode="3" horiz-adv-x="1483" 
d="M1427 517c0 -60.667 -75.9922 -129.328 -227.992 -205.995c-72.667 -35.333 -115.334 -57.333 -128.001 -66c-76 -12 -231.667 -49.667 -467 -113c-72.667 -6.66699 -158.334 -18.667 -257.001 -36c-22 -4 -67.333 -21 -136 -51c-58 -25.333 -90.333 -38 -97 -38
c-10 0 -25.667 9.5 -47 28.5s-32 33.167 -32 42.5v-2c1.33301 0 5.33301 18.667 12 56c99.333 66.667 236.666 109.667 411.999 129c283.333 32 510.333 100.667 681 206c66.667 41.333 100 73 100 95c0 21.333 -27.667 48.666 -83 81.999
c-42.667 24.667 -76.334 40.334 -101.001 47.001c-189.333 51.333 -304.333 77 -345 77c-4.66699 -2 -13 -7 -25 -15c-10.667 -1.33301 -44 -2 -100 -2c-46 0 -104 6 -174 18c-10.667 5.33301 -24.334 13 -41.001 23c0 3.33301 4 23.333 12 60
c4.66699 23.333 9 42.333 13 57c41.333 22 90 43.333 146 64c175.333 61.333 306 119.333 392 174c77.333 49.333 157.666 118.333 240.999 207c6 6 15.333 26 28 60c-18.667 20 -60.334 30 -125.001 30c-4.66699 0 -52.667 -6.66699 -144 -20l-141 -21
c-16 0 -30.667 5.33301 -44 16c-2 -3.33301 -4.66699 -10.333 -8 -21c-23.333 -6 -98 -26.667 -224 -62c-32.667 -9.33301 -88.667 -27.333 -168 -54c-78 -26 -118.667 -39 -122 -39c-27.333 0 -50 15.333 -68 46c-23.333 41.333 -39.333 65 -48 71c10.667 12 24 28 40 48
c143.333 51.333 243.333 84 300 98c66 16.667 182.333 41.667 349 75c139.333 28 215.666 42 228.999 42c2.66699 0 10 -3 22 -9c11.333 -5.33301 18 -8 20 -8c4 0 14 1.33301 30 4c16.667 2.66699 25.334 4 26.001 4c36.667 0 80 -9.66699 130 -29
c21.333 -14.667 54.666 -35 99.999 -61c0 -0.666992 6 -15.334 18 -44.001c10.667 -28.667 16 -44.667 16 -48c0 -22.667 -7.33301 -52.334 -22 -89.001c-9.33301 -4 -20 -12.333 -32 -25v-3c0 -28.667 -30.667 -69.334 -92 -122.001
c-57.333 -48.667 -106.333 -81.334 -147 -98.001c-28.667 -26 -75.667 -62 -141 -108c-32 -12.667 -80.333 -36.334 -145 -71.001c8.66699 -22 75.667 -43.333 201 -64c76 -20 137 -39.667 183 -59c154 -64 231 -156 231 -276z" />
    <glyph glyph-name="four" unicode="4" horiz-adv-x="1521" 
d="M1586 1644c-50 -95.333 -111.002 -225.669 -183.002 -391.002c-43.333 -141.333 -79 -277.666 -107 -408.999c10.667 -8 25.334 -12 44.001 -12c2.66699 0 9.33398 1.33301 20.001 4c9.33301 2 14.666 3 15.999 3c34.667 0 52 -17.333 52 -52c0 -28.667 -14 -48 -42 -58
c-63.333 -22 -97 -34.667 -101 -38c-16.667 -10.667 -27 -22 -31 -34c-16.667 -44.667 -32.667 -112 -48 -202c-1.33301 -66.667 -4 -162.334 -8 -287.001c9.33301 -12 15.333 -23 18 -33c0 -16 -2.33301 -38.667 -7 -68c-16 -10.667 -33.333 -27 -52 -49
c-56 8.66699 -92.667 28 -110 58c-33.333 56 -50 114.333 -50 175c0 74.667 10.667 167.334 32 278.001c4 8 10 21.667 18 41l17 95c0 24.667 -11.667 37 -35 37h-6l-637 -47v0c0 0.666992 -94 8.66699 -282 24c-39.333 44 -59 86.667 -59 128
c0 42.667 11.667 95.667 35 159l53 145c4.66699 3.33301 11.334 9 20.001 17c12 26 35 82.333 69 169l41 114c24 65.333 46.333 98 67 98c21.333 0 46 -11.333 74 -34c28.667 -23.333 43 -43 43 -59c0 -3.33301 -5.33301 -11.666 -16 -24.999
c-3.33301 -30.667 -19 -76.667 -47 -138c-7.33301 -16 -28 -72 -62 -168c-40.667 -114 -61 -184.667 -61 -212c0 -33.333 14.667 -50 44 -50h613c113.333 0 176.666 12.333 189.999 37c28.667 76 64 192 106 348l40 153l132 233c31.333 54 59.333 90.333 84 109
c50.667 -22 89.334 -41.667 116.001 -59z" />
    <glyph glyph-name="five" unicode="5" horiz-adv-x="1617" 
d="M1559 598v1c-3.33301 0 -20.333 -37.333 -51 -112c-80 -50 -144 -92.667 -192 -128c-1.33301 -8.66699 -2 -14.667 -2 -18c0 -2.66699 0.333008 -4.33398 1 -5.00098c-15.333 0 -80 -28 -194 -84c-64.667 -32 -134.334 -63.333 -209.001 -94
c-269.333 -109.333 -432.666 -164 -489.999 -164c-22.667 0 -44 8.66699 -64 26c-21.333 16.667 -32 34.334 -32 53.001c0 30.667 23.333 56.334 70 77.001c106 34 261.667 93.667 467 179l182 78l21 10c33.333 14 107.333 58.333 222 133c50.667 42.667 76 72.667 76 90
c0 28.667 -59.667 78.334 -179 149.001c-30.667 18 -75.667 34 -135 48c-105.333 24 -162 36 -170 36h-520c-15.333 0 -67 7.33301 -155 22s-136.667 24.334 -146 29.001c-15.333 26 -23 51.667 -23 77c0 72 39 175.667 117 311c7.33301 2.66699 14 8.66699 20 18
c2.66699 8.66699 22.667 57 60 145c6.66699 15.333 23 33.666 49 54.999c54 18.667 132 28 234 28c285.333 0 463.333 -4 534 -12c76 -8.66699 120.667 -13 134 -13c3.33301 0 14 2.66699 32 8s27.333 8 28 8c28 0 53.333 -11 76 -33c22 -21.333 33 -45.333 33 -72
c0 -59.333 -34 -89 -102 -89c-2.66699 0 -18.334 1.66699 -47.001 5l-43 6c-238 14 -445 21 -621 21c-54.667 0 -92.667 -9.33301 -114 -28c-14.667 -12.667 -43.334 -59 -86.001 -139c-11.333 -12.667 -25 -31 -41 -55c-7.33301 -22.667 -20.333 -59.334 -39 -110.001
c102 -14 159.667 -21 173 -21c0.666992 0 12.334 1 35.001 3c23.333 2.66699 37 4 41 4v0c0 -1.33301 21.333 -6.33301 64 -15c221.333 -14.667 379 -32 473 -52c178 -37.333 322.333 -101 433 -191c20.667 -16.667 42.334 -52.334 65.001 -107.001c10 -24 15 -50 15 -78z
" />
    <glyph glyph-name="six" unicode="6" horiz-adv-x="1767" 
d="M1728 532c0 -10.667 -30.667 -71.3359 -92 -182.003c-30.667 -54.667 -47 -82 -49 -82v1c0 -5.33301 3 -11 9 -17c-22.667 -2 -73 -19.333 -151 -52c-21.333 -14 -50 -30.667 -86 -50l9 -12c-86 -14 -129 -34.333 -129 -61v-1
c-58.667 -4.66699 -140.334 -14.667 -245.001 -30l-26 -11c-18 -7.33301 -31 -11 -39 -11c-3.33301 0 -8.33301 1.5 -15 4.5s-11 4.5 -13 4.5s-27 -6.5 -75 -19.5s-73.667 -19.5 -77 -19.5l-26 1c-21.333 1.33301 -43.333 2.33301 -66 3l-92 3c-16 0 -46 6.66699 -90 20
c-50.667 14.667 -90 30.667 -118 48c-8 4.66699 -85.333 66.334 -232 185.001c1.33301 2 2 4.33301 2 7c0 10 -5.66699 24 -17 42c-20.667 34.667 -32 55.334 -34 62.001c-14 39.333 -21 95 -21 167c0 92.667 19.667 186.334 59 281.001c17.333 41.333 48.333 89 93 143
c47.333 72 146.333 169 297 291c44.667 37.333 107.667 78 189 122c241.333 130 385.666 195 432.999 195c24.667 0 50 -9 76 -27c26 -19.333 39 -38.333 39 -57c0 -27.333 -14 -49.333 -42 -66c-15.333 -8.66699 -61.333 -27.667 -138 -57
c-17.333 -1.33301 -39.333 -5.66602 -66 -12.999c-150 -74.667 -267.667 -141.334 -353 -200.001c-33.333 -36.667 -71.666 -75 -114.999 -115c-128.667 -120 -209.667 -236 -243 -348c-32.667 -110 -50 -165 -52 -165v1c0 -110 81 -217.333 243 -322
c10.667 -7.33301 41 -16.166 91 -26.499s86.333 -15.5 109 -15.5c52 0 129.5 11.167 232.5 33.5s172.5 42.833 208.5 61.5l138 28l38 27c15.333 2 39.666 9.66699 72.999 23c17.333 6.66699 49.333 29.334 96 68.001c58.667 49.333 88 84.666 88 105.999
c0 10 -6.66699 21 -20 33l-161 89l-18 -16c-130 36.667 -214 55 -252 55l-38 -6c-19.333 -2 -33.333 -3 -42 -3h-6h-29c-72 0 -143 -16.333 -213 -49c-48.667 -22 -111 -73.667 -187 -155c-18.667 -15.333 -41.667 -39.666 -69 -72.999c-1.33301 -6.66699 -2 -28.667 -2 -66
c-29.333 -6.66699 -46.666 -10 -51.999 -10c-9.33301 0 -21.833 8 -37.5 24s-23.5 29.333 -23.5 40c2.66699 3.33301 10.334 21.333 23.001 54c0 15.333 3.66699 34.666 11 57.999l46 82c18 29.333 40 52.333 66 69c149.333 94.667 333.666 142 552.999 142
c98.667 0 202.334 -8.66699 311.001 -26c140.667 -22.667 222 -52.667 244 -90c10.667 -2.66699 24.667 -11 42 -25c22 -36.667 33 -68.334 33 -95.001z" />
    <glyph glyph-name="seven" unicode="7" horiz-adv-x="1399" 
d="M1361 1295c0 -51.333 -23.002 -100.668 -69.002 -148.001l-114 -112c-89.333 -92 -163.333 -185.667 -222 -281c-13.333 -8.66699 -30.666 -23 -51.999 -43c-36.667 -63.333 -94 -154.666 -172 -273.999c-22.667 -45.333 -48 -93 -76 -143c-32 -58 -48 -107.667 -48 -149
c0 -12 1 -23.333 3 -34l-84 -111c-78.667 36 -118 74 -118 114c0 24 17.333 66 52 126c-0.666992 3.33301 -1 7 -1 11c0 12.667 2 30 6 52c18 39.333 66.333 125.666 145 258.999l100 168c22.667 40 82.667 114.333 180 223c88 98.667 153.667 178 197 238
c0 13.333 4.33301 31.666 13 54.999c-10.667 6.66699 -34.667 10 -72 10c-2.66699 0 -50 -7.66699 -142 -23l-142 -22c-2 0 -7.33301 1 -16 3s-14.667 3 -18 3c-2 0 -9.66699 -2.66699 -23 -8c-12.667 -5.33301 -19.667 -8 -21 -8c-2 0 -13 -2.66699 -33 -8
s-31.667 -8 -35 -8c-2 0 -7.66699 2.66699 -17 8s-15 8 -17 8c-8 0 -26.333 -5.33301 -55 -16l-59 -22c-83.333 -22.667 -163 -34 -239 -34c-36 0 -70 11.333 -102 34c-31.333 22.667 -47 47.334 -47 74.001c0 15.333 12.667 32.333 38 51c26 18 49 27 69 27
c2 0 8.33301 -3 19 -9c10.667 -5.33301 17 -8 19 -8s10 3.66699 24 11c12.667 6.66699 20 10 22 10v0h3c26.667 0 80.667 6 162 18c96.667 14.667 150.334 22.334 161.001 23.001c387.333 28.667 607 43 659 43c81.333 0 122 -36 122 -108z" />
    <glyph glyph-name="eight" unicode="8" horiz-adv-x="1653" 
d="M1615 1222c-14.667 -56.667 -22 -86.3379 -22 -89.0049l-31 -33c-16.667 -57.333 -67 -106.333 -151 -147l-198 -96c2 -12.667 47.667 -33.334 137 -62.001c28.667 -9.33301 62.667 -36.333 102 -81c39.333 -46 59 -81 59 -105
c-1.33301 -7.33301 -5.66602 -25.666 -12.999 -54.999c-8.66699 -29.333 -14 -51.333 -16 -66c-6 -44 -29 -84 -69 -120l-120 -90c-33.333 -13.333 -55.333 -23 -66 -29c-30 -17.333 -51.333 -40.666 -64 -69.999c-8.66699 0.666992 -16.667 1 -24 1
c-14.667 0 -25 -1.33301 -31 -4c-80.667 -36 -161.667 -69.333 -243 -100c-17.333 -2.66699 -60 -12.667 -128 -30c-57.333 -14.667 -90.666 -22 -99.999 -22c-10.667 0 -38.334 1.33301 -83.001 4l-83 5c-69.333 4 -127 18.333 -173 43
c-76.667 40.667 -131.667 77.334 -165 110.001c0 12 -4.66699 28 -14 48c-42 37.333 -63 97.666 -63 180.999c0 48 13.667 102 41 162s58 103 92 129c20.667 16.667 88.667 51.667 204 105v23c-66 24 -128.167 67.833 -186.5 131.5s-87.5 119.834 -87.5 168.501
c0 75.333 42 137 126 185c20.667 2 48 9.66699 82 23c32.667 30 80.667 71 144 123c22 14 68 29 138 45l28 20c2 0 17.5 3 46.5 9s44.833 9 47.5 9c2 0 9.83301 -1 23.5 -3s21.834 -3 24.501 -3c2 0 31 5.16699 87 15.5s84.667 15.5 86 15.5c2 0 16.5 -2.66699 43.5 -8
s41.833 -8 44.5 -8c1.33301 0 13.333 1 36 3c23.333 2.66699 36.666 4 39.999 4c46.667 0 123 -21 229 -63c106 -41.333 170 -75.666 192 -102.999c13.333 -15.333 29.666 -45.166 48.999 -89.499s29 -73.166 29 -86.499zM1466 1206
c0 35.333 -32.332 73.002 -96.999 113.002c-26.667 16.667 -89 49 -187 97c-17.333 3.33301 -36 6.66602 -56 9.99902c-54.667 7.33301 -87 11 -97 11v0l-86 5l-67 2h-13c-62 0 -140.667 -17 -236 -51c-32 -12 -60.333 -26 -85 -42
c-96.667 -62.667 -159 -176.334 -187 -341.001c14 -6 33.333 -15 58 -27c50 -31.333 105.667 -52 167 -62c41.333 -6 117 -9 227 -9c60.667 0 183 27 367 81c31.333 19.333 71.666 40 120.999 62c114 50 171 100.333 171 151zM1365 564.998
c0 46.667 -66.001 88.6689 -198.001 126.002c-102.667 29.333 -176 44 -220 44c-206.667 0 -363 -21.667 -469 -65c-66.667 -26.667 -124 -67.667 -172 -123c-48.667 -54.667 -73 -106.667 -73 -156c0 -24.667 0.333008 -38.334 1 -41.001c16 -24 41 -57 75 -99
c48.667 -38 121.334 -57 218.001 -57h101c98.667 0 236.667 35.333 414 106c215.333 85.333 323 173.666 323 264.999z" />
    <glyph glyph-name="nine" unicode="9" horiz-adv-x="1127" 
d="M1080 856c0 -2.66699 -6.33301 -16.3281 -19 -40.9951s-19 -38.334 -19 -41.001c0 -25.333 -10.333 -66 -31 -122c-72.667 -112.667 -134.667 -196.334 -186 -251.001c-33.333 -36 -74.666 -78 -123.999 -126c-36.667 -35.333 -106 -92.666 -208 -171.999
c-16.667 -13.333 -51.834 -30.666 -105.501 -51.999s-89.167 -32 -106.5 -32c-15.333 0 -31.333 5.66699 -48 17s-25 21.666 -25 30.999c0 7.33301 9 18.666 27 33.999l43 37l297 273c17.333 15.333 53 48.666 107 99.999c28 34.667 57 74.667 87 120
c-6 14 -20.667 21 -44 21c-7.33301 0 -41 -6 -101 -18c-20.667 0 -58 8 -112 24c-86 26 -147 47.333 -183 64c-70 30.667 -130 72 -180 124c-16.667 17.333 -35.167 54.666 -55.5 111.999s-30.5 101.666 -30.5 132.999c0 35.333 18.333 70.333 55 105
c105.333 100 280.666 150 525.999 150c120 0 232 -41.333 336 -124c22.667 -18 36.334 -42.333 41.001 -73c7.33301 -8 18 -18.333 32 -31l27 -66v-196zM901 977.006c0 78 -31.3311 129.999 -93.998 155.999c-58.667 23.333 -94 35 -106 35
c-122.667 0 -206 -4.33301 -250 -13c-38.667 -8.66699 -81.834 -29.667 -129.501 -63s-71.5 -60.666 -71.5 -81.999c0 -34 37.667 -75.333 113 -124c68.667 -44 119 -68.333 151 -73c69.333 -1.33301 134.666 -5.33301 195.999 -12c42 -4.66699 80.333 -22.667 115 -54
c13.333 18 28 41 44 69c21.333 81.333 32 135 32 161z" />
    <glyph glyph-name="colon" unicode=":" horiz-adv-x="542" 
d="M447 624c0 -83.333 -35.6689 -125 -107.002 -125c-27.333 0 -55.666 17.333 -84.999 52c-28.667 34.667 -43 67.334 -43 98.001c0 2 2 12.333 6 31c3.33301 17.333 5 27 5 29c6.66699 1.33301 18.334 5.66602 35.001 12.999c20 7.33301 36 11 48 11
c36 0 68.5 -11.333 97.5 -34s43.5 -47.667 43.5 -75zM369.998 49c-66.667 -32.667 -120.667 -49 -162 -49c-4.66699 0 -17.334 8 -38.001 24c-22 17.333 -34.333 26.333 -37 27c-14.667 34.667 -22 66 -22 94c0 14 7.33301 34.667 22 62c18 34 37.333 51 58 51
c72.667 -10.667 116.334 -16 131.001 -16c36 -34 54 -81.667 54 -143c0 -15.333 -2 -32 -6 -50z" />
    <glyph glyph-name="semicolon" unicode=";" horiz-adv-x="611" 
d="M544 515c0 -10.667 -4.66602 -38.001 -13.999 -82.001c-42.667 -23.333 -66.667 -35 -72 -35c-32.667 0 -59.334 3 -80.001 9l-59 120c0 52 32.667 92 98 120h40c16 -25.333 37 -47.666 63 -66.999c16 -11.333 24 -33 24 -65zM547.001 167.999
c0 -24.667 -21.666 -60.666 -64.999 -107.999c-134.667 -145.333 -243.334 -243 -326.001 -293c-60.667 -54.667 -105.667 -82 -135 -82c-26.667 0 -60.334 16 -101.001 48c17.333 30 45.333 71.333 84 124l131 128c14.667 14 38.334 46.333 71.001 97
c10.667 5.33301 24 14.333 40 27c21.333 27.333 60.333 74 117 140c20 23.333 45.667 35 77 35c0.666992 0 15 -7.83301 43 -23.5s44 -23.834 48 -24.501v0c0 -4 5.33301 -26.667 16 -68z" />
    <glyph glyph-name="less" unicode="&#x3c;" horiz-adv-x="1004" 
d="M1085 1017c0 -16.667 -1.00098 -28.001 -3.00098 -34.001c-44 -34.667 -177 -112.334 -399 -233.001c-191.333 -103.333 -287 -163.333 -287 -180c0 -6 56.667 -55.333 170 -148c152 -124.667 242.667 -200.667 272 -228c53.333 -48 80 -85.333 80 -112
c0 -72.667 -24 -109 -72 -109l-36 15.5c-24 10.333 -38.667 15.5 -44 15.5c-3.33301 0 -7.66602 -1.16699 -12.999 -3.5l-8 -3.5c-8.66699 0 -26 16 -52 48c-30.667 36.667 -53.667 61.334 -69 74.001c-94 81.333 -195.333 161.333 -304 240l-115 61
c-56.667 34.667 -95.667 69.334 -117 104.001c-14.667 24 -22 66.667 -22 128v5c68 30.667 124.667 58.667 170 84l367 201c56.667 30 125 71.667 205 125c84 55.333 129.667 83 137 83c32 0 63.333 -14.667 94 -44s46 -59 46 -89z" />
    <glyph glyph-name="equal" unicode="=" horiz-adv-x="1116" 
d="M1106 606c0 -96.667 -256.666 -145 -769.999 -145c-104 0 -156 39 -156 117c0 42.667 6 70 18 82c12 12.667 39.667 19 83 19c49.333 0 111.666 -1 186.999 -3l191 -5c1.33301 0 9.5 2.83301 24.5 8.5s23.833 8.5 26.5 8.5c2 0 9.33301 -3 22 -9
c13.333 -5.33301 21.333 -8 24 -8c2 0 15.167 2.83301 39.5 8.5s37.833 8.5 40.5 8.5c14 0 64.667 -4.33301 152 -13c22 -6.66699 57.333 -16.667 106 -30c8 -5.33301 12 -18.333 12 -39zM1070 315c0 -48.667 -67.001 -85.667 -201.001 -111
c-35.333 -5.33301 -112.666 -18.333 -231.999 -39c-26.667 -14 -64.667 -23 -114 -27c-7.33301 -0.666992 -15.666 -1 -24.999 -1c-25.333 0 -58.333 1.66699 -99 5l-73 5c-165.333 10.667 -248 56.334 -248 137.001c0 48.667 13.667 76.667 41 84
c124 7.33301 186 11.666 186 12.999h-3c2.66699 0 20 -2.66699 52 -8s49 -8 51 -8l382 39l70 -5c29.333 -1.33301 58.666 -2.33301 87.999 -3c34 -4 62 -13.333 84 -28c27.333 -18 41 -35.667 41 -53z" />
    <glyph glyph-name="greater" unicode="&#x3e;" horiz-adv-x="991" 
d="M959 560c0 -26 -73.998 -83 -221.998 -171c-14 -4 -32 -11 -54 -21c-143.333 -74 -268.333 -154.333 -375 -241c-6.66699 -16 -20.334 -37 -41.001 -63c-76 -65.333 -119.667 -98 -131 -98c-14.667 0 -35.334 3 -62.001 9c-7.33301 2.66699 -17.333 17.5 -30 44.5
s-19 47.5 -19 61.5c0 11.333 12.667 35.833 38 73.5s45 62.167 59 73.5c56 46 126 100.333 210 163c16 12 81 47.333 195 106c64.667 33.333 120 72 166 116c-52.667 55.333 -133.667 136 -243 242c-20 10 -42.667 25.333 -68 46c-12.667 14 -62 61.333 -148 142
c-37.333 34.667 -56 78.667 -56 132c0 61.333 17 92 51 92c29.333 0 112.333 -64.333 249 -193l322 -311c28 -18.667 67.333 -48.667 118 -90c27.333 -28 41 -65.667 41 -113z" />
    <glyph glyph-name="question" unicode="?" horiz-adv-x="1234" 
d="M1205 1435c0 -110 -76 -216.667 -228 -320l-425 -237c-150.667 -83.333 -226 -157.666 -226 -222.999c0 -20 4.66699 -40 14 -60c2.66699 -4.66699 4 -24.334 4 -59.001c-8 -6.66699 -23 -10 -45 -10c-53.333 0 -93.666 27.333 -120.999 82
c-19.333 37.333 -29 74 -29 110c0 54 7 96.667 21 128c17.333 38.667 61.333 78.334 132 119.001l315 177l30 5l195 124c116 76 174 129.667 174 161c0 34 -30 54 -90 60h-122c-4 0 -15 -2 -33 -6s-27.667 -6.33301 -29 -7c-100.667 -6 -175 -18.333 -223 -37
c-30.667 -12.667 -90.334 -39.667 -179.001 -81c-73.333 -34.667 -114 -52 -122 -52c-24 0 -47.667 10 -71 30c-24 20.667 -36 39.667 -36 57v0l11 95l254 111c20.667 9.33301 95 27 223 53c128 26.667 203.333 40 226 40c88 0 144.667 -4 170 -12
c140 -44.667 210 -127.334 210 -248.001zM457 143c-12.667 -10.667 -25.999 -41 -39.999 -91c-11.333 -38.667 -30.333 -58 -57 -58c-1.33301 2 -15 9 -41 21l-56 4c-34 25.333 -51 46.333 -51 63c0 52.667 11.667 97 35 133l108 12c7.33301 0 22 -11 44 -33
c27.333 -26 46.666 -43 57.999 -51z" />
    <glyph glyph-name="at" unicode="@" horiz-adv-x="1660" 
d="M1583 722c0 -22.667 -6.00293 -49.999 -18.0029 -81.999v-10c0 -16 -1.66699 -37.333 -5 -64c-20 -54 -54.333 -98.667 -103 -134c-49.333 -36.667 -103 -55 -161 -55c-60 0 -125.667 17.667 -197 53c-58 28.667 -87 45.667 -87 51c0.666992 0.666992 2 1 4 1
c0.666992 0 1 -0.333008 1 -1c0 -2 -49.333 -17.667 -148 -47c-109.333 -32.667 -175.666 -49 -198.999 -49c-41.333 0 -69.333 4 -84 12c-30 16 -54 50.333 -72 103c-16.667 47.333 -25 83.333 -25 108c0 43.333 28 97.666 84 162.999v28c-14 -4 -33.667 -11 -59 -21
c-23.333 -12.667 -53.333 -32.667 -90 -60c-76.667 -85.333 -120 -135 -130 -149c-32 -46.667 -48 -98.334 -48 -155.001c0 -47.333 8.5 -82.166 25.5 -104.499s60.167 -55.5 129.5 -99.5c44.667 -28 123.334 -42 236.001 -42c2.66699 0 53.5 9.5 152.5 28.5
s149.833 28.5 152.5 28.5l18.5 -4c12.333 -2.66699 20.5 -4 24.5 -4c2 0 26 5.33301 72 16s70 16 72 16c40 0 60 -17.333 60 -52c0 -28 -16.667 -52 -50 -72c-21.333 -12.667 -66.333 -31 -135 -55c-58 -20.667 -92.333 -31 -103 -31c-2 0 -14.333 -1.5 -37 -4.5
s-35.667 -4.5 -39 -4.5c-0.666992 0 -40.667 -2.66699 -120 -8l-119 -8c-15.333 -0.666992 -30.666 -1 -45.999 -1c-134.667 0 -249 38 -343 114c-92 74.667 -138 179.667 -138 315c0 8.66699 8 40 24 94c0.666992 20 5.66699 47.667 15 83
c50 84.667 125 175.334 225 272.001c22.667 21.333 100 63.333 232 126c16.667 11.333 42.334 25.333 77.001 42l176 57c96 41.333 240.333 62 433 62c46 -12.667 81.667 -25.334 107 -38.001c69.333 -34 121 -79 155 -135c0.666992 -4.66699 3 -18 7 -40
c7.33301 -9.33301 17.666 -20.333 30.999 -33c26 -141.333 40 -212 42 -212v2zM1432 805.001c0 59.333 -25.001 106.499 -75.001 141.499s-116.667 52.5 -200 52.5c-120 0 -221.333 -28.333 -304 -85c162 -14 266.667 -60.333 314 -139
c22.667 -37.333 35.334 -68.666 38.001 -93.999c-15.333 -14 -23 -32 -23 -54c0 -36.667 17 -55 51 -55c60 0 108.167 21.333 144.5 64s54.5 99 54.5 169zM935.996 705l-22.499 6.00098c-15 4 -24.833 6 -29.5 6c-30.667 0 -80.334 -19.667 -149.001 -59
c-2 -8.66699 -6.33301 -20.334 -13 -35.001c6 -0.666992 12.333 -1 19 -1c24.667 0 59.667 11.667 105 35z" />
    <glyph glyph-name="A" unicode="A" horiz-adv-x="1674" 
d="M1590 347c0 -53.333 -32.334 -79.999 -97.001 -79.999h-80c-5.33301 0 -25.666 12 -60.999 36c-40.667 26.667 -65 41.334 -73 44.001c-79.333 34 -160 59 -242 75c-188 37.333 -338.333 56 -451 56c-12 0 -24 -5 -36 -15l-19 15c-56 -3.33301 -107 -53 -153 -149
c-18.667 -20 -43 -49.667 -73 -89c-2.66699 -14 -7.33398 -32 -14.001 -54c-6.66699 -14.667 -19 -36.334 -37 -65.001l-121 -102l-70 44c-25.333 20 -38 44 -38 72c0 44 4 72 12 84l72 79c34 40 60.667 80 80 120c1.33301 2.66699 2 5.66699 2 9
c0 -2.66699 -0.333008 -4 -1 -4c-2 0 -7 22.667 -15 68c-1.33301 6 -2 11.333 -2 16c0 19.333 7.33301 34.666 22 45.999l76 34c48 22 78.333 42.667 91 62c3.33301 2.66699 31 47.667 83 135c16 14 37.667 36.667 65 68l294 473c2.66699 12.667 7.66699 30.334 15 53.001
l133 224c0 10 1.66699 25 5 45l70 96c18.667 6.66699 28 10.667 28 12h-1c58.667 0 105 -51 139 -153c0 -0.666992 17 -53.334 51 -158.001c22.667 -70 44.334 -142.667 65.001 -218c21.333 -138.667 44.333 -261.667 69 -369c20 -86.667 62.667 -206.667 128 -360
c8 -11.333 24.333 -36.333 49 -75c23.333 -36.667 35 -61.667 35 -75zM1251 601.001c0 3.33301 -7.99805 21.6689 -23.998 55.002l-26 53c-20.667 93.333 -45.667 215.666 -75 366.999c-2.66699 4.66699 -7 9.66699 -13 15c0 24.667 -1.66699 57 -5 97
c-3.33301 18 -10 50.667 -20 98c-8.66699 36.667 -28.334 67.667 -59.001 93c-28 -36 -62.333 -102.333 -103 -199c-4.66699 -18.667 -17.334 -39.334 -38.001 -62.001l-52 -56c-30 -59.333 -72.333 -134.333 -127 -225c-10.667 -8 -23.667 -20.667 -39 -38
c-4.66699 -12.667 -25.334 -55.667 -62.001 -129c4 -3.33301 60.667 -13.333 170 -30c78.667 -4 191.334 -16 338.001 -36c41.333 -18 71 -27 89 -27h36c6.66699 12 10 20 10 24z" />
    <glyph glyph-name="B" unicode="B" horiz-adv-x="2075" 
d="M2006 586c0 -25.333 -10.332 -53.334 -30.999 -84.001c-17.333 -11.333 -40.333 -30 -69 -56c-9.33301 -16 -23 -35 -41 -57c-181.333 -109.333 -291.333 -164 -330 -164c-6.66699 0 -16.334 5.66699 -29.001 17l-24 -24c-16 -16 -26.333 -24 -31 -24s-9.5 1.5 -14.5 4.5
s-7.83301 4.5 -8.5 4.5c-8 0 -18.333 -10.667 -31 -32h-81l18 18c-8.66699 9.33301 -24 14 -46 14c-17.333 0 -36.333 -5 -57 -15c2 -1.33301 11 -9 27 -23c-68.667 -39.333 -113.667 -59 -135 -59c-1.33301 0 -6 1.33301 -14 4c-9.33301 2.66699 -15.333 4 -18 4
c-2 0 -15.667 -5.66699 -41 -17c-26 -10.667 -40 -16 -42 -16c-24.667 0 -40.667 8.33301 -48 25c-22 -16.667 -34.667 -25 -38 -25c-1.33301 0 -6.33301 1.5 -15 4.5s-14.334 4.5 -17.001 4.5c-24.667 0 -37 -10 -37 -30c0 -4 1.33301 -9.66699 4 -17l-476 -106
c-60 14.667 -93.333 23.334 -100 26.001c-34.667 12.667 -57.667 33 -69 61c1.33301 8 2 17.333 2 28c0 21.333 -1.66699 48 -5 80c-21.333 78 -32 180.667 -32 308c0 2 -1.83301 16.833 -5.5 44.5s-5.5 42.5 -5.5 44.5c0 58 7 136 21 234c0 8 -2.33301 18.667 -7 32
c7.33301 28.667 18 94.667 32 198c13.333 97.333 20 152 20 164c0 19.333 -6 37.333 -18 54c-22 -6 -48 -9 -78 -9c-74 0 -111 36 -111 108c0 43.333 11.333 71 34 83c100.667 58 265 124.667 493 200c16 2 37.333 4.33301 64 7c326 90 607.667 135 845 135
c0.666992 0 12.334 -2.5 35.001 -7.5s35.667 -7.5 39 -7.5c76 0 172.667 -34.333 290 -103c46 -70 69 -118.667 69 -146c0 -84.667 -44.667 -166.334 -134 -245.001c-40 -35.333 -141.667 -104 -305 -206c0 -12 15.333 -20.333 46 -25c52 -8 79.667 -12.667 83 -14
c21.333 -10.667 33 -17.667 35 -21c3.33301 0 7.33301 1.66699 12 5c5.33301 2 9 3 11 3c8.66699 0 20.667 -4.33301 36 -13c56 -8.66699 119.833 -44.167 191.5 -106.5s113.5 -120.166 125.5 -173.499c7.33301 -34 11 -63.667 11 -89zM1670 1460
c0 18.667 -31.667 36.667 -95 54c-49.333 12.667 -89.333 19 -120 19c-306.667 0 -658.667 -78.667 -1056 -236c6 -24.667 15 -58.334 27 -101.001c12.667 -44.667 19 -69.667 19 -75c-7.33301 -40 -11 -62.333 -11 -67v-1c0 -4 -2.33301 -30 -7 -78v-12
c0 -22 6.66699 -39 20 -51h31v0c6 0 37 8.66699 93 26c42.667 13.333 83.334 24.333 122.001 33l49 27c14 0 32.667 2 56 6c177.333 61.333 290.666 102 339.999 122c133.333 53.333 253.333 115 360 185c114.667 74.667 172 124.334 172 149.001zM1503 272.999
l-37 0.00195312c-0.666992 -0.666992 -1 -1.33398 -1 -2.00098c0 -4.66699 8 -14.334 24 -29.001c0 12.667 4.66699 23 14 31zM1764 647.001c0 101.333 -188.67 152 -566.003 152c-2.66699 0 -26.5 -6.5 -71.5 -19.5s-68.5 -19.5 -70.5 -19.5
c-5.33301 0 -76.666 -12.667 -213.999 -38c-78 -15.333 -143.667 -23 -197 -23c-1.33301 0 -11.666 -2 -30.999 -6c-18.667 -4.66699 -29 -7 -31 -7c-13.333 2 -37.666 7 -72.999 15c-30 6 -56.333 9 -79 9c-6.66699 0 -13 -0.333008 -19 -1
c-4.66699 -27.333 -12.334 -65.333 -23.001 -114v-350c13.333 -50 35.333 -75 66 -75c8.66699 0 44 8.33301 106 25c74.667 20 122.334 32 143.001 36c268 52 545.667 131.667 833 239l47 36c120 51.333 180 98.333 180 141zM1146 114.001l-9.99902 39
c-10.667 -4 -22.334 -10 -35.001 -18c4.66699 -6.66699 8 -13.667 10 -21h35z" />
    <glyph glyph-name="C" unicode="C" horiz-adv-x="2142" 
d="M2110 199c-10 -8.66699 -26.668 -20.001 -50.001 -34.001c-241.333 -70 -409.666 -105 -504.999 -105c-2 0 -12.333 2 -31 6c-18.667 4.66699 -29 7 -31 7c-1.33301 0 -14 -4.66699 -38 -14s-37.667 -14 -41 -14c-46 -1.33301 -138.667 -6 -278 -14
c-24.667 -8.66699 -40.667 -13 -48 -13c-2.66699 0 -9.33398 2.66699 -20.001 8s-16.667 8 -18 8c-4 0 -16 -3.66699 -36 -11s-30.333 -11 -31 -11c-8 -1.33301 -37.333 -2 -88 -2c-58.667 0 -127.334 8.66699 -206.001 26c-41.333 9.33301 -108.333 23.333 -201 42
c-36 6 -54 20.667 -54 44v3c-61.333 23.333 -105.666 45.333 -132.999 66c-97.333 73.333 -178.666 164 -243.999 272c0 20 -1.66699 47.333 -5 82c-8 32 -13 49 -15 51c-0.666992 -0.666992 -1 -2.66699 -1 -6c0 43.333 19.667 110 59 200
c17.333 40 67.666 98.333 150.999 175c112 103.333 214 176 306 218c298 136.667 532.333 222.334 703 257.001c13.333 6 38.333 14.333 75 25l316 47c1.33301 0 18.333 5 51 15s50.334 15 53.001 15c36 0 69 -12 99 -36s45 -50.667 45 -80
c0 -18.667 -7.66699 -40.667 -23 -66c-12.667 -10.667 -31 -21.667 -55 -33c-53.333 -1.33301 -133.666 -9 -240.999 -23c-36.667 -12.667 -74.334 -24 -113.001 -34l-277 -66c-134 -32.667 -333.667 -123.334 -599 -272.001c-42 -22.667 -82.667 -46 -122 -70
c-74.667 -46 -133.334 -117 -176.001 -213c-6.66699 -16 -10 -52.667 -10 -110c0 -64.667 39 -124.334 117 -179.001c68.667 -48.667 144 -80.667 226 -96c7.33301 -1.33301 33.833 -7.66602 79.5 -18.999s69.834 -17 72.501 -17l57 4c37.333 2.66699 64.333 4 81 4
c6.66699 0 28.667 -3 66 -9l58 -8l90 13c56 8.66699 93.333 13.334 112 14.001l821 54h4c24 0 38.667 -11 44 -33c0.666992 -3.33301 2 -26 4 -68z" />
    <glyph glyph-name="D" unicode="D" horiz-adv-x="2171" 
d="M1776 437c-4 0 -12 -5.00098 -24 -15.001c0 -3.33301 2.66699 -5.66602 8 -6.99902h-42c36.667 16.667 55 26.667 55 30h-4zM2279 1028l-0.000976562 5.99805c-1.33301 0 -6 -47.667 -14 -143l-22 -24c2.66699 -3.33301 4 -7 4 -11c0 -48.667 -28.667 -97 -86 -145
l-27 -14c-12 -7.33301 -18 -13.666 -18 -18.999c0 5.33301 -6.66699 13.333 -20 24c-16.667 -10.667 -36.667 -25.334 -60 -44.001c6.66699 -4 15.667 -8.66699 27.001 -14c0 -4.66699 -14.333 -20 -43 -46c0 -1.33301 -0.333008 -2 -1 -2
c-4.66699 3.33301 -13.334 15 -26.001 35h-26l-89 -78c8 -8 17.333 -12 28 -12c11.333 0 19 2.33301 23 7c-23.333 -40.667 -47.666 -62 -72.999 -64c-2.66699 4 -8.33398 11 -17.001 21c6.66699 2 16 7.33301 28 16v23c-2.66699 4 -8.66699 6 -18 6l-350 -185
c-2 0 -5.33301 1 -10 3c-4 2.66699 -7 4 -9 4c-4.66699 -1.33301 -13 -6.33301 -25 -15l-236 -79c-86.667 -28.667 -144.334 -60.667 -173.001 -96c10 -8 20.667 -12 32 -12c4 0 25 6 63 18c38 10.667 59.333 16 64 16c11.333 0 23 -1.66699 35 -5l-235 -100
c-12.667 0 -31.667 -1.66699 -57 -5c-68.667 -26 -137.334 -48.333 -206.001 -67c-215.333 -60 -372.666 -90 -471.999 -90c-16.667 0 -42.334 8.66699 -77.001 26c-36 18 -60.333 35 -73 51c-12.667 16.667 -19 39 -19 67c0 29.333 30 56 90 80c2 0 6 -1 12 -3
c5.33301 -3.33301 9 -5 11 -5c10 0 23.333 5 40 15c64 6.66699 113 13.334 147 20.001c52 10 92.667 21.333 122 34c-32 268.667 -48 423.334 -48 464.001v2c0.666992 6.66699 7.33398 68.334 20.001 185.001c16 147.333 24.667 244.666 26 291.999
c1.33301 8.66699 6.66602 19.667 15.999 33c-3.33301 8 -5 16.667 -5 26c0 6.66699 0.666992 14 2 22c0 4 13 55.333 39 154c8.66699 2 20 7.33301 34 16c-18 12.667 -34 19 -48 19c-3.33301 0 -75.666 -16 -216.999 -48l-216 -48c-18 0 -40.333 14.667 -67 44
c-22.667 25.333 -34 42.666 -34 51.999c0 34 26.333 65.667 79 95c20.667 11.333 86.334 32.333 197.001 63c148.667 40.667 256.334 61 323.001 61h707c0.666992 0 21 -5 61 -15s63.333 -15.333 70 -16c58.667 -4.66699 115.334 -11.667 170.001 -21
c107.333 -19.333 221.666 -67.666 342.999 -144.999c128 -82 208.333 -163 241 -243c9.33301 -18 21.333 -47 36 -87c18 -53.333 27 -86.333 27 -99zM1690 390.997c-0.666992 0 -15.332 -6.33398 -43.999 -19.001c-25.333 -11.333 -40.333 -17 -45 -17
c-30.667 0 -48.334 -1.66699 -53.001 -5c6 -4 16 -6 30 -6c-22 -14 -66.667 -31.667 -134 -53c10.667 32.667 44 57.334 100 74.001l122 39c9.33301 -8.66699 17.333 -13 24 -13zM1417 281.996c0 -4.66699 -17.333 -12.667 -52 -24v32zM1285 224.996v-2
c0 -4 -10.667 -10.667 -32 -20c0 14.667 10.667 22 32 22zM2082 988.996c-8 68 -12 102.332 -12 102.999c-4.66699 2 -8 5.66699 -10 11c-14.667 63.333 -73 132.333 -175 207c-64.667 46.667 -133.667 79.334 -207 98.001c-108 27.333 -286 49 -534 65
c-22 8 -34.667 12 -38 12c-9.33301 0 -22.333 -5 -39 -15c-126 0 -260 -9.33301 -402 -28c0 -17.333 6 -34.666 18 -51.999c13.333 -10 27.333 -23 42 -39c14 -45.333 21 -85 21 -119v-6c-0.666992 -13.333 -7.66699 -74.333 -21 -183c-16 -130 -25.333 -220.667 -28 -272
l-15 -323c0 -5.33301 9.33301 -63 28 -173c16.667 -5.33301 27.334 -8 32.001 -8c35.333 0 174.666 45.667 417.999 137c208.667 77.333 353.334 135 434.001 173c139.333 65.333 272.666 155.333 399.999 270c58.667 53.333 88 100.666 88 141.999zM907.001 124.995
c-2 0 -10.667 2.33301 -26 7c-15.333 3.33301 -24 5 -26 5c-22 0 -33 -7.66699 -33 -23c39.333 7.33301 66.333 11 81 11h4z" />
    <glyph glyph-name="E" unicode="E" horiz-adv-x="2012" 
d="M2016 1452c-39.333 -18.667 -71.333 -28.002 -96 -28.002c4 0 6 -0.333008 6 -1c-6 -3.33301 -26.333 -8.33301 -61 -15h2c-8 2 -34.333 3 -79 3c-0.666992 0 -9.33398 -3 -26.001 -9s-26.334 -9 -29.001 -9c-55.333 -3.33301 -129.666 -12 -222.999 -26l-283 -42
c-1.33301 0 -7.16602 1.33301 -17.499 4s-17.166 4 -20.499 4h1c0 -2.66699 -192.333 -35.667 -577 -99c-53.333 -65.333 -90.333 -181.333 -111 -348c24 -14 54 -21 90 -21c2 0 11.667 2.66699 29 8c16.667 6 26 9 28 9c0.666992 0 15.334 -4.66699 44.001 -14
c100.667 0 264.334 3.33301 491.001 10l309 10h6c26.667 0 41.667 -6.66699 45 -20l16 -75c-36 -25.333 -109.333 -51.666 -220 -78.999c-94.667 -23.333 -227.334 -35 -398.001 -35c-111.333 0 -271.333 -14 -480 -42c-24 -3.33301 -39 -19 -45 -47l-12 -52
c-46 -116.667 -69 -194 -69 -232v-46c9.33301 -2.66699 19.666 -5.33398 30.999 -8.00098l769 105c15.333 0 60.666 2 135.999 6l16 2l115 8c6.66699 0 17.334 -4.66699 32.001 -14c13.333 -1.33301 62.666 -2 147.999 -2c2.66699 0 21.667 2.66699 57 8s53.666 8 54.999 8
c38.667 0 82.334 -9.33301 131.001 -28c12 -41.333 19.333 -63 22 -65c0.666992 0.666992 1 2 1 4c0 -21.333 -13.5 -43 -40.5 -65s-52.167 -33 -75.5 -33c-1.33301 0 -9.66602 1.66699 -24.999 5c-14.667 2.66699 -24 4 -28 4c-1.33301 0 -17 -4.83301 -47 -14.5
s-46.333 -14.834 -49 -15.501l-421 -36c-91.333 -8 -257 -31 -497 -69l-316 -50c-13.333 0 -62 10 -146 30c-78.667 18 -126.667 27 -144 27h-3c-8 23.333 -12 36.333 -12 39c0 3.33301 14.667 48.333 44 135c32 96 53.333 163 64 201l53 185
c-0.666992 -0.666992 -1.33398 -1 -2.00098 -1c-3.33301 0 -18 21.667 -44 65c-0.666992 15.333 -7.66699 39.333 -21 72c34.667 21.333 77.334 54.333 128.001 99c9.33301 13.333 33.666 91.666 72.999 234.999v-3c-2 4.66699 -3 21.334 -3 50.001l14 16
c8 8.66699 12 16.334 12 23.001c0 12.667 -13.667 26.334 -41 41.001c-25.333 13.333 -47 20 -65 20h-5c-13.333 48 -20 81.333 -20 100c0 34.667 19.667 59.334 59 74.001c80 29.333 180.333 44 301 44c2.66699 0 7 -1.66699 13 -5c5.33301 -2.66699 8.33301 -4 9 -4
c2.66699 0 23 7.33301 61 22c162.667 7.33301 376.667 19 642 35l401 24h1c18 0 73 -18.333 165 -55c6.66699 -2 31 -3 73 -3c25.333 -2 45 -10 59 -24z" />
    <glyph glyph-name="F" unicode="F" horiz-adv-x="1348" 
d="M1815 1330c-4.66699 -36 -6.99609 -54.999 -6.99609 -56.999c-94.667 8 -234 12 -418 12c-1.33301 0 -9 -2.66699 -23 -8c-13.333 -6 -21.666 -9 -24.999 -9c-1.33301 0 -11.333 1.66699 -30 5c-18 2.66699 -28.667 4 -32 4c2 0 3 -0.333008 3 -1
s-20.667 -5.33398 -62 -14.001c-32 -6.66699 -115.667 -16 -251 -28c-2.66699 0 -15.834 -3.33301 -39.501 -10s-37.167 -10 -40.5 -10c-2.66699 0 -10 1 -22 3s-19.333 3 -22 3c-18.667 -4 -99.334 -26.667 -242.001 -68c-12.667 -4 -29 -29.333 -49 -76l-21 -78
c-22.667 -54.667 -45.667 -116.334 -69 -185.001v-54c22.667 -1.33301 47.667 -2 75 -2c88.667 0 200 8.66699 334 26c66 8.66699 205.333 17.667 418 27l18 -17c20.667 11.333 38.667 17 54 17h-1c0 -2 14 -10.667 42 -26v-28c0 -9.33301 -6.66699 -31 -20 -65
c-28.667 -3.33301 -80.334 -10.333 -155.001 -21c-105.333 -16.667 -158 -26.667 -158 -30h8c-3.33301 0 -10 1 -20 3c-10 2.66699 -16 4 -18 4c-3.33301 0 -13.333 -6 -30 -18c-16 -12.667 -24.333 -19.334 -25 -20.001c-11.333 -3.33301 -111.333 -19.666 -300 -48.999
c-12.667 -2 -35 -6.66699 -67 -14c-29.333 -6.66699 -46.333 -10 -51 -10c-24.667 0 -72.334 -2 -143.001 -6c-13.333 -4.66699 -27.333 -15.667 -42 -33l-37 -290c0.666992 -7.33301 1 -16 1 -26c0 -20.667 -0.666992 -47.334 -2 -80.001
c-2.66699 -60.667 -23.334 -91 -62.001 -91c-4.66699 1.33301 -14.667 5.33301 -30 12c-58.667 9.33301 -103 27.333 -133 54l56 453l-149 80c8.66699 22 20.334 49.333 35.001 82c19.333 45.333 43.333 68 72 68c0.666992 0 8.33398 -1 23.001 -3c15.333 -2 25 -3 29 -3
c35.333 0 59.666 20 72.999 60c4.66699 28 8.33398 54.667 11.001 80c20.667 76.667 42.334 141 65.001 193c-4.66699 6.66699 -35.334 23.334 -92.001 50.001c-44.667 20 -67 49.333 -67 88c0 36.667 19.333 63.334 58 80.001c42.667 7.33301 102 20.333 178 39l47 27
c30 17.333 48 26 54 26c13.333 0 27.666 -4.66699 42.999 -14c0.666992 0 9.33398 1 26.001 3c15.333 2 24.666 3 27.999 3l516 59c82 0 124.333 -1 127 -3c-12 -4.66699 -23.667 -7 -35 -7c2 0 17 2.66699 45 8s43.333 8 46 8c1.33301 0 11 -1 29 -3s28.667 -3 32 -3
c2.66699 0 12 2.5 28 7.5s25 7.5 27 7.5c76 0 114 1 114 3h-2c-19.333 1.33301 -32 2 -38 2c53.333 0 141.666 -14.333 264.999 -43c33.333 -30.667 50 -62 50 -94z" />
    <glyph glyph-name="G" unicode="G" horiz-adv-x="2228" 
d="M2224 446c0 -6 -5.67578 -15.6699 -17.0088 -29.0029c0 -22.667 -5.66699 -52 -17 -88c-73.333 -88.667 -176 -150 -308 -184c-20 -5.33301 -131.333 -33 -334 -83c-16 0 -41.333 -2 -76 -6c-33.333 -14 -52.666 -21 -57.999 -21c-2 0 -10.333 2.66699 -25 8
s-22.667 8 -24 8h3c-6 -4 -27.667 -11 -65 -21c-81.333 -23.333 -151.666 -35 -210.999 -35c-280 0 -518.667 60.333 -716 181l-205 153c-96.667 146 -145 232.333 -145 259c0 85.333 14.333 164.333 43 237c20 50 63 132 129 246c70.667 87.333 130 149 178 185
c88.667 68 197.667 141.333 327 220c36.667 10.667 92.334 28.667 167.001 54c29.333 14.667 76.333 34.667 141 60c238.667 55.333 373 83 403 83c3.33301 0 12.666 -2.66699 27.999 -8s23.333 -8 24 -8c2 0 8.83301 1.33301 20.5 4s18.834 4 21.501 4
c89.333 0 134 -38 134 -114c0 -69.333 -19.667 -104 -59 -104c-2 0 -29 3.83301 -81 11.5s-80 11.5 -84 11.5c-35.333 0 -97.666 -12.667 -186.999 -38c-35.333 -4 -89 -13.667 -161 -29c-15.333 -10.667 -40.333 -24.667 -75 -42c-127.333 -42.667 -258 -110.667 -392 -204
c-165.333 -115.333 -271.333 -232.666 -318 -351.999c-41.333 -62.667 -62 -123 -62 -181c0 -44 24.667 -94.167 74 -150.5s105 -98.5 167 -126.5c20.667 -18 54.334 -38 101.001 -60c16 -3.33301 73.333 -17 172 -41c70 -16.667 126.667 -25 170 -25h139
c70.667 0 192.334 15.333 365.001 46c152.667 27.333 240.334 45 263.001 53l175 63c72 25.333 120.667 51.333 146 78c14 14.667 21 39.667 21 75c0 22.667 -10.167 49.834 -30.5 81.501s-42.166 53.834 -65.499 66.501c-35.333 24 -89 52 -161 84
c-46 10.667 -126.333 17.667 -241 21c-2.66699 10.667 -13 22 -31 34l-208 11h5c0 -1.33301 -49.333 -7.33301 -148 -18c-18.667 -2 -38 -12 -58 -30c-21.333 18 -32 39.333 -32 64c0 16.667 10.667 31.667 32 45c38.667 23.333 69.334 37.333 92.001 42
c135.333 24.667 251.333 37 348 37c22 0 42.667 -0.666992 62 -2c2 0 15 2.5 39 7.5s37.333 7.5 40 7.5c68.667 -20.667 105.667 -31 111 -31h4c98.667 0 188.667 -33.333 270 -100c120 -98 180 -234.667 180 -410z" />
    <glyph glyph-name="H" unicode="H" horiz-adv-x="1642" 
d="M1790 1369c0 -32 -19.6689 -75.999 -59.002 -131.999c-98 -140.667 -161.333 -349.334 -190 -626.001l-35 -300c-8.66699 -80 -15 -157.667 -19 -233c-2.66699 0 -6.66699 -3 -12 -9c-2 -24 -3.66699 -47.333 -5 -70c-5.33301 -24 -15 -43.667 -29 -59
c-20 -6.66699 -32.667 -10 -38 -10c-22 0 -50.667 24.667 -86 74c-9.33301 13.333 -14 34.333 -14 63v19l39 605c-3.33301 1.33301 -9.66602 2 -18.999 2c-4.66699 0 -22 -6.66699 -52 -20l-55 -25c-136.667 -34 -272.667 -51 -408 -51c-0.666992 0 -21 1.33301 -61 4
c-39.333 3.33301 -60.666 5 -63.999 5s-41 -3.66699 -113 -11l-112 -12l-41 3c-28 2.66699 -43.667 4 -47 4c-61.333 0 -94.666 -4.33301 -99.999 -13c-32 -53.333 -48 -113.333 -48 -180c0 -6 0.333008 -12.333 1 -19c0.666992 -14 1 -27.667 1 -41
c0 -89.333 -14.667 -147 -44 -173c-91.333 11.333 -137 102.333 -137 273c0 108 7 201.333 21 280c8.66699 48.667 27 121.334 55 218.001c22.667 30.667 52.667 79 90 145c22 58 38.333 97.333 49 118c18.667 40 35.667 66.333 51 79c12 -12 38.333 -18 79 -18l29 -159
c0 -2.66699 -17.333 -41.334 -52 -116.001s-52 -112.667 -52 -114v-54c17.333 -6 44.666 -10.667 81.999 -14c4.66699 -0.666992 11 -1 19 -1c13.333 0 31.666 1 54.999 3c42 2.66699 63.667 4 65 4c7.33301 0 17 -2 29 -6l27 -9c17.333 -0.666992 96.666 -1 237.999 -1
c86 8.66699 137.667 13 155 13c11.333 0 39.333 -0.333008 84 -1l115 -2l132 -1c45.333 0 73 38.667 83 116c2.66699 22 6.33398 54.333 11.001 97c7.33301 50 20.333 101.333 39 154c32.667 88.667 76.667 172.334 132 251.001c12.667 18 34.834 40.5 66.501 67.5
s52.167 40.5 61.5 40.5c6 -2 20 -9 42 -21c27.333 -58.667 41 -104.334 41 -137.001z" />
    <glyph glyph-name="I" unicode="I" horiz-adv-x="450" 
d="M437 1355c0 -12.667 -14.999 -91.332 -44.999 -235.999c-32.667 -155.333 -59.334 -266 -80.001 -332c-0.666992 -8.66699 -9.66699 -62.334 -27 -161.001c-26.667 -155.333 -62.667 -341 -108 -557l-49 -35c-12.667 10 -28.667 24.667 -48 44c-14 24 -21 99 -21 225
c0 526.667 53 882 159 1066c57.333 98 104 147 140 147c52.667 0 79 -53.667 79 -161z" />
    <glyph glyph-name="J" unicode="J" horiz-adv-x="1607" 
d="M1511 850c0 -36.667 -6.00098 -62.6709 -18.001 -78.0039c8.66699 -32.667 13 -66.667 13 -102c0 -39.333 -21.333 -150.666 -64 -333.999c-18.667 -77.333 -56 -145.333 -112 -204c-84 -86 -222.667 -129 -416 -129c-190 0 -367.333 41.333 -532 124
c-90.667 45.333 -183.334 115 -278.001 209c-40.667 40 -61 81.667 -61 125c0 20 19.333 47 58 81h34c20.667 -40 46 -69 76 -87c27.333 -12 70.333 -32.333 129 -61c46.667 -29.333 118.334 -65.666 215.001 -108.999c88.667 -26.667 161.667 -40 219 -40h19
c4 0 16.667 0.666992 38 2c21.333 0 53 0.666992 95 2l134 3c28 0.666992 62.333 19.334 103 56.001c13.333 12 37 49 71 111l23 24c32.667 93.333 51 158 55 194l21 152v185c0 82.667 -13.333 224.667 -40 426c-1.33301 2 -11.666 22.667 -30.999 62
c-15.333 29.333 -23 53.333 -23 72c0 32.667 5 52.334 15 59.001l84 63c45.333 -29.333 83 -103.333 113 -222c10.667 -44 24 -148.333 40 -313c13.333 -152 20 -242.333 20 -271z" />
    <glyph glyph-name="K" unicode="K" horiz-adv-x="1541" 
d="M1659 1355c0 -53.333 -7.99512 -84.668 -23.9951 -94.001l-585 -345l-167 -94c-142.667 -84 -214 -147.667 -214 -191c0 -26.667 32 -58.334 96 -95.001c51.333 -29.333 89.666 -47.666 114.999 -54.999c170 -48 365.667 -107.333 587 -178
c28.667 -9.33301 43 -26.666 43 -51.999c0 -58.667 -59 -88 -177 -88c-52 0 -112.667 9.66699 -182 29c-23.333 2 -55 6 -95 12c-296.667 83.333 -491.667 191 -585 323c-25.333 36 -41 69 -47 99c-12.667 32.667 -20.667 50 -24 52c-0.666992 0 -1 -1 -1 -3
c3.33301 5.33301 14.666 19.666 33.999 42.999c2 11.333 7.66699 27.333 17 48c30.667 39.333 119.667 107 267 203c13.333 13.333 32.666 31 57.999 53c31.333 20 127.666 76.333 288.999 169c34 10.667 81 28.334 141 53.001l175 104c111.333 64 184.666 96 219.999 96
c18 0 33.333 -14.333 46 -43c8.66699 -20.667 13 -36 13 -46zM537.005 1250c0 -33.333 -12.998 -83.002 -38.998 -149.002c-66 -167.333 -106.333 -305 -121 -413c-9.33301 -6 -20.666 -19 -33.999 -39c-32.667 -137.333 -76.334 -338.666 -131.001 -603.999
c-23.333 -15.333 -60.333 -35.333 -111 -60l-59 105c0 2 2 11 6 27c4.66699 16 7 24.667 7 26v144c29.333 176.667 100.666 448.667 213.999 816c1.33301 4 12 20.333 32 49c3.33301 3.33301 5 7.66602 5 12.999c0 6.66699 -2.33301 14.334 -7 23.001
c16.667 56.667 28 91.334 34 104.001c24 50 60 90.667 108 122c6.66699 -6 13 -9 19 -9c7.33301 0 13.666 3 18.999 9c38.667 -62 58 -116.667 58 -164z" />
    <glyph glyph-name="L" unicode="L" horiz-adv-x="1888" 
d="M1856 221c-25.333 -13.333 -58.3311 -37 -98.998 -71c-60.667 -18.667 -103.667 -28 -129 -28c-71.333 0 -203.666 -10.667 -396.999 -32c-200.667 -23.333 -333 -37.666 -397 -42.999c-48 -12.667 -91.667 -21.334 -131 -26.001c-97.333 -12 -194 -18 -290 -18
c-54 0 -123 14 -207 42c-42.667 14 -77.334 32.667 -104.001 56c-44.667 40 -67 70.333 -67 91c20.667 78 31 124.667 31 140c2.66699 20 6.66699 51.667 12 95c24 66.667 57.333 165.667 100 297c9.33301 13.333 23 35.333 41 66c29.333 78.667 68.666 176 117.999 292
c18 42 95.333 186.667 232 434c11.333 6 25.333 17 42 33l72 102c34 46.667 65.333 70 94 70c15.333 0 31 -9.33301 47 -28l23 -114c0 -10 -1.33301 -24.333 -4 -43l-86 -104c-9.33301 -26 -43 -90 -101 -192c-13.333 -15.333 -29.333 -37 -48 -65
c-48.667 -100 -116 -248.333 -202 -445l-28 -104c-20 -30 -43 -73 -69 -129c-27.333 -93.333 -41 -152.333 -41 -177c0 -49.333 70 -74 210 -74c12 0 118.667 10.333 320 31l321 32c1.33301 0 12.666 -1.66699 33.999 -5c21.333 -2.66699 33 -4 35 -4
c2.66699 0 21.667 4.33301 57 13s53.666 13 54.999 13h-3c0 -0.666992 54.333 -2.66699 163 -6c124.667 -4 202.334 -6 233.001 -6l163 -48v-45z" />
    <glyph glyph-name="M" unicode="M" horiz-adv-x="1954" 
d="M2110 1581c0 -19.333 -12.9961 -82.666 -38.9961 -189.999c-26.667 -40 -50.667 -81 -72 -123c-18 -76.667 -39 -151.667 -63 -225l-75 -217c-11.333 -79.333 -24 -149.333 -38 -210c-38 -163.333 -57 -268 -57 -314c0 -1.33301 6 -39.333 18 -114s18 -113 18 -115
c-0.666992 -5.33301 -4.33398 -20.333 -11.001 -45c-12.667 -8 -26.334 -12 -41.001 -12c-10.667 0 -30.334 10.333 -59.001 31c-28 20 -46.333 37.333 -55 52c-31.333 54 -47 140.333 -47 259c0 15.333 0.333008 31.666 1 48.999c-4.66699 18 -8 27.333 -10 28
c-0.666992 0 -1 -1 -1 -3c0.666992 4 3.66699 18.333 9 43s9.33301 45.667 12 63c20 154 66.333 331.333 139 532c-5.33301 16.667 -8.66602 25 -9.99902 25l48 148c-37.333 -24 -97 -91.333 -179 -202c-12.667 -28.667 -30 -63 -52 -103
c-66 -116.667 -202.667 -310.334 -410 -581.001c-10 -12.667 -42 -43.667 -96 -93c-63.333 -58 -105.333 -87 -126 -87c-105.333 0 -158 152.333 -158 457v407c-21.333 -10.667 -68 -68.667 -140 -174c-6.66699 -16 -77 -153.667 -211 -413l-196 -378
c-12.667 -24 -31.334 -36 -56.001 -36c-78 0 -117 47.333 -117 142c0 30 60 150.667 180 362c113.333 199.333 214.333 367 303 503c1.33301 12 6.33301 28.667 15 50l280 386c4 0.666992 8 1 12 1c36 0 71.333 -13.333 106 -40c37.333 -30 56 -63.333 56 -100v-195
c-2 -1.33301 -7 -6.66602 -15 -15.999c-2 -9.33301 -8.66699 -106 -20 -290c-6 -106 -9.66699 -159 -11 -159v2l10 -156c3.33301 -4 9.66602 -6 18.999 -6c14.667 0 35 16.667 61 50c13.333 16.667 27.666 36 42.999 58l187 261l244 331
c124.667 171.333 239.334 304.333 344.001 399l87 102c27.333 -6 65 -17.667 113 -35l31 -55c19.333 -33.333 29 -51.333 29 -54z" />
    <glyph glyph-name="N" unicode="N" horiz-adv-x="1749" 
d="M1912 1572c0 -16 -23.334 -78.3281 -70.001 -186.995v-10c0 -18.667 -2.66699 -42.667 -8 -72l-38 -114c-22.667 -46.667 -51.334 -110.334 -86.001 -191.001c-11.333 -26 -29.666 -85.333 -54.999 -178c-4 -30.667 -12.333 -73.667 -25 -129l-109 -240
c-42.667 -92.667 -68.667 -171.334 -78 -236.001c-23.333 -58.667 -35 -93.334 -35 -104.001c0 -10 3 -18.667 9 -26c-11.333 -4 -37.666 -15.333 -78.999 -34c-35.333 -16 -55.333 -24 -60 -24c-12.667 0 -32.5 8 -59.5 24s-44.167 30.333 -51.5 43
c-42 68 -118 237 -228 507c-7.33301 37.333 -23.333 94 -48 170c-10 16 -23 43 -39 81c-2 36 -7.33301 70.667 -16 104c-15.333 58.667 -57 157.334 -125 296.001c-30.667 -12 -59.667 -51.333 -87 -118l-107 -259c-40 -65.333 -97 -167.333 -171 -306
c-19.333 -52 -52.333 -130.333 -99 -235c-20.667 -16.667 -41.334 -40.334 -62.001 -71.001c-10 -2 -19.333 -3 -28 -3c-25.333 0 -51.833 15.167 -79.5 45.5s-41.5 58.166 -41.5 83.499l327 663c1.33301 1.33301 56 104.666 164 309.999
c8.66699 22.667 26.334 66 53.001 130c26 60 61.333 90 106 90c28.667 0 56.334 -13.333 83.001 -40c36 -36 61.333 -70 76 -102c53.333 -116 103 -241.333 149 -376c4.66699 -13.333 25.334 -91.666 62.001 -234.999c5.33301 -6.66699 12.666 -16.667 21.999 -30
c27.333 -86 46.666 -144.667 57.999 -176c27.333 -75.333 61 -145 101 -209c19.333 22 49.333 73.667 90 155c57.333 113.333 111.333 230 162 350c21.333 81.333 60.666 203.666 117.999 366.999l48 60c1.33301 14 4 32 8 54l48 83c16.667 12 36.667 31 60 57
c9.33301 26 25 55.667 47 89c4.66699 1.33301 13.334 2 26.001 2c45.333 0 68 -19.667 68 -59z" />
    <glyph glyph-name="O" unicode="O" horiz-adv-x="2180" 
d="M2242 784l-64.002 -103.004c0 -3.33301 3.33301 -8.66602 10 -15.999v1c-2.66699 0 -17.334 -32.333 -44 -97c-8.66699 -8.66699 -19 -19.667 -31 -33c-70 -114 -252 -245.333 -546 -394c-65.333 -33.333 -170.666 -70.333 -315.999 -111
c-165.333 -46.667 -285.333 -70 -360 -70c-42 0 -123.333 20.333 -244 61c-256.667 86.667 -428 193.334 -514 320.001c-72 105.333 -108 236.333 -108 393c0 2 4.66699 17 14 45c8.66699 28.667 13 44.667 13 48c4.66699 45.333 9 83.333 13 114
c24.667 34.667 51.334 75.334 80.001 122.001c24 38.667 94 118.334 210 239.001c4.66699 5.33301 24 13.333 58 24l45 34c6.66699 3.33301 75.667 27 207 71l104 33c264 40 463.667 60 599 60c276.667 0 504 -63 682 -189c117.333 -83.333 176 -217.333 176 -402
c0 -38 -2.66699 -79 -8 -123c16 -6.66699 24 -15.667 24 -27zM2083 949.996c0 56.667 -26.6641 120.666 -79.9971 191.999c-30.667 40 -103.834 84.333 -219.501 133s-206.5 73 -272.5 73c-2 0 -14.833 -1.5 -38.5 -4.5s-36.5 -4.5 -38.5 -4.5
c-4.66699 0 -27.667 4.16699 -69 12.5s-62.333 12.5 -63 12.5c-2.66699 0 -15.667 -4 -39 -12c-22.667 -8.66699 -34.334 -13 -35.001 -13s-34.334 -2.33301 -101.001 -7l-100 -7h-2c-3.33301 0 -11.666 2.33301 -24.999 7c-14.667 4.66699 -23.334 7 -26.001 7
c-8.66699 -3.33301 -34 -16 -76 -38l-198.5 -48c-96.333 -23.333 -166.833 -54.333 -211.5 -93v0c0 -2 3.66699 -15 11 -39c0 -14 -28.667 -40 -86 -78c-48.667 -20 -97.334 -65.667 -146.001 -137s-73 -133.333 -73 -186l14 -9c-2 -13.333 -3 -27 -3 -41
c0 -154 77.333 -276.667 232 -368c138.667 -82 299.334 -123 482.001 -123s411 72.333 685 217c307.333 161.333 461 324.333 461 489c0 2.66699 3 13.834 9 33.501s9 30.167 9 31.5z" />
    <glyph glyph-name="P" unicode="P" horiz-adv-x="1434" 
d="M1614 1243c0 -59.333 -11.332 -103.996 -33.999 -133.996c-136 -182.667 -409.333 -335 -820 -457c-2.66699 -5.33301 -9 -12 -19 -20c-36 -11.333 -138.667 -40.333 -308 -87c-48.667 -14 -78.334 -38 -89.001 -72c0 -26 -0.333008 -53.333 -1 -82
c-2.66699 -100.667 -14 -193 -34 -277c-4.66699 -39.333 -13 -75.333 -25 -108h-34c-15.333 8 -33 26 -53 54s-32 51 -36 69l-1 198c-8 92 -30 152.667 -66 182c-2.66699 1.33301 -4 17.333 -4 48c0 31.333 7.33301 48.333 22 51c26 4.66699 48.667 24.667 68 60l43 200
c8 13.333 18.333 34.666 31 63.999c34 157.333 82.333 273.333 145 348v3c0 10 -10.333 15 -31 15c-23.333 -8 -82.333 -35.333 -177 -82c-5.33301 -2.66699 -13 -12 -23 -28c-26 -12 -41.667 -18 -47 -18c-24.667 0 -51 33.333 -79 100c0 7.33301 9.5 26.666 28.5 57.999
s32.833 49.666 41.5 54.999c26 12 63 31 111 57c8 1.33301 20.667 3.66602 38 6.99902c33.333 25.333 95.333 49 186 71c128.667 31.333 238 53 328 65c124.667 15.333 205.667 23 243 23c80.667 0 200 -25.333 358 -76c28 -8.66699 46.667 -23.667 56 -45
c12.667 -1.33301 31 -6.33301 55 -15c20.667 -18.667 45.667 -48 75 -88c34.667 -68 52 -114.333 52 -139zM1426 1259c0 44.667 -48.335 85.666 -145.002 122.999c-80.667 31.333 -143 47 -187 47c-61.333 0 -148.666 -6.66699 -261.999 -20
c-36.667 -10 -83.667 -21.333 -141 -34c-56 -2 -151 -26 -285 -72c75.333 -27.333 113 -62.333 113 -105c0 -25.333 -30.667 -119 -92 -281c-3.33301 -38.667 -12.666 -97 -27.999 -175h58c18.667 0 182 57.333 490 172l40 23c55.333 29.333 188 108 398 236
c27.333 52.667 41 81.334 41 86.001z" />
    <glyph glyph-name="Q" unicode="Q" horiz-adv-x="2161" 
d="M2161 1035c0 -140 -28 -278.666 -84 -415.999c-16.667 -41.333 -59.334 -98.333 -128.001 -171c-58 -62 -89 -96.333 -93 -103c0 -3.33301 28 -38.666 84 -105.999s84 -103 84 -107c0 -11.333 -5.33301 -25.333 -16 -42c-10 -17.333 -19 -26 -27 -26
c-1.33301 0 -7 2.83301 -17 8.5s-16.667 8.5 -20 8.5c-18.667 0 -108 49.667 -268 149c-25.333 -10.667 -61 -26.667 -107 -48c-76.667 -35.333 -137 -61.333 -181 -78c-213.333 -80 -328 -120 -344 -120c-13.333 -0.666992 -51 -3.33398 -113 -8.00098l-116 -9
c-18 0 -73.333 10.667 -166 32c-46 10.667 -99.333 24 -160 40c-62 29.333 -113 69 -153 119c-8.66699 4 -19 8 -31 12c-116 110 -192.667 254.667 -230 434c-3.33301 12 -9 38.667 -17 80c-8 35.333 -12 58.666 -12 69.999c0 124 22.667 239.667 68 347
c46 107.333 106 185 180 233c15.333 9.33301 48.333 21.333 99 36c48 14 77.333 21 88 21c1.33301 0 9.33301 -4.5 24 -13.5s23 -13.5 25 -13.5l98 71c72 54 129.667 87.667 173 101c118.667 38 231.334 57 338.001 57c3.33301 0 13 -3 29 -9c22 4.66699 47 7 75 7
c14.667 0 31.334 -0.333008 50.001 -1c-0.666992 -1.33301 -1 -2.66602 -1 -3.99902c0 -6.66699 5.66699 -10 17 -10c5.33301 0 9.33301 4.66699 12 14c15.333 2 58.666 3 129.999 3c148 0 266.333 -17.667 355 -53c136 -54.667 242.667 -156.334 320 -305.001
c0 -8.66699 1.66699 -21.667 5 -39c20 -43.333 30 -97 30 -161zM2041 977.001c0 104.667 -20.8291 184.829 -62.4961 240.496s-115.5 102.167 -221.5 139.5c-94.667 34 -146 51 -154 51h-238c-2 0 -10.333 3.33301 -25 10c-14 5.33301 -22 8 -24 8
c-6 -1.33301 -21.667 -7.33301 -47 -18c-28.667 -2 -110 -3 -244 -3c-0.666992 0 -8 -4 -22 -12c-14 -7.33301 -22.333 -11 -25 -11c-0.666992 0 -3.33398 1.33301 -8.00098 4c-5.33301 3.33301 -9 5 -11 5c-12 0 -47.667 -12.333 -107 -37c-62 -26 -113 -53.667 -153 -83
c-92.667 -68.667 -173.334 -159.667 -242.001 -273c0 -4 -6.66699 -26 -20 -66c-5.33301 -16.667 -8 -32 -8 -46c0 -10.667 1.33301 -20.334 4 -29.001c-11.333 -22 -20.333 -41.333 -27 -58v-6c0 -11.333 4.33301 -35.666 13 -72.999
c-6 -21.333 -14.667 -46.666 -26 -75.999c-5.33301 2.66699 -13.833 16.667 -25.5 42s-17.5 41.666 -17.5 48.999v248l16 72c11.333 48 17.333 77.667 18 89c-12.667 0 -26 -3.66699 -40 -11c-58.667 -75.333 -97 -132 -115 -170c-21.333 -46.667 -32 -107.667 -32 -183
c0 -243.333 94.667 -416.666 284 -519.999c2.66699 -0.666992 5 -1 7 -1c3.33301 0 6 0.333008 8 1c88 -49.333 204.667 -74 350 -74c78.667 0 144.667 7 198 21c29.333 15.333 72.666 34 129.999 56c67.333 14 166 51.333 296 112c11.333 8.66699 17 21 17 37
c-62.667 46.667 -150.334 117.334 -263.001 212.001c-8 20.667 -23.333 47.334 -46 80.001c-2 3.33301 -3 12 -3 26c0 71.333 17.333 107 52 107c18 0 60.333 -21.667 127 -65c19.333 -23.333 80.333 -78.666 183 -165.999c82.667 -68.667 131.667 -103 147 -103
c62 0 158.667 91.333 290 274c4 6 16.167 38.667 36.5 98s30.5 93.333 30.5 102z" />
    <glyph glyph-name="R" unicode="R" horiz-adv-x="1690" 
d="M1752 1121c0 -56.667 -39.999 -141.004 -119.999 -253.004c-16 -22.667 -69 -55.667 -159 -99c-21.333 -26 -63 -58 -125 -96c-46 -14 -111.667 -36.333 -197 -67c-28.667 -16.667 -70.667 -38.334 -126 -65.001c-8.66699 -2 -76.334 -13 -203.001 -33
c-101.333 -16 -152 -36.667 -152 -62c0 -23.333 43.667 -66 131 -128c71.333 -50.667 120 -81.667 146 -93l356 -161l172 -57c76.667 -34.667 116 -76 118 -124c-12 -22 -30 -33 -54 -33c-0.666992 0 -14 2.5 -40 7.5s-41.667 7.5 -47 7.5c-92 0 -176.667 17.667 -254 53
c-4.66699 0.666992 -80.334 35.334 -227.001 104.001l-135 87c-49.333 32 -85 62.333 -107 91c-8.66699 0.666992 -20.667 3 -36 7c-22 34 -83.333 81.667 -184 143c-84.667 52.667 -127 94.334 -127 125.001l38 95c132.667 28.667 301.334 68 506.001 118
c20.667 4 71.334 15.667 152.001 35c52 12.667 142.667 62.667 272 150c162 110 243 201.333 243 274c0 64.667 -28.333 123.834 -85 177.501s-126 86.834 -208 99.501c-38 15.333 -61 23 -69 23c-13.333 0 -38 0.333008 -74 1c-44 0.666992 -79.667 1 -107 1l-122 1
c-9.33301 0 -14 -1 -14 -3c0 -6.66699 -1 -11 -3 -13c-18.667 0.666992 -35.667 1 -51 1c-46 0 -76.333 -2 -91 -6c-32.667 -10 -86.667 -30.667 -162 -62c-38 -10 -85.333 -23.333 -142 -40c-49.333 -22 -77.333 -43.667 -84 -65c-39.333 -128 -66 -279.667 -80 -455
c2.66699 -36 4 -91 4 -165v-38c-4.66699 -10.667 -11.667 -27.667 -21 -51c-14 -63.333 -21 -119 -21 -167c0 -12.667 0.333008 -24.667 1 -36l6 -63c2 -25.333 3 -62 3 -110c0 -104 -19.667 -156 -59 -156l-42.5 15.5c-28.333 10.333 -44.833 15.5 -49.5 15.5
c-14 74 -21 197.333 -21 370c0 6.66699 5.66699 61.334 17 164.001c14.667 140 28.334 251.667 41.001 335c14 45.333 28.333 99.333 43 162v48c-10 10 -16.333 15.333 -19 16l-30.5 -14.5c-20.333 -9.66699 -32.833 -14.5 -37.5 -14.5c-12.667 0 -24.334 12 -35.001 36
c-7.33301 15.333 -11 28.333 -11 39c0 71.333 19.667 129.333 59 174c27.333 30.667 87.666 78 180.999 142c10 6.66699 96.667 26 260 58c167.333 31.333 281.333 47 342 47c133.333 0 260.666 -6 381.999 -18c8.66699 -7.33301 23.334 -14 44.001 -20
c63.333 -0.666992 138 -35.667 224 -105s136 -134.333 150 -195c0 -1.33301 4.66699 -11.666 14 -30.999s14 -30 14 -32c0 -2.66699 2.33301 -17.667 7 -45c4 -28.667 6 -44.334 6 -47.001z" />
    <glyph glyph-name="S" unicode="S" horiz-adv-x="1333" 
d="M1388 1458c0 -52 -35.667 -78.0039 -107 -78.0039c-4 0 -31.333 2.66699 -82 8l-80 8c-7.33301 0 -37.333 -2.66699 -90 -8l-103 -13h-22h-39c-38 2 -61 3 -69 3c-20 -2 -95 -10 -225 -24c-46 -10 -111 -21 -195 -33c-35.333 -2 -69 -13.667 -101 -35
c6 -12.667 16 -30 30 -52c34.667 -28.667 90 -71 166 -127c30 -18 82.333 -43.333 157 -76c14 -11.333 35.667 -26 65 -44l21 -8c107.333 -41.333 249 -104.666 425 -189.999c65.333 -31.333 118.333 -75.666 159 -132.999s61 -115.666 61 -174.999
c0 -35.333 -19.667 -68 -59 -98c-58 -44.667 -92.667 -74.334 -104 -89.001c-26 0 -50.333 -1.33301 -73 -4c-45.333 -31.333 -70.666 -47 -75.999 -47l-8 4c-4.66699 2.66699 -9.33398 4 -14.001 4c-24.667 0 -85.667 -19.667 -183 -59
c-75.333 -30.667 -165.666 -57.667 -270.999 -81l-16 -15c-10.667 -9.33301 -21.334 -14 -32.001 -14c-2 0 -8.66699 1.33301 -20 4s-18.666 4 -21.999 4c-2 0 -43 -9.33301 -123 -28s-121.667 -28 -125 -28c-50 0 -103 -5.33301 -159 -16c-18 7.33301 -36 22 -54 44
c-16 19.333 -24 35 -24 47v5c11.333 8.66699 27.666 19 48.999 31c388 88.667 680.333 174 877 256c136 57.333 204 105.333 204 144c0 30.667 -25.333 61.334 -76 92.001c-19.333 10.667 -56.333 32.334 -111 65.001c-62.667 38.667 -137 75 -223 109
c-134 54 -211 85.667 -231 95c-42 20.667 -120.333 73.667 -235 159c-145.333 108.667 -218 186 -218 232c0 8 10.333 23.333 31 46l46 53l68 28l84 34c66 16.667 197.333 37 394 61c58.667 7.33301 121 14.333 187 21c116 12 214.333 18 295 18
c167.333 0 251 -33.333 251 -100z" />
    <glyph glyph-name="T" unicode="T" horiz-adv-x="1579" 
d="M2486 1439c-12.667 -30.667 -53.668 -46.0029 -123.001 -46.0029l-236 -1c-2 -0.666992 -46 -7 -132 -19c-55.333 -8 -86.333 -12 -93 -12c-2.66699 0 -9.16699 2.83301 -19.5 8.5s-16.166 8.5 -17.499 8.5c-150.667 -15.333 -244.334 -23 -281.001 -23
c-7.33301 0 -81.333 -7 -222 -21c-49.333 -5.33301 -83.333 -10.666 -102 -15.999c-38.667 -12 -66 -32 -82 -60c-57.333 -101.333 -110.666 -283.333 -159.999 -546c-11.333 -60.667 -22.333 -132.667 -33 -216l-11 -97c-14 -29.333 -30 -74.666 -48 -135.999v-8
c0 -37.333 -8.33301 -89.333 -25 -156c-32 -55.333 -64.333 -83 -97 -83c-63.333 0 -95 26.667 -95 80c0 5.33301 11 42.333 33 111c2 16 7 58.333 15 127c6 8.66699 13.667 22.667 23 42c2 45.333 4.33301 74.666 7 87.999c6 32 16.333 54 31 66v15
c0 76 17.667 171.667 53 287l149 483c-10.667 8.66699 -21.667 13 -33 13c-154.667 0 -279.334 -6 -374.001 -18c-44 -5.33301 -123.667 -20.666 -239 -45.999c-101.333 -21.333 -154.666 -32 -159.999 -32l-88 36c-14.667 25.333 -22 50 -22 74
c0 42.667 16.667 66.667 50 72l289 41l589 34c6.66699 0.666992 31.667 6.33398 75 17.001c44 10.667 66.333 16 67 16s11.334 -5.33301 32.001 -16c21.333 -11.333 33.666 -17 36.999 -17l922 42v0c3.33301 0 32.666 -6.66699 88 -20c57.333 -14.667 86.666 -22 88 -22
c2 0 8.33301 1.5 19 4.5s17 4.5 19 4.5c44.667 0 80.334 -19.667 107 -59z" />
    <glyph glyph-name="U" unicode="U" horiz-adv-x="2095" 
d="M2100 1360c0 -3.33301 -3.33496 -11.999 -10.002 -25.999c-6 -15.333 -9 -23.333 -9 -24c0 -60.667 1.33301 -92 4 -94c1.33301 1.33301 2.33301 2.66602 3 3.99902c-12 -52 -37.333 -122 -76 -210c-46 -105.333 -74.667 -175 -86 -209l-28 -32
c-5.33301 -31.333 -14.333 -57.333 -27 -78l-170 -204c-34.667 -28 -85.334 -66.333 -152.001 -115c-2 -4.66699 -6.66699 -17.667 -14 -39l-176 -109c-76 -47.333 -145.333 -79.666 -208 -96.999c-8 -12 -23 -26.667 -45 -44c-79.333 -33.333 -148.666 -50 -207.999 -50
c-8 -0.666992 -31.333 -2.33398 -70 -5.00098l-73 -4c-90.667 0 -196.667 25 -318 75c-134.667 54.667 -218 113.667 -250 177c-72.667 144 -115 254.667 -127 332c-16.667 103.333 -25 190.666 -25 261.999l12 13c-2.66699 36 -5 62.667 -7 80
c12 62.667 40.667 145.334 86 248.001c66.667 148.667 132.334 223 197.001 223l77 -59c-11.333 -14 -18.666 -38.667 -21.999 -74c-44 -27.333 -74 -62.333 -90 -105l-41 -113c-28 -56 -42 -114 -42 -174c0 -148.667 9.33301 -256.334 28 -323.001
c10.667 -40.667 34.667 -92.667 72 -156c26.667 -46 62.667 -85.667 108 -119c58.667 -43.333 96.667 -69 114 -77c24.667 -11.333 61.334 -17 110.001 -17h118c24 0 104.667 23.667 242 71c134.667 46 209.667 74.333 225 85l181 120l273 231
c15.333 27.333 59.333 94 132 200c29.333 43.333 59.666 101 90.999 173c27.333 63.333 41 102.333 41 117v200c0 58 -0.333008 88.667 -1 92c-1.33301 -3.33301 -2.33301 -13.666 -3 -30.999c2 32.667 21 49 57 49c3.33301 0 32 -11 86 -33c0 -10.667 3.33301 -35 10 -73z
" />
    <glyph glyph-name="V" unicode="V" horiz-adv-x="1334" 
d="M1647 1512c0 -17.333 -43.665 -78.668 -130.998 -184.001c-13.333 -4.66699 -22.333 -10 -27 -16c-7.33301 -33.333 -34.333 -60 -81 -80c0.666992 -3.33301 1 -6.33301 1 -9c0 -15.333 -10.333 -32.333 -31 -51l-59 -54c-20.667 -29.333 -51.667 -61.333 -93 -96
c-2.66699 -20 -20 -54.333 -52 -103c-14 -10 -30.667 -26.333 -50 -49c-4.66699 -18 -13.334 -43 -26.001 -75c-12.667 -12 -28 -32.667 -46 -62c-4.66699 -30 -17.334 -76 -38.001 -138c-12 -8 -25 -21 -39 -39c-12 -45.333 -50 -168 -114 -368c0 -20 -1 -51.667 -3 -95
c-12.667 -4.66699 -50.667 -26.667 -114 -66c-4.66699 0.666992 -18 3.66699 -40 9c-32 48 -75.667 118.667 -131 212l-163 356c-14 30.667 -42.333 103.334 -85 218.001c-11.333 16.667 -27.666 43.667 -48.999 81c-7.33301 8.66699 -23.333 36.667 -48 84
c-2 19.333 -6.66699 46.333 -14 81c-29.333 30 -44 67.667 -44 113l-84 238c0 18.667 4.33301 29 13 31c26 8 43.333 12 52 12c55.333 0 87.666 -5 96.999 -15c14.667 -14 33 -67.667 55 -161c2 -2 5.66699 -7.33301 11 -16c20 -76.667 49 -150.334 87 -221.001l118 -289
l71 -120c12.667 -49.333 47.334 -131.666 104.001 -246.999c11.333 0 21 4.66699 29 14c1.33301 18 11.333 52.667 30 104c19.333 38.667 61 116.667 125 234l17 32c53.333 98 122.666 212.667 207.999 344c54.667 84.667 154 200 298 346c76 78 128 117 156 117
c12.667 0 30.667 -9.33301 54 -28c24 -19.333 36 -34 36 -44z" />
    <glyph glyph-name="W" unicode="W" horiz-adv-x="1888" 
d="M2207 1507l-169.999 -266.999c-19.333 -22.667 -34 -47 -44 -73c-18.667 -46 -45.334 -96 -80.001 -150c-103.333 -159.333 -175 -280 -215 -362c-6 -12 -19.667 -46 -41 -102c2 -4 3 -8.66699 3 -14c0 -4 -1 -8.33301 -3 -13c-58 -89.333 -96.667 -151 -116 -185
c-35.333 -64 -59.666 -123 -72.999 -177c-15.333 -6 -35 -16.667 -59 -32c-8 -20.667 -32 -46.334 -72 -77.001c-10.667 6.66699 -23.667 15.667 -39 27c-52.667 83.333 -117 202.666 -193 357.999c-27.333 86 -55.333 160.333 -84 223
c-22.667 20 -47.334 74.333 -74.001 163c-1.33301 8.66699 -12 18.334 -32 29.001c-36.667 -14 -55.334 -36.667 -56.001 -68c-28.667 -80.667 -69 -151.334 -121 -212.001c-0.666992 -2 -1 -3.66699 -1 -5c0 -5.33301 5 -8 15 -8c-40.667 -45.333 -63.667 -81 -69 -107
c-14.667 -72 -42.667 -139.667 -84 -203l-111 -167c-5.33301 -8 -40 -25.333 -104 -52h-29c-21.333 21.333 -46 54.333 -74 99c-16.667 41.333 -35.334 107 -56.001 197l-45 198c-22 52.667 -38.667 98 -50 136c-19.333 65.333 -41.666 178.333 -66.999 339
c-18.667 118.667 -28 190.334 -28 215.001c0 19.333 13.667 41 41 65l36 -12c18.667 -9.33301 40.667 -28 66 -56c22 -52 40.333 -122.667 55 -212l28 -173c2.66699 -17.333 5.66699 -34.333 9 -51c22 -69.333 53 -176 93 -320c13.333 -46.667 27.333 -82 42 -106h3
c14 0 28.333 12.333 43 37l66 108l61 135c21.333 10 42.333 38.333 63 85c33.333 76.667 57.666 127 72.999 151l128 208c15.333 14 37.666 21 66.999 21c50.667 0 96.334 -44 137.001 -132c9.33301 -8 19 -21.667 29 -41c14 -40.667 35.333 -96.667 64 -168
c5.33301 -12.667 40.333 -80 105 -202c20.667 -52.667 34.334 -85.667 41.001 -99c17.333 -35.333 35 -61 53 -77c14 0 24 5 30 15c88.667 150 221.334 349 398.001 597c8.66699 20.667 25.334 50.334 50.001 89.001c51.333 81.333 123 181.666 215 300.999
c13.333 14 34.666 44 63.999 90c26 41.333 53 68.333 81 81c0 0.666992 0.333008 1 1 1c2 0 12 -15 30 -45z" />
    <glyph glyph-name="X" unicode="X" horiz-adv-x="1777" 
d="M1894 1355c0 -22.667 -14.668 -48.6641 -44.001 -77.9971c-100.667 -10 -186.334 -27.667 -257.001 -53c-27.333 -17.333 -55.666 -32 -84.999 -44c-358.667 -145.333 -538 -235 -538 -269c0 -8.66699 28 -36.334 84 -83.001l144 -122c12 -22 32.667 -53 62 -93
c25.333 -17.333 61.333 -47.333 108 -90c4.66699 -7.33301 16.334 -29 35.001 -65c14 -10 33.333 -29 58 -57l143 -209c16 -7.33301 33.667 -21.333 53 -42c8.66699 -19.333 13 -42 13 -68c0 -12.667 -10.333 -26.834 -31 -42.501s-38.334 -23.5 -53.001 -23.5
c-7.33301 2 -30.333 8.66699 -69 20l-13 24l-322 388c-112.667 136 -217 248 -313 336h-10c-71.333 0 -154.666 -35 -249.999 -105c-125.333 -69.333 -229 -150 -311 -242c-38.667 -43.333 -75.667 -105 -111 -185c-8.66699 -124.667 -30.334 -187 -65.001 -187
c-30.667 0 -54 24.333 -70 73c-11.333 35.333 -17 66 -17 92c0 59.333 7.66699 98.333 23 117c30.667 40.667 55.334 91.334 74.001 152.001c46 46.667 114.667 112.667 206 198l169 120c90 62.667 135 102.667 135 120c0 15.333 -61 61.666 -183 138.999
c-82.667 52 -170.334 113.667 -263.001 185c-14.667 18 -22 47 -22 87c0 6.66699 0.333008 14 1 22c12.667 10 42.334 21 89.001 33l547 -363c20.667 5.33301 48.667 19.666 84 42.999c52 34 84 53.667 96 59c136.667 56 316.667 139.667 540 251c11.333 0 27.333 1 48 3
c44.667 22 96.667 33 156 33c106 0 159 -24.667 159 -74z" />
    <glyph glyph-name="Y" unicode="Y" horiz-adv-x="1080" 
d="M1397 1306c0 -24 -14.002 -52.999 -42.002 -86.999c-22.667 -28 -70 -77.333 -142 -148c-84.667 -83.333 -151 -152 -199 -206l-144 -161l-171 -184c-44 -62 -100.333 -148.333 -169 -259c-6.66699 -10 -19 -36.667 -37 -80c-12 -38 -21.667 -67 -29 -87
c-20 -52 -41.667 -78 -65 -78c-12 5.33301 -47 24.333 -105 57c-0.666992 5.33301 -1 11.333 -1 18c0 17.333 1.66699 37 5 59c75.333 164.667 137 283.334 185 356.001c8.66699 14 25.667 27.667 51 41c2 8 4 18.333 6 31c8 14 46.333 60.333 115 139
c0 6.66699 4.33301 16 13 28c-8.66699 9.33301 -26 14 -52 14c-1.33301 0 -35.333 -6.66699 -102 -20c-66 -14 -100 -21 -102 -21c-47.333 0 -94.666 15.333 -141.999 46s-82 67.667 -104 111c-44 89.333 -75 169.666 -93 240.999c-8.66699 32.667 -13 65.334 -13 98.001
c0 49.333 10.333 98.666 31 147.999h79c2 -4.66699 20.333 -19.334 55 -44.001l29 -215c38 -132.667 109.333 -199 214 -199c87.333 0 219 65.333 395 196l364 267c26.667 19.333 52 29 76 29c18.667 0 39.334 -13 62.001 -39c21.333 -23.333 32 -40.333 32 -51z" />
    <glyph glyph-name="Z" unicode="Z" horiz-adv-x="1767" 
d="M1708 1331c0 -56 -42.002 -119.997 -126.002 -191.997c-62 -53.333 -109 -90 -141 -110c-21.333 -12 -54.666 -33.333 -99.999 -64l-78 -59c-3.33301 -2 -41 -28.667 -113 -80c-114.667 -81.333 -271.334 -186 -470.001 -314c-143.333 -92 -268 -180.667 -374 -266
c29.333 -34 103 -51 221 -51c10 0 61 2.66699 153 8l154 9c-2 0 -3 0.333008 -3 1c0 1.33301 16.333 5.33301 49 12l301 38c68.667 8.66699 172.667 13 312 13c71.333 0 120.666 -11.333 147.999 -34v-29c-16.667 -12.667 -43 -26.667 -79 -42l-280 -21
c-46 -12 -114 -25 -204 -39c-5.33301 -4.66699 -14.666 -10.667 -27.999 -18c-62 -16.667 -131.333 -30.334 -208 -41.001c-100 -14.667 -175.333 -22.667 -226 -24l-36 -1h-272c-38.667 0 -115.334 14 -230.001 42c-28 23.333 -42 64 -42 122c0 46.667 20.667 85 62 115
l116 67c8.66699 12 24.334 29.333 47.001 52l152 104l167 123c124 55.333 273.333 145 448 269c122 87.333 197 142 225 164c45.333 36 110 95 194 177c-34 23.333 -163 35 -387 35l-513 -47c-110.667 0 -186.667 12 -228 36c0 4.66699 -10.333 35.667 -31 93
c0 48.667 17.333 73 52 73c2.66699 0 29.334 -3.83301 80.001 -11.5s77 -11.5 79 -11.5l63 13c46 10 78 15.5 96 16.5s128 5.83301 330 14.5l215 10c12 0.666992 25 1 39 1c71.333 0 154.333 -8.66699 249 -26c34.667 -10.667 71.334 -19.334 110.001 -26.001
c71.333 -10.667 107 -44.334 107 -101.001z" />
    <glyph glyph-name="bracketleft" unicode="[" horiz-adv-x="863" 
d="M832 -49c-56 -37.333 -137.999 -65.0049 -245.999 -83.0049c-38 -6.66699 -110 -18.667 -216 -36c-12.667 0 -29.667 -2 -51 -6c-5.33301 -2 -13.666 -3 -24.999 -3c-11.333 -0.666992 -26 0.333008 -44 3l-56 6h-49c-38 0 -57 32 -57 96v-1c0.666992 0 10.667 79 30 237
l52 494c5.33301 42 14.333 167.333 27 376c4.66699 73.333 7 121.333 7 144c0 143.333 1.33301 273 4 389c5.33301 19.333 11.666 46 18.999 80c10.667 8.66699 36.667 14.667 78 18l91 8c42.667 14.667 111.667 33.334 207 56.001c33.333 7.33301 62.666 11 87.999 11
s40.666 -4.33301 45.999 -13c24 -38 44.333 -80.667 61 -128v-26c-92.667 -30 -206.667 -57 -342 -81c-20 -3.33301 -36 -11.666 -48 -24.999c-1.33301 -108 -5.66602 -199.333 -12.999 -274c-1.33301 -13.333 -9.66602 -86.666 -24.999 -219.999c0 -92.667 -2 -182 -6 -268
c-2.66699 -55.333 -10 -156.666 -22 -303.999c-10.667 -131.333 -16 -236.666 -16 -315.999v-38c48 -4.66699 91.333 -7 130 -7c35.333 0 67.333 2 96 6l227 32c21.333 0 35.666 -19.667 42.999 -59c4.66699 -27.333 8 -50 10 -68z" />
    <glyph glyph-name="backslash" unicode="\" horiz-adv-x="1466" 
d="M1389 1588c0 -37.333 -13.001 -71.333 -39.001 -102c-10.667 -10.667 -30.334 -32.334 -59.001 -65.001c-9.33301 -20 -27.333 -47.333 -54 -82c-164.667 -147.333 -299.667 -292.666 -405 -435.999c-374 -508.667 -580.667 -882 -620 -1120h-93
c-1.33301 9.33301 -9.66602 30.666 -24.999 63.999c-13.333 29.333 -20 50 -20 62c0 34.667 18.333 105.334 55 212.001c33.333 95.333 55.333 153 66 173l134 241c34.667 61.333 140 217 316 467c58 83.333 134.333 186 229 308c16.667 22 107.334 113.333 272.001 274
c102 100 164.333 150 187 150c11.333 0 24 -23 38 -69c12 -39.333 18 -65 18 -77z" />
    <glyph glyph-name="bracketright" unicode="]" horiz-adv-x="977" 
d="M949 1488c0 -58 -26.333 -255.665 -79 -592.998c2 -8.66699 3.33301 -23 4 -43c-42 -334 -63 -564.333 -63 -691v-8v-12c0 -58.667 -3.33301 -111.667 -10 -159c-16.667 -114.667 -28.667 -180.334 -36 -197.001c-18 -44 -54.667 -66 -110 -66l-178 21l-178 21
c-2 0 -10.667 -1.5 -26 -4.5s-24 -4.5 -26 -4.5c-1.33301 0 -18.333 1.83301 -51 5.5s-50.667 5.5 -54 5.5c-6.66699 8.66699 -17 20.667 -31 36l-56 28c-4.66699 19.333 -7.66699 29.666 -9 30.999v-5c0 24 5.66699 50.667 17 80c46 18.667 140.333 34 283 46
c62.667 5.33301 97.334 8 104.001 8c37.333 -5.33301 57 -8 59 -8c37.333 0 56 6.66699 56 20c-2.66699 16.667 -4 41 -4 73c20.667 73.333 40.667 159 60 257c3.33301 147.333 19.666 320 48.999 518l88 605c0 4 -0.666992 8.33301 -2 13c-26.667 20.667 -74 31 -142 31
c-24.667 -5.33301 -37.667 -8 -39 -8c-10.667 0 -23 4.33301 -37 13l-135 15c-86 10 -129 54.333 -129 133c0 58.667 25.333 88 76 88v0c0 -0.666992 171.333 -14.667 514 -42c56.667 -4.66699 85 -73.667 85 -207z" />
    <glyph glyph-name="asciicircum" unicode="^" horiz-adv-x="769" 
d="M714 1401c0 -10.667 -2.66699 -22.3311 -8 -34.998c-1.33301 -6 -14 -9 -38 -9c-36 0 -66.667 4.33301 -92 13c-111.333 114.667 -174 172 -188 172c-0.666992 0 -39.5 -33.833 -116.5 -101.5s-121.167 -101.5 -132.5 -101.5c-32.667 0 -52.334 10.333 -59.001 31
c0 -1.33301 0.333008 -2 1 -2c1.33301 6 2 25.333 2 58c-6.66699 16 -10 25.667 -10 29c0 13.333 14 30.666 42 51.999c21.333 13.333 39 25 53 35c5.33301 4.66699 39.333 44.667 102 120c44.667 53.333 83.334 80 116.001 80c11.333 -6 33 -22.333 65 -49l79 -67
c2 -6 5.33301 -14 10 -24c50.667 -38.667 96 -81 136 -127c25.333 -30.667 38 -55.334 38 -74.001z" />
    <glyph glyph-name="underscore" unicode="_" horiz-adv-x="2764" 
d="M2699 -221l0.00195312 6.00195c0 19.333 -8 56.666 -24 111.999c-39.333 32.667 -135.666 49 -289 49c-10 -0.666992 -29 -1.66699 -57 -3c-58.667 -2.66699 -108.334 -4.66699 -149.001 -6l-234 -7l-463 7c-5.33301 0 -52.333 -0.333008 -141 -1l-269 -1
c-24 -0.666992 -49.667 -1 -77 -1c-54.667 0 -114.334 0.666992 -179.001 2c-58.667 1.33301 -140 4.33301 -244 9c-26 5.33301 -39 8.33301 -39 9h1h-260c-114 0 -184 -14 -210 -42c0 -4 -1.66699 -29 -5 -75c-2.66699 -22.667 -4 -47.334 -4 -74.001
c28.667 -27.333 50.667 -43 66 -47c29.333 -8 69.333 -12 120 -12c32.667 5.33301 67.667 10.333 105 15c33.333 1.33301 152.333 2 357 2h27l56 -2h86l72 -3l71 -3l457 -3h38c167.333 0 344 5.66699 530 17l256 16h214c74.667 0 116.334 -2 125 -6
c15.333 11.333 36.333 25.333 63 42z" />
    <glyph glyph-name="grave" unicode="`" horiz-adv-x="737" 
d="M678 1338c0 -22 -9.33301 -48 -28 -78c-169.333 44 -368.333 126.667 -597 248c-6.66699 4 -10 27 -10 69c0 46.667 13 70 39 70c14 0 48 -12 102 -36l245 -110c49.333 -22 123 -56.667 221 -104c18.667 -25.333 28 -45 28 -59z" />
    <glyph glyph-name="a" unicode="a" horiz-adv-x="1119" 
d="M1078 36c0 -24 -7.16797 -45.999 -21.501 -65.999s-30.5 -30 -48.5 -30c-26 4.66699 -101 40 -225 106c-71.333 37.333 -110.333 57.333 -117 60c-28 0 -67.333 -11.333 -118 -34c-67.333 -30 -106.333 -47 -117 -51c-44.667 -14.667 -89 -22 -133 -22
c-56 0 -124.667 37.333 -206 112c-28 40 -42 75.667 -42 107c0 42 13.667 98 41 168c6 16.667 25.333 32.667 58 48l62 29c144 88 275.667 132 395 132c34 0 78.333 -10 133 -30c16 -6 35.667 -29 59 -69c24 -40 36 -69.667 36 -89c0 -33.333 -19.667 -62.333 -59 -87
c-82 46 -146 69 -192 69c-49.333 0 -100 -12.333 -152 -37c-65.333 -30.667 -117.666 -64.334 -156.999 -101.001c4.66699 -20 28.334 -30 71.001 -30c-3.33301 0 -5 0.333008 -5 1c0 4.66699 44.333 20.667 133 48c105.333 33.333 183.666 50 234.999 50
c14 0 63.667 -35.667 149 -107c92 -77.333 157.667 -126 197 -146c16 -14 24 -24.333 24 -31z" />
    <glyph glyph-name="b" unicode="b" horiz-adv-x="1239" 
d="M1220 503c0 -84 -76.3301 -173.664 -228.997 -268.997c-134.667 -84 -244 -128.333 -328 -133c-8 -6.66699 -23.333 -15.334 -46 -26.001c-26 -10 -79 -23 -159 -39c-183.333 -38 -292 -57 -326 -57c-20.667 0 -40.834 10.167 -60.501 30.5s-29.5 40.166 -29.5 59.499
c0 9.33301 17.667 24.666 53 45.999l54 32c0 10.667 -12.333 36.334 -37 77.001c-14.667 24.667 -22 53.667 -22 87c0 6 4.16699 37 12.5 93s12.5 87.667 12.5 95c0 24 -16.667 50.333 -50 79c0 4 -3.83301 19 -11.5 45s-11.5 40 -11.5 42c0 21.333 34.333 53 103 95
c4 42 9 81 15 117c39.333 222 85.666 418.667 138.999 590c13.333 41.333 46.666 70.666 99.999 87.999c28 -14.667 57.667 -69.334 89 -164.001c-2 -8.66699 -11.333 -37.667 -28 -87c-20 -56.667 -33.667 -97 -41 -121c-2.66699 -34 -9.33398 -97.333 -20.001 -190
c-1.33301 -5.33301 -8.16602 -31 -20.499 -77s-18.5 -69.333 -18.5 -70c0 -34 31.667 -51 95 -51c240.667 0 430 -19 568 -57c45.333 -12.667 89.333 -44.667 132 -96c43.333 -51.333 65 -97.666 65 -138.999zM1029 509.003c0 36 -64.3359 65.667 -193.003 89
c-93.333 16.667 -177.666 25 -252.999 25c-51.333 -11.333 -81 -17 -89 -17h-1c-32.667 4 -57.667 6 -75 6c-9.33301 0 -16.666 -0.333008 -21.999 -1c-37.333 -8 -61.666 -26.333 -72.999 -55c-0.666992 -9.33301 -4 -30.333 -10 -63
c-23.333 -131.333 -36.333 -197 -39 -197c-0.666992 0 -1 1.33301 -1 4c23.333 -70.667 35 -112.667 35 -126h36c44.667 18 98 36 160 54c112.667 32.667 226 76 340 130c123.333 58 185 108.333 185 151z" />
    <glyph glyph-name="c" unicode="c" horiz-adv-x="1105" 
d="M1021 183c1.33301 -10 1.99902 -20.001 1.99902 -30.001c0 -59.333 -33.667 -89 -101 -89c-2 0 -7.16699 1.33301 -15.5 4s-13.5 4 -15.5 4c-4.66699 0 -24.334 -8.33301 -59.001 -25c-39.333 -18 -62.666 -27.667 -69.999 -29
c-110.667 -24.667 -190.334 -37 -239.001 -37c-4 0 -14.333 1.33301 -31 4c-6 0.666992 -12.333 1 -19 1c-7.33301 0 -15 -0.333008 -23 -1c-17.333 -8.66699 -33.666 -13 -48.999 -13c-70 0 -138.333 20 -205 60c-68 41.333 -111.667 89.333 -131 144
c-14.667 44 -22.334 66 -23.001 66v0c0 50.667 10.333 94 31 130c32 54.667 88.333 113.334 169 176.001c38.667 29.333 87.667 57 147 83c117.333 50 202.666 75 255.999 75c2 0 15.833 -1.5 41.5 -4.5s39.834 -4.5 42.501 -4.5c61.333 0 102.333 -7.5 123 -22.5
s31 -45.5 31 -91.5v1c-1.33301 0 -11.666 -20 -30.999 -60c-12 -8 -30 -12 -54 -12c-3.33301 0 -12.666 1.33301 -27.999 4c-16.667 2.66699 -26 4 -28 4c-84 0 -215.667 -49.333 -395 -148c-44 -24.667 -74.333 -68 -91 -130c80 -57.333 164.333 -86 253 -86h-1
c0 0.666992 42.667 3.66699 128 9l126 8c2 0 34.667 5 98 15c64 8.66699 97 13 99 13c25.333 0 46 -6 62 -18z" />
    <glyph glyph-name="d" unicode="d" horiz-adv-x="1510" 
d="M1426 1557c0 -266.667 -4.66895 -438.668 -14.002 -516.001c4.66699 -46.667 7 -104.667 7 -174c0 -87.333 -3.33301 -191 -10 -311c-15.333 -22 -37 -55.667 -65 -101l-38 9h1c0 0.666992 -62.333 6.33398 -187 17.001l-187 16c-80 0 -186.333 -12 -319 -36
c-144.667 -26 -227.667 -53 -249 -81c-2 -1.33301 -21 -9 -57 -23c-36 -15.333 -54 -34.666 -54 -57.999c0 -8.66699 11 -25 33 -49c22 -23.333 41.667 -40 59 -50c58.667 -32.667 126 -49 202 -49c42 0 173 17 393 51l330 52h27c8 0 12 -6.66699 12 -20
s-7.66699 -32.666 -23 -57.999c-15.333 -24.667 -30 -40.334 -44 -47.001c-32 -15.333 -145 -48 -339 -98c-150.667 -38.667 -260 -58 -328 -58c-5.33301 -0.666992 -15.333 -1.33398 -30 -2.00098c-16 0 -41 -0.666992 -75 -2l-110 -3l-48 21
c-16.667 0.666992 -42 7.33398 -76 20.001c-47.333 34 -83.666 69.667 -108.999 107c-17.333 26 -35.333 65.333 -54 118c-16 47.333 -24 77.666 -24 90.999c0 33.333 19.667 73.333 59 120c64 77.333 181.667 133.333 353 168c10.667 5.33301 23.334 12 38.001 20
c69.333 10 141.333 23 216 39c52 12 130 18 234 18c175.333 0 271 1 287 3c4.66699 126 17.334 277.667 38.001 455c-10 28.667 -15.667 72 -17 130c2.66699 10.667 4 37.667 4 81c0 27.333 -0.666992 61 -2 101v36c0 79.333 6 135.333 18 168c8.66699 24 37.667 36 87 36
c8.66699 0 24.667 -6 48 -18c7.33301 -86 11.666 -129 12.999 -129v6z" />
    <glyph glyph-name="e" unicode="e" horiz-adv-x="1040" 
d="M983 547c4.66699 -15.333 6.99805 -37.668 6.99805 -67.001c0 -16.667 -0.666992 -36 -2 -58c-5.33301 -65.333 -19.666 -104 -42.999 -116c-36 0 -114.333 -8 -235 -24l-180 -24h1c0 -1.33301 -31.333 -8.66602 -94 -21.999c-7.33301 6 -25.666 9 -54.999 9l-15 -15
c0 -18.667 70.333 -47.667 211 -87c38.667 -2 82.667 -5.66699 132 -11c82.667 -10 124 -30.667 124 -62c0 -8.66699 -25.667 -26 -77 -52l-41 -40c-47.333 -4.66699 -71 -7.66699 -71 -9h2c-3.33301 0 -37.333 2.33301 -102 7l-105 8c-22 0 -58 11.667 -108 35l-87 45
c-56.667 20 -108.167 57.5 -154.5 112.5s-69.5 105.167 -69.5 150.5c0 56 7 97.333 21 124c99.333 195.333 301 293 605 293c98.667 0 172.667 -22.667 222 -68c38.667 -34.667 76.667 -77.667 114 -129zM777.998 465.998c-10 31.333 -17.333 56.666 -22 75.999
c-2 6.66699 -20.333 18.667 -55 36c-76 -6.66699 -158 -17.667 -246 -33c-22 -3.33301 -50.333 -16.666 -85 -39.999c-34 -23.333 -51 -41.333 -51 -54c0 -12 3.66699 -18 11 -18h317c74 0 117.667 11 131 33z" />
    <glyph glyph-name="f" unicode="f" horiz-adv-x="1333" 
d="M1697 1199c0 -28.667 -0.99707 -47.667 -2.99707 -57l-9.5 -10.5c-6.33301 -7 -9.5 -13.167 -9.5 -18.5c0 -4 6 -6 18 -6l-54 -7c-6.66699 0 -29.667 18.333 -69 55c-49.333 45.333 -86.333 74.666 -111 87.999c-70 38.667 -179 58 -327 58
c-3.33301 0 -22.333 -3.33301 -57 -10c-34 -8 -51.333 -12 -52 -12c-95.333 -10.667 -209 -81 -341 -211c-27.333 -27.333 -60.333 -91 -99 -191c-41.333 -108 -62 -194 -62 -258c6 -56 9 -87.667 9 -95c19.333 -8.66699 43.666 -13 72.999 -13h-1c0 2 96 18.333 288 49
c133.333 21.333 237.666 32 312.999 32c32 0 63 -9 93 -27c-2.66699 -17.333 -20 -40 -52 -68s-62 -47 -90 -57c-68 -8 -165 -23.333 -291 -46l-306 -107c2.66699 -29.333 16 -70.666 40 -123.999c36.667 -40 55 -66.667 55 -80s-9.33301 -35.5 -28 -66.5
s-32.334 -46.5 -41.001 -46.5c-49.333 0 -102.333 47 -159 141l-84 141c-128.667 -26.667 -195.667 -40 -201 -40c-28 0 -52.167 12.333 -72.5 37s-30.5 52.667 -30.5 84c0 12 9.66699 29.667 29 53c20 24 36.333 37.667 49 41c42.667 12.667 68.334 19 77.001 19
c1.33301 0 4.66602 -1 9.99902 -3s9 -3 11 -3c36 0 60.333 3.66699 73 11c31.333 20 48.666 63 51.999 129c18.667 366 178 650.667 478 854c38 26 82 41.333 132 46c31.333 6 69 12 113 18c13.333 2 71 3 173 3c100 0 188.667 -14.667 266 -44
c18 -3.33301 51.667 -16.333 101 -39c32.667 -22 52.334 -43.333 59.001 -64c25.333 -80 38 -131.667 38 -155z" />
    <glyph glyph-name="g" unicode="g" horiz-adv-x="1073" 
d="M919 -114c0 -2 -4.66797 -11.8359 -14.001 -29.5029s-14 -26.834 -14 -27.501c-16 -158.667 -74.333 -335.667 -175 -531c-82 -98 -177 -178.333 -285 -241s-205.333 -94 -292 -94c-117.333 0 -241.333 37.667 -372 113c-122 70.667 -204.667 144.667 -248 222
c-26.667 45.333 -40 114 -40 206c0 111.333 110 199 330 263c114.667 16.667 233 36.667 355 60c208.667 39.333 390 61 544 65c15.333 6 23 32.667 23 80v168c0 8.66699 -0.666992 13 -2 13v0c-1.33301 -2 -2.66602 -4.66699 -3.99902 -8
c-2 2.66699 -3.66699 10.334 -5 23.001c-7.33301 82 -33.333 158 -78 228c-12.667 0.666992 -24.334 1 -35.001 1c-22.667 0 -41 -2 -55 -6c-116 -29.333 -188 -44 -216 -44c-2 0 -9 2.66699 -21 8s-19.667 8 -23 8c-48 0 -90.833 14 -128.5 42s-56.5 59.333 -56.5 94
c0 52.667 15.333 100.334 46 143.001c34.667 50.667 85 84.334 151 101.001c16 4.66699 59 15 129 31c55.333 18.667 140.666 28 255.999 28c24 0 45 -5 63 -15c4 0.666992 8.33301 1 13 1c14.667 0 32.667 -1.66699 54 -5c38 -18 57 -44 57 -78
c-4 -5.33301 -15.333 -25.333 -34 -60c-62 10 -108 15 -138 15c-55.333 0 -131.166 -16.667 -227.499 -50s-144.5 -60 -144.5 -80c8.66699 -0.666992 17.334 -1 26.001 -1c46 0 101 10.333 165 31c24.667 8 78 12 160 12c32.667 0 55.667 -7.33301 69 -22
c66 -76 106.667 -158.667 122 -248l27 -160v-66c0 -37.333 -1.66699 -57.666 -5 -60.999l-5 -5l15 -67c8.66699 -36 13 -55 13 -57zM710.999 -199.003c-30 11.333 -53 17.001 -69 17.001c-37.333 0 -78.333 -6 -123 -18c-11.333 -8.66699 -27.333 -18 -48 -28
c-26.667 -1.33301 -63.667 -6 -111 -14c-51.333 -18.667 -110.333 -38 -177 -58c-23.333 -6.66699 -117 -30.667 -281 -72l-83 -42c-102 -39.333 -153 -79 -153 -119c0 -57.333 47.667 -110 143 -158c32.667 -27.333 79.667 -58 141 -92c66.667 -23.333 140 -35 220 -35
c4 0 23.667 2.33301 59 7l56 7c29.333 0 81.333 27 156 81c65.333 47.333 112.333 89 141 125c42 54 72 105 90 153c26 69.333 39 145.666 39 228.999v17z" />
    <glyph glyph-name="h" unicode="h" horiz-adv-x="1428" 
d="M1316 52c0 -12.667 -11.0039 -38 -33.0039 -76c-11.333 -2.66699 -31.666 -8 -60.999 -16c12.667 -3.33301 28.334 -9 47.001 -17l-22 -19c-69.333 12 -117.666 58.333 -144.999 139c2.66699 51.333 4 126.333 4 225c-3.33301 6 -13.666 16 -30.999 30
c-94.667 -12.667 -187 -29.667 -277 -51c-43.333 -10 -174 -61 -392 -153c-137.333 -57.333 -221.666 -86 -252.999 -86c-28.667 0 -52 19.333 -70 58c-13.333 29.333 -20 54.333 -20 75c0 68.667 32 208.667 96 420c7.33301 13.333 18 35.333 32 66
c10 59.333 21.333 113 34 161c36.667 144 117.667 425.333 243 844v10c0 14 3.33301 33 10 57c14.667 28 44.667 42 90 42c20 0 32.667 -5.66699 38 -17c18.667 -53.333 28 -85.666 28 -96.999c0 -10 -29.667 -119.667 -89 -329c-56.667 -200 -91.667 -319.333 -105 -358
c-30 -87.333 -66 -215 -108 -383c-36 -146 -54 -227.667 -54 -245v-24c8.66699 -8 21.667 -12 39 -12c7.33301 0 27.666 7 60.999 21l72 30c58 18 164.667 47 320 87c176.667 46 276.667 69 300 69h24c132 0 198 -74.667 198 -224c0 -22.667 -3 -59.667 -9 -111v-3
c0 -10.667 5 -31.334 15 -62.001z" />
    <glyph glyph-name="i" unicode="i" horiz-adv-x="458" 
d="M381 1065c0 -16.667 -19.667 -47.335 -59 -92.002c-66 18.667 -99 46.334 -99 83.001c0 35.333 13.333 76 40 122c14 1.33301 43 5 87 11c20.667 -43.333 31 -84.666 31 -123.999zM317 610.999c2 -8 6.33398 -168.667 13.001 -482v-2c0 -12 -7.33301 -48 -22 -108l-26 -6
c-0.666992 -0.666992 -2 -1 -4 -1c-13.333 0 -42.333 8.33301 -87 25c0.666992 2 1 4.33301 1 7c0 14 -7.33301 32.333 -22 55c-22.667 34 -35.334 56 -38.001 66c-0.666992 2 -1 6.33301 -1 13c0 20.667 2.66699 62 8 124c10.667 126 26 239.333 46 340
c18 24 40.333 36 67 36c29.333 0 51 -22.333 65 -67z" />
    <glyph glyph-name="j" unicode="j" horiz-adv-x="686" 
d="M500 1085l-0.000976562 -33c0 -95.333 -29 -143 -87 -143c-11.333 0 -25.833 7.5 -43.5 22.5s-26.5 27.5 -26.5 37.5c0 88 32.667 132 98 132c10.667 0 30.334 -5.33301 59.001 -16zM575.999 437c0 -4.66699 -3.66797 -21.667 -11.001 -51l-15 -54
c6 -34.667 9 -69.667 9 -105v-9c-2 -135.333 -20.333 -285.666 -55 -450.999c0 -18 -15.333 -103 -46 -255c0 -23.333 -1.33301 -58.333 -4 -105c-38.667 -150.667 -70.667 -263.667 -96 -339c-6 -6.66699 -28.333 -28.834 -67 -66.501s-63 -56.5 -73 -56.5h1
c0 2.66699 -19.667 12.667 -59 30c-20.667 3.33301 -48.667 10.333 -84 21c-76 32 -126 63.667 -150 95c-16 33.333 -44.333 79.333 -85 138l12 95l126 -87c66 -44 117.333 -66 154 -66c30 0 51.333 16.333 64 49c6.66699 22 14 52.667 22 92c4 18.667 18.667 96.667 44 234
c4.66699 23.333 21.334 74.666 50.001 153.999c2.66699 6 4 18 4 36v12c0 16.667 2 32.667 6 48c0 -1.33301 -0.333008 -2 -1 -2v2c0 12.667 4.66699 46.334 14 101.001c4.66699 30.667 15 124.667 31 282v15c0 70 8.66699 164.667 26 284c4 14 15.333 31.333 34 52
c19.333 21.333 33 32 41 32c4.66699 -1.33301 27.667 -5.33301 69 -12c26 -25.333 39 -63 39 -113z" />
    <glyph glyph-name="k" unicode="k" horiz-adv-x="1348" 
d="M533 273l143 -50.998l181 -59c73.333 -26 123.666 -42.333 150.999 -49c42.667 -10 88.667 -28 138 -54c44 -23.333 68.667 -36 74 -38c6.66699 0 25 7 55 21c8.66699 4.66699 24.667 12 48 22v52c0 25.333 -55.333 72 -166 140
c-93.333 57.333 -149.666 88.333 -168.999 93l-274 72c-38.667 1.33301 -79.667 8 -123 20c29.333 24.667 117.666 60 264.999 106c157.333 49.333 250.333 81.666 279 96.999c28.667 16 43 43.333 43 82v75c-60.667 26 -91 40 -91 42h1c-6.66699 0 -59.667 -20 -159 -60
c-121.333 -49.333 -190.333 -76 -207 -80c-44.667 -12.667 -101.334 -31 -170.001 -55c-34 -12.667 -51 -20.334 -51 -23.001c0.666992 -1.33301 1.66699 -2 3 -2c-2 0 -6.66699 -1.83301 -14 -5.5s-12 -5.5 -14 -5.5c-20.667 0 -51 -12 -91 -36l142 524
c0.666992 74 32.334 194.333 95.001 361c8 22.667 12 56.667 12 102c0 43.333 -21.667 65 -65 65c-35.333 0 -62 -16.667 -80 -50l-34 -88c-2.66699 -4.66699 -16.334 -32.334 -41.001 -83.001c2 -10 3 -23 3 -39l-41 -81l-100 -436c-26 -57.333 -55 -138.333 -87 -243
c-0.666992 -20.667 -10 -58.667 -28 -114c-19.333 -62 -29.666 -100 -30.999 -114c-5.33301 -68.667 -27.333 -156.667 -66 -264c4 -4 22.333 -24 55 -60c19.333 -22 36.333 -33 51 -33c22.667 0 37.334 13 44.001 39c9.33301 30.667 27 51.334 53 62.001l70 253
c34.667 -34 100 -69 196 -105z" />
    <glyph glyph-name="l" unicode="l" horiz-adv-x="583" 
d="M547 1585l0.000976562 -193.999c-22.667 -74 -46.667 -196 -72 -366c-4.66699 -28.667 -25.334 -111 -62.001 -247c2 -14 3.33301 -35.333 4 -64c-12 -49.333 -25.667 -124 -41 -224c-1.33301 -37.333 -2 -71.333 -2 -102c0 -84.667 4.66699 -144.334 14 -179.001
c-4.66699 -8 -8.66699 -18.667 -12 -32c15.333 -16 23 -36 23 -60c0 -30 -8.66699 -56.833 -26 -80.5s-38 -35.5 -62 -35.5c-12 0 -32 9.16699 -60 27.5s-46 34.833 -54 49.5c-2 6.66699 -6.33301 49.667 -13 129c-10.667 13.333 -16 22 -16 26v242l143 924
c11.333 44 17.333 70.667 18 80v1c0 7.33301 -2.33301 26 -7 56l-7 49l59 119l27 15c22 0 52 -17.667 90 -53c37.333 -34.667 56 -61.667 56 -81z" />
    <glyph glyph-name="m" unicode="m" horiz-adv-x="2095" 
d="M1995 -78c-2.66699 0 -16.499 -1.66504 -41.499 -4.99805s-38.5 -5 -40.5 -5c-26.667 0 -56.667 19 -90 57c0.666992 2 1 4 1 6c0 8.66699 -2.66699 20.334 -8 35.001c-33.333 57.333 -52.333 183.666 -57 378.999c-4 6 -10.667 13.333 -20 22
c-82.667 -3.33301 -189.667 -56.333 -321 -159l-310 -240c-18 -14 -45.667 -21 -83 -21c-84.667 0 -130.334 31.333 -137.001 94c-0.666992 2.66699 -1 7 -1 13c0 20 2 60.333 6 121c5.33301 76.667 8 141.667 8 195c0 57.333 -3.33301 105.666 -10 144.999
c-7.33301 14.667 -20 22 -38 22c-30 0 -88 -34.667 -174 -104c-26.667 -20.667 -76.334 -62 -149.001 -124l-142 -138c-88.667 -84.667 -152.334 -127 -191.001 -127c-24 0 -50.333 19.667 -79 59c-24.667 34.667 -37 56.667 -37 66c0 46 11 119 33 219
c29.333 131.333 63.333 197 102 197c37.333 0 65.666 -18 84.999 -54l46 -84l224 161c140 98 241.667 147 305 147c45.333 0 95.666 -32.333 150.999 -97c44.667 -52.667 68.334 -86.334 71.001 -101.001c14 -78.667 21 -153.667 21 -225v-32
c4.66699 -3.33301 10.667 -5 18 -5c24.667 0 59.334 20 104.001 60l301 187c84.667 39.333 169.334 59 254.001 59h30c12 -24 30 -41.333 54 -52c28.667 -34 60.334 -85 95.001 -153c4.66699 -29.333 7 -65 7 -107s-2.33301 -90.333 -7 -145c-1.33301 -10 -2 -21.333 -2 -34
c0 -28.667 2.66699 -62 8 -100c9.33301 -66 14 -110 14 -132z" />
    <glyph glyph-name="n" unicode="n" horiz-adv-x="1109" 
d="M1042 145c0 -96.667 -22.668 -144.998 -68.001 -144.998c-6 0 -21.333 6 -46 18c-28.667 14 -49.667 22.333 -63 25c-38 59.333 -57 118.666 -57 177.999c0 66 -22 168 -66 306c-7.33301 9.33301 -23.666 14 -48.999 14c-22 0 -50.667 -9.66699 -86 -29l-29 -16l-57 -30
c-26 -18.667 -75.667 -71 -149 -157c-84 -98.667 -135.333 -148 -154 -148c-48 0 -88.333 30.333 -121 91c-28 50.667 -42 99.667 -42 147c0 18.667 14.333 57 43 115c0 12 3 31.333 9 58c4 15.333 21.667 51.666 53 108.999c1.33301 0 11.333 2.33301 30 7
c18.667 3.33301 29.334 5 32.001 5c2 -9.33301 16.667 -25 44 -47s46 -33 56 -33c2 0 63.333 26.667 184 80c120 54 181.667 81 185 81c68 0 141.333 -50 220 -150c17.333 -22 42.666 -61.333 75.999 -118c36.667 -92 55 -212.333 55 -361z" />
    <glyph glyph-name="o" unicode="o" horiz-adv-x="1239" 
d="M1206 432c0 -80.667 -19.667 -145.334 -59 -194.001c-40.667 -48.667 -118 -102 -232 -160c-80.667 -40.667 -171 -72.667 -271 -96l-87 -21c-83.333 0 -177.333 28 -282 84c-117.333 62 -184.333 134 -201 216l-17 50c-11.333 30.667 -17 48 -17 52
c0 12.667 7.66699 44 23 94s28 83 38 99c12.667 22.667 43.667 45.334 93 68.001l98 46c69.333 40 151 79 245 117l76 5l38 19c4 0 25.667 2 65 6s60.333 6 63 6c198 0 326 -84.333 384 -253c28.667 -82 43 -128 43 -138zM1002 472c0 99.333 -62.333 149 -187 149
c-90.667 0 -195.667 -19.667 -315 -59l-38 -29c-28.667 -2 -53.334 -9 -74.001 -21c-89.333 -87.333 -134 -143.333 -134 -168c0 -40 35.667 -79 107 -117c62.667 -33.333 114.334 -50 155.001 -50c68.667 0 162.667 29.667 282 89c136 68 204 136.667 204 206z" />
    <glyph glyph-name="p" unicode="p" horiz-adv-x="1428" 
d="M1397 333c0 -72.667 -53.3311 -151.668 -159.998 -237.001c-92.667 -75.333 -180.667 -124.666 -264 -147.999c-22.667 -20 -42 -30 -58 -30l-7.5 4.5c-5 3 -9.83301 4.5 -14.5 4.5c-2.66699 0 -45.5 -9.33301 -128.5 -28s-125.5 -28 -127.5 -28s-13.333 -1.33301 -34 -4
s-32 -4 -34 -4c-26 0 -59.667 18.333 -101 55c-2.66699 -2 -7 -6.66699 -13 -14c-0.666992 -10 -16 -119.667 -46 -329c-3.33301 -20.667 -10 -96.334 -20 -227.001c-8.66699 -113.333 -26 -192 -52 -236c-2 0.666992 -3.66699 1.33398 -5 2.00098
c-6.66699 0 -14.667 -1.33301 -24 -4c-16 -3.33301 -25 -5 -27 -5c-39.333 0 -78.333 28 -117 84v192c0 4 4.66699 12.667 14 26c-0.666992 16.667 -1 35.334 -1 56.001c0 63.333 2.66699 144.333 8 243c8 18.667 18.333 48.667 31 90c8.66699 106 32.667 266.667 72 482
c41.333 49.333 71.333 74 90 74c31.333 0 59.666 -15.333 84.999 -46c24.667 -32 37 -66 37 -102c0 -48 -12.667 -120 -38 -216c10.667 -8.66699 18.334 -13 23.001 -13c30.667 0 136 39.333 316 118c85.333 36.667 166.333 75.667 243 117c50.667 37.333 98.667 82 144 134
c8.66699 10.667 13 25.667 13 45c0 8.66699 -12.5 28.5 -37.5 59.5s-45.833 52.167 -62.5 63.5c-47.333 33.333 -108 50 -182 50c-108 0 -220 -18 -336 -54c-126 -39.333 -199.333 -64 -220 -74c-71.333 -33.333 -107 -76.333 -107 -129c0 -4 1.33301 -8 4 -12
c-10.667 -19.333 -22.334 -46.333 -35.001 -81c-4.66699 -3.33301 -23.667 -13 -57 -29c-58.667 42 -88 86.667 -88 134l24 33c-2.66699 8 -4 18 -4 30c0 5.33301 0.333008 11.666 1 18.999c36 76.667 122.333 151.667 259 225c137.333 72.667 259.666 109.667 366.999 111
c2.66699 2 9 5.33301 19 10c22 8 61 12 117 12c126 0 237 -28 333 -84c26 -15.333 69.667 -62 131 -140c46.667 -58 70 -124.667 70 -200z" />
    <glyph glyph-name="q" unicode="q" horiz-adv-x="1413" 
d="M1369 662c0 -48 -26.9971 -71.9971 -80.9971 -71.9971c-6.66699 2.66699 -42.334 14.667 -107.001 36c-59.333 18.667 -134 28 -224 28c-28.667 0 -82.334 -10 -161.001 -30l-126 -33c-231.333 -41.333 -347 -113 -347 -215c0 -18.667 12.667 -36 38 -52
c26 -16 54 -24 84 -24c66 0 180.333 32 343 96l245 97c14 0 57.333 -38.333 130 -115c3.33301 -6.66699 5 -17.667 5 -33c0 -10.667 -8.33301 -37 -25 -79c-22.667 -56 -36.334 -92 -41.001 -108c-32.667 -122 -58.334 -236.667 -77.001 -344l-101 -610v-10
c0 -17.333 6.33301 -35.333 19 -54c-7.33301 -18.667 -21.333 -49.667 -42 -93c-24 -52.667 -52 -79 -84 -79c-40.667 0 -69 11.333 -85 34c-25.333 35.333 -38 74.666 -38 117.999c0 2 3.33301 9.66699 10 23s10 21 10 23c10 187.333 15 342.666 15 465.999l75 510
c2.66699 0.666992 4 1.66699 4 3c-2.66699 1.33301 -10 2 -22 2c-142 -32.667 -215.667 -49 -221 -49h-101c-42 0 -102 16 -180 48c-89.333 36.667 -145.666 76 -168.999 118c-34 59.333 -51 110.333 -51 153c0 35.333 28.667 89 86 161s101 109.667 131 113
c126.667 39.333 306.667 88 540 146c41.333 6 136 9 284 9c9.33301 0 64 -19.667 164 -59c16 -6.66699 37 -25.334 63 -56.001c24.667 -30.667 37 -53.667 37 -69z" />
    <glyph glyph-name="r" unicode="r" horiz-adv-x="1306" 
d="M1386 588c-2 -1.33301 -32.001 -18.665 -90.001 -51.998l-18 17c-13.333 -11.333 -25.666 -17 -36.999 -17c-6.66699 0 -83 6.66699 -229 20l-229 21c-199.333 0 -339.333 -64.667 -420 -194c-20 -32 -38.333 -88 -55 -168c-4.66699 -4 -12.334 -11.667 -23.001 -23
c0 -44.667 -8.33301 -104.334 -25 -179.001c-29.333 -11.333 -60 -17 -92 -17c-72.667 0 -109 45.333 -109 136c2 14 7 61 15 141c9.33301 93.333 16 163.666 20 210.999c36.667 82.667 70 124 100 124l26.5 -11c17.667 -7.33301 28.834 -11 33.501 -11c2 0 28 19.667 78 59
c52.667 28.667 110.667 58 174 88c61.333 29.333 133.333 44 216 44c24 0 201.333 -28 532 -84c2 -3.33301 7.66699 -9.33301 17 -18l104 -12c0 -44.667 3.66699 -69.667 11 -75z" />
    <glyph glyph-name="s" unicode="s" horiz-adv-x="1070" 
d="M973 234c0 -11.333 -12.998 -27.1719 -38.998 -47.5049s-51.333 -34.166 -76 -41.499l-262 -81c-146.667 -44.667 -256 -67 -328 -67c-2 0 -16 2.66699 -42 8s-39.667 8 -41 8c-2.66699 0 -15.667 -2.66699 -39 -8l-35 -8c-10.667 0 -25 12.667 -43 38
c-18.667 24 -28 42.333 -28 55c0 4 10.333 19.667 31 47l307 57c131.333 24 221 50.333 269 79c0 4 -0.666992 8 -2 12c-22.667 17.333 -94.667 51 -216 101c-127.333 52.667 -200.666 84.667 -219.999 96c-24 8 -62 29 -114 63c-14.667 14 -22 43 -22 87
c0 -3.33301 -0.666992 -5 -2 -5s-3.66602 5.66699 -6.99902 17c-1.33301 4 -2 8 -2 12c0 28 32 54.333 96 79c76.667 30 191 58.167 343 84.5s277 39.5 375 39.5c26.667 0 44 -4.33301 52 -13c40 -44 60 -76 60 -96c0 -38 -13 -63 -39 -75
c-22.667 -6 -123.334 -18.667 -302.001 -38c-34 -14 -53 -21 -57 -21c-2 0 -7.66699 1.33301 -17 4c-10.667 2.66699 -17 4 -19 4c-36.667 0 -79.334 -12 -128.001 -36c9.33301 -17.333 24.666 -31.666 45.999 -42.999c22 -3.33301 68.333 -15.333 139 -36
c17.333 -6.66699 53.666 -19.667 108.999 -39l15 -5c10.667 -3.33301 43 -16.666 97 -39.999c33.333 -14 63 -37.333 89 -70c10.667 -12 19.667 -36.667 27 -74c0 -1.33301 4.16699 -8.66602 12.5 -21.999s12.5 -21.666 12.5 -24.999z" />
    <glyph glyph-name="t" unicode="t" horiz-adv-x="1108" 
d="M1250 738c0 -23.333 -9.83691 -41 -29.5039 -53s-56.834 -23 -111.501 -33c-46.667 -9.33301 -77 -19.333 -91 -30c-56.667 -7.33301 -86.667 -11 -90 -11c-55.333 0 -137.333 -7.66699 -246 -23c-34 -4 -54.333 -15.333 -61 -34
c-13.333 -38 -27.666 -97.333 -42.999 -178c-1.33301 -68.667 -14 -178.667 -38 -330c-22.667 -31.333 -34 -48 -34 -50v0c-73.333 4 -118.666 15.333 -135.999 34c-8 9.33301 -12 34.666 -12 75.999c0 50.667 15.667 205.334 47 464.001c-16.667 14.667 -32.667 22 -48 22
h-6c-19.333 -2.66699 -34.666 -4 -45.999 -4c-7.33301 0 -13 0.666992 -17 2c-67.333 3.33301 -134 6 -200 8c-82.667 14 -124 55.333 -124 124c0 23.333 9 44.333 27 63s38.333 28 61 28c2 0 20.833 -1.83301 56.5 -5.5s54.834 -5.5 57.501 -5.5
c1.33301 0 16.833 1.33301 46.5 4s45.5 4 47.5 4s10.333 -3 25 -9c14 -5.33301 22 -8 24 -8c3.33301 0 23 1.33301 59 4c34.667 2.66699 52.667 4 54 4c34 0 55.333 17 64 51c7.33301 27.333 18.333 71 33 131l69 195c2.66699 26 8 61 16 105
c17.333 24.667 34.333 54.334 51 89.001c78 163.333 144 245 198 245c23.333 0 56.333 -38 99 -114c0 -13.333 -12.333 -44 -37 -92c-13.333 -16 -30.666 -40.667 -51.999 -74c-17.333 -54.667 -54.333 -157.334 -111 -308.001
c-16.667 -43.333 -30.334 -112.333 -41.001 -207c50 -14 79 -21 87 -21l54 7c46 6 78.667 9 98 9c48.667 0 90.334 -4 125.001 -12l52 -12c82 0 123 -18.333 123 -55z" />
    <glyph glyph-name="u" unicode="u" horiz-adv-x="1380" 
d="M1312 724c0 -44.667 -4.66699 -78.666 -14 -101.999l-64 -164c-6.66699 -2 -14 -8 -22 -18c-4.66699 -23.333 -21.667 -51 -51 -83l-70 -78c-2 -6 -4.33301 -14.333 -7 -25c-69.333 -69.333 -162.666 -133 -279.999 -191c-112.667 -34 -194.334 -51 -245.001 -51
c-32 0 -78.667 9.33301 -140 28c-232 70 -348 233.333 -348 490c0 88 28.333 167.667 85 239h52c42 -30.667 63 -78.334 63 -143.001c0 -3.33301 -1.16699 -25.666 -3.5 -66.999s-3.5 -64.333 -3.5 -69c0 -115.333 62 -190 186 -224c44 -12 66 -18.667 66 -20
c0 -0.666992 -0.666992 -1 -2 -1c1.33301 0 12.833 1.16699 34.5 3.5s34.167 3.5 37.5 3.5c66 0 156.333 37.667 271 113c68 45.333 135.667 111.666 203 198.999c68 86.667 106.333 156.667 115 210c2 10 14.333 25 37 45c23.333 20.667 39.333 31 48 31
c34.667 0 52 -42 52 -126z" />
    <glyph glyph-name="v" unicode="v" horiz-adv-x="1220" 
d="M1181 623c0 -16.667 -7.99805 -34.332 -23.998 -52.999l-162 -124c-0.666992 -8 -2 -18.333 -4 -31c-346 -258.667 -530.667 -388 -554 -388c-10.667 0 -35.334 12.667 -74.001 38c-39.333 26 -62.333 44 -69 54c-92 157.333 -162 297 -210 419
c-4 5.33301 -10.333 13.333 -19 24c-10 13.333 -15 25.333 -15 36c31.333 81.333 61 122 89 122c7.33301 0 55.666 -67 144.999 -201c90 -134.667 140 -202 150 -202c9.33301 0 40.833 15.833 94.5 47.5s88.167 54.5 103.5 68.5c43.333 22.667 102 57 176 103
c16 16 44.333 38.667 85 68c63.333 26.667 145.333 54.667 246 84c28 -20.667 42 -42.334 42 -65.001z" />
    <glyph glyph-name="w" unicode="w" horiz-adv-x="1850" 
d="M2054 817c0 -26.667 -40.6602 -66.999 -121.993 -120.999c-6 -14 -17 -32.667 -33 -56c-21.333 -16 -47.333 -39.667 -78 -71c-8.66699 -18 -25.667 -45 -51 -81c-20.667 -16.667 -44.667 -38 -72 -64l-60 -90c-14.667 -20 -64.334 -73.333 -149.001 -160
c-102.667 -104 -168.334 -156 -197.001 -156c-60.667 0 -169.334 100 -326.001 300l-82 104c-6.66699 0 -41.334 -29.333 -104.001 -88c-80 -74 -130.667 -119 -152 -135c-172.667 -130.667 -272.334 -196 -299.001 -196c-40 0 -72.333 14 -97 42
c-44.667 50 -90.667 176.667 -138 380c-39.333 166 -59 258 -59 276c0 7.33301 16.333 36.666 49 87.999c20 8 32.667 12 38 12c18.667 0 41.667 -14.667 69 -44s42.666 -55.666 45.999 -78.999c0 -12 1.66699 -30.667 5 -56c24 -67.333 40.667 -122 50 -164
c1.33301 -34.667 17.333 -87.334 48 -158.001h25c38 0 123.333 64.667 256 194l238 233c12 11.333 31.667 17 59 17c44.667 0 86 -40.667 124 -122c26 -54.667 43.333 -87.667 52 -99l67 -119c40 -69.333 72.333 -104 97 -104c18.667 0 69 42.667 151 128l153 159
c29.333 30 152.666 132 369.999 306c16.667 1.33301 46.667 8.33301 90 21c21.333 -36.667 32 -69 32 -97z" />
    <glyph glyph-name="x" unicode="x" horiz-adv-x="1269" 
d="M1237 778c0 -34 -9.33301 -55.334 -28 -64.001c-27.333 -12 -112.666 -30.667 -255.999 -56c-17.333 -2.66699 -59 -20.334 -125 -53.001c-76 -38 -114 -64.333 -114 -79c0 -6 15.667 -25 47 -57l61 -62l128 -159c48.667 -62 73 -116.333 73 -163
c0 -2 -1.83301 -14.167 -5.5 -36.5s-5.5 -34.166 -5.5 -35.499c-0.666992 -8 -7.66699 -12 -21 -12c-53.333 0 -92.333 11.667 -117 35c-15.333 14.667 -83.333 89.334 -204 224.001c-91.333 101.333 -145 152 -161 152c-66 0 -161.667 -66.667 -287 -200
c-5.33301 -4 -10.666 -20 -15.999 -48c-33.333 -18 -55.333 -27 -66 -27h-46c-26 0 -40 29 -42 87v3c0 48 44.667 123.667 134 227c83.333 96.667 128.666 145 135.999 145v-1l-112.5 126c-75 84 -112.5 133.667 -112.5 149c0 14 11.667 36 35 66s41.666 45 54.999 45
c26.667 0 92.667 -46.667 198 -140l157 -140c9.33301 3.33301 39.333 18.333 90 45c62.667 32.667 100.667 51 114 55c162 52 280.667 78 356 78c90 0 135 -34.667 135 -104z" />
    <glyph glyph-name="y" unicode="y" horiz-adv-x="1231" 
d="M1193 454c0 -11.333 -14.833 -47.999 -44.5 -109.999s-54.167 -107 -73.5 -135c-14 -10 -30 -24.667 -48 -44c-10.667 -26.667 -38.667 -84.667 -84 -174l-4 -12v-3c-2.66699 -0.666992 -9.66699 -11.667 -21 -33c-11.333 -7.33301 -25.333 -21.333 -42 -42
c-4 -10 -9.33301 -36.667 -16 -80c-17.333 0 -30.166 -11 -38.499 -33l-48.5 -127c-10.667 -28 -34 -69.667 -70 -125c2 -11.333 3 -27.333 3 -48c-10 -13.333 -23.667 -35 -41 -65v0c0 -6 -13.667 -63.667 -41 -173l-49 -123c-1.33301 -7.33301 -13 -50.333 -35 -129
c-6.66699 -23.333 -28.334 -35 -65.001 -35c-35.333 0 -65.5 13 -90.5 39s-37.5 57.333 -37.5 94c0 25.333 17.333 85.333 52 180c4.66699 12.667 16 48.667 34 108c8 8 18.333 21.667 31 41c10 46 99.333 271.333 268 676l-14 13c-99.333 -42 -178.333 -63 -237 -63
c-2 0 -18.333 4 -49 12c-31.333 8.66699 -48 13 -50 13c-1.33301 0 -6.33301 -1.66699 -15 -5c-8.66699 -2.66699 -14.334 -4 -17.001 -4c-29.333 0 -71 15.667 -125 47c-44 26.667 -72.667 47.334 -86 62.001c-31.333 34 -52.333 77.333 -63 130c2.66699 3.33301 4 7 4 11
c-1.33301 4 -2.66602 7.33301 -3.99902 10c-22.667 27.333 -34 75 -34 143c0 70 4.33301 115 13 135c24 49.333 46 74 66 74c56.667 0 93.667 -50.667 111 -152c4 -22.667 10 -74.334 18 -155.001c36.667 -64 87 -96 151 -96c10.667 2 37.334 8.66699 80.001 20
c56 15.333 91.667 24.333 107 27c75.333 13.333 149.666 43.666 222.999 90.999l186 119c10 14 25.667 33 47 57h100c32.667 -46.667 49 -92 49 -136z" />
    <glyph glyph-name="z" unicode="z" horiz-adv-x="1390" 
d="M1306 179c0 -40 -27.332 -67.667 -81.999 -83c-20 -2 -68.667 -8.66699 -146 -20c-94 -14 -200 -27 -318 -39c-242 -24 -398.333 -36 -469 -36c-27.333 0 -59.666 6.66699 -96.999 20c-2 16.667 -29.333 45 -82 85c3.33301 29.333 14.333 65.666 33 108.999
c3.33301 6 39.666 39.333 108.999 100c61.333 34.667 149 88.334 263 161.001c26.667 17.333 63.667 55.333 111 114c-8 19.333 -20 29 -36 29l-164 -16l-164 -16c-76 0 -114 28.667 -114 86s26.333 90 79 98c184 28 375.667 42 575 42c6 0 21.333 -7 46 -21l41 -24
c16 -26 24 -47.333 24 -64c0 -128.667 -146.667 -286.667 -440 -474c19.333 -18 56.333 -27 111 -27l496 40h-6c0 1.33301 28 3.33301 84 6c14 0.666992 27 1 39 1c27.333 0 48.333 -2.33301 63 -7c15.333 -8.66699 28.666 -18.667 39.999 -30c2.66699 -6.66699 4 -18 4 -34
z" />
    <glyph glyph-name="braceleft" unicode="{" horiz-adv-x="1023" 
d="M990 1624c0 -18.667 -2.00293 -34.002 -6.00293 -46.002c-7.33301 -6.66699 -20.333 -17.334 -39 -32.001c-16 -12.667 -31 -19 -45 -19c0.666992 0 1 0.333008 1 1c0 1.33301 -22.333 8.33301 -67 21c-12.667 1.33301 -38.667 2 -78 2c-66 0 -154 -16.667 -264 -50
c-23.333 -7.33301 -35 -21.666 -35 -42.999c92.667 -132 139 -207.333 139 -226v3c-1.33301 0 -6.66602 -25 -15.999 -75c-4.66699 -56 -32.667 -117.667 -84 -185c-41.333 -54.667 -66 -82 -74 -82c-2 1.33301 -3 3 -3 5c4 -6.66699 18.333 -21 43 -43
c28 -32 42 -76 42 -132c0 -11.333 -31.333 -84.666 -94 -219.999c-62 -136 -93 -211.667 -93 -227c0 -10 4.33301 -21.333 13 -34c12 -59.333 33 -105.666 63 -138.999l75 -87c28 -13.333 68 -34.666 120 -63.999c10.667 -9.33301 28.334 -19 53.001 -29h280
c7.33301 -12.667 11 -32 11 -58s-1 -41.333 -3 -46c-16.667 -22 -53.334 -45.667 -110.001 -71c-30.667 -13.333 -70 -20 -118 -20c-67.333 0 -156.666 26 -267.999 78s-180 100.333 -206 145c-29.333 48.667 -50.333 91 -63 127l-22 33c-20 112 -30 178.667 -30 200
c0 70 20.333 137.667 61 203c52 84 84.333 151 97 201c-16.667 10 -68.667 23 -156 39c-52 10 -78 34.667 -78 74v6c1.33301 30 3.33301 61 6 93c2 25.333 3 39 3 41l25 18c6.66699 -5.33301 14.667 -8 24 -8c31.333 0 112.333 40.667 243 122
c37.333 22.667 56 53.667 56 93c0 16 -46.333 87.667 -139 215c-2.66699 7.33301 -4 29.666 -4 66.999c0 86 14 142.333 42 169c20.667 19.333 101.334 45.333 242.001 78c13.333 8 32.666 17.333 57.999 28c28 2 121.667 3 281 3c30.667 0 57.834 -13.5 81.501 -40.5
s35.5 -56.5 35.5 -88.5z" />
    <glyph glyph-name="bar" unicode="|" horiz-adv-x="363" 
d="M268 1649l-0.00195312 -12.998c0 -20.667 -1.66699 -64.667 -5 -132c-6 -124.667 -9 -193.667 -9 -207l7 -606c-9.33301 -46 -15.666 -90 -18.999 -132c-8.66699 -130.667 -13 -239.667 -13 -327c0 -65.333 2.66699 -118.666 8 -159.999c2 -20 3 -38.667 3 -56
c0 -26.667 -2.66699 -51.334 -8 -74.001c-16 -46 -24 -77.667 -24 -95c0 -4.66699 0.333008 -8.33398 1 -11.001c-3.33301 -4.66699 -13.666 -12 -30.999 -22c-27.333 10.667 -57.333 37 -90 79s-50.334 76.667 -53.001 104l23 396
c17.333 318.667 25.666 532.334 24.999 641.001c0 230 2.66699 443 8 639c0.666992 13.333 10.334 30.333 29.001 51c18.667 19.333 35.334 29.666 50.001 30.999h3c15.333 0 34.333 -13 57 -39c25.333 -28.667 38 -50.334 38 -65.001v-2z" />
    <glyph glyph-name="braceright" unicode="}" horiz-adv-x="817" 
d="M907 1492c0 -76.667 -49.6621 -168.667 -148.995 -276c-162.667 -176 -244 -279.333 -244 -310c0 -27.333 22 -45.333 66 -54c8.66699 0 35.667 -4.33301 81 -13c21.333 -11.333 51.666 -29 90.999 -53c8.66699 -12 13 -25 13 -39c0 -61.333 -11 -101.333 -33 -120
c-5.33301 -3.33301 -41.333 -14 -108 -32c-49.333 -13.333 -74 -38 -74 -74c0 -22 17.667 -64.667 53 -128l56 -109c45.333 -94 68 -192 68 -294c0 -70 -14.667 -126.333 -44 -169c-28.667 -42.667 -83.334 -88 -164.001 -136l-225 -94l-26 -28
c-104 -19.333 -156 -30.333 -156 -33h3c-83.333 0 -125 42.667 -125 128c0 28 10.333 46 31 54c74 28 125 48.333 153 61c56.667 24.667 115.667 55.334 177 92.001c46 24 83.667 46 113 66c33.333 32 50 69 50 111c0 2 -5 12.333 -15 31c-9.33301 18.667 -14 30.667 -14 36
c0 3.33301 1 7.66602 3 12.999l-83 195c-46 109.333 -69 177.333 -69 204v-1c0.666992 0 7.66699 45 21 135c16.667 32.667 25 49.667 25 51c0 6 -10 21 -30 45l-33 38c-13.333 30 -20 63 -20 99c0 52 20.333 105.667 61 161c14 18.667 60.667 70.334 140 155.001
c6 12 15 27.333 27 46l108 117c47.333 55.333 75.666 102.666 84.999 141.999c-18 24 -78 36 -180 36c-2 0 -30.5 -2.83301 -85.5 -8.5s-84.167 -8.5 -87.5 -8.5c-46 0 -73.667 15 -83 45c-4 40.667 -8.66699 81.667 -14 123c17.333 15.333 63.666 29.666 138.999 42.999
c56.667 10.667 96 16 118 16c57.333 0 141.666 -14.667 252.999 -44c17.333 -4.66699 40 -19.167 68 -43.5s43 -42.166 45 -53.499c9.33301 -50 14 -90.667 14 -122z" />
    <glyph glyph-name="asciitilde" unicode="~" horiz-adv-x="1137" 
d="M1109 1672c0 -20.667 -20.668 -54.666 -62.001 -101.999c-3.33301 -12.667 -12 -29.667 -26 -51c-151.333 -118 -276 -177 -374 -177c-10 0 -47.833 22.667 -113.5 68s-101.167 68 -106.5 68c-26.667 0 -76.667 -27.333 -150 -82c-19.333 -14 -45.333 -44.667 -78 -92
c-12.667 -18 -36 -27 -70 -27c-13.333 0 -43.666 14 -90.999 42v11c4.66699 14 7 24.667 7 32c0 8.66699 -3 14.667 -9 18c0 39.333 0.666992 60.666 2 63.999c14 24.667 69.333 72.667 166 144c106 77.333 177.667 116 215 116c34 0 86 -24.333 156 -73l107 -73
c28.667 0 154.667 59.667 378 179c32.667 -8 49 -29.667 49 -65z" />
    <glyph glyph-name="nonbreakingspace" unicode="&#xa0;" horiz-adv-x="1021" 
 />
    <glyph glyph-name="exclamdown" unicode="&#xa1;" horiz-adv-x="542" 
d="M500 1055l0.000976562 0.999023c-0.666992 0 -4.66699 -25.333 -12 -76l-28 -24c-10 -9.33301 -19 -14 -27 -14c-26.667 0 -53.334 12.667 -80.001 38c-26.667 26 -40 51 -40 75l14 30c6.66699 14.667 10 29.334 10 44.001c0 5.33301 -0.333008 10.333 -1 15h84
c8.66699 0 32.667 -8.66699 72 -26c5.33301 -38.667 8 -59.667 8 -63zM437.001 535.999c0 -4 -13.667 -63.665 -41 -178.998c-25.333 -112.667 -38 -179 -38 -199v-3c-26 -11.333 -38.667 -59.666 -38 -144.999c-2 -4 -6.66699 -9.33301 -14 -16
c-2 -36 -14.667 -95 -38 -177c-20.667 -74 -31 -129.667 -31 -167c0 -20.667 3.33301 -39.334 10 -56.001c-11.333 -22.667 -30 -53 -56 -91c-28 -6.66699 -42 -10.667 -42 -12h2c-10 0 -26.333 12.333 -49 37l-59 63v-1c2.66699 0 11.334 9 26.001 27
c12.667 219.333 76.667 549.666 192 990.999c2.66699 10.667 12.667 23.667 30 39c16 15.333 28.667 23 38 23c7.33301 -2.66699 28.666 -9.66699 63.999 -21c29.333 -40.667 44 -78.334 44 -113.001z" />
    <glyph glyph-name="cent" unicode="&#xa2;" horiz-adv-x="880" 
d="M825 760c-5.33301 -6 -17 -22.3301 -35 -48.9971c-14.667 -20 -47 -30 -97 -30c-1.33301 0 -3.66602 1.33301 -6.99902 4c-2.66699 2 -5 3 -7 3c-38.667 0 -64 -11 -76 -33c-6 -9.33301 -11.667 -38 -17 -86c13.333 -10.667 36.333 -16 69 -16c1.33301 0 20.333 2 57 6
s55.667 6 57 6c26 0 39 -19 39 -57c0 -25.333 -1.33301 -40 -4 -44l-39 -53c-48 -30.667 -137.667 -51 -269 -61c-24 -25.333 -41.333 -63 -52 -113c-12.667 -58 -25 -98 -37 -120c8 -14 12 -26 12 -36c0 -10.667 -12 -25.334 -36 -44.001c-24.667 -18 -42.667 -27 -54 -27
c-26.667 0 -48.334 19 -65.001 57c-11.333 28 -17 51.667 -17 71c0 3.33301 7.66699 36.666 23 99.999s23 95.333 23 96c0 24 -33.667 51.667 -101 83c-30.667 14 -61 43.5 -91 88.5s-45 82.833 -45 113.5c0 22.667 19.667 60.667 59 114c7.33301 10 22.333 21 45 33l26 23
c44.667 18 115.667 40.667 213 68h6c22 0 51.333 5.33301 88 16c18.667 18.667 51.667 73.334 99 164.001c4.66699 8.66699 7 16.334 7 23.001c0 3.33301 -0.666992 6.66602 -2 9.99902c54.667 61.333 95 92 121 92c4 0 13 -2.66699 27 -8
c-0.666992 -6.66699 -1 -12.334 -1 -17.001c0 -13.333 1.33301 -21.333 4 -24c18 -30.667 27.667 -47.667 29 -51c-4.66699 -14.667 -20.667 -76.334 -48 -185.001c19.333 -4.66699 42.333 -17.667 69 -39c18 -32.667 27 -58.667 27 -78zM396 623.003
c0 9.33301 -3.33398 17.333 -10.001 24c-44.667 -14 -75.667 -28.333 -93 -43c10.667 -9.33301 36.334 -20 77.001 -32c15.333 31.333 24 48.333 26 51z" />
    <glyph glyph-name="sterling" unicode="&#xa3;" horiz-adv-x="1378" 
d="M1473 1426c0 -26 -10.498 -52.3311 -31.498 -78.998s-44.5 -42.334 -70.5 -47.001c-103.333 70 -180.666 105 -231.999 105c-26.667 0 -56.334 -9.33301 -89.001 -28s-53.667 -38 -63 -58c-22.667 -47.333 -48 -116.666 -76 -207.999c-25.333 -80.667 -38 -128 -38 -142
c0 -32 18.667 -51.333 56 -58c4 0 33.667 -2.66699 89 -8c26.667 -8 64 -22.333 112 -43c20.667 -8.66699 31 -23 31 -43c0 -1.33301 -1.66699 -12.833 -5 -34.5s-5 -34.167 -5 -37.5c-9.33301 -0.666992 -41.166 -10.334 -95.499 -29.001l-81.5 -28v0l-75 3l-78 3h-3
c-30 0 -54 -26.667 -72 -80c-7.33301 -21.333 -16.333 -51.666 -27 -90.999c-22 -28 -33 -45.667 -33 -53s12 -21.666 36 -42.999c32 -27.333 50 -44.333 54 -51c68 -93.333 167 -140 297 -140c22 0 66.667 12.333 134 37l99 36c34 0 51 -20.333 51 -61
c0 -48 -13.667 -86.667 -41 -116c-16 -16.667 -60 -45.334 -132 -86.001c-42 -24 -94.333 -36 -157 -36c-12.667 0 -51 9 -115 27c-71.333 20 -123.666 39 -156.999 57c-27.333 23.333 -64.333 52.666 -111 87.999c-10.667 12.667 -29.334 30.667 -56.001 54
c-20 -14 -72.333 -64.333 -157 -151c-48.667 -50 -105.334 -75 -170.001 -75c-140.667 0 -211 87.667 -211 263c0 63.333 10.333 106 31 128c106 110 212 165 318 165c4 0 16 -1.16699 36 -3.5l30 -3.5c15.333 0 31.666 18 48.999 54c15.333 31.333 23 52 23 62
c0 19.333 -11.667 30.5 -35 33.5l-108 13.5c-47.333 10 -79 26.333 -95 49c-9.33301 13.333 -14 39.666 -14 78.999c0 46 7 76.667 21 92c8 0.666992 25 3.66699 51 9c29.333 6 45.333 9 48 9c4 0 25 -1 63 -3l63 -4c48.667 0 79.667 0.666992 93 2
c7.33301 13.333 31.666 81.666 72.999 204.999c8.66699 25.333 45.667 108 111 248c16 34.667 35 62.334 57 83.001c30 27.333 86 59.666 168 96.999c16 7.33301 57.333 11 124 11c37.333 0 97.333 -17.667 180 -53c12 -3.33301 38.333 -14.666 79 -33.999
c38 -17.333 57 -46 57 -86zM308.002 309.002c-13.333 -6.66699 -33.667 -17.667 -61 -33v-22l13 -9c10.667 2 21.667 9.66699 33 23s17 25 17 35c0 2.66699 -0.666992 4.66699 -2 6z" />
    <glyph glyph-name="currency" unicode="&#xa4;" horiz-adv-x="1777" 
d="M1832 611c-4.66699 -24 -22.6689 -57.335 -54.002 -100.002c-47.333 -11.333 -96.333 -19.333 -147 -24c-34 -2.66699 -158.667 -10.334 -374 -23.001c-97.333 -5.33301 -184.666 -12.666 -261.999 -21.999c-55.333 -11.333 -83 -18 -83 -20h3
c-0.666992 0 -12.667 1 -36 3c-22.667 2 -36 3 -40 3c-21.333 0 -73 -6.33301 -155 -19c-82.667 -14 -130.667 -23.333 -144 -28h-3c-2.66699 0 -4 -4.33301 -4 -13c0 -36 61 -68.667 183 -98c6 -4 15.667 -10 29 -18c120.667 -28 238.334 -42 353.001 -42
c15.333 0 83.666 2.66699 204.999 8l205 9h9c44 0 101.667 -12 173 -36c19.333 -20 29 -43.333 29 -70c0 -50.667 -23.333 -78.667 -70 -84c-354.667 -39.333 -577.667 -59 -669 -59c-188.667 0 -349 43.667 -481 131c-10.667 10.667 -27 24.334 -49 41.001
c-18.667 5.33301 -40.667 12.333 -66 21c-22 19.333 -48.333 52 -79 98c2 12 3 22.667 3 32c0 32.667 -11.667 53 -35 61c-50 17.333 -91.333 26 -124 26c-2.66699 0 -5.66699 -1.33301 -9 -4s-6 -4 -8 -4c-41.333 0 -72.666 37.667 -93.999 113c0 6.66699 9 35.667 27 87
c42 0 73.333 -1 94 -3l32 -3c6.66699 1.33301 33.334 7.33301 80.001 18c7.33301 6 16.666 25 27.999 57c-53.333 4 -83.666 8.33301 -90.999 13c-39.333 17.333 -59 60 -59 128c0 58.667 29.333 88 88 88c2 0 23.667 -2.66699 65 -8s63.333 -8 66 -8c34 0 81 24 141 72
c85.333 67.333 134 104.666 146 111.999c142 84.667 277 142.334 405 173.001c32 16.667 81.667 37 149 61c53.333 12 137.666 18 252.999 18c32 0 57.667 -19.333 77 -58c14 -27.333 21 -49.666 21 -66.999c0 -23.333 -11.667 -45.666 -35 -66.999
c-22.667 -22 -46 -33 -70 -33c-1.33301 0 -10 1.5 -26 4.5s-24.667 4.5 -26 4.5c-147.333 0 -322.333 -61 -525 -183c8.66699 -14 22.334 -21 41.001 -21c47.333 8.66699 128.666 19 243.999 31c202 12 339.333 18 412 18c10 0 54 -12 132 -36c26.667 -8 51 -24 73 -48
c3.33301 -4 5 -14.667 5 -32c0 -20.667 -11.667 -38.667 -35 -54c-22.667 -14.667 -49.667 -22 -81 -22c-1.33301 0 -17.5 1.16699 -48.5 3.5s-48.167 3.5 -51.5 3.5c-82.667 0 -245.667 -12 -489 -36c-8.66699 -4 -24.667 -9 -48 -15c-99.333 -2 -239 -9.66699 -419 -23
c-13.333 -3.33301 -31.333 -22.333 -54 -57c12.667 -4 41 -6 85 -6l721 57c16.667 0 51.667 -1.33301 105 -4l105 -3c2 0 12.667 2.5 32 7.5s30 7.5 32 7.5h-2c0 -1.33301 41 -7.33301 123 -18c17.333 -2.66699 41.333 -16.334 72 -41.001z" />
    <glyph glyph-name="currency" unicode="&#x20ac;" horiz-adv-x="1777" 
d="M1832 611c-4.66699 -24 -22.6689 -57.335 -54.002 -100.002c-47.333 -11.333 -96.333 -19.333 -147 -24c-34 -2.66699 -158.667 -10.334 -374 -23.001c-97.333 -5.33301 -184.666 -12.666 -261.999 -21.999c-55.333 -11.333 -83 -18 -83 -20h3
c-0.666992 0 -12.667 1 -36 3c-22.667 2 -36 3 -40 3c-21.333 0 -73 -6.33301 -155 -19c-82.667 -14 -130.667 -23.333 -144 -28h-3c-2.66699 0 -4 -4.33301 -4 -13c0 -36 61 -68.667 183 -98c6 -4 15.667 -10 29 -18c120.667 -28 238.334 -42 353.001 -42
c15.333 0 83.666 2.66699 204.999 8l205 9h9c44 0 101.667 -12 173 -36c19.333 -20 29 -43.333 29 -70c0 -50.667 -23.333 -78.667 -70 -84c-354.667 -39.333 -577.667 -59 -669 -59c-188.667 0 -349 43.667 -481 131c-10.667 10.667 -27 24.334 -49 41.001
c-18.667 5.33301 -40.667 12.333 -66 21c-22 19.333 -48.333 52 -79 98c2 12 3 22.667 3 32c0 32.667 -11.667 53 -35 61c-50 17.333 -91.333 26 -124 26c-2.66699 0 -5.66699 -1.33301 -9 -4s-6 -4 -8 -4c-41.333 0 -72.666 37.667 -93.999 113c0 6.66699 9 35.667 27 87
c42 0 73.333 -1 94 -3l32 -3c6.66699 1.33301 33.334 7.33301 80.001 18c7.33301 6 16.666 25 27.999 57c-53.333 4 -83.666 8.33301 -90.999 13c-39.333 17.333 -59 60 -59 128c0 58.667 29.333 88 88 88c2 0 23.667 -2.66699 65 -8s63.333 -8 66 -8c34 0 81 24 141 72
c85.333 67.333 134 104.666 146 111.999c142 84.667 277 142.334 405 173.001c32 16.667 81.667 37 149 61c53.333 12 137.666 18 252.999 18c32 0 57.667 -19.333 77 -58c14 -27.333 21 -49.666 21 -66.999c0 -23.333 -11.667 -45.666 -35 -66.999
c-22.667 -22 -46 -33 -70 -33c-1.33301 0 -10 1.5 -26 4.5s-24.667 4.5 -26 4.5c-147.333 0 -322.333 -61 -525 -183c8.66699 -14 22.334 -21 41.001 -21c47.333 8.66699 128.666 19 243.999 31c202 12 339.333 18 412 18c10 0 54 -12 132 -36c26.667 -8 51 -24 73 -48
c3.33301 -4 5 -14.667 5 -32c0 -20.667 -11.667 -38.667 -35 -54c-22.667 -14.667 -49.667 -22 -81 -22c-1.33301 0 -17.5 1.16699 -48.5 3.5s-48.167 3.5 -51.5 3.5c-82.667 0 -245.667 -12 -489 -36c-8.66699 -4 -24.667 -9 -48 -15c-99.333 -2 -239 -9.66699 -419 -23
c-13.333 -3.33301 -31.333 -22.333 -54 -57c12.667 -4 41 -6 85 -6l721 57c16.667 0 51.667 -1.33301 105 -4l105 -3c2 0 12.667 2.5 32 7.5s30 7.5 32 7.5h-2c0 -1.33301 41 -7.33301 123 -18c17.333 -2.66699 41.333 -16.334 72 -41.001z" />
    <glyph glyph-name="yen" unicode="&#xa5;" horiz-adv-x="1250" 
d="M1352 1444c0 -43.333 -9.66504 -71.335 -28.998 -84.002c-158.667 -106 -290.334 -213.667 -395.001 -323c-9.33301 -3.33301 -24.333 -10.333 -45 -21l-79 -61c-27.333 -22 -46 -46 -56 -72c-14 -36 -21 -99 -21 -189c0 -32.667 22 -49 66 -49h5
c15.333 0.666992 62.333 2.33398 141 5.00098l139 5h13c62 0 93 -18 93 -54c0 -44.667 -26 -77.334 -78 -98.001c-140.667 -54 -235.667 -81 -285 -81c-2 0 -9 1.16699 -21 3.5s-19 3.5 -21 3.5c-24.667 0 -45 -7.33301 -61 -22c-0.666992 -2 -1 -4 -1 -6
c0 -14 10.667 -21 32 -21h-1c0 0.666992 52.333 5 157 13l155 11c52.667 0 79 -21 79 -63c-4.66699 -11.333 -19.667 -37.333 -45 -78c-39.333 -19.333 -85 -39 -137 -59c-74.667 -8.66699 -171 -26.667 -289 -54c-10.667 -3.33301 -30.334 -38.333 -59.001 -105
c-29.333 -11.333 -53.333 -26 -72 -44h-62c-21.333 65.333 -32 103.666 -32 114.999c-4 8 -11 18 -21 30c-22.667 -11.333 -63 -17 -121 -17c-64.667 0 -124.334 9.66699 -179.001 29c-24.667 62.667 -38.334 94 -41.001 94v-1c13.333 56 20 85.333 20 88l20 13l190 5
c61.333 0.666992 119.333 8.33398 174 23.001v1c0 7.33301 -11.667 14 -35 20c-48 6.66699 -157.667 11 -329 13c-45.333 34.667 -68 79.334 -68 134.001c0 2.66699 5 13.834 15 33.501s15.333 29.834 16 30.501s24.334 3 71.001 7c47.333 4 74 6 80 6h56l74 -1h90
c63.333 0 95 30 95 90c0 50.667 -11 87.667 -33 111c-78.667 82 -191.667 206.333 -339 373c-26 30 -39 61.333 -39 94c0 49.333 13 89 39 119c29.333 -4 67 -16 113 -36c21.333 -12 50.333 -35 87 -69c112.667 -155.333 185.334 -233 218.001 -233l184 120
c4 7.33301 9.33301 17.666 16 30.999c158 130 294.333 235 409 315c9.33301 6.66699 27 10 53 10c62.667 0 94 -35 94 -105z" />
    <glyph glyph-name="section" unicode="&#xa7;" horiz-adv-x="995" 
d="M964 336c0 -79.333 -41.333 -151.666 -124 -216.999c-82.667 -64.667 -173 -97 -271 -97c-84.667 0 -168 16 -250 48c-106 40.667 -181 99.334 -225 176.001c2 10 3 25 3 45c-12 17.333 -19.333 26 -22 26h-1c0 39.333 22.667 59 68 59c18.667 0 60.667 -14.333 126 -43
l43 -19l50 -24c48 -15.333 85 -24.333 111 -27c0.666992 0 8.33398 -3.33301 23.001 -10s24 -10 28 -10c44 0 88 9 132 27c57.333 24 86 54.667 86 92c0 28 -22 62 -66 102c-56.667 52.667 -139.334 94 -248.001 124c-21.333 1.33301 -50.333 5.66602 -87 12.999
c-113.333 50 -181.333 84.333 -204 103c-41.333 32 -62 80.667 -62 146c0 51.333 3 84.666 9 99.999c3.33301 8 13.666 29 30.999 63c12.667 24 19 38.333 19 43c0 2.66699 -12.667 29 -38 79s-38 75.333 -38 76c0 65.333 4 106.333 12 123
c37.333 73.333 109.666 131.333 216.999 174c96.667 40 204 60 322 60c12 0 24 -0.333008 36 -1c38.667 15.333 59.334 23 62.001 23v0c0 -1.33301 16.333 -5.33301 49 -12c88.667 -97.333 133 -155.666 133 -174.999c0 -54 -22 -81 -66 -81c-2 0 -34 7.33301 -96 22
c-62 15.333 -94 23 -96 23c-100.667 0 -201.667 -18 -303 -54l-46 -46c40.667 -28 136.334 -51.667 287.001 -71c32 -4.66699 77 -20.334 135 -47.001c19.333 -12 53 -35.333 101 -70c4 -6 12 -24.667 24 -56c16 -16 34.333 -40 55 -72c14 -28 21 -63 21 -105
c0 -49.333 -7 -87 -21 -113c-1.33301 -2 -15 -15 -41 -39c-27.333 -24.667 -41 -37.667 -41 -39c8 -6.66699 27.333 -26.667 58 -60c70 -78 105 -164.333 105 -259zM699 799c0 52.667 -27.5 97.5 -82.5 134.5s-120.5 55.5 -196.5 55.5c-52.667 0 -84 -6 -94 -18
c-30 -35.333 -45 -57 -45 -65c0 -30 28 -54 84 -72c10 -2.66699 45.333 -10.667 106 -24c51.333 -16 123.333 -39.667 216 -71c8 35.333 12 55.333 12 60z" />
    <glyph glyph-name="dieresis" unicode="&#xa8;" horiz-adv-x="779" 
d="M708 1475c0 -51.333 -23.667 -77 -71 -77c-70.667 0 -106 39 -106 117c0 38 3.66699 66 11 84h67c66 0 99 -41.333 99 -124zM298 1518c0 -26.667 -10.999 -50.666 -32.999 -71.999c-21.333 -22 -46 -33 -74 -33c-28.667 0 -54.334 10.667 -77.001 32
c-22 21.333 -33 44.666 -33 69.999c0 44 17.333 80.333 52 109l89 -34c50.667 -20 76 -44 76 -72z" />
    <glyph glyph-name="copyright" unicode="&#xa9;" horiz-adv-x="1239" 
d="M1175 745c-13.333 -76 -20 -121.667 -20 -137c-7.33301 -164.667 -105.666 -285.667 -294.999 -363c-27.333 -16.667 -69 -35.667 -125 -57c-62.667 -14 -113.334 -21 -152.001 -21c-80 0 -164.667 20 -254 60s-146 84 -170 132c-20.667 22.667 -47.667 57.667 -81 105
c-22 53.333 -33 101.333 -33 144c0 50.667 11 123 33 217c13.333 22.667 34 55.667 62 99l43 36c44.667 57.333 109.667 103 195 137c70 21.333 143.667 45 221 71c22.667 6.66699 68 10 136 10c180 0 312.333 -89 397 -267c28.667 -58.667 43 -114 43 -166zM973 766
c0 47.333 -13.665 102.669 -40.998 166.002c-16 36.667 -86.667 55 -212 55c-93.333 0 -185.666 -39 -276.999 -117c107.333 15.333 186.333 23 237 23c9.33301 0 25 -7.66699 47 -23l48 -36v0c0.666992 0 7 -26 19 -78c0 -16 -15.333 -30.667 -46 -44
c-10.667 -4.66699 -25.334 -7 -44.001 -7c-2.66699 0 -14.334 1.33301 -35.001 4c-20.667 1.33301 -31.334 2 -32.001 2c-18.667 0 -41.667 -6 -69 -18c-37.333 -15.333 -56 -34 -56 -56c0 -17.333 19.667 -26 59 -26c2.66699 0 34 4.33301 94 13s91 13 93 13
c8.66699 0 20.667 -8.33301 36 -25s23 -29.334 23 -38.001c0 -101.333 -79.667 -152 -239 -152c-73.333 0 -135 16.333 -185 49c-49.333 32.667 -74 74 -74 124c0 140 38.333 225 115 255c-5.33301 4 -11.333 7 -18 9c-117.333 -66 -176 -149.667 -176 -251
c0 -67.333 29.333 -122.833 88 -166.5s132 -65.5 220 -65.5c34 0 66.333 6 97 18c46 18 83.667 30.667 113 38c4.66699 7.33301 13 14.666 25 21.999c61.333 12 110 55 146 129c29.333 58.667 44 119.667 44 183z" />
    <glyph glyph-name="ordfeminine" unicode="&#xaa;" horiz-adv-x="666" 
d="M630 1426c0 -12.667 -10.333 -25.3311 -31 -37.998c-20.667 -12 -41 -18 -61 -18h-59c-48.667 41.333 -85 62 -109 62c-0.666992 0 -29.667 -7 -87 -21c-57.333 -13.333 -87 -20 -89 -20c-26 0 -64 11 -114 33c-30 12.667 -45 41 -45 85c0 20 10.333 50.333 31 91
c10 7.33301 22.667 17.666 38 30.999c2 5.33301 4.33301 10.666 7 15.999c16.667 15.333 66.667 39.333 150 72c4.66699 1.33301 17.334 2 38.001 2c55.333 0 110.666 -18 165.999 -54c6.66699 -7.33301 14.667 -19.666 24 -36.999c-4 -10 -8.66699 -26.333 -14 -49
c0 -0.666992 25.667 -24.667 77 -72c52 -46.667 78 -74.334 78 -83.001zM260 1590c-34 -8.66699 -51 -20.999 -51 -36.999c0 -19.333 11 -29 33 -29c10.667 0 23.667 2 39 6c34.667 9.33301 52 21.666 52 36.999c0 19.333 -12 29 -36 29c-10 0 -22.333 -2 -37 -6z" />
    <glyph glyph-name="guillemotleft" unicode="&#xab;" horiz-adv-x="1511" 
d="M1442 99c0 -22.667 -17.334 -53.667 -52.001 -93c-16.667 0.666992 -39 4.66699 -67 12c-179.333 76.667 -360 148.667 -542 216c-13.333 5.33301 -26.5 21.666 -39.5 48.999s-19.5 52.666 -19.5 75.999c0 46.667 38.333 93.334 115 140.001
c30.667 18.667 69.334 52 116.001 100l118 121l117 79c56.667 37.333 99.334 56 128.001 56c28 0 54.333 -11.167 79 -33.5s37 -45.166 37 -68.499l-70 -122c-46 -11.333 -104 -42.333 -174 -93l-117 -116c-2 -5.33301 -3 -13.333 -3 -24c0 -22 5.66699 -33.667 17 -35
c51.333 -8.66699 121.666 -43.667 210.999 -105c97.333 -66.667 146 -119.667 146 -159zM763.999 109c0 -24 -16.667 -55.3359 -50 -94.0029c-18 0.666992 -41 4.66699 -69 12c-157.333 67.333 -338.333 139.333 -543 216c-12.667 4.66699 -25.667 21.334 -39 50.001
c-13.333 27.333 -20 51.333 -20 72c0 49.333 38.333 97 115 143c29.333 18 68 50.667 116 98l121 121l119 80c54.667 36.667 95.667 55 123 55c28.667 0 55.334 -11 80.001 -33c25.333 -21.333 38 -44.333 38 -69l-71 -120c-46.667 -11.333 -104.334 -43 -173.001 -95
l-118 -117c-2 -4 -3 -11.333 -3 -22c0 -21.333 5.33301 -32.666 16 -33.999c48.667 -8.66699 119 -44 211 -106c98 -65.333 147 -117.666 147 -156.999z" />
    <glyph glyph-name="logicalnot" unicode="&#xac;" horiz-adv-x="1794" 
d="M1728 391c0 -3.33301 -7 -30.999 -21 -82.999c-16 -60.667 -26.333 -101.334 -31 -122.001c-4.66699 -4.66699 -11.667 -12.334 -21 -23.001c0 -51.333 -33 -147.333 -99 -288c-19.333 -16.667 -43 -39 -71 -67c-3.33301 -5.33301 -8.33301 -22 -15 -50l-77 -33
c-8 4.66699 -20 25.667 -36 63c-15.333 35.333 -23 57 -23 65c0 29.333 49.667 184 149 464c0 16 -10.667 25 -32 27c-66 5.33301 -126.667 8 -182 8c-28.667 0 -202.334 -3.33301 -521.001 -10l-521 -13h-2c-31.333 0 -63.333 17.333 -96 52c-32 35.333 -48 69 -48 101
c0 19.333 17 37.333 51 54c27.333 13.333 47 20 59 20h-1c0 -1.33301 24.667 -6.33301 74 -15c29.333 -1.33301 157 -2 383 -2c2 0 28.667 4 80 12s78.333 12 81 12c-4 0 -6 -0.333008 -6 -1c4.66699 -3.33301 21.667 -8 51 -14c10.667 -0.666992 22 -1 34 -1
c24.667 0 51.667 1 81 3l130 6c4.66699 0 26 -3 64 -9l54 -8c2.66699 0 19.667 2.66699 51 8c30.667 6 47 9 49 9s10.667 -3 26 -9c14.667 -5.33301 23.334 -8 26.001 -8c2 0 15.333 2.66699 40 8c24 6 37 9 39 9c14 0 52.667 -4 116 -12c8 -2 21.667 -7 41 -15
c8 -3.33301 15.667 -5 23 -5c8 0 15.333 2 22 6c52.667 -75.333 79 -121.666 79 -138.999z" />
    <glyph glyph-name="registered" unicode="&#xae;" horiz-adv-x="1239" 
d="M1168 626c0 -84 -22.335 -152.001 -67.002 -204.001s-131 -110.667 -259 -176c-38.667 -19.333 -90.334 -29 -155.001 -29c-38 -4.66699 -57.667 -7 -59 -7c-30 6 -49.333 9 -58 9h-1c-6.66699 -0.666992 -13.667 -1 -21 -1c-70 0 -158.667 27 -266 81
c-40.667 20 -79 53 -115 99c-36 44.667 -57 86.334 -63 125.001v0c-0.666992 0 -10.667 33.333 -30 100c0 37.333 11.667 119 35 245l23 23c2 10 7.66699 25.333 17 46c33.333 41.333 106 90 218 146l42 20c1.33301 0 5.33301 -0.5 12 -1.5s10.667 -1.5 12 -1.5
c-2.66699 0 -4 0.333008 -4 1c3.33301 2.66699 16.333 7.33398 39 14.001c128.667 35.333 207.334 53 236.001 53c2.66699 -0.666992 8.66699 -4.33398 18 -11.001c6.66699 0.666992 13.334 1 20.001 1c97.333 0 181.333 -47.333 252 -142c10.667 -14 33 -40 67 -78l27 -50
c0 -2 3.66699 -16.667 11 -44c12.667 -10 35.334 -66 68.001 -168c0.666992 -2 1 -18.667 1 -50zM1012 659.999c0 54 -12.333 102.333 -37 145c-10 11.333 -22 27 -36 47c-36.667 103.333 -112.667 155 -228 155c-54 0 -132.667 -19 -236 -57c-1.33301 0 -5.5 1 -12.5 3
s-11.167 3 -12.5 3c-21.333 0 -55 -18.333 -101 -55s-74.667 -67 -86 -91c-20 -70.667 -30 -123.334 -30 -158.001c0 -22 3 -57.667 9 -107l21 -57c109.333 -74.667 191.333 -112 246 -112l29 7c1.33301 0 8 -1.83301 20 -5.5s18.667 -5.5 20 -5.5c2 0 16.667 3 44 9l46 12
c93.333 8.66699 202.333 69 327 181c11.333 16.667 17 45.334 17 86.001zM862.998 544.999c-20.667 -28 -48.6689 -42.002 -84.002 -42.002c-52 0 -112 18 -180 54c-4 4 -12 12.667 -24 26c-4 -20 -10.667 -51.667 -20 -95c-8.66699 -10 -24 -24.333 -46 -43
c-20.667 14 -46.667 40 -78 78c1.33301 6 2.33301 13.333 3 22c-17.333 44 -26 82.333 -26 115c0 4.66699 0.333008 9 1 13c-5.33301 8.66699 -8.66602 13.667 -9.99902 15c2.66699 2 7 6.66699 13 14c-0.666992 6.66699 -1 14 -1 22c0 25.333 3 56.333 9 93
c8 4.66699 34.667 22.334 80 53.001c61.333 42.667 117.333 64 168 64c56 0 101.333 -26 136 -78c22.667 -33.333 34 -58.666 34 -75.999c-47.333 -74.667 -71.666 -112 -72.999 -112v0c0 -12.667 30 -33.667 90 -63v-9c0 -12 2.66699 -29 8 -51zM636.996 771.997
c-53.333 -18 -80 -39 -80 -63c0 -12 7 -18 21 -18h8c34 34 51 60 51 78v3z" />
    <glyph glyph-name="macron" unicode="&#xaf;" horiz-adv-x="1042" 
d="M995 1605l0.00292969 3c-1.33301 0 -5.33301 -26 -12 -78c-33.333 -9.33301 -56 -25 -68 -47c-4 0 -27.5 -3 -70.5 -9s-65.167 -9 -66.5 -9c-2 0 -20 -3 -54 -9s-52.667 -9 -56 -9c-34.667 0 -148.334 7 -341.001 21h4c0 -0.666992 -36 -1.66699 -108 -3h-10
c-106 0 -159 47.667 -159 143v31c0 12 0.333008 22 1 30v6v-5c40 29.333 71.667 44 95 44c1.33301 0 35 -5.66699 101 -17s101.333 -17 106 -17c1.33301 0 12.666 1.66699 33.999 5c21.333 2 33 3 35 3c16.667 0 65 -3.33301 145 -10c37.333 -4 103.666 -13 198.999 -27
c78.667 -12 122.334 -18 131.001 -18c3.33301 0 12.666 1.33301 27.999 4s23.333 4 24 4c28 0 42 -12 42 -36z" />
    <glyph glyph-name="degree" unicode="&#xb0;" horiz-adv-x="651" 
d="M603 1524c0 -40.667 -3.66699 -65.3311 -11 -73.998c-84 -103.333 -158.667 -156.333 -224 -159c-6 -4 -14.333 -9 -25 -15c-16.667 -9.33301 -26.667 -14 -30 -14c-77.333 0 -140.333 19 -189 57c-48 37.333 -72 86.666 -72 147.999c0 104 38.667 183 116 237
c27.333 6.66699 66 13.667 116 21c4.66699 4 11.667 9 21 15c49.333 6 75 9 77 9c26.667 0 59 -9.33301 97 -28c38.667 -18.667 62.667 -36.834 72 -54.501s23 -45.167 41 -82.5c7.33301 -14.667 11 -34.667 11 -60zM434 1557c-30.667 16.667 -55 25 -73 25
c-14 0 -37.333 -9.33301 -70 -28c-20.667 -12 -34.334 -31.333 -41.001 -58c-16.667 -9.33301 -27 -14 -31 -14c-0.666992 0 -1 0.333008 -1 1v-21c22.667 -12 45 -18 67 -18c33.333 0 55 2 65 6c30.667 14.667 55.334 34.667 74.001 60c7.33301 10.667 11 22 11 34
c0 4 -0.333008 8.33301 -1 13z" />
    <glyph glyph-name="plusminus" unicode="&#xb1;" horiz-adv-x="863" 
d="M838 741c0 -9.33301 -5.66699 -24.1689 -17 -44.502s-20.666 -32.5 -27.999 -36.5c-70 -36.667 -134.667 -55 -194 -55c-2.66699 0 -6.66699 1.33301 -12 4s-9 4 -11 4c-40 0 -67 -10.667 -81 -32c-6.66699 -24.667 -14.667 -59 -24 -103
c-11.333 -25.333 -29.666 -63.666 -54.999 -114.999h-80c-20.667 34 -33 67.333 -37 100c0 10 -2 39 -6 87c-18 14.667 -50.667 23 -98 25c-73.333 2.66699 -110 39.667 -110 111c0 20 17.333 39.667 52 59c36 19.333 72.333 29 109 29c1.33301 0 8 -1.33301 20 -4
s19.333 -4 22 -4c6.66699 0 32.667 36.167 78 108.5s73.666 108.5 84.999 108.5c21.333 0 46.666 -17.667 75.999 -53c5.33301 -83.333 23 -125 53 -125c2 0 30.333 3 85 9c53.333 5.33301 81.333 8 84 8c18.667 0 38.167 -9.66699 58.5 -29s30.5 -36.666 30.5 -51.999z
M642 152.997c0 -24 -31.667 -47.667 -95 -71c-116.667 -44 -211.334 -66 -284.001 -66h-103c-64.667 0 -97 42 -97 126c0 26 7.33301 52.333 22 79c60 18.667 104 28 132 28h-8c0 -0.666992 9.33301 -1.33398 28 -2.00098c27.333 -1.33301 58.333 -2.66602 93 -3.99902
c28.667 -0.666992 87.334 -1 176.001 -1c2.66699 0.666992 6 1 10 1c14 0 36.333 -8.33301 67 -25c39.333 -21.333 59 -43 59 -65z" />
    <glyph glyph-name="acute" unicode="&#xb4;" horiz-adv-x="686" 
d="M647 1698c0 -31.333 -69.999 -87.333 -209.999 -168c-16.667 -6 -42 -15.667 -76 -29c-134 -81.333 -216 -122 -246 -122c-52.667 0 -79 23.667 -79 71c0 1.33301 1.66699 11.333 5 30c2.66699 17.333 4 27 4 29c60 26.667 143 61.667 249 105
c15.333 11.333 29.666 20.333 42.999 27c138 65.333 220 98 246 98c11.333 0 24.833 -4.66699 40.5 -14s23.5 -18.333 23.5 -27z" />
    <glyph glyph-name="mu" unicode="&#xb5;" horiz-adv-x="2632" 
d="M2567 1255c0 -118 -91.3398 -235.999 -274.007 -353.999c-70.667 -46 -184.667 -95 -342 -147l-118 -39c-41.333 -19.333 -62 -50 -62 -92c0 -20.667 4.66699 -45.667 14 -75c10.667 -36 23.334 -54 38.001 -54v0l44 8c27.333 4.66699 44 7 50 7h2
c6 0 161.667 -11.333 467 -34c39.333 -31.333 59 -60 59 -86c0 -10.667 -7 -21 -21 -31c-15.333 -11.333 -30.333 -17 -45 -17c-2.66699 0 -9.66699 1.33301 -21 4c-12 1.33301 -19 2 -21 2h2c0 -1.33301 -22.333 -8.33301 -67 -21c-109.333 0 -179.333 -1.33301 -210 -4
c-73.333 -7.33301 -130 -24.666 -170 -51.999c0.666992 -4.66699 9.66699 -41.334 27 -110.001c13.333 -56 20.333 -87 21 -93c0 -8 -20.667 -30 -62 -66c-8.66699 22 -28.667 33 -60 33c-15.333 0 -25.666 -2.33301 -30.999 -7c-4.66699 4 -27.667 42.333 -69 115
c-30.667 52 -63.667 91.333 -99 118c-29.333 -21.333 -58.333 -32 -87 -32c-8.66699 -2.66699 -30.667 -8.66699 -66 -18c-16 -4 -30.667 -6 -44 -6c-54.667 0 -82 37 -82 111c0 17.333 2.66699 38.333 8 63c8 36 19.667 60 35 72
c18.667 5.33301 58.667 8.66602 120 9.99902c46.667 2 77 12 91 30c-9.33301 31.333 -24.333 78.333 -45 141h-24c-83.333 -23.333 -248.666 -63 -495.999 -119c-27.333 -0.666992 -64.333 -5 -111 -13c-115.333 -39.333 -173 -73 -173 -101v0l41 -62
c22 -74.667 33 -127 33 -157c0 -59.333 -23.667 -89 -71 -89c-11.333 0 -29 10 -53 30s-40.667 39.667 -50 59c-8.66699 18.667 -20.667 49 -36 91c-10.667 13.333 -24 32.333 -40 57c0 18.667 -4.66699 45 -14 79c-58 19.333 -87 29.666 -87 30.999v0
c-8 0 -57.667 -4 -149 -12l-149 -13c-6.66699 0 -39 9.33301 -97 28c0 6.66699 -5 26.667 -15 60l-16 50c0 30.667 17.333 48.667 52 54c110.667 18 188.334 27 233.001 27c2 0 10.333 -1.33301 25 -4c15.333 -2.66699 24 -4 26 -4c30.667 0 59.334 7 86.001 21
c0.666992 13.333 1 25.333 1 36c0 20.667 -1.66699 35 -5 43c-22.667 60.667 -34 138.667 -34 234c0 88 7 179.667 21 275c3.33301 24.667 22.333 78.334 57 161.001c18 26 36.333 60.333 55 103c62 66.667 121.333 112.667 178 138c28 6.66699 68.667 17 122 31
c66.667 26 136 39 208 39c102.667 0 199.334 -23.333 290.001 -70c70 -35.333 126 -78 168 -128c52 -62.667 78 -110.667 78 -144v-67c-13.333 -12.667 -27 -19 -41 -19c-7.33301 0 -49 28.333 -125 85c-106 78 -172.667 121.667 -200 131l-204 18
c-5.33301 0 -13.666 -3 -24.999 -9l-25 -15c-240 -44.667 -360 -228.667 -360 -552c0 -191.333 24.667 -287 74 -287c2.66699 0 30.334 6.83301 83.001 20.5s79.334 20.5 80.001 20.5c3.33301 0 10.166 -1.66699 20.499 -5s16.166 -5 17.499 -5c20.667 0 147.667 21 381 63
c81.333 2.66699 128.333 5 141 7c66 10 113.667 32.667 143 68c13.333 92 30.666 182.667 51.999 272c34.667 144 110.334 262 227.001 354c40 30.667 117.667 67 233 109c87.333 32 143.666 48 169 48c114.667 0 192.334 -27.667 233 -83c9.33301 -12 24 -47.667 44 -107
c18.667 -55.333 29 -83 31 -83v4c0 -12 -4.66699 -20.667 -14 -26c19.333 -6.66699 29 -23 29 -49zM2406.99 1271c0 34 -10.666 63.667 -31.999 89c-22 24 -49.333 36 -82 36c-0.666992 0 -20.334 -4.83301 -59 -14.5c-38.667 -9.66699 -60.334 -14.5 -65.001 -14.5
c-59.333 -6.66699 -134.333 -44 -225 -112c-32.667 -24 -66.5 -75.333 -101.5 -154s-52.5 -142.667 -52.5 -192c0 -24 4.66699 -38.667 14 -44c95.333 22 208 67.333 338 136c176.667 94.667 265 184.667 265 270z" />
    <glyph glyph-name="paragraph" unicode="&#xb6;" horiz-adv-x="1174" 
d="M1078 751c-4.66699 -90 -9.66406 -269.333 -14.9971 -538c-2 -128.667 -7.33301 -199.334 -16 -212.001c-23.333 -12.667 -46.666 -19 -69.999 -19c-36.667 0 -55.334 16 -56.001 48c-0.666992 42.667 -1 89.334 -1 140.001c0 130.667 3 288 9 472l13 374
c0.666992 26 1 49.667 1 71c0 58.667 -3.33301 102 -10 130c-4.66699 18 -21 27 -49 27c-12.667 0 -23.334 -5 -32.001 -15v1l5 -44v-154c0 1.33301 -0.333008 2 -1 2c-1.33301 0 -7.33301 -23 -18 -69c0 -39.333 -1.33301 -75.333 -4 -108
c-9.33301 -131.333 -29 -369.666 -59 -714.999c-18 -20.667 -42 -31 -72 -31c-32 0 -49 83 -51 249c0 -24 0.333008 -36.333 1 -37c1.33301 29.333 2 130.333 2 303c0 2 1 22.667 3 62s3 62 3 68l-12 10l-25 -16c-124.667 -13.333 -207.334 -20 -248.001 -20
c-83.333 0 -154.666 19.667 -213.999 59s-89 87.666 -89 144.999c0 82.667 20.5 147 61.5 193s124.833 97.667 251.5 155c15.333 7.33301 59.5 22.5 132.5 45.5s112.5 34.5 118.5 34.5c2 0 10.667 -1.66699 26 -5c16 -4 24.667 -6 26 -6c1.33301 2 9.66602 7 24.999 15
c78 20 134.667 30 170 30c23.333 0 59 -2.66699 107 -8c7.33301 -3.33301 25 -14.333 53 -33c0 -4.66699 1 -12 3 -22c11.333 -9.33301 23.666 -22.333 36.999 -39c2.66699 -34 4 -93.333 4 -178v-37c0 -94.667 -1.33301 -167.667 -4 -219zM711.003 1121
c0 8 -6.66699 35.667 -20 83h-36c-27.333 0 -66.333 -13.667 -117 -41c0 -8.66699 -11.333 -43 -34 -103c-22 -56.667 -33 -107 -33 -151c0 -21.333 25.667 -32 77 -32c69.333 5.33301 107.666 8 114.999 8c20 9.33301 30 24.333 30 45v51
c0.666992 2.66699 4.33398 30.667 11.001 84z" />
    <glyph glyph-name="cedilla" unicode="&#xb8;" horiz-adv-x="735" 
d="M735 -297c0 -5.33301 -14.666 -35.666 -43.999 -90.999c-24 -46 -64.333 -77 -121 -93c-6.66699 -2 -55.334 -12 -146.001 -30c-93.333 -18.667 -140 -29 -140 -31h2c-16.667 2.66699 -26.667 4 -30 4c-0.666992 0 -31.167 -4.5 -91.5 -13.5s-91.833 -13.5 -94.5 -13.5
c-17.333 0 -33 8 -47 24s-21 33 -21 51c0 59.333 36.333 97.666 109 114.999c42 1.33301 102.333 4.66602 181 9.99902l78 18c70 10 122.333 26.667 157 50c-39.333 24.667 -69.333 37 -90 37c-2.66699 0 -21.334 -1.66699 -56.001 -5l-55 -5
c-39.333 0 -70.666 13.333 -93.999 40c-4 12 -13 29.667 -27 53c4.66699 0.666992 8 10.334 10 29.001c2.66699 25.333 5 41 7 47c1.33301 4.66699 3 9 5 13l27 58c4 22.667 16.333 54.334 37 95.001c5.33301 3.33301 30 10 74 20
c34.667 -32.667 54.334 -76.667 59.001 -132c-3.33301 -8.66699 -5 -23 -5 -43c3.33301 0.666992 7.33301 1 12 1c10.667 0 24 -1.33301 40 -4c77.333 -24.667 129.666 -44.667 156.999 -60c57.333 -30.667 87.333 -67.334 90 -110.001c11.333 -10 17 -21.333 17 -34z" />
    <glyph glyph-name="ordmasculine" unicode="&#xba;" horiz-adv-x="731" 
d="M659 1539c0 -31.333 -11.666 -62.333 -34.999 -93c-22.667 -30.667 -49 -50 -79 -58c-32 -18.667 -48.667 -28 -50 -28c-2 0 -21 -2.33301 -57 -7s-55 -7 -57 -7c-42.667 0 -93.334 11.333 -152.001 34c-18 8 -45.333 24.333 -82 49c-7.33301 16 -21.333 36.667 -42 62
c-2.66699 16.667 -13.334 37 -32.001 61c4.66699 22 15 52.667 31 92c16.667 22 69 47.667 157 77c9.33301 -1.33301 23 -2 41 -2c33.333 6 50 9.33301 50 10s-0.666992 1 -2 1c36.667 0 94.334 -17.667 173.001 -53c4.66699 -6.66699 12 -13.667 22 -21
c16.667 0 32.667 -6 48 -18c44 -34.667 66 -67.667 66 -99zM458.001 1528c-35.333 32 -76 48 -122 48c-18 0 -32 -4.33301 -42 -13v-23c24 -22 54 -33 90 -33h-1c0 1.33301 25 8.33301 75 21z" />
    <glyph glyph-name="guillemotright" unicode="&#xbb;" horiz-adv-x="1437" 
d="M1393 342c0 -22.667 -6.66602 -47.6699 -19.999 -75.0029c-12.667 -27.333 -25.667 -43.666 -39 -48.999c-176 -64.667 -356 -137 -540 -217c-16.667 0 -39.667 -3.33301 -69 -10c-34.667 38.667 -52 69.334 -52 92.001c0 40.667 49 94 147 160
c90 60.667 160.667 95.334 212 104.001c11.333 2 17 14 17 36c0 10 -1 17 -3 21c-27.333 30.667 -66.333 69.667 -117 117c-70 52 -128 83 -174 93l-72 122c0 24.667 12.667 48 38 70c24 21.333 50.667 32 80 32c36 0 77.667 -18.333 125 -55
c31.333 -19.333 71.333 -45.333 120 -78c51.333 -57.333 128.666 -131 231.999 -221c76.667 -46.667 115 -94 115 -142zM718.001 332.997c0 -21.333 -6.66992 -45.665 -20.0029 -72.998c-13.333 -28.667 -26.333 -45.334 -39 -50.001
c-197.333 -72.667 -378.666 -144.667 -543.999 -216c-15.333 0 -38.333 -3.33301 -69 -10c-31.333 37.333 -47 68 -47 92c0 39.333 48.667 92 146 158c90.667 61.333 161.334 97 212.001 107c8.66699 0.666992 13 12 13 34c0 9.33301 -0.666992 16.333 -2 21
c-27.333 32.667 -66.666 71.334 -117.999 116.001c-56.667 51.333 -114 82.666 -172 93.999l-70 121c0 24 12.167 47 36.5 69s50.166 33 77.499 33c36.667 0 78.334 -18.333 125.001 -55c31.333 -19.333 71.333 -45.333 120 -78c52 -58 131 -131.333 237 -220
c76 -46.667 114 -94.334 114 -143.001z" />
    <glyph glyph-name="questiondown" unicode="&#xbf;" horiz-adv-x="1212" 
d="M1195 1322c0 -22.667 -14.5 -48.5 -43.5 -77.5s-55.167 -43.5 -78.5 -43.5c-18.667 0 -42.167 11.5 -70.5 34.5s-42.5 42.833 -42.5 59.5c0 1.33301 5 15 15 41c10.667 25.333 16 39.333 16 42c15.333 16.667 29 25 41 25c11.333 0 46 -6.66699 104 -20
c39.333 -8 59 -28.333 59 -61zM1157 -219c-7.33301 -11.333 -14.333 -33.333 -21 -66c-38.667 -30 -75.667 -51.667 -111 -65c-76 -29.333 -137 -44 -183 -44h-254c-267.333 0 -456 58.333 -566 175l-8 72c-3.33301 42.667 -5.33301 64 -6 64v0c0 7.33301 4.66699 18 14 32
c-2 6 -3 13 -3 21c0 19.333 7 41.666 21 66.999c62 114 177 200.333 345 259c43.333 14.667 183.333 48.667 420 102c8.66699 1.33301 19.334 7.66602 32.001 18.999c10.667 27.333 23 67.666 37 120.999c1.33301 62 9.33301 153 24 273c6 19.333 16.333 49.333 31 90
c2.66699 6.66699 4 14.334 4 23.001c0 12 -2.33301 25.667 -7 41l27 27c92 0 138 -43.333 138 -130c-8 -24.667 -16 -55.667 -24 -93c-4 -103.333 -20.333 -234.666 -49 -393.999c0.666992 -4 1 -8 1 -12c0 -31.333 -8.33301 -73.666 -25 -126.999
c-15.333 -28 -42 -42 -80 -42c-2 0 -6.33301 1.16699 -13 3.5s-11 3.5 -13 3.5c-6.66699 -0.666992 -27.667 -5.66699 -63 -15c-30.667 -2 -76.667 -8 -138 -18l-253 -82c-26 -14 -64.667 -36.667 -116 -68c-70 -45.333 -105 -84.333 -105 -117
c0 -63.333 101.333 -95 304 -95c12.667 -1.33301 35.667 -3 69 -5c27.333 -1.33301 46.666 -2 57.999 -2c5.33301 0 9 0.333008 11 1l395 23h3c25.333 0 60 -14 104 -42z" />
    <glyph glyph-name="Agrave" unicode="&#xc0;" 
d="M1223 267c0 -40.667 -24.333 -61.002 -73 -61.002h-63c-4 0 -19.667 9 -47 27c-30.667 20.667 -49.334 32.334 -56.001 35.001c-60.667 25.333 -122.667 44.333 -186 57c-144.667 28.667 -260.334 43 -347.001 43c-9.33301 0 -18.333 -4 -27 -12l-15 12
c-43.333 -2.66699 -82.666 -40.667 -117.999 -114c-14.667 -16 -33.334 -39 -56.001 -69c-2 -11.333 -5.66699 -25.333 -11 -42c-5.33301 -10.667 -14.666 -27.334 -27.999 -50.001l-94 -79c-18 12 -36 23.333 -54 34c-19.333 15.333 -29 34 -29 56
c0 34 2.66699 55.333 8 64l56 61c26 31.333 46.667 62.333 62 93c1.33301 1.33301 2 3.66602 2 6.99902c0 -2.66699 -0.333008 -4 -1 -4c-1.33301 0 -5.33301 17.667 -12 53c-1.33301 4.66699 -2 9 -2 13c0 14.667 5.66699 26 17 34c19.333 9.33301 39 18.333 59 27
c36.667 16.667 60 32.334 70 47.001c2 2.66699 23.333 37.667 64 105c12 10 28.667 27 50 51c51.333 86.667 127 208 227 364c2 10.667 5.33301 24.334 10 41.001l104 172c0 8 1.33301 19.667 4 35l53 75c14 4 21 6.66699 21 8v1c44.667 0 80 -39.667 106 -119
c2.66699 -7.33301 16 -47.666 40 -120.999c18 -54 34.667 -109.667 50 -167c16.667 -107.333 34.334 -202 53.001 -284c16 -66.667 49 -159 99 -277l37 -59c18 -27.333 27 -46.333 27 -57zM962 462.998c-1.33301 6 -6.99902 20 -16.999 42l-21 40l-58 283
c-2 3.33301 -5.33301 7 -10 11c0 19.333 -1.33301 44.333 -4 75c-8.66699 46 -13.334 69.333 -14.001 70c-10 34 -25.667 59.667 -47 77c-20.667 -28 -47 -78.667 -79 -152c-3.33301 -15.333 -13 -31.666 -29 -48.999l-40 -43c-23.333 -46 -56 -103.667 -98 -173
c-8 -6.66699 -18 -16.334 -30 -29.001c-3.33301 -10 -19.333 -43.333 -48 -100c3.33301 -2.66699 47 -10 131 -22c60 -3.33301 147 -12.666 261 -27.999c32 -14 54.667 -21 68 -21h28c4.66699 9.33301 7 15.666 7 18.999zM1091 1368c0 -20.667 -9 -45.332 -27 -73.999
c-160.667 41.333 -350 119.666 -568 234.999c-6 3.33301 -9 25.333 -9 66c0 44.667 12.333 67 37 67c14 0 46.667 -11.333 98 -34l233 -104l208 -100c18.667 -24 28 -42.667 28 -56z" />
    <glyph glyph-name="Aacute" unicode="&#xc1;" 
d="M1223 267c0 -40.667 -24.333 -61.002 -73 -61.002h-63c-4 0 -19.667 9 -47 27c-30.667 20.667 -49.334 32.334 -56.001 35.001c-60.667 25.333 -122.667 44.333 -186 57c-144.667 28.667 -260.334 43 -347.001 43c-9.33301 0 -18.333 -4 -27 -12l-15 12
c-43.333 -2.66699 -82.666 -40.667 -117.999 -114c-14.667 -16 -33.334 -39 -56.001 -69c-2 -11.333 -5.66699 -25.333 -11 -42c-5.33301 -10.667 -14.666 -27.334 -27.999 -50.001l-94 -79c-18 12 -36 23.333 -54 34c-19.333 15.333 -29 34 -29 56
c0 34 2.66699 55.333 8 64l56 61c26 31.333 46.667 62.333 62 93c1.33301 1.33301 2 3.66602 2 6.99902c0 -2.66699 -0.333008 -4 -1 -4c-1.33301 0 -5.33301 17.667 -12 53c-1.33301 4.66699 -2 9 -2 13c0 14.667 5.66699 26 17 34c19.333 9.33301 39 18.333 59 27
c36.667 16.667 60 32.334 70 47.001c2 2.66699 23.333 37.667 64 105c12 10 28.667 27 50 51c51.333 86.667 127 208 227 364c2 10.667 5.33301 24.334 10 41.001l104 172c0 8 1.33301 19.667 4 35l53 75c14 4 21 6.66699 21 8v1c44.667 0 80 -39.667 106 -119
c2.66699 -7.33301 16 -47.666 40 -120.999c18 -54 34.667 -109.667 50 -167c16.667 -107.333 34.334 -202 53.001 -284c16 -66.667 49 -159 99 -277l37 -59c18 -27.333 27 -46.333 27 -57zM962 462.998c-1.33301 6 -6.99902 20 -16.999 42l-21 40l-58 283
c-2 3.33301 -5.33301 7 -10 11c0 19.333 -1.33301 44.333 -4 75c-8.66699 46 -13.334 69.333 -14.001 70c-10 34 -25.667 59.667 -47 77c-20.667 -28 -47 -78.667 -79 -152c-3.33301 -15.333 -13 -31.666 -29 -48.999l-40 -43c-23.333 -46 -56 -103.667 -98 -173
c-8 -6.66699 -18 -16.334 -30 -29.001c-3.33301 -10 -19.333 -43.333 -48 -100c3.33301 -2.66699 47 -10 131 -22c60 -3.33301 147 -12.666 261 -27.999c32 -14 54.667 -21 68 -21h28c4.66699 9.33301 7 15.666 7 18.999zM1049 1601c0 -30.667 -66.999 -84 -200.999 -160
l-71 -27c-127.333 -78 -205 -117 -233 -117c-50.667 0 -76 22.667 -76 68c0 1.33301 1.5 10.5 4.5 27.5s4.5 26.5 4.5 28.5c57.333 25.333 136.333 58.333 237 99c13.333 11.333 26.666 20 39.999 26c130.667 62 208.667 93 234 93c10.667 0 23.5 -4.5 38.5 -13.5
s22.5 -17.167 22.5 -24.5z" />
    <glyph glyph-name="Acircumflex" unicode="&#xc2;" 
d="M1223 267c0 -40.667 -24.333 -61.002 -73 -61.002h-63c-4 0 -19.667 9 -47 27c-30.667 20.667 -49.334 32.334 -56.001 35.001c-60.667 25.333 -122.667 44.333 -186 57c-144.667 28.667 -260.334 43 -347.001 43c-9.33301 0 -18.333 -4 -27 -12l-15 12
c-43.333 -2.66699 -82.666 -40.667 -117.999 -114c-14.667 -16 -33.334 -39 -56.001 -69c-2 -11.333 -5.66699 -25.333 -11 -42c-5.33301 -10.667 -14.666 -27.334 -27.999 -50.001l-94 -79c-18 12 -36 23.333 -54 34c-19.333 15.333 -29 34 -29 56
c0 34 2.66699 55.333 8 64l56 61c26 31.333 46.667 62.333 62 93c1.33301 1.33301 2 3.66602 2 6.99902c0 -2.66699 -0.333008 -4 -1 -4c-1.33301 0 -5.33301 17.667 -12 53c-1.33301 4.66699 -2 9 -2 13c0 14.667 5.66699 26 17 34c19.333 9.33301 39 18.333 59 27
c36.667 16.667 60 32.334 70 47.001c2 2.66699 23.333 37.667 64 105c12 10 28.667 27 50 51c51.333 86.667 127 208 227 364c2 10.667 5.33301 24.334 10 41.001l104 172c0 8 1.33301 19.667 4 35l53 75c14 4 21 6.66699 21 8v1c44.667 0 80 -39.667 106 -119
c2.66699 -7.33301 16 -47.666 40 -120.999c18 -54 34.667 -109.667 50 -167c16.667 -107.333 34.334 -202 53.001 -284c16 -66.667 49 -159 99 -277l37 -59c18 -27.333 27 -46.333 27 -57zM962 462.998c-1.33301 6 -6.99902 20 -16.999 42l-21 40l-58 283
c-2 3.33301 -5.33301 7 -10 11c0 19.333 -1.33301 44.333 -4 75c-8.66699 46 -13.334 69.333 -14.001 70c-10 34 -25.667 59.667 -47 77c-20.667 -28 -47 -78.667 -79 -152c-3.33301 -15.333 -13 -31.666 -29 -48.999l-40 -43c-23.333 -46 -56 -103.667 -98 -173
c-8 -6.66699 -18 -16.334 -30 -29.001c-3.33301 -10 -19.333 -43.333 -48 -100c3.33301 -2.66699 47 -10 131 -22c60 -3.33301 147 -12.666 261 -27.999c32 -14 54.667 -21 68 -21h28c4.66699 9.33301 7 15.666 7 18.999zM1211 1298c0 -34.667 -21.333 -52.001 -64 -52.001
c-2 0 -12.5 1.83301 -31.5 5.5s-29.167 5.5 -30.5 5.5c-6 0 -52.833 33.167 -140.5 99.5s-134.5 99.5 -140.5 99.5c-20.667 0 -38 -7.33301 -52 -22c-4.66699 -7.33301 -13.667 -18.666 -27 -33.999c-50.667 -40 -95.334 -73.333 -134.001 -100
c-12 -8.66699 -39.667 -13 -83 -13c-35.333 0 -60.333 13.667 -75 41c-8.66699 25.333 -16.667 50.333 -24 75c42.667 10 100.334 45 173.001 105l170 139h5c22 0 56.333 -10.667 103 -32c49.333 -24 82 -45.667 98 -65c38.667 -25.333 89.667 -61.333 153 -108
c66.667 -50.667 100 -98.667 100 -144z" />
    <glyph glyph-name="Atilde" unicode="&#xc3;" 
d="M1223 267c0 -40.667 -24.333 -61.002 -73 -61.002h-63c-4 0 -19.667 9 -47 27c-30.667 20.667 -49.334 32.334 -56.001 35.001c-60.667 25.333 -122.667 44.333 -186 57c-144.667 28.667 -260.334 43 -347.001 43c-9.33301 0 -18.333 -4 -27 -12l-15 12
c-43.333 -2.66699 -82.666 -40.667 -117.999 -114c-14.667 -16 -33.334 -39 -56.001 -69c-2 -11.333 -5.66699 -25.333 -11 -42c-5.33301 -10.667 -14.666 -27.334 -27.999 -50.001l-94 -79c-18 12 -36 23.333 -54 34c-19.333 15.333 -29 34 -29 56
c0 34 2.66699 55.333 8 64l56 61c26 31.333 46.667 62.333 62 93c1.33301 1.33301 2 3.66602 2 6.99902c0 -2.66699 -0.333008 -4 -1 -4c-1.33301 0 -5.33301 17.667 -12 53c-1.33301 4.66699 -2 9 -2 13c0 14.667 5.66699 26 17 34c19.333 9.33301 39 18.333 59 27
c36.667 16.667 60 32.334 70 47.001c2 2.66699 23.333 37.667 64 105c12 10 28.667 27 50 51c51.333 86.667 127 208 227 364c2 10.667 5.33301 24.334 10 41.001l104 172c0 8 1.33301 19.667 4 35l53 75c14 4 21 6.66699 21 8v1c44.667 0 80 -39.667 106 -119
c2.66699 -7.33301 16 -47.666 40 -120.999c18 -54 34.667 -109.667 50 -167c16.667 -107.333 34.334 -202 53.001 -284c16 -66.667 49 -159 99 -277l37 -59c18 -27.333 27 -46.333 27 -57zM962 462.998c-1.33301 6 -6.99902 20 -16.999 42l-21 40l-58 283
c-2 3.33301 -5.33301 7 -10 11c0 19.333 -1.33301 44.333 -4 75c-8.66699 46 -13.334 69.333 -14.001 70c-10 34 -25.667 59.667 -47 77c-20.667 -28 -47 -78.667 -79 -152c-3.33301 -15.333 -13 -31.666 -29 -48.999l-40 -43c-23.333 -46 -56 -103.667 -98 -173
c-8 -6.66699 -18 -16.334 -30 -29.001c-3.33301 -10 -19.333 -43.333 -48 -100c3.33301 -2.66699 47 -10 131 -22c60 -3.33301 147 -12.666 261 -27.999c32 -14 54.667 -21 68 -21h28c4.66699 9.33301 7 15.666 7 18.999zM1329 1601
c0 -10.667 -12.3291 -23.6641 -36.9961 -38.9971c0 -10 -1 -24 -3 -42c-147.333 -114 -258 -171 -332 -171c-24.667 0 -79.667 27 -165 81c-76 48 -114 75 -114 81h3c-18 0 -62.667 -30.667 -134 -92l-107 -93c-2 0 -10.667 1.66699 -26 5c-16.667 2 -25.334 3 -26.001 3
c-18.667 44 -28 76.333 -28 97c0 3.33301 10 13.666 30 30.999c24.667 35.333 84.667 88.666 180 159.999c3.33301 1.33301 9.33301 2.33301 18 3c26.667 18 51.667 27 75 27c59.333 0 116.666 -24.667 171.999 -74c63.333 -56 105.666 -84 126.999 -84
s85.666 25.667 192.999 77c98 47.333 147 72.666 147 75.999h-1c4.66699 0 14 -2 28 -6v-40z" />
    <glyph glyph-name="Adieresis" unicode="&#xc4;" 
d="M1223 267c0 -40.667 -24.333 -61.002 -73 -61.002h-63c-4 0 -19.667 9 -47 27c-30.667 20.667 -49.334 32.334 -56.001 35.001c-60.667 25.333 -122.667 44.333 -186 57c-144.667 28.667 -260.334 43 -347.001 43c-9.33301 0 -18.333 -4 -27 -12l-15 12
c-43.333 -2.66699 -82.666 -40.667 -117.999 -114c-14.667 -16 -33.334 -39 -56.001 -69c-2 -11.333 -5.66699 -25.333 -11 -42c-5.33301 -10.667 -14.666 -27.334 -27.999 -50.001l-94 -79c-18 12 -36 23.333 -54 34c-19.333 15.333 -29 34 -29 56
c0 34 2.66699 55.333 8 64l56 61c26 31.333 46.667 62.333 62 93c1.33301 1.33301 2 3.66602 2 6.99902c0 -2.66699 -0.333008 -4 -1 -4c-1.33301 0 -5.33301 17.667 -12 53c-1.33301 4.66699 -2 9 -2 13c0 14.667 5.66699 26 17 34c19.333 9.33301 39 18.333 59 27
c36.667 16.667 60 32.334 70 47.001c2 2.66699 23.333 37.667 64 105c12 10 28.667 27 50 51c51.333 86.667 127 208 227 364c2 10.667 5.33301 24.334 10 41.001l104 172c0 8 1.33301 19.667 4 35l53 75c14 4 21 6.66699 21 8v1c44.667 0 80 -39.667 106 -119
c2.66699 -7.33301 16 -47.666 40 -120.999c18 -54 34.667 -109.667 50 -167c16.667 -107.333 34.334 -202 53.001 -284c16 -66.667 49 -159 99 -277l37 -59c18 -27.333 27 -46.333 27 -57zM962 462.998c-1.33301 6 -6.99902 20 -16.999 42l-21 40l-58 283
c-2 3.33301 -5.33301 7 -10 11c0 19.333 -1.33301 44.333 -4 75c-8.66699 46 -13.334 69.333 -14.001 70c-10 34 -25.667 59.667 -47 77c-20.667 -28 -47 -78.667 -79 -152c-3.33301 -15.333 -13 -31.666 -29 -48.999l-40 -43c-23.333 -46 -56 -103.667 -98 -173
c-8 -6.66699 -18 -16.334 -30 -29.001c-3.33301 -10 -19.333 -43.333 -48 -100c3.33301 -2.66699 47 -10 131 -22c60 -3.33301 147 -12.666 261 -27.999c32 -14 54.667 -21 68 -21h28c4.66699 9.33301 7 15.666 7 18.999zM1061 1472c0 -48 -22.333 -72 -67 -72
c-67.333 0 -101 37 -101 111c0 36 3.33301 62.667 10 80h65c62 0 93 -39.667 93 -119zM671.001 1514c0 -26 -10.167 -49.166 -30.5 -69.499s-43.833 -30.5 -70.5 -30.5c-27.333 0 -51.333 10 -72 30c-22 20 -33 42.333 -33 67c0 41.333 16.333 75.666 49 102.999
c22.667 -8 51 -18.667 85 -32c48 -20 72 -42.667 72 -68z" />
    <glyph glyph-name="Aring" unicode="&#xc5;" 
d="M1223 267c0 -40.667 -24.333 -61.002 -73 -61.002h-63c-4 0 -19.667 9 -47 27c-30.667 20.667 -49.334 32.334 -56.001 35.001c-60.667 25.333 -122.667 44.333 -186 57c-144.667 28.667 -260.334 43 -347.001 43c-9.33301 0 -18.333 -4 -27 -12l-15 12
c-43.333 -2.66699 -82.666 -40.667 -117.999 -114c-14.667 -16 -33.334 -39 -56.001 -69c-2 -11.333 -5.66699 -25.333 -11 -42c-5.33301 -10.667 -14.666 -27.334 -27.999 -50.001l-94 -79c-18 12 -36 23.333 -54 34c-19.333 15.333 -29 34 -29 56
c0 34 2.66699 55.333 8 64l56 61c26 31.333 46.667 62.333 62 93c1.33301 1.33301 2 3.66602 2 6.99902c0 -2.66699 -0.333008 -4 -1 -4c-1.33301 0 -5.33301 17.667 -12 53c-1.33301 4.66699 -2 9 -2 13c0 14.667 5.66699 26 17 34c19.333 9.33301 39 18.333 59 27
c36.667 16.667 60 32.334 70 47.001c2 2.66699 23.333 37.667 64 105c12 10 28.667 27 50 51c51.333 86.667 127 208 227 364c2 10.667 5.33301 24.334 10 41.001l104 172c0 8 1.33301 19.667 4 35l53 75c14 4 21 6.66699 21 8v1c44.667 0 80 -39.667 106 -119
c2.66699 -7.33301 16 -47.666 40 -120.999c18 -54 34.667 -109.667 50 -167c16.667 -107.333 34.334 -202 53.001 -284c16 -66.667 49 -159 99 -277l37 -59c18 -27.333 27 -46.333 27 -57zM962 462.998c-1.33301 6 -6.99902 20 -16.999 42l-21 40l-58 283
c-2 3.33301 -5.33301 7 -10 11c0 19.333 -1.33301 44.333 -4 75c-8.66699 46 -13.334 69.333 -14.001 70c-10 34 -25.667 59.667 -47 77c-20.667 -28 -47 -78.667 -79 -152c-3.33301 -15.333 -13 -31.666 -29 -48.999l-40 -43c-23.333 -46 -56 -103.667 -98 -173
c-8 -6.66699 -18 -16.334 -30 -29.001c-3.33301 -10 -19.333 -43.333 -48 -100c3.33301 -2.66699 47 -10 131 -22c60 -3.33301 147 -12.666 261 -27.999c32 -14 54.667 -21 68 -21h28c4.66699 9.33301 7 15.666 7 18.999zM1023 1514
c0 -21.333 -3.99805 -44.666 -11.998 -69.999c-5.33301 -16 -23 -36.333 -53 -61c-18.667 -8.66699 -43.334 -19 -74.001 -31c-41.333 -16.667 -81.666 -25 -120.999 -25c-38.667 0 -80.334 11.667 -125.001 35c-51.333 27.333 -77 59.333 -77 96c6 44 9 75 9 93v9v2
c0 21.333 26.667 49.666 80 84.999c35.333 22.667 86.666 34 153.999 34c24 0 57.333 -6.33301 100 -19c16.667 -5.33301 45.667 -22 87 -50c21.333 -58 32 -90.667 32 -98zM911.003 1516c0 24.667 -45.3311 41.668 -135.998 51.001c-14.667 -0.666992 -26.667 -1 -36 -1
c-2.66699 -2.66699 -9.33398 -6.33398 -20.001 -11.001c-29.333 -27.333 -44 -48 -44 -62v-19l36 -22c7.33301 -4 22.666 -6 45.999 -6c26.667 0 55 4.33301 85 13c46 13.333 69 32.333 69 57z" />
    <glyph glyph-name="AE" unicode="&#xc6;" horiz-adv-x="1982" 
d="M1923 717c0 -28 -19.332 -47.9961 -57.999 -59.9961l-393 -113c-50.667 -9.33301 -114.334 -28 -191.001 -56c-6.66699 -66 -10 -108 -10 -126c0 -72 18.333 -111.667 55 -119l465 72c7.33301 5.33301 14.333 8 21 8c16 0 33.667 -7.83301 53 -23.5
s29 -28.834 29 -39.501c0 -51.333 -93.333 -104.333 -280 -159c-156.667 -44.667 -267 -67 -331 -67c-126 0 -189 56.333 -189 169c0 26 3.66699 57 11 93c-4 30.667 -12.333 78.667 -25 144c-6.66699 9.33301 -15.334 14 -26.001 14
c-5.33301 0 -66.666 -6.66699 -183.999 -20l-184 -20c-8.66699 0 -31 1 -67 3l-69 5c-20.667 0 -47 -19 -79 -57c-16 -12 -35.667 -30 -59 -54l-119 -169c-66 -92.667 -112.667 -139 -140 -139h-69c-25.333 54.667 -38 89 -38 103c0 25.333 13 54 39 86
c36.667 45.333 59.667 78 69 98c26.667 53.333 61 103.333 103 150c24 24.667 67.667 74 131 148l305 380l246 275l155 224c16 23.333 34.667 36.666 56 39.999c73.333 12.667 167.333 23.667 282 33c15.333 1.33301 114 2 296 2c118 0 177 -22.333 177 -67
c0 -58.667 -70 -93.667 -210 -105l-233 -16c-119.333 -10 -202.333 -34.667 -249 -74c8.66699 -42.667 20 -85.334 34 -128.001c-1.33301 -4 -5.66602 -9.33301 -12.999 -16c3.33301 -22.667 9 -81.334 17 -176.001l11 -123c7.33301 -84 20.666 -126 39.999 -126
c10 0 65.333 9 166 27l29 19c31.333 4 89 12.667 173 26c74 12 114.333 18 121 18c88 0 132 -28 132 -84zM1082 688.004c0 6.66699 -1.33301 19.666 -4 38.999l-5 27v203c0 31.333 -10.333 65 -31 101c-26.667 -20 -90.167 -88.167 -190.5 -204.5
s-150.5 -179.166 -150.5 -188.499v-34h153c4 2 20 6.33301 48 13c50.667 5.33301 110.667 20 180 44z" />
    <glyph glyph-name="Ccedilla" unicode="&#xc7;" horiz-adv-x="1885" 
d="M2005 188c-10 -8 -26.0029 -18.332 -48.0029 -30.999c-229.333 -66.667 -389.333 -100 -480 -100c-1.33301 0 -11 2 -29 6s-28 6 -30 6c-1.33301 0 -13 -4.33301 -35 -13c-23.333 -9.33301 -36.666 -14 -39.999 -14c-43.333 -0.666992 -131.333 -5 -264 -13
c-23.333 -8 -38.666 -12 -45.999 -12c-2 0 -8 2.5 -18 7.5s-16 7.5 -18 7.5c-3.33301 0 -14.5 -3.33301 -33.5 -10s-28.833 -10 -29.5 -10c-8 -2 -36 -3 -84 -3c-55.333 0 -120.333 8.33301 -195 25c-39.333 8.66699 -103 22 -191 40c-34.667 6 -52 20.333 -52 43v2
c-58 22.667 -100 43.667 -126 63c-92.667 69.333 -170 155.333 -232 258c0 18.667 -1.33301 44.667 -4 78c-8 30 -13 45.667 -15 47c-0.666992 0 -1 -1.66699 -1 -5c0 42 18.667 105.333 56 190c16 38 64 93.667 144 167c106 98 202.667 167 290 207
c284 130 506.667 211.333 668 244c12.667 6 36.334 14 71.001 24l301 45c0.666992 0 16.5 4.66699 47.5 14s47.833 14 50.5 14c34.667 0 66.334 -11.667 95.001 -35c28.667 -22.667 43 -47.667 43 -75c0 -17.333 -7.33301 -38.333 -22 -63c-12 -9.33301 -29.667 -20 -53 -32
c-50.667 -0.666992 -126.667 -7.66699 -228 -21c-35.333 -12 -71.333 -23 -108 -33l-262 -62c-128 -31.333 -318.333 -117.333 -571 -258l-115 -67c-70.667 -43.333 -126.334 -111 -167.001 -203c-6.66699 -15.333 -10 -50 -10 -104c0 -61.333 37 -118 111 -170
c65.333 -46 137 -76.333 215 -91c6.66699 -1.33301 31.667 -7.33301 75 -18s66.333 -16 69 -16l54 4c36 2 61.667 3 77 3c6.66699 0 27.667 -2.33301 63 -7l55 -9l86 13c52.667 7.33301 88 11.666 106 12.999l780 51h5c22 0 35.667 -10.333 41 -31
c0 -3.33301 1.33301 -25.333 4 -66zM1281 -300.999c0 -5.33301 -13.998 -34.3311 -41.998 -86.998c-23.333 -43.333 -61.666 -72.666 -114.999 -87.999c-6 -2 -52 -11.667 -138 -29c-89.333 -18 -134 -27.667 -134 -29h2c-15.333 2.66699 -24.333 4 -27 4
c-1.33301 0 -30.666 -4.33301 -87.999 -13s-87 -13 -89 -13c-16.667 0 -31.834 7.5 -45.501 22.5s-20.5 31.167 -20.5 48.5c0 56 34.667 92.333 104 109c40 1.33301 97.333 4.33301 172 9c17.333 4.66699 42.333 10.667 75 18c66 10 115.333 26 148 48
c-36.667 23.333 -65 35 -85 35c-2.66699 0 -20.334 -1.66699 -53.001 -5l-53 -5c-37.333 0 -66.666 12.667 -87.999 38c-4.66699 11.333 -13.667 28 -27 50c4 1.33301 7 10.666 9 27.999c3.33301 24 5.66602 38.667 6.99902 44s3 9.66602 5 12.999l26 56
c3.33301 20.667 15 50.667 35 90c5.33301 2.66699 28.666 8.66699 69.999 18c33.333 -31.333 52.333 -73.333 57 -126c-3.33301 -7.33301 -5 -20.333 -5 -39h9c10 0 23.333 -1 40 -3c73.333 -24 123.333 -43 150 -57c53.333 -29.333 81.666 -64.333 84.999 -105
c10.667 -16.667 16 -27.334 16 -32.001z" />
    <glyph glyph-name="Egrave" unicode="&#xc8;" horiz-adv-x="1435" 
d="M1552 1118c-30.667 -14.667 -55.666 -21.9961 -74.999 -21.9961c3.33301 0 5 -0.333008 5 -1c-4.66699 -2.66699 -20.667 -6.66699 -48 -12h3c0 2 -20.333 3 -61 3c-12.667 -4.66699 -27 -9.33398 -43 -14.001c-42 -2.66699 -99 -9.33398 -171 -20.001l-217 -33
c-1.33301 0 -6 1.16699 -14 3.5s-13.333 3.5 -16 3.5h1c0 -2 -148 -27.333 -444 -76c-41.333 -50.667 -69.666 -140.334 -84.999 -269.001c18 -10 40.667 -15 68 -15c2 0 9.5 2 22.5 6s20.167 6 21.5 6s13 -3.33301 35 -10c77.333 0 203 3 377 9l239 6h5
c19.333 0 30.333 -5 33 -15c3.33301 -18.667 7.33301 -38 12 -58c-26.667 -19.333 -82.667 -39.333 -168 -60c-73.333 -18 -175.666 -27 -306.999 -27c-86 0 -209.333 -11 -370 -33c-18 -2.66699 -29.333 -14.667 -34 -36l-9 -40c-35.333 -90 -53 -149.667 -53 -179v-35
c6.66699 -2 14.667 -4 24 -6l591 80c12 0 47 2 105 6l12 1l88 7c5.33301 0 13.666 -4 24.999 -12c10 -1.33301 48 -2 114 -2v0c0 0.666992 28.667 5.33398 86 14.001c30.667 0 64.334 -7.66699 101.001 -23c9.33301 -32.667 15 -49 17 -49c0.666992 0 1 1 1 3
c0 -16.667 -10.5 -33.5 -31.5 -50.5s-40.5 -25.5 -58.5 -25.5c-0.666992 0 -7 1.33301 -19 4c-11.333 2 -18.333 3 -21 3c-1.33301 0 -13.333 -3.33301 -36 -10c-24 -8 -36.667 -12.333 -38 -13l-323 -28c-71.333 -6 -199.333 -23.667 -384 -53l-243 -38
c-10 0 -47 7.33301 -111 22c-60 14 -97 21 -111 21h-2l-10 30c3.33301 13.333 14.666 48.333 33.999 105c24.667 73.333 41.334 124.666 50.001 153.999l40 143c0 -1.33301 -0.333008 -2 -1 -2c-2.66699 0 -14 16.667 -34 50
c-0.666992 12.667 -6.33398 31.334 -17.001 56.001c26.667 16 59.667 41.333 99 76c7.33301 10 26.333 70.333 57 181c0 -1.33301 -0.666992 -2 -2 -2c-0.666992 3.33301 -1 16 -1 38l10 12c7.33301 7.33301 11 13.666 11 18.999c0 9.33301 -10.667 19.666 -32 30.999
c-19.333 10 -36 15 -50 15h-4c-10.667 37.333 -16 63.333 -16 78c0 26 15 44.667 45 56c62 22 139 33 231 33v0l18 -5c1.33301 0 16.666 5 45.999 15c125.333 6.66699 290.333 16 495 28l307 18h2c14 0 56 -14 126 -42c5.33301 -1.33301 24.333 -2 57 -2
c19.333 -1.33301 34.666 -7.33301 45.999 -18zM1071 1284c0 -21.333 -8.66602 -45.999 -25.999 -73.999c-160.667 41.333 -349.667 119.666 -567 234.999c-6.66699 3.33301 -10 25.333 -10 66c0 44.667 12.333 67 37 67c13.333 0 45.666 -11.333 96.999 -34l233 -105
c46 -20.667 115.667 -53.667 209 -99c18 -24 27 -42.667 27 -56z" />
    <glyph glyph-name="Eacute" unicode="&#xc9;" horiz-adv-x="1435" 
d="M1552 1118c-30.667 -14.667 -55.666 -21.9961 -74.999 -21.9961c3.33301 0 5 -0.333008 5 -1c-4.66699 -2.66699 -20.667 -6.66699 -48 -12h3c0 2 -20.333 3 -61 3c-12.667 -4.66699 -27 -9.33398 -43 -14.001c-42 -2.66699 -99 -9.33398 -171 -20.001l-217 -33
c-1.33301 0 -6 1.16699 -14 3.5s-13.333 3.5 -16 3.5h1c0 -2 -148 -27.333 -444 -76c-41.333 -50.667 -69.666 -140.334 -84.999 -269.001c18 -10 40.667 -15 68 -15c2 0 9.5 2 22.5 6s20.167 6 21.5 6s13 -3.33301 35 -10c77.333 0 203 3 377 9l239 6h5
c19.333 0 30.333 -5 33 -15c3.33301 -18.667 7.33301 -38 12 -58c-26.667 -19.333 -82.667 -39.333 -168 -60c-73.333 -18 -175.666 -27 -306.999 -27c-86 0 -209.333 -11 -370 -33c-18 -2.66699 -29.333 -14.667 -34 -36l-9 -40c-35.333 -90 -53 -149.667 -53 -179v-35
c6.66699 -2 14.667 -4 24 -6l591 80c12 0 47 2 105 6l12 1l88 7c5.33301 0 13.666 -4 24.999 -12c10 -1.33301 48 -2 114 -2v0c0 0.666992 28.667 5.33398 86 14.001c30.667 0 64.334 -7.66699 101.001 -23c9.33301 -32.667 15 -49 17 -49c0.666992 0 1 1 1 3
c0 -16.667 -10.5 -33.5 -31.5 -50.5s-40.5 -25.5 -58.5 -25.5c-0.666992 0 -7 1.33301 -19 4c-11.333 2 -18.333 3 -21 3c-1.33301 0 -13.333 -3.33301 -36 -10c-24 -8 -36.667 -12.333 -38 -13l-323 -28c-71.333 -6 -199.333 -23.667 -384 -53l-243 -38
c-10 0 -47 7.33301 -111 22c-60 14 -97 21 -111 21h-2l-10 30c3.33301 13.333 14.666 48.333 33.999 105c24.667 73.333 41.334 124.666 50.001 153.999l40 143c0 -1.33301 -0.333008 -2 -1 -2c-2.66699 0 -14 16.667 -34 50
c-0.666992 12.667 -6.33398 31.334 -17.001 56.001c26.667 16 59.667 41.333 99 76c7.33301 10 26.333 70.333 57 181c0 -1.33301 -0.666992 -2 -2 -2c-0.666992 3.33301 -1 16 -1 38l10 12c7.33301 7.33301 11 13.666 11 18.999c0 9.33301 -10.667 19.666 -32 30.999
c-19.333 10 -36 15 -50 15h-4c-10.667 37.333 -16 63.333 -16 78c0 26 15 44.667 45 56c62 22 139 33 231 33v0l18 -5c1.33301 0 16.666 5 45.999 15c125.333 6.66699 290.333 16 495 28l307 18h2c14 0 56 -14 126 -42c5.33301 -1.33301 24.333 -2 57 -2
c19.333 -1.33301 34.666 -7.33301 45.999 -18zM1094 1491c0 -30.667 -66.999 -84.001 -200.999 -160.001l-71 -28c-126.667 -77.333 -204.334 -116 -233.001 -116c-50 0 -75 22.667 -75 68c0 1.33301 1.5 10.5 4.5 27.5s4.5 26.5 4.5 28.5c57.333 25.333 136 58.333 236 99
c14 10.667 27.333 19.334 40 26.001c131.333 62 209.333 93 234 93c11.333 0 24.333 -4.5 39 -13.5s22 -17.167 22 -24.5z" />
    <glyph glyph-name="Ecircumflex" unicode="&#xca;" horiz-adv-x="1435" 
d="M1552 1118c-30.667 -14.667 -55.666 -21.9961 -74.999 -21.9961c3.33301 0 5 -0.333008 5 -1c-4.66699 -2.66699 -20.667 -6.66699 -48 -12h3c0 2 -20.333 3 -61 3c-12.667 -4.66699 -27 -9.33398 -43 -14.001c-42 -2.66699 -99 -9.33398 -171 -20.001l-217 -33
c-1.33301 0 -6 1.16699 -14 3.5s-13.333 3.5 -16 3.5h1c0 -2 -148 -27.333 -444 -76c-41.333 -50.667 -69.666 -140.334 -84.999 -269.001c18 -10 40.667 -15 68 -15c2 0 9.5 2 22.5 6s20.167 6 21.5 6s13 -3.33301 35 -10c77.333 0 203 3 377 9l239 6h5
c19.333 0 30.333 -5 33 -15c3.33301 -18.667 7.33301 -38 12 -58c-26.667 -19.333 -82.667 -39.333 -168 -60c-73.333 -18 -175.666 -27 -306.999 -27c-86 0 -209.333 -11 -370 -33c-18 -2.66699 -29.333 -14.667 -34 -36l-9 -40c-35.333 -90 -53 -149.667 -53 -179v-35
c6.66699 -2 14.667 -4 24 -6l591 80c12 0 47 2 105 6l12 1l88 7c5.33301 0 13.666 -4 24.999 -12c10 -1.33301 48 -2 114 -2v0c0 0.666992 28.667 5.33398 86 14.001c30.667 0 64.334 -7.66699 101.001 -23c9.33301 -32.667 15 -49 17 -49c0.666992 0 1 1 1 3
c0 -16.667 -10.5 -33.5 -31.5 -50.5s-40.5 -25.5 -58.5 -25.5c-0.666992 0 -7 1.33301 -19 4c-11.333 2 -18.333 3 -21 3c-1.33301 0 -13.333 -3.33301 -36 -10c-24 -8 -36.667 -12.333 -38 -13l-323 -28c-71.333 -6 -199.333 -23.667 -384 -53l-243 -38
c-10 0 -47 7.33301 -111 22c-60 14 -97 21 -111 21h-2l-10 30c3.33301 13.333 14.666 48.333 33.999 105c24.667 73.333 41.334 124.666 50.001 153.999l40 143c0 -1.33301 -0.333008 -2 -1 -2c-2.66699 0 -14 16.667 -34 50
c-0.666992 12.667 -6.33398 31.334 -17.001 56.001c26.667 16 59.667 41.333 99 76c7.33301 10 26.333 70.333 57 181c0 -1.33301 -0.666992 -2 -2 -2c-0.666992 3.33301 -1 16 -1 38l10 12c7.33301 7.33301 11 13.666 11 18.999c0 9.33301 -10.667 19.666 -32 30.999
c-19.333 10 -36 15 -50 15h-4c-10.667 37.333 -16 63.333 -16 78c0 26 15 44.667 45 56c62 22 139 33 231 33v0l18 -5c1.33301 0 16.666 5 45.999 15c125.333 6.66699 290.333 16 495 28l307 18h2c14 0 56 -14 126 -42c5.33301 -1.33301 24.333 -2 57 -2
c19.333 -1.33301 34.666 -7.33301 45.999 -18zM1198 1253c0 -34.667 -21.333 -52 -64 -52c-2 0 -12.333 1.66699 -31 5c-19.333 4 -29.666 6 -30.999 6c-6 0 -52.667 33 -140 99c-88 66.667 -135 100 -141 100c-20.667 0 -38 -7.66699 -52 -23
c-4.66699 -6.66699 -13.667 -17.667 -27 -33c-50.667 -40 -95.334 -73.333 -134.001 -100c-12 -8.66699 -39.667 -13 -83 -13c-35.333 0 -60.333 13.667 -75 41l-23 74c42 10.667 99.667 45.667 173 105l169 140h5c22 0 56.333 -10.667 103 -32
c49.333 -24 82 -45.667 98 -65c38.667 -25.333 89.667 -61.666 153 -108.999c66.667 -50.667 100 -98.334 100 -143.001z" />
    <glyph glyph-name="Edieresis" unicode="&#xcb;" horiz-adv-x="1435" 
d="M1552 1118c-30.667 -14.667 -55.665 -21.9961 -74.998 -21.9961c3.33301 0 5 -0.333008 5 -1c-4.66699 -2.66699 -20.667 -6.66699 -48 -12h3c0 2 -20.333 3 -61 3c-12.667 -4.66699 -27 -9.33398 -43 -14.001c-42 -2.66699 -99 -9.33398 -171 -20.001l-217 -33
c-1.33301 0 -6 1.16699 -14 3.5s-13.333 3.5 -16 3.5h1c0 -2 -148 -27.333 -444 -76c-41.333 -50.667 -70 -140.334 -86 -269.001c18.667 -10 41.667 -15 69 -15c2 0 9.5 2 22.5 6s20.167 6 21.5 6s13 -3.33301 35 -10c77.333 0 203 3 377 9l239 6h5
c19.333 0 30.333 -5 33 -15c3.33301 -18.667 7.33301 -38 12 -58c-26.667 -19.333 -82.667 -39.333 -168 -60c-73.333 -18 -175.666 -27 -306.999 -27c-86 0 -209.333 -11 -370 -33c-18 -2.66699 -29.333 -14.667 -34 -36l-10 -40c-35.333 -90 -53 -149.667 -53 -179v-35
c7.33301 -2 15.666 -4 24.999 -6l591 80c12 0 47 2 105 6l12 1l88 7c5.33301 0 13.666 -4 24.999 -12c10 -1.33301 48 -2 114 -2v0c0 0.666992 28.667 5.33398 86 14.001c30.667 0 64.334 -7.66699 101.001 -23c9.33301 -32.667 15 -49 17 -49c0.666992 0 1 1 1 3
c0 -16.667 -10.5 -33.5 -31.5 -50.5s-40.5 -25.5 -58.5 -25.5c-0.666992 0 -7 1.33301 -19 4c-11.333 2 -18.333 3 -21 3c-1.33301 0 -13.333 -3.33301 -36 -10c-24 -8 -36.667 -12.333 -38 -13l-323 -28c-71.333 -6 -199.333 -23.667 -384 -53l-243 -38
c-10 0 -47 7.33301 -111 22c-60 14 -97 21 -111 21h-3c-6 18 -9 28 -9 30c3.33301 13.333 14.333 48.333 33 105c25.333 73.333 42 124.666 50 153.999l40 143v-2c-2.66699 0 -14 16.667 -34 50c-1.33301 12.667 -7.33301 31.334 -18 56.001c27.333 16 60.333 41.333 99 76
c7.33301 10 26.333 70.333 57 181c0 -1.33301 -0.333008 -2 -1 -2c-0.666992 3.33301 -1 16 -1 38l10 12c6.66699 7.33301 10 13.666 10 18.999c0 9.33301 -10.667 19.666 -32 30.999c-19.333 10 -36 15 -50 15h-4c-10.667 37.333 -16 63.333 -16 78
c0 26 15.333 44.667 46 56c62 22 139 33 231 33v0l18 -5c1.33301 0 16.666 5 45.999 15c125.333 6.66699 290.333 16 495 28l307 18h2c14 0 56 -14 126 -42c5.33301 -1.33301 24.333 -2 57 -2c19.333 -1.33301 34.666 -7.33301 45.999 -18zM1087 1342
c0 -48 -22.333 -72 -67 -72c-67.333 0 -101 37 -101 111c0 36 3.33301 62.333 10 79h64c62.667 0 94 -39.333 94 -118zM697.002 1384c0 -25.333 -9.99902 -48 -29.999 -68c-20.667 -21.333 -44.334 -32 -71.001 -32c-27.333 0 -51.333 10.333 -72 31
c-22 19.333 -33 41.333 -33 66c0 42 16.333 76.333 49 103c22.667 -7.33301 51 -18 85 -32c48 -19.333 72 -42 72 -68z" />
    <glyph glyph-name="Igrave" unicode="&#xcc;" horiz-adv-x="634" 
d="M428 1042c0 -9.33301 -11.667 -69.6641 -35 -180.997c-24.667 -119.333 -45 -204.333 -61 -255c-0.666992 -6.66699 -7.66699 -48.334 -21 -125.001c-20.667 -118.667 -48.667 -261.334 -84 -428.001c-6 -4.66699 -18.333 -13.667 -37 -27
c-10 7.33301 -22.333 18.666 -37 33.999c-10.667 18.667 -16 76.334 -16 173.001c0 405.333 41 678.666 123 819.999c43.333 76 79 114 107 114c40.667 0 61 -41.667 61 -125zM644 1251c0 -21.333 -8.99902 -45.999 -26.999 -73.999
c-160.667 41.333 -349.667 119.666 -567 234.999c-6 3.33301 -9 25.333 -9 66c0 44 12.333 66 37 66c13.333 0 45.666 -11 96.999 -33l233 -105c46 -20.667 115.333 -54 208 -100c18.667 -24 28 -42.333 28 -55z" />
    <glyph glyph-name="Iacute" unicode="&#xcd;" horiz-adv-x="595" 
d="M387 1042c0 -9.33301 -11.666 -69.6641 -34.999 -180.997c-24.667 -119.333 -45 -204.333 -61 -255c-1.33301 -6.66699 -8.33301 -48.334 -21 -125.001c-20.667 -118.667 -48.334 -261.334 -83.001 -428.001l-37 -27c-10 7.33301 -22.667 18.666 -38 33.999
c-10.667 18.667 -16 76.334 -16 173.001c0 405.333 41 678.666 123 819.999c43.333 76 79 114 107 114c40.667 0 61 -41.667 61 -125zM608.001 1503c0 -30 -66.668 -83.001 -200.001 -159.001l-71 -28c-127.333 -77.333 -205.333 -116 -234 -116
c-50.667 0 -76 22.667 -76 68c0 1.33301 1.5 10.5 4.5 27.5s4.5 26.5 4.5 28.5c57.333 25.333 136.333 58.333 237 99c14 10.667 27.667 19.334 41 26.001c130.667 62 208.334 93 233.001 93c10.667 0 23.5 -4.5 38.5 -13.5s22.5 -17.5 22.5 -25.5z" />
    <glyph glyph-name="Icircumflex" unicode="&#xce;" horiz-adv-x="822" 
d="M499 1042c0 -9.33301 -11.667 -69.6641 -35 -180.997c-24.667 -119.333 -45 -204.333 -61 -255c-1.33301 -6.66699 -8.33301 -48.334 -21 -125.001c-21.333 -118.667 -49 -261.334 -83 -428.001c-7.33301 -4.66699 -20 -13.667 -38 -27
c-10 7.33301 -22.333 18.666 -37 33.999c-10.667 18.667 -16 76.334 -16 173.001c0 405.333 40.667 678.666 122 819.999c44 76 80 114 108 114c40.667 0 61 -41.667 61 -125zM841 1240c0 -34.667 -21.002 -52 -63.002 -52c-2 0 -12.333 1.66699 -31 5
c-19.333 4 -29.666 6 -30.999 6c-6.66699 0 -53.667 33 -141 99c-87.333 66.667 -134 100 -140 100c-20.667 0 -38 -7.66699 -52 -23c-4.66699 -6.66699 -13.667 -17.667 -27 -33c-50.667 -40 -95.334 -73.333 -134.001 -100c-12 -8.66699 -39.667 -13 -83 -13
c-35.333 0 -60.333 13.667 -75 41c-8.66699 25.333 -16.667 50 -24 74c42.667 10.667 100.334 45.667 173.001 105l170 140h5c22 0 56.333 -10.667 103 -32c49.333 -24 82 -45.667 98 -65c38.667 -25.333 89.334 -61.666 152.001 -108.999
c66.667 -50.667 100 -98.334 100 -143.001z" />
    <glyph glyph-name="Idieresis" unicode="&#xcf;" horiz-adv-x="627" 
d="M428 1042c0 -9.33301 -11.667 -69.6641 -35 -180.997c-24.667 -119.333 -45 -204.333 -61 -255c-0.666992 -6.66699 -7.66699 -48.334 -21 -125.001c-20.667 -118.667 -48.667 -261.334 -84 -428.001c-6 -4.66699 -18.333 -13.667 -37 -27
c-10 7.33301 -22.333 18.666 -37 33.999c-10.667 18.667 -16 76.334 -16 173.001c0 405.333 41 678.666 123 819.999c43.333 76 79 114 107 114c40.667 0 61 -41.667 61 -125zM633 1265c0 -48 -22.333 -72 -67 -72c-66.667 0 -100 36.667 -100 110c0 36 3 62.667 9 80h65
c62 0 93 -39.333 93 -118zM244 1306c0 -25.333 -10.332 -48.168 -30.999 -68.501s-44.334 -30.5 -71.001 -30.5s-50.667 10 -72 30s-32 42 -32 66c0 42 16.333 76.333 49 103c22.667 -7.33301 51 -17.666 85 -30.999c48 -20 72 -43 72 -69z" />
    <glyph glyph-name="Ntilde" unicode="&#xd1;" horiz-adv-x="1247" 
d="M1472 1209c0 -12 -18 -60.002 -54 -144.002v-4c0 -14.667 -2 -34 -6 -58l-29 -88c-17.333 -36 -39.666 -85 -66.999 -147c-8.66699 -20 -22.667 -65.667 -42 -137c-3.33301 -23.333 -9.66602 -56.666 -18.999 -99.999l-85 -184
c-32.667 -71.333 -52.334 -132 -59.001 -182c-17.333 -45.333 -26 -71.666 -26 -78.999c0 -8.66699 2 -15.667 6 -21c-8.66699 -2.66699 -29.334 -11.334 -62.001 -26.001c-26.667 -12 -42 -18 -46 -18c-9.33301 0 -24.333 6.16699 -45 18.5s-34 23.166 -40 32.499
c-32 52 -90.667 182.333 -176 391c-5.33301 28.667 -17.333 72 -36 130c-8 12 -18.333 33 -31 63c-1.33301 27.333 -5.33301 54 -12 80c-11.333 44.667 -43.333 120.334 -96 227.001c-24 -8.66699 -46.333 -38.667 -67 -90l-82 -199
c-30.667 -50.667 -74.667 -129.667 -132 -237c-15.333 -39.333 -40.666 -99 -75.999 -179c-16 -14 -32 -32.667 -48 -56c-7.33301 -1.33301 -14.333 -2 -21 -2c-19.333 0 -39.666 11.667 -60.999 35s-32 45 -32 65l252 509l126 240c6.66699 17.333 20 50.333 40 99
c20 46 47 69 81 69c22 0 43.333 -10.333 64 -31c28 -27.333 47.667 -53 59 -77c40.667 -90 79 -186.667 115 -290c3.33301 -10 19.333 -70.333 48 -181c4 -5.33301 9.33301 -13 16 -23c20.667 -66 35.667 -111.333 45 -136c21.333 -57.333 47 -111 77 -161
c16 17.333 39.333 57 70 119c44 88 85.667 177.667 125 269c16 63.333 46.333 158 91 284l37 46c0.666992 10.667 2.66699 24.334 6 41.001c7.33301 14 19.333 35.667 36 65c13.333 8.66699 28.666 23 45.999 43c7.33301 20 19.666 42.667 36.999 68
c3.33301 1.33301 10 2 20 2c35.333 0 53 -15.333 53 -46zM1523 1569c0 -10.667 -12.332 -23.999 -36.999 -39.999c0 -9.33301 -1 -23 -3 -41c-147.333 -114.667 -258 -172 -332 -172c-24.667 0 -79.667 27.333 -165 82c-75.333 48 -113 74.667 -113 80
c0 0.666992 0.666992 1 2 1c-18 0 -62.333 -30.667 -133 -92l-108 -93c-1.33301 0 -10 1.33301 -26 4s-24.667 4 -26 4c-18 43.333 -27 75.333 -27 96c1.33301 4 6.33301 10 15 18l15 14c24.667 35.333 84.667 88.666 180 159.999c2.66699 0.666992 8.66699 1.66699 18 3
c26 18 50.667 27 74 27c59.333 0 116.666 -24.667 171.999 -74c63.333 -56 106 -84 128 -84c20.667 0 84.667 25.667 192 77c98 46.667 147 71.667 147 75v1c4 -0.666992 13 -3 27 -7v-39z" />
    <glyph glyph-name="Ograve" unicode="&#xd2;" horiz-adv-x="1555" 
d="M1725 604l-48.999 -80.002c1.33301 -3.33301 4 -7.66602 8 -12.999c0 0.666992 -0.333008 1 -1 1c-2 0 -13 -25 -33 -75c-7.33301 -6 -15.333 -14.333 -24 -25c-54 -87.333 -194 -188.333 -420 -303c-50.667 -26 -132 -54.667 -244 -86
c-126.667 -36 -218.667 -54 -276 -54c-32.667 0 -95 15.667 -187 47c-198.667 67.333 -331 149.666 -397 246.999c-55.333 81.333 -83 182 -83 302c0 2 3.33301 13.833 10 35.5s10.334 33.834 11.001 36.501c3.33301 35.333 6.66602 64.333 9.99902 87
c18.667 27.333 39 59 61 95c18.667 30 72.667 91.333 162 184c3.33301 4 18.333 10 45 18l34 26c5.33301 2.66699 58.333 20.667 159 54c24 8.66699 50.667 17.334 80 26.001c203.333 30.667 357 46 461 46c213.333 0 388.666 -48.333 525.999 -145
c90.667 -64 136 -167.333 136 -310c0 -28.667 -2.66699 -60 -8 -94c12.667 -5.33301 19 -12 19 -20zM1602 731.998c0 42.667 -20.3311 91.3359 -60.998 146.003c-23.333 31.333 -79.5 65.666 -168.5 102.999s-159.167 56 -210.5 56c-1.33301 0 -11 -1.16699 -29 -3.5
s-28 -3.5 -30 -3.5l-101 20c-2.66699 0 -12.334 -3.33301 -29.001 -10c-18 -6.66699 -27.333 -10 -28 -10l-78 -5l-77 -6c-2.66699 0 -9.33398 2 -20.001 6c-12 3.33301 -18.667 5 -20 5c-7.33301 -2.66699 -27 -12.334 -59 -29.001l-153 -36
c-74 -18.667 -128 -42.667 -162 -72c0 -0.666992 2.33301 -10.667 7 -30c0 -11.333 -21.667 -31.333 -65 -60c-37.333 -16 -74.833 -51.333 -112.5 -106s-56.5 -102.334 -56.5 -143.001l11 -7c-1.33301 -10.667 -2 -21.334 -2 -32.001c0 -118 59.667 -212.333 179 -283
c106 -62.667 229.333 -94 370 -94c141.333 0 317 55.333 527 166c236.667 124.667 355 250.334 355 377.001c0 2 2.16699 10.5 6.5 25.5s6.5 23.5 6.5 25.5zM1152 1332c0 -20.667 -8.66699 -45.332 -26 -73.999c-161.333 41.333 -350.666 119.666 -567.999 234.999
c-6.66699 3.33301 -10 25.333 -10 66c0 44.667 12.667 67 38 67c13.333 0 45.666 -11.333 96.999 -34l233 -104l208 -100c18.667 -24 28 -42.667 28 -56z" />
    <glyph glyph-name="Oacute" unicode="&#xd3;" horiz-adv-x="1555" 
d="M1725 604l-48.999 -80.002c1.33301 -3.33301 4 -7.66602 8 -12.999c0 0.666992 -0.333008 1 -1 1c-2 0 -13 -25 -33 -75c-7.33301 -6 -15.333 -14.333 -24 -25c-54 -87.333 -194 -188.333 -420 -303c-50.667 -26 -132 -54.667 -244 -86
c-126.667 -36 -218.667 -54 -276 -54c-32.667 0 -95 15.667 -187 47c-198.667 67.333 -331 149.666 -397 246.999c-55.333 81.333 -83 182 -83 302c0 2 3.33301 13.833 10 35.5s10.334 33.834 11.001 36.501c3.33301 35.333 6.66602 64.333 9.99902 87
c18.667 27.333 39 59 61 95c18.667 30 72.667 91.333 162 184c3.33301 4 18.333 10 45 18l34 26c5.33301 2.66699 58.333 20.667 159 54c24 8.66699 50.667 17.334 80 26.001c203.333 30.667 357 46 461 46c213.333 0 388.666 -48.333 525.999 -145
c90.667 -64 136 -167.333 136 -310c0 -28.667 -2.66699 -60 -8 -94c12.667 -5.33301 19 -12 19 -20zM1602 731.998c0 42.667 -20.3311 91.3359 -60.998 146.003c-23.333 31.333 -79.5 65.666 -168.5 102.999s-159.167 56 -210.5 56c-1.33301 0 -11 -1.16699 -29 -3.5
s-28 -3.5 -30 -3.5l-101 20c-2.66699 0 -12.334 -3.33301 -29.001 -10c-18 -6.66699 -27.333 -10 -28 -10l-78 -5l-77 -6c-2.66699 0 -9.33398 2 -20.001 6c-12 3.33301 -18.667 5 -20 5c-7.33301 -2.66699 -27 -12.334 -59 -29.001l-153 -36
c-74 -18.667 -128 -42.667 -162 -72c0 -0.666992 2.33301 -10.667 7 -30c0 -11.333 -21.667 -31.333 -65 -60c-37.333 -16 -74.833 -51.333 -112.5 -106s-56.5 -102.334 -56.5 -143.001l11 -7c-1.33301 -10.667 -2 -21.334 -2 -32.001c0 -118 59.667 -212.333 179 -283
c106 -62.667 229.333 -94 370 -94c141.333 0 317 55.333 527 166c236.667 124.667 355 250.334 355 377.001c0 2 2.16699 10.5 6.5 25.5s6.5 23.5 6.5 25.5zM1142 1501c0 -30 -66.666 -82.999 -199.999 -158.999l-72 -28c-126.667 -77.333 -204.334 -116 -233.001 -116
c-50.667 0 -76 22.667 -76 68c0 1.33301 1.66699 10.333 5 27c2.66699 17.333 4 26.666 4 27.999c56.667 26 135.667 59.333 237 100c14 10.667 27.333 19.334 40 26.001c131.333 62 209.333 93 234 93c10.667 0 23.5 -4.33301 38.5 -13s22.5 -17.334 22.5 -26.001z" />
    <glyph glyph-name="Ocircumflex" unicode="&#xd4;" horiz-adv-x="1555" 
d="M1725 604l-48.999 -80.002c1.33301 -3.33301 4 -7.66602 8 -12.999c0 0.666992 -0.333008 1 -1 1c-2 0 -13 -25 -33 -75c-7.33301 -6 -15.333 -14.333 -24 -25c-54 -87.333 -194 -188.333 -420 -303c-50.667 -26 -132 -54.667 -244 -86
c-126.667 -36 -218.667 -54 -276 -54c-32.667 0 -95 15.667 -187 47c-198.667 67.333 -331 149.666 -397 246.999c-55.333 81.333 -83 182 -83 302c0 2 3.33301 13.833 10 35.5s10.334 33.834 11.001 36.501c3.33301 35.333 6.66602 64.333 9.99902 87
c18.667 27.333 39 59 61 95c18.667 30 72.667 91.333 162 184c3.33301 4 18.333 10 45 18l34 26c5.33301 2.66699 58.333 20.667 159 54c24 8.66699 50.667 17.334 80 26.001c203.333 30.667 357 46 461 46c213.333 0 388.666 -48.333 525.999 -145
c90.667 -64 136 -167.333 136 -310c0 -28.667 -2.66699 -60 -8 -94c12.667 -5.33301 19 -12 19 -20zM1602 731.998c0 42.667 -20.3311 91.3359 -60.998 146.003c-23.333 31.333 -79.5 65.666 -168.5 102.999s-159.167 56 -210.5 56c-1.33301 0 -11 -1.16699 -29 -3.5
s-28 -3.5 -30 -3.5l-101 20c-2.66699 0 -12.334 -3.33301 -29.001 -10c-18 -6.66699 -27.333 -10 -28 -10l-78 -5l-77 -6c-2.66699 0 -9.33398 2 -20.001 6c-12 3.33301 -18.667 5 -20 5c-7.33301 -2.66699 -27 -12.334 -59 -29.001l-153 -36
c-74 -18.667 -128 -42.667 -162 -72c0 -0.666992 2.33301 -10.667 7 -30c0 -11.333 -21.667 -31.333 -65 -60c-37.333 -16 -74.833 -51.333 -112.5 -106s-56.5 -102.334 -56.5 -143.001l11 -7c-1.33301 -10.667 -2 -21.334 -2 -32.001c0 -118 59.667 -212.333 179 -283
c106 -62.667 229.333 -94 370 -94c141.333 0 317 55.333 527 166c236.667 124.667 355 250.334 355 377.001c0 2 2.16699 10.5 6.5 25.5s6.5 23.5 6.5 25.5zM1205 1279c0 -10 -2.33105 -21.667 -6.99805 -35c-1.33301 -5.33301 -13.333 -8 -36 -8c-34 0 -63 4.33301 -87 13
c-106 108.667 -165.667 163 -179 163c-0.666992 0 -37.334 -32 -110.001 -96c-74 -64.667 -116.333 -97 -127 -97c-30.667 0 -49.334 10 -56.001 30l1 -2c1.33301 5.33301 2 23.333 2 54c-6.66699 16 -10 25.667 -10 29c0 12 13.667 28.333 41 49
c20 12.667 36.333 23.667 49 33c6 4.66699 38.667 42.667 98 114c42 51.333 78.333 77 109 77c11.333 -6.66699 32.333 -22.667 63 -48l75 -62c2 -6.66699 5.33301 -14.667 10 -24c47.333 -36 90 -76.333 128 -121c24 -28 36 -51 36 -69z" />
    <glyph glyph-name="Otilde" unicode="&#xd5;" horiz-adv-x="1555" 
d="M1725 604l-48.999 -80.002c1.33301 -3.33301 4 -7.66602 8 -12.999c0 0.666992 -0.333008 1 -1 1c-2 0 -13 -25 -33 -75c-7.33301 -6 -15.333 -14.333 -24 -25c-54 -87.333 -194 -188.333 -420 -303c-50.667 -26 -132 -54.667 -244 -86
c-126.667 -36 -218.667 -54 -276 -54c-32.667 0 -95 15.667 -187 47c-198.667 67.333 -331 149.666 -397 246.999c-55.333 81.333 -83 182 -83 302c0 2 3.33301 13.833 10 35.5s10.334 33.834 11.001 36.501c3.33301 35.333 6.66602 64.333 9.99902 87
c18.667 27.333 39 59 61 95c18.667 30 72.667 91.333 162 184c3.33301 4 18.333 10 45 18l34 26c5.33301 2.66699 58.333 20.667 159 54c24 8.66699 50.667 17.334 80 26.001c203.333 30.667 357 46 461 46c213.333 0 388.666 -48.333 525.999 -145
c90.667 -64 136 -167.333 136 -310c0 -28.667 -2.66699 -60 -8 -94c12.667 -5.33301 19 -12 19 -20zM1602 731.998c0 42.667 -20.3311 91.3359 -60.998 146.003c-23.333 31.333 -79.5 65.666 -168.5 102.999s-159.167 56 -210.5 56c-1.33301 0 -11 -1.16699 -29 -3.5
s-28 -3.5 -30 -3.5l-101 20c-2.66699 0 -12.334 -3.33301 -29.001 -10c-18 -6.66699 -27.333 -10 -28 -10l-78 -5l-77 -6c-2.66699 0 -9.33398 2 -20.001 6c-12 3.33301 -18.667 5 -20 5c-7.33301 -2.66699 -27 -12.334 -59 -29.001l-153 -36
c-74 -18.667 -128 -42.667 -162 -72c0 -0.666992 2.33301 -10.667 7 -30c0 -11.333 -21.667 -31.333 -65 -60c-37.333 -16 -74.833 -51.333 -112.5 -106s-56.5 -102.334 -56.5 -143.001l11 -7c-1.33301 -10.667 -2 -21.334 -2 -32.001c0 -118 59.667 -212.333 179 -283
c106 -62.667 229.333 -94 370 -94c141.333 0 317 55.333 527 166c236.667 124.667 355 250.334 355 377.001c0 2 2.16699 10.5 6.5 25.5s6.5 23.5 6.5 25.5zM1420 1516c0 -11.333 -12.332 -24.667 -36.999 -40c0 -9.33301 -1 -23.333 -3 -42
c-147.333 -114 -258 -171 -332 -171c-24.667 0 -79.667 27 -165 81c-75.333 48 -113 75 -113 81c0 0.666992 0.666992 1 2 1c-18 0 -62.333 -30.667 -133 -92l-107 -93c-2 0 -11 1.33301 -27 4s-24.667 4 -26 4c-18 43.333 -27 75.333 -27 96c1.33301 4 6 9.66699 14 17
l15 14c25.333 35.333 85.666 89 180.999 161c2.66699 0.666992 8.66699 1.33398 18 2.00098c26 18.667 50.667 28 74 28c59.333 0 117 -24.667 173 -74c62.667 -56.667 105 -85 127 -85c21.333 0 85.333 25.667 192 77c98 47.333 147 72.666 147 75.999v1
c4 -0.666992 13 -3 27 -7v-39z" />
    <glyph glyph-name="Odieresis" unicode="&#xd6;" horiz-adv-x="1555" 
d="M1725 604l-48.999 -80.002c1.33301 -3.33301 4 -7.66602 8 -12.999c0 0.666992 -0.333008 1 -1 1c-2 0 -13 -25 -33 -75c-7.33301 -6 -15.333 -14.333 -24 -25c-54 -87.333 -194 -188.333 -420 -303c-50.667 -26 -132 -54.667 -244 -86
c-126.667 -36 -218.667 -54 -276 -54c-32.667 0 -95 15.667 -187 47c-198.667 67.333 -331 149.666 -397 246.999c-55.333 81.333 -83 182 -83 302c0 2 3.33301 13.833 10 35.5s10.334 33.834 11.001 36.501c3.33301 35.333 6.66602 64.333 9.99902 87
c18.667 27.333 39 59 61 95c18.667 30 72.667 91.333 162 184c3.33301 4 18.333 10 45 18l34 26c5.33301 2.66699 58.333 20.667 159 54c24 8.66699 50.667 17.334 80 26.001c203.333 30.667 357 46 461 46c213.333 0 388.666 -48.333 525.999 -145
c90.667 -64 136 -167.333 136 -310c0 -28.667 -2.66699 -60 -8 -94c12.667 -5.33301 19 -12 19 -20zM1602 731.998c0 42.667 -20.3311 91.3359 -60.998 146.003c-23.333 31.333 -79.5 65.666 -168.5 102.999s-159.167 56 -210.5 56c-1.33301 0 -11 -1.16699 -29 -3.5
s-28 -3.5 -30 -3.5l-101 20c-2.66699 0 -12.334 -3.33301 -29.001 -10c-18 -6.66699 -27.333 -10 -28 -10l-78 -5l-77 -6c-2.66699 0 -9.33398 2 -20.001 6c-12 3.33301 -18.667 5 -20 5c-7.33301 -2.66699 -27 -12.334 -59 -29.001l-153 -36
c-74 -18.667 -128 -42.667 -162 -72c0 -0.666992 2.33301 -10.667 7 -30c0 -11.333 -21.667 -31.333 -65 -60c-37.333 -16 -74.833 -51.333 -112.5 -106s-56.5 -102.334 -56.5 -143.001l11 -7c-1.33301 -10.667 -2 -21.334 -2 -32.001c0 -118 59.667 -212.333 179 -283
c106 -62.667 229.333 -94 370 -94c141.333 0 317 55.333 527 166c236.667 124.667 355 250.334 355 377.001c0 2 2.16699 10.5 6.5 25.5s6.5 23.5 6.5 25.5zM1121 1302c0 -48 -22.333 -71.999 -67 -71.999c-67.333 0 -101 37 -101 111c0 35.333 3 61.666 9 78.999h65
c62.667 0 94 -39.333 94 -118zM731.003 1343c0 -25.333 -10.168 -48.165 -30.501 -68.498s-44.166 -30.5 -71.499 -30.5c-26.667 0 -50.667 10 -72 30s-32 42.333 -32 67c0 41.333 16.333 75.666 49 102.999c22.667 -8 51 -19 85 -33c48 -18.667 72 -41.334 72 -68.001z" />
    <glyph glyph-name="Oslash" unicode="&#xd8;" horiz-adv-x="1541" 
d="M1567 1270c0 -26 -14.002 -53.3311 -42.002 -81.998c-11.333 -12 -39 -35.333 -83 -70c-34 -27.333 -51 -45 -51 -53c0 3.33301 0.333008 5 1 5c4.66699 0 23 -41.667 55 -125c37.333 -98.667 56 -181.334 56 -248.001c0 -70.667 -26.333 -167.334 -79 -290.001
c-22.667 -32 -72.334 -75 -149.001 -129c-0.666992 0 -47 -18 -139 -54l-159 -64c-56 -20.667 -111.333 -31 -166 -31c-109.333 0 -192.666 6 -249.999 18c-86 18 -129 28.333 -129 31h5c-58 0 -121.667 -52.333 -191 -157c-18.667 -28.667 -42.667 -43 -72 -43
c-18.667 0 -38.834 12.333 -60.501 37s-32.5 47 -32.5 67c0 26 37.667 97.333 113 214c0 5.33301 -18.333 29.333 -55 72c-41.333 49.333 -68.666 86 -81.999 110c-14.667 26.667 -22 79.667 -22 159c0 218.667 132.667 405.667 398 561c21.333 4 51.333 11 90 21
c88 38 167 57 237 57c1.33301 0 14.833 -1.5 40.5 -4.5s39.5 -4.5 41.5 -4.5c49.333 10.667 76 16 80 16c2 0 13.5 -2.5 34.5 -7.5s32.5 -7.5 34.5 -7.5c64.667 0 106.334 -1.33301 125.001 -4c2.66699 -0.666992 21.334 -8.66699 56.001 -24s52.667 -23 54 -23
c149.333 108.667 234 163 254 163c58 0 87 -36.667 87 -110zM1307 771.002c0 90 -23.334 145.333 -70.001 166l-491 -411c-93.333 -76 -140 -118.333 -140 -127v-26c48.667 -17.333 96.334 -26 143.001 -26c97.333 0 198.333 22.667 303 68
c84.667 36.667 142.667 74 174 112c54 66 81 147.333 81 244zM1044 1062c0 5.33301 -7.00195 14.332 -21.002 26.999h-84c-57.333 0 -126.666 -12 -207.999 -36c-6 2.66699 -12.333 4 -19 4s-13.667 -1.33301 -21 -4c-60 -20.667 -138 -53 -234 -97
c-68 -42 -124 -95.5 -168 -160.5s-66 -125.833 -66 -182.5c0 -8 13.667 -33.667 41 -77c32.667 -50.667 60.334 -76 83.001 -76c3.33301 0 103.333 84 300 252l208 174c126 104.667 189 163.334 189 176.001z" />
    <glyph glyph-name="Ugrave" unicode="&#xd9;" horiz-adv-x="1494" 
d="M1616 1046c0 -2 -2.66504 -8.33105 -7.99805 -18.998c-4.66699 -12 -7 -18.333 -7 -19c0 -46.667 1 -70.667 3 -72c1.33301 0.666992 2.33301 1.66699 3 3c-9.33301 -40 -29 -94 -59 -162c-35.333 -80.667 -57 -134.334 -65 -161.001c-5.33301 -6 -13 -14 -23 -24
c-3.33301 -24.667 -10 -45 -20 -61l-131 -156c-26.667 -22 -65.667 -51.667 -117 -89c-2 -3.33301 -5.66699 -13.333 -11 -30l-136 -83c-58 -36.667 -111 -62 -159 -76c-6 -9.33301 -17.667 -20 -35 -32c-60.667 -26.667 -114 -40 -160 -40
c-6 -0.666992 -24 -1.66699 -54 -3l-56 -3c-69.333 0 -151 19 -245 57c-103.333 42 -167.333 87.333 -192 136c-56 111.333 -88.667 196.666 -98 255.999c-12.667 79.333 -19 146.666 -19 201.999l9 9c-1.33301 28 -3 48.667 -5 62
c9.33301 48.667 31.333 112.334 66 191.001c51.333 114 102 171 152 171l59 -44c-8.66699 -11.333 -14.334 -30.666 -17.001 -57.999c-34 -20.667 -57 -47.667 -69 -81l-32 -87c-21.333 -42.667 -32 -87 -32 -133c0 -114.667 7 -197.667 21 -249
c8 -31.333 26.667 -71.333 56 -120c20.667 -35.333 48.334 -66 83.001 -92c45.333 -34 74.666 -54 87.999 -60c18.667 -8.66699 47 -13 85 -13h90c18.667 0 81 18.333 187 55c102.667 35.333 160.334 57 173.001 65l138 93l211 178c12 21.333 45.667 72.666 101 153.999
c22.667 33.333 46 77.666 70 132.999c21.333 48.667 32 78.667 32 90v154c0 44.667 -0.333008 68.334 -1 71.001c-0.666992 -2.66699 -1.33398 -11 -2.00098 -25c1.33301 26 15.666 39 42.999 39c2.66699 0 25 -8.66699 67 -26c0 -8 2.66699 -26.667 8 -56zM1097 1226
c0 -21.333 -8.99805 -46 -26.998 -74c-160.667 41.333 -349.334 119.666 -566.001 234.999c-6.66699 3.33301 -10 25 -10 65c0 45.333 12.333 68 37 68c13.333 0 45.666 -11.667 96.999 -35l233 -104c46 -20.667 115.667 -54 209 -100c18 -23.333 27 -41.666 27 -54.999z
" />
    </font>
</defs>
</svg>
