<?xml version="1.0" standalone="no"?>
<!DOCTYPE svg PUBLIC "-//W3C//DTD SVG 1.1//EN" "http://www.w3.org/Graphics/SVG/1.1/DTD/svg11.dtd" >
<svg>
<metadata>
Created by FontForge 20090914 at Thu Nov 20 15:21:06 2014
 By www-data
Copyright (c) 1988, 1990, 1993, 1996 Adobe Systems Incorporated.  All Rights Reserved.Helvetica is a trademark of Linotype-Hell AG and/or its subsidiaries.
</metadata>
<defs>
<font id="HelveticaNeueCE-Bold" horiz-adv-x="574" >
  <font-face 
    font-family="Helvetica CE 55 Roman"
    font-weight="700"
    font-stretch="normal"
    units-per-em="1000"
    panose-1="2 0 8 3 5 0 0 2 0 4"
    ascent="800"
    descent="-200"
    x-height="517"
    cap-height="714"
    bbox="-166 -289.002 1078 975"
    underline-thickness="50"
    underline-position="-75"
    unicode-range="U+0020-U+FB02"
  />
<missing-glyph horiz-adv-x="278" 
 />
    <glyph glyph-name=".notdef" horiz-adv-x="278" 
 />
    <glyph glyph-name="space" unicode=" " horiz-adv-x="278" 
 />
    <glyph glyph-name="space" unicode="&#xa0;" horiz-adv-x="278" 
 />
    <glyph glyph-name="exclam" unicode="!" horiz-adv-x="278" 
d="M213 714h-148v-192l38 -308h71l39 308v192zM61 0h157v154h-157v-154z" />
    <glyph glyph-name="quotedbl" unicode="&#x22;" horiz-adv-x="463" 
d="M271 393h107v321h-107v-321zM85 393h107v321h-107v-321z" />
    <glyph glyph-name="numbersign" unicode="#" horiz-adv-x="556" 
d="M88 0h97l28 198h96l-27 -198h97l27 198h87v90h-74l17 124h87v90h-74l27 198h-97l-27 -198h-97l28 198h-97l-28 -198h-95v-90h83l-18 -124h-95v-90h83zM339 412l-17 -124h-97l18 124h96z" />
    <glyph glyph-name="dollar" unicode="$" horiz-adv-x="556" 
d="M248 451c-32 7.33301 -55.001 17 -69.001 29s-21 29 -21 51c0 14 2.5 26.167 7.5 36.5s11.833 19 20.5 26s18.334 12.167 29.001 15.5s21.667 5 33 5v-163zM306.999 292c20 -5.33301 36.833 -10.835 50.5 -16.502s24.667 -12 33 -19s14.5 -15.167 18.5 -24.5
s6 -20.666 6 -33.999c0 -16 -3.33301 -29.833 -10 -41.5s-15.167 -21.5 -25.5 -29.5s-22 -14.167 -35 -18.5s-25.5 -7.16602 -37.5 -8.49902v192zM-1.00098 231.998c7.33301 -78.667 31.999 -138.497 73.999 -179.497s100.333 -64.167 175 -69.5v-85h59v85
c50 3.33301 91 13.333 123 30s57.5 36 76.5 58s32.167 44.167 39.5 66.5s11 40.5 11 54.5c0 16.667 -1.16699 35.667 -3.5 57s-9.83301 42.666 -22.5 63.999s-32.5 41.833 -59.5 61.5s-64.833 36.167 -113.5 49.5c-9.33301 2.66699 -18.166 5 -26.499 7l-24.5 6v177
c22.667 0 42 -9.33301 58 -28s24.333 -41.334 25 -68.001h142c-2 34.667 -9.33301 64.667 -22 90s-29 46.5 -49 63.5s-43.167 30.333 -69.5 40s-54.5 16.167 -84.5 19.5v77h-59v-77c-30 -2 -59 -7.83301 -87 -17.5s-52.667 -23.334 -74 -41.001s-38.5 -39.5 -51.5 -65.5
s-19.5 -56 -19.5 -90c0 -33.333 5.66699 -61.166 17 -83.499s26.5 -41 45.5 -56s40.333 -27 64 -36s48.167 -16.833 73.5 -23.5c6.66699 -1.33301 12.834 -2.83301 18.501 -4.5s10.167 -3.16699 13.5 -4.5v-209c-30.667 6 -56.334 20.167 -77.001 42.5
s-30.667 52.166 -30 89.499h-142z" />
    <glyph glyph-name="percent" unicode="%" horiz-adv-x="1000" 
d="M75 516c0 -27.333 2.83203 -52.833 8.49902 -76.5s15 -44 28 -61s30 -30.333 51 -40s46.833 -14.5 77.5 -14.5c29.333 0 54.666 4.66699 75.999 14s38.833 22.333 52.5 39s23.834 36.5 30.501 59.5s10 48.167 10 75.5s-2.66699 53.333 -8 78s-14.5 46.167 -27.5 64.5
s-30 32.833 -51 43.5s-46.833 16 -77.5 16c-29.333 0 -54.666 -5.16699 -75.999 -15.5s-39 -24.5 -53 -42.5s-24.333 -39 -31 -63s-10 -49.667 -10 -77zM176.999 514c0 11.333 0.5 24.3291 1.5 38.9961s3.83301 28.334 8.5 41.001s11.5 23.334 20.5 32.001s21.5 13 37.5 13
c14.667 0 26.167 -4.66699 34.5 -14s14.5 -20.666 18.5 -33.999s6.5 -27.166 7.5 -41.499s1.5 -26.5 1.5 -36.5c0 -10.667 -0.5 -22.5 -1.5 -35.5s-3.66699 -25.333 -8 -37s-11 -21.5 -20 -29.5s-21.167 -12 -36.5 -12c-16 0 -28.333 4 -37 12s-15 17.833 -19 29.5
s-6.33301 24.167 -7 37.5s-1 25.333 -1 36zM590.999 182.996c0 -27.333 2.83203 -53 8.49902 -77s15 -44.833 28 -62.5s30 -31.667 51 -42s46.833 -15.5 77.5 -15.5c29.333 0 54.666 5 75.999 15s38.833 23.667 52.5 41s23.834 37.666 30.501 60.999s10 48.666 10 75.999
s-2.66699 53 -8 77s-14.5 44.833 -27.5 62.5s-30 31.667 -51 42s-46.833 15.5 -77.5 15.5c-29.333 0 -54.666 -5 -75.999 -15s-39 -23.667 -53 -41s-24.333 -37.666 -31 -60.999s-10 -48.666 -10 -75.999zM692.998 181.996c0 11.333 0.5 24.001 1.5 38.001
s3.83301 27 8.5 39s11.5 22 20.5 30s21.5 12 37.5 12c14.667 0 26.167 -4.5 34.5 -13.5s14.5 -19.667 18.5 -32s6.5 -25.333 7.5 -39s1.5 -25.5 1.5 -35.5c0 -10.667 -0.5 -22.834 -1.5 -36.501s-3.66699 -26.667 -8 -39s-11 -22.833 -20 -31.5s-21.167 -13 -36.5 -13
c-16 0 -28.333 4.33301 -37 13s-15 19.167 -19 31.5s-6.33301 25.5 -7 39.5s-1 26.333 -1 37zM253.998 -22.0029h87l412 744h-85z" />
    <glyph glyph-name="ampersand" unicode="&#x26;" horiz-adv-x="685" 
d="M382 559c0 -26 -7.16699 -46.333 -21.5 -61s-31.5 -28.334 -51.5 -41.001l-38 49c-12 16 -18 35.333 -18 58c0 18.667 6.33301 33.834 19 45.501s27.667 17.5 45 17.5s32.5 -6.66699 45.5 -20s19.5 -29.333 19.5 -48zM389 166
c-16.667 -18.667 -34.502 -33.832 -53.502 -45.499s-41.167 -17.5 -66.5 -17.5c-13.333 0 -26.166 2.5 -38.499 7.5s-23.166 11.667 -32.499 20s-16.833 18.166 -22.5 29.499s-8.5 23.666 -8.5 36.999c0 14.667 2.83301 28 8.5 40s13.167 22.833 22.5 32.5
s20 18.334 32 26.001s24.333 14.167 37 19.5zM521.998 0.00195312l173.999 -0.00195312l-145 169c20 25.333 35.667 53 47 83s18.666 61 21.999 93h-123c-2 -14.667 -5 -29.167 -9 -43.5s-9.66699 -28.166 -17 -41.499l-92 113c36 19.333 66.167 43.333 90.5 72
s36.5 64 36.5 106c0 28 -5.16699 52.667 -15.5 74s-24.333 39.166 -42 53.499s-38.5 25.166 -62.5 32.499s-49.333 11 -76 11c-24 0 -47.167 -3.83301 -69.5 -11.5s-42.166 -18.667 -59.499 -33s-31.166 -31.5 -41.499 -51.5s-15.5 -42.333 -15.5 -67
c0 -31.333 6.5 -58.666 19.5 -81.999s29.167 -46.666 48.5 -69.999c-21.333 -10 -41.5 -21.667 -60.5 -35s-36 -28.5 -51 -45.5s-26.833 -36.167 -35.5 -57.5s-13 -44.333 -13 -69c0 -34 6 -64.167 18 -90.5s28.333 -48.666 49 -66.999s45.167 -32.333 73.5 -42
s58.5 -14.5 90.5 -14.5c40.667 0 77.167 7.16699 109.5 21.5s62.833 35.5 91.5 63.5z" />
    <glyph glyph-name="quotesingle" unicode="'" horiz-adv-x="278" 
d="M86 393h107v321h-107v-321z" />
    <glyph glyph-name="parenleft" unicode="(" horiz-adv-x="296" 
d="M184 731c-22 -32 -41.333 -67 -58 -105s-30.5 -77.333 -41.5 -118s-19.167 -81.5 -24.5 -122.5s-8 -80.167 -8 -117.5c0 -78.667 11.667 -156.167 35 -232.5s55.666 -148.833 96.999 -217.5h118c-37.333 72.667 -64.666 147.667 -81.999 225s-26 155.666 -26 234.999
c0 78 8.83301 155.333 26.5 232s45.167 150.334 82.5 221.001h-119z" />
    <glyph glyph-name="parenright" unicode=")" horiz-adv-x="296" 
d="M112 -182c22 31.333 41.167 66.167 57.5 104.5s30 77.666 41 117.999s19.333 81 25 122s8.5 80.167 8.5 117.5c0 78.667 -11.667 156.334 -35 233.001s-55.666 149.334 -96.999 218.001h-118c37.333 -72.667 64.666 -147.834 81.999 -225.501s26 -156.167 26 -235.5
c0 -78 -8.83301 -155.167 -26.5 -231.5s-45.167 -149.833 -82.5 -220.5h119z" />
    <glyph glyph-name="asterisk" unicode="*" horiz-adv-x="407" 
d="M242 714h-80v-125l-113 44l-27 -77l116 -39l-74 -98l67 -49l70 103l74 -103l66 49l-74 98l118 39l-27 77l-116 -44v125z" />
    <glyph glyph-name="plus" unicode="+" horiz-adv-x="600" 
d="M354 505h-107v-199h-199v-107h199v-199h107v199h199v107h-199v199z" />
    <glyph glyph-name="comma" unicode="," horiz-adv-x="278" 
d="M61 0h72.001c0.666992 -11.333 -0.666016 -22.166 -3.99902 -32.499s-8.33301 -19.833 -15 -28.5s-14.334 -15.834 -23.001 -21.501s-18.334 -9.5 -29.001 -11.5v-72c21.333 3.33301 41.5 9.5 60.5 18.5s35.5 20.667 49.5 35s25.167 30.833 33.5 49.5
s12.5 39.667 12.5 63v154h-157v-154z" />
    <glyph glyph-name="hyphen" unicode="-" horiz-adv-x="407" 
d="M53 212h301v122h-301v-122z" />
    <glyph glyph-name="hyphen" unicode="&#xad;" horiz-adv-x="407" 
d="M53 212h301v122h-301v-122z" />
    <glyph glyph-name="period" unicode="." horiz-adv-x="278" 
d="M60 0h157v154h-157v-154z" />
    <glyph glyph-name="slash" unicode="/" horiz-adv-x="371" 
d="M-11 -17h114l279 748h-114z" />
    <glyph glyph-name="zero" unicode="0" horiz-adv-x="556" 
d="M21 353c0 -70 6.83301 -128.333 20.5 -175s32.167 -84.334 55.5 -113.001s50.5 -49 81.5 -61s63.833 -18 98.5 -18s67.667 6 99 18s58.833 32.333 82.5 61s42.334 66.334 56.001 113.001s20.5 105 20.5 175c0 68 -6.83301 125.167 -20.5 171.5
s-32.334 83.5 -56.001 111.5s-51.167 48 -82.5 60s-64.333 18 -99 18s-67.5 -6 -98.5 -18s-58.167 -32 -81.5 -60s-41.833 -65.167 -55.5 -111.5s-20.5 -103.5 -20.5 -171.5zM163 353c0 12 0.170898 26.5 0.503906 43.5s1.5 34.5 3.5 52.5s5.33301 35.833 10 53.5
s11.167 33.5 19.5 47.5s19.166 25.333 32.499 34s29.333 13 48 13c19.333 0 35.666 -4.33301 48.999 -13s24.333 -20 33 -34s15.167 -29.833 19.5 -47.5s7.66602 -35.5 9.99902 -53.5s3.66602 -35.5 3.99902 -52.5s0.5 -31.5 0.5 -43.5c0 -20 -0.666992 -44.167 -2 -72.5
s-5.5 -55.666 -12.5 -81.999s-18.5 -48.833 -34.5 -67.5s-38.333 -28 -67 -28s-50.667 9.33301 -66 28s-26.5 41.167 -33.5 67.5s-11.167 53.666 -12.5 81.999s-2 52.5 -2 72.5z" />
    <glyph glyph-name="one" unicode="1" horiz-adv-x="556" 
d="M392 700l-113 -0.000976562c-4 -26.667 -12.167 -49 -24.5 -67s-27.833 -32.5 -46.5 -43.5s-39.5 -18.667 -62.5 -23s-46.833 -6.16602 -71.5 -5.49902v-107h176v-454h142v700z" />
    <glyph glyph-name="two" unicode="2" horiz-adv-x="556" 
d="M173 431c0 18.667 1.83008 37.498 5.49707 56.498s9.83398 36.167 18.501 51.5s20 28 34 38s31.667 15 53 15c30.667 0 55.834 -9.66699 75.501 -29s29.5 -45.666 29.5 -78.999c0 -21.333 -4.83301 -40.333 -14.5 -57s-21.667 -31.667 -36 -45
s-30.166 -25.5 -47.499 -36.5l-49 -32.5l-85.5 -61c-27 -20 -50.5 -41.833 -70.5 -65.5s-35.833 -50.5 -47.5 -80.5s-17.5 -65.333 -17.5 -106h514v122h-331c12.667 18 27.167 34.167 43.5 48.5s33.333 27.833 51 40.5s35.667 24.834 54 36.501l53.5 35.5
c17.333 12 33.5 25 48.5 39s28.167 29.333 39.5 46s20.333 35.5 27 56.5s10 44.5 10 70.5c0 34 -6.5 64.667 -19.5 92s-30.5 50.333 -52.5 69s-47.5 33 -76.5 43s-59.5 15 -91.5 15c-42 0 -79.167 -7.16699 -111.5 -21.5s-59.166 -34.333 -80.499 -60
s-37.333 -55.667 -48 -90s-15.334 -71.5 -14.001 -111.5h136z" />
    <glyph glyph-name="three" unicode="3" horiz-adv-x="556" 
d="M228 317c17.333 0 35.502 -0.498047 54.502 -1.49805s36.5 -4.66699 52.5 -11s29.167 -16.5 39.5 -30.5s15.5 -34.333 15.5 -61c0 -33.333 -11 -60 -33 -80s-49 -30 -81 -30c-20.667 0 -38.5 3.66699 -53.5 11s-27.5 17.166 -37.5 29.499s-17.667 26.833 -23 43.5
s-8.33301 34.667 -9 54h-135c-0.666992 -40 5.16602 -75.833 17.499 -107.5s29.833 -58.5 52.5 -80.5s50.167 -38.667 82.5 -50s68.166 -17 107.499 -17c34 0 66.667 5.16699 98 15.5s59 25.166 83 44.499s43.167 43.333 57.5 72s21.5 61.334 21.5 98.001
c0 39.333 -11 73.5 -33 102.5s-52.333 47.833 -91 56.5v2c32.667 9.33301 57.167 27.166 73.5 53.499s24.5 56.166 24.5 89.499c0 31.333 -7 59 -21 83s-32.167 44.333 -54.5 61s-47.5 29.167 -75.5 37.5s-56 12.5 -84 12.5c-36 0 -68.667 -5.83301 -98 -17.5
s-54.5 -28.167 -75.5 -49.5s-37.333 -46.833 -49 -76.5s-18.167 -62.5 -19.5 -98.5h135c-0.666992 36 8.16602 65.833 26.499 89.5s45.5 35.5 81.5 35.5c26 0 49 -8 69 -24s30 -39 30 -69c0 -20 -4.83301 -36 -14.5 -48s-22 -21.167 -37 -27.5
s-31.167 -10.166 -48.5 -11.499s-33.666 -1.33301 -48.999 0v-100z" />
    <glyph glyph-name="four" unicode="4" horiz-adv-x="556" 
d="M312 0h135v162h93v117h-93v421h-127l-304 -408v-130h296v-162zM312 279h-184l181 243h3v-243z" />
    <glyph glyph-name="five" unicode="5" horiz-adv-x="556" 
d="M500 700h-390.995l-69 -387h128c14 19.333 29 33.5 45 42.5s36.667 13.5 62 13.5c18.667 0 35.5 -3.33301 50.5 -10s27.833 -16 38.5 -28s18.667 -26 24 -42s8 -33 8 -51c0 -17.333 -2.83301 -34.166 -8.5 -50.499s-13.834 -30.833 -24.501 -43.5
s-23.334 -22.667 -38.001 -30s-31.334 -11 -50.001 -11c-31.333 0 -57.5 9.66699 -78.5 29s-33.167 44.666 -36.5 75.999h-142c0.666992 -36.667 8.16699 -68.834 22.5 -96.501s33.5 -50.834 57.5 -69.501s51.5 -32.667 82.5 -42s63.5 -14 97.5 -14
c35.333 -0.666992 68.666 5.33301 99.999 18s58.833 30.334 82.5 53.001s42.5 49.5 56.5 80.5s21 64.5 21 100.5c0 32.667 -4.83301 63.5 -14.5 92.5s-23.667 54.167 -42 75.5s-40.833 38.333 -67.5 51s-57.334 19 -92.001 19c-28 0 -53 -4.16699 -75 -12.5
s-42.667 -22.166 -62 -41.499l-2 2l28 159h289v117z" />
    <glyph glyph-name="six" unicode="6" horiz-adv-x="556" 
d="M523 520c-8 62 -32.668 109.832 -74.001 143.499s-92.333 50.5 -153 50.5c-50 0 -92.333 -11 -127 -33s-63 -50.5 -85 -85.5s-38 -74.333 -48 -118s-15 -86.834 -15 -129.501c0 -44 4 -87.667 12 -131s22.333 -82.166 43 -116.499s48.167 -62 82.5 -83
s78.166 -31.5 131.499 -31.5c36.667 0 70 6.66699 100 20s55.667 31.5 77 54.5s38 50 50 81s18 64.5 18 100.5c0 28 -4.33301 55.667 -13 83s-22.334 51.666 -41.001 72.999c-20 22 -44.333 39.5 -73 52.5s-58 19.5 -88 19.5c-34 0 -64 -6 -90 -18s-48.667 -32 -68 -60l-2 2
c0.666992 19.333 3.33398 41.333 8.00098 66s12 47.834 22 69.501s23.333 40 40 55s38 22.5 64 22.5c24.667 0 45.334 -8.66699 62.001 -26s27.334 -37.666 32.001 -60.999h135zM285.999 362.999c18 0 33.8311 -3.83105 47.498 -11.498s24.834 -17.667 33.501 -30
s15.167 -26.333 19.5 -42s6.5 -31.834 6.5 -48.501c0 -16 -2.33301 -31.667 -7 -47s-11.667 -29 -21 -41s-20.666 -21.667 -33.999 -29s-28.333 -11 -45 -11c-18 0 -34 3.66699 -48 11s-25.833 17.166 -35.5 29.499s-17 26.333 -22 42s-7.5 31.5 -7.5 47.5
c0 17.333 2.33301 33.833 7 49.5s11.667 29.5 21 41.5s21 21.5 35 28.5s30.667 10.5 50 10.5z" />
    <glyph glyph-name="seven" unicode="7" horiz-adv-x="556" 
d="M517 700l-477.999 -0.000976562v-132h332c-66.667 -80.667 -120.5 -169.5 -161.5 -266.5s-65.5 -197.5 -73.5 -301.5h152c0.666992 46.667 6 97 16 151s24.667 107.333 44 160s43.166 102.334 71.499 149.001s60.833 86 97.5 118v122z" />
    <glyph glyph-name="eight" unicode="8" horiz-adv-x="556" 
d="M156 212c0 36 12.001 63.501 36.001 82.501s53.333 28.5 88 28.5c16.667 0 32.167 -2.66699 46.5 -8s27 -13 38 -23s19.667 -21.833 26 -35.5s9.5 -28.834 9.5 -45.501c0 -17.333 -3 -33.333 -9 -48s-14.5 -27.167 -25.5 -37.5s-23.833 -18.333 -38.5 -24
s-30.334 -8.5 -47.001 -8.5c-17.333 0 -33.5 2.83301 -48.5 8.5s-28 13.667 -39 24s-19.833 22.833 -26.5 37.5s-10 31 -10 49zM43.001 523.001c0 -34.667 8.66699 -65 26 -91s43 -43.667 77 -53v-2c-41.333 -10 -73.666 -30 -96.999 -60s-35 -67.333 -35 -112
c0 -38 7.5 -70.667 22.5 -98s35 -50 60 -68s53.333 -31.333 85 -40s64.5 -13 98.5 -13c32.667 0 64.667 4.5 96 13.5s59.333 22.667 84 41s44.5 41.333 59.5 69s22.5 59.834 22.5 96.501c0 44 -11.333 81.167 -34 111.5s-55 50.166 -97 59.499v2
c33.333 11.333 58.666 30 75.999 56s26 56.333 26 91c0 16.667 -4 36 -12 58s-21.167 42.5 -39.5 61.5s-42.5 35.167 -72.5 48.5s-66.667 20 -110 20c-28.667 0 -57 -4 -85 -12s-53.167 -20 -75.5 -36s-40.5 -36 -54.5 -60s-21 -51.667 -21 -83zM172.001 510.001
c0 31.333 10.6641 55.334 31.9971 72.001s46.333 25 75 25c22 0 39.833 -3.33301 53.5 -10s24.334 -15 32.001 -25s12.834 -20.667 15.501 -32s4 -21.333 4 -30c0 -30 -10.167 -52.833 -30.5 -68.5s-45.166 -23.5 -74.499 -23.5c-14 0 -27.5 2 -40.5 6
s-24.5 9.83301 -34.5 17.5s-17.833 17.167 -23.5 28.5s-8.5 24.666 -8.5 39.999z" />
    <glyph glyph-name="nine" unicode="9" horiz-adv-x="556" 
d="M33 180c8 -62 32.6699 -109.832 74.0029 -143.499s92.333 -50.5 153 -50.5c50 0 92.333 11 127 33s63 50.5 85 85.5s38 74.333 48 118s15 86.834 15 129.501c0 44 -4 87.667 -12 131s-22.333 82.166 -43 116.499s-48.334 62 -83.001 83s-78.334 31.5 -131.001 31.5
c-36.667 0 -70 -6.66699 -100 -20s-55.833 -31.5 -77.5 -54.5s-38.334 -50 -50.001 -81s-17.5 -64.5 -17.5 -100.5c0 -28 4.33301 -55.667 13 -83s22.334 -51.666 41.001 -72.999c20 -22 44.333 -39.5 73 -52.5s58 -19.5 88 -19.5c34 0 64 6 90 18s48.667 32 68 60l2 -2
c-1.33301 -19.333 -4.16602 -41.333 -8.49902 -66s-11.5 -47.834 -21.5 -69.501s-23.333 -40 -40 -55s-38 -22.5 -64 -22.5c-24.667 0 -45.334 8.66699 -62.001 26s-27.334 37.666 -32.001 60.999h-135zM270.003 337.001c-18 0 -33.833 3.83105 -47.5 11.498
s-24.834 17.667 -33.501 30s-15.167 26.333 -19.5 42s-6.5 31.834 -6.5 48.501c0 16 2.33301 31.667 7 47s11.667 29 21 41s20.5 21.667 33.5 29s28.167 11 45.5 11c18 0 34 -3.66699 48 -11s25.833 -17.166 35.5 -29.499s17 -26.333 22 -42s7.5 -31.5 7.5 -47.5
c0 -17.333 -2.33301 -33.833 -7 -49.5s-11.667 -29.5 -21 -41.5s-21.166 -21.5 -35.499 -28.5s-30.833 -10.5 -49.5 -10.5z" />
    <glyph glyph-name="colon" unicode=":" horiz-adv-x="278" 
d="M61 0h157v154h-157v-154zM218 508h-157v-154h157v154z" />
    <glyph glyph-name="semicolon" unicode=";" horiz-adv-x="278" 
d="M61 0h72.001c0.666992 -11.333 -0.666016 -22.166 -3.99902 -32.499s-8.33301 -19.833 -15 -28.5s-14.334 -15.834 -23.001 -21.501s-18.334 -9.5 -29.001 -11.5v-72c21.333 3.33301 41.5 9.5 60.5 18.5s35.5 20.667 49.5 35s25.167 30.833 33.5 49.5
s12.5 39.667 12.5 63v154h-157v-154zM218.001 508h-157v-154h157v154z" />
    <glyph glyph-name="semicolon" unicode="&#x37e;" horiz-adv-x="278" 
d="M61 0h72.001c0.666992 -11.333 -0.666016 -22.166 -3.99902 -32.499s-8.33301 -19.833 -15 -28.5s-14.334 -15.834 -23.001 -21.501s-18.334 -9.5 -29.001 -11.5v-72c21.333 3.33301 41.5 9.5 60.5 18.5s35.5 20.667 49.5 35s25.167 30.833 33.5 49.5
s12.5 39.667 12.5 63v154h-157v-154zM218.001 508h-157v-154h157v154z" />
    <glyph glyph-name="less" unicode="&#x3c;" horiz-adv-x="600" 
d="M554 514l-508 -202v-118l508 -202v115l-367 146l367 146v115z" />
    <glyph glyph-name="equal" unicode="=" horiz-adv-x="600" 
d="M553 413h-505v-107h505v107zM553 199h-505v-107h505v107z" />
    <glyph glyph-name="greater" unicode="&#x3e;" horiz-adv-x="600" 
d="M46 -8l508 202v118l-508 202v-115l367 -146l-367 -146v-115z" />
    <glyph glyph-name="question" unicode="?" horiz-adv-x="556" 
d="M179 484c0 18 2.00195 34.835 6.00195 50.502s10.167 29.334 18.5 41.001s19 21 32 28s28.5 10.5 46.5 10.5c26.667 0 47.5 -7.33301 62.5 -22s22.5 -37.334 22.5 -68.001c0 -13.333 -2 -25 -6 -35s-9.33301 -19.167 -16 -27.5s-14.334 -16 -23.001 -23l-28 -22.5
c-10 -8 -19.833 -16.5 -29.5 -25.5s-18.5 -19.667 -26.5 -32s-14.833 -26.5 -20.5 -42.5s-9.16699 -35 -10.5 -57v-45h135v38c2 14.667 6.33301 27.5 13 38.5s14.5 21 23.5 30s18.833 17.333 29.5 25l32 23.5c10.667 8 21 16.833 31 26.5s19 21 27 34s14.333 28.333 19 46
s7 38.5 7 62.5c0 19.333 -4.16699 40.166 -12.5 62.499s-22.166 43.166 -41.499 62.499s-44.833 35.5 -76.5 48.5s-71.167 19.5 -118.5 19.5c-36.667 0 -69.834 -6.16699 -99.501 -18.5s-55 -29.5 -76 -51.5s-37.333 -48 -49 -78s-17.834 -63 -18.501 -99h147z
M193.002 0.00195312h157v154h-157v-154z" />
    <glyph glyph-name="at" unicode="@" horiz-adv-x="800" 
d="M291 319c0 16.667 2.99902 33.667 8.99902 51s14.5 33.166 25.5 47.499s24.167 26 39.5 35s32 13.5 50 13.5c21.333 0 39.5 -8 54.5 -24s22.5 -36.333 22.5 -61c0 -17.333 -3 -35 -9 -53s-14.5 -34.167 -25.5 -48.5s-24 -26.166 -39 -35.499s-31.5 -14 -49.5 -14
c-23.333 0 -42.166 8.16699 -56.499 24.5s-21.5 37.833 -21.5 64.5zM621.999 545l-81.999 0.000976562l-16 -54c-11.333 26 -28.333 44.167 -51 54.5s-44.667 15.5 -66 15.5c-33.333 0 -63.333 -7.33301 -90 -22s-49.5 -34 -68.5 -58s-33.667 -51.333 -44 -82
s-15.5 -61.667 -15.5 -93c0 -23.333 4.16699 -45.333 12.5 -66s19.666 -38.834 33.999 -54.501s31 -28 50 -37s39.167 -13.5 60.5 -13.5s41.666 4.66699 60.999 14s35 24 47 44h2c1.33301 -16.667 8.5 -30.334 21.5 -41.001s30.167 -16 51.5 -16c16 0 37.167 5.5 63.5 16.5
s52.333 28.167 78 51.5s47.667 53.333 66 90s27.5 80.667 27.5 132c0 46 -9.66699 87.833 -29 125.5s-45 69.667 -77 96s-69 46.833 -111 61.5s-85.667 22 -131 22c-52 0 -101 -9.66699 -147 -29s-86.333 -45.666 -121 -78.999s-62 -72.833 -82 -118.5
s-30 -94.834 -30 -147.501c0 -53.333 10 -102.833 30 -148.5s47.5 -85.167 82.5 -118.5s75.833 -59.5 122.5 -78.5s96.667 -28.5 150 -28.5c62.667 0 120.667 14 174 42s97 68 131 120h-84c-26 -26 -57.833 -46.167 -95.5 -60.5s-77.5 -21.5 -119.5 -21.5
c-43.333 0 -83 7 -119 21s-67 33.833 -93 59.5s-46.333 56.334 -61 92.001s-22 75.5 -22 119.5c0 42 6.66699 81.167 20 117.5s32.333 67.666 57 93.999s54.334 47 89.001 62s73.667 22.5 117 22.5c38 0 73.5 -5.33301 106.5 -16s61.667 -26.5 86 -47.5
s43.5 -46.667 57.5 -77s21 -65.5 21 -105.5c0 -26.667 -3.5 -51.334 -10.5 -74.001s-16 -42.167 -27 -58.5s-23.667 -29 -38 -38s-28.5 -13.5 -42.5 -13.5c-6 0 -10.333 2.16699 -13 6.5s-4 9.83301 -4 16.5s0.833008 13.834 2.5 21.501s3.5 14.834 5.5 21.501z" />
    <glyph glyph-name="A" unicode="A" horiz-adv-x="685" 
d="M-7 0h159l56 159h267l54 -159h163l-267 714h-161zM342 538h2l90 -262h-185z" />
    <glyph glyph-name="B" unicode="B" horiz-adv-x="704" 
d="M226 318l171 0.000976562c34 0 61.333 -7.83301 82 -23.5s31 -41.834 31 -78.501c0 -18.667 -3.16699 -34 -9.5 -46s-14.833 -21.5 -25.5 -28.5s-23 -12 -37 -15s-28.667 -4.5 -44 -4.5h-168v196zM69 0.000976562l346 -0.000976562c32 0 63.167 4 93.5 12
s57.333 20.333 81 37s42.5 38.167 56.5 64.5s21 57.5 21 93.5c0 44.667 -10.833 82.834 -32.5 114.501s-54.5 53.834 -98.5 66.501c31.333 15.333 55.333 35.166 72 59.499s25 54.166 25 89.499c0 33.333 -5.5 61.333 -16.5 84s-26.5 40.834 -46.5 54.501s-44 23.5 -72 29.5
s-59 9 -93 9h-336v-714zM226 592l147 0.000976562c14 0 27.5 -1.16699 40.5 -3.5s24.5 -6.5 34.5 -12.5s18 -14.333 24 -25s9 -24.334 9 -41.001c0 -30 -9 -51.667 -27 -65s-41 -20 -69 -20h-159v167z" />
    <glyph glyph-name="C" unicode="C" horiz-adv-x="741" 
d="M697 474c-4.66699 41.333 -16 77.9961 -34 109.996s-40.833 58.833 -68.5 80.5s-59 38.167 -94 49.5s-72.167 17 -111.5 17c-55.333 0 -104.666 -9.66699 -147.999 -29s-80 -46 -110 -80s-53 -74 -69 -120s-24 -95.333 -24 -148c0 -51.333 8 -99.666 24 -144.999
s39 -84.666 69 -117.999s66.667 -59.666 110 -78.999s92.666 -29 147.999 -29c44 0 84.333 6.83301 121 20.5s68.667 33.167 96 58.5s49.333 56 66 92s27 76.333 31 121h-152c-6 -47.333 -22.5 -85.833 -49.5 -115.5s-64.5 -44.5 -112.5 -44.5
c-35.333 0 -65.333 6.83301 -90 20.5s-44.667 31.834 -60 54.501s-26.5 48.167 -33.5 76.5s-10.5 57.5 -10.5 87.5c0 31.333 3.5 61.666 10.5 90.999s18.167 55.5 33.5 78.5s35.333 41.333 60 55s54.667 20.5 90 20.5c19.333 0 37.833 -3.16699 55.5 -9.5
s33.5 -15.166 47.5 -26.499s25.667 -24.5 35 -39.5s15.333 -31.5 18 -49.5h152z" />
    <glyph glyph-name="D" unicode="D" horiz-adv-x="741" 
d="M69 0h308c54.667 0 102.167 9.16699 142.5 27.5s74 43.5 101 75.5s47.167 70 60.5 114s20 92 20 144c0 59.333 -8.16699 111 -24.5 155s-39 80.667 -68 110s-63.333 51.333 -103 66s-82.5 22 -128.5 22h-308v-714zM226 582l112 -0.000976562
c38.667 0 71.167 -5.5 97.5 -16.5s47.5 -26.833 63.5 -47.5s27.5 -45.5 34.5 -74.5s10.5 -61.5 10.5 -97.5c0 -39.333 -5 -72.666 -15 -99.999s-23.333 -49.5 -40 -66.5s-35.667 -29.167 -57 -36.5s-43.333 -11 -66 -11h-140v450z" />
    <glyph glyph-name="E" unicode="E" horiz-adv-x="648" 
d="M69 0h542v132h-385v175h346v122h-346v153h377v132h-534v-714z" />
    <glyph glyph-name="F" unicode="F" horiz-adv-x="593" 
d="M69 0h157v295h299v122h-299v165h345v132h-502v-714z" />
    <glyph glyph-name="G" unicode="G" horiz-adv-x="759" 
d="M601 0l99.999 -0.00195312v386h-300v-117h158c-4.66699 -50 -21.334 -88.167 -50.001 -114.5s-68.667 -39.5 -120 -39.5c-35.333 0 -65.333 6.83301 -90 20.5s-44.667 31.834 -60 54.501s-26.5 48.167 -33.5 76.5s-10.5 57.5 -10.5 87.5c0 31.333 3.5 61.666 10.5 90.999
s18.167 55.5 33.5 78.5s35.333 41.333 60 55s54.667 20.5 90 20.5c37.333 0 69.5 -10 96.5 -30s45.167 -50 54.5 -90h150c-4 40.667 -15.167 76.667 -33.5 108s-41.166 57.666 -68.499 78.999s-58.166 37.5 -92.499 48.5s-69.833 16.5 -106.5 16.5
c-55.333 0 -104.666 -9.66699 -147.999 -29s-80 -46 -110 -80s-53 -74 -69 -120s-24 -95.333 -24 -148c0 -51.333 8 -99.666 24 -144.999s39 -84.666 69 -117.999s66.667 -59.666 110 -78.999s92.666 -29 147.999 -29c34.667 0 69 7.33301 103 22s65 40 93 76z" />
    <glyph glyph-name="H" unicode="H" horiz-adv-x="741" 
d="M69 0h157v308h289v-308h157v714h-157v-274h-289v274h-157v-714z" />
    <glyph glyph-name="I" unicode="I" horiz-adv-x="295" 
d="M69 0h157v714h-157v-714z" />
    <glyph glyph-name="J" unicode="J" horiz-adv-x="556" 
d="M487 714l-157 0.00195312v-482c0 -12.667 -0.5 -25.834 -1.5 -39.501s-4 -26.334 -9 -38.001s-13.167 -21.167 -24.5 -28.5s-27.333 -11 -48 -11c-18.667 0 -33.834 3 -45.501 9s-20.834 14.167 -27.501 24.5s-11.334 22.833 -14.001 37.5s-4 30.667 -4 48v32h-142v-62
c0 -39.333 6.66699 -72.833 20 -100.5s31 -50.5 53 -68.5s47 -31.167 75 -39.5s57 -12.5 87 -12.5c35.333 0 65.833 3.83301 91.5 11.5s47.334 18 65.001 31s31.834 27.667 42.501 44s18.834 33.5 24.501 51.5s9.5 36 11.5 54s3 34.667 3 50v489z" />
    <glyph glyph-name="K" unicode="K" horiz-adv-x="722" 
d="M69 0h157v230l90 91l215 -321h197l-306 432l279 282h-196l-279 -296v296h-157v-714z" />
    <glyph glyph-name="L" unicode="L" horiz-adv-x="593" 
d="M69 0h505v132h-348v582h-157v-714z" />
    <glyph glyph-name="M" unicode="M" horiz-adv-x="907" 
d="M69 0h147v501h2l175 -501h121l175 506h2v-506h147v714h-221l-158 -491h-2l-167 491h-221v-714z" />
    <glyph glyph-name="N" unicode="N" horiz-adv-x="741" 
d="M69 0h147v478h2l297 -478h157v714h-147v-479h-2l-298 479h-156v-714z" />
    <glyph glyph-name="O" unicode="O" horiz-adv-x="778" 
d="M38 354c0 -51.333 8 -99.666 24 -144.999s39 -84.666 69 -117.999s66.667 -59.666 110 -78.999s92.666 -29 147.999 -29s104.666 9.66699 147.999 29s80 45.666 110 78.999s53 72.666 69 117.999s24 93.666 24 144.999c0 52.667 -8 102 -24 148s-39 86 -69 120
s-66.667 60.667 -110 80s-92.666 29 -147.999 29s-104.666 -9.66699 -147.999 -29s-80 -46 -110 -80s-53 -74 -69 -120s-24 -95.333 -24 -148zM195 354c0 31.333 3.5 61.666 10.5 90.999s18.167 55.5 33.5 78.5s35.333 41.333 60 55s54.667 20.5 90 20.5
s65.333 -6.83301 90 -20.5s44.667 -32 60 -55s26.5 -49.167 33.5 -78.5s10.5 -59.666 10.5 -90.999c0 -30 -3.5 -59.167 -10.5 -87.5s-18.167 -53.833 -33.5 -76.5s-35.333 -40.834 -60 -54.501s-54.667 -20.5 -90 -20.5s-65.333 6.83301 -90 20.5
s-44.667 31.834 -60 54.501s-26.5 48.167 -33.5 76.5s-10.5 57.5 -10.5 87.5z" />
    <glyph glyph-name="P" unicode="P" horiz-adv-x="667" 
d="M69 0l157 0.000976562v256h165c44.667 0 82.667 6.5 114 19.5s56.833 30.167 76.5 51.5s34 45.666 43 72.999s13.5 55.666 13.5 84.999c0 28.667 -4.5 56.834 -13.5 84.501s-23.333 52.167 -43 73.5s-45.167 38.5 -76.5 51.5s-69.333 19.5 -114 19.5h-322v-714z
M226 592.001l122 0.00195312c18 0 35.333 -1.33301 52 -4s31.334 -7.83398 44.001 -15.501s22.834 -18.5 30.501 -32.5s11.5 -32.333 11.5 -55s-3.83301 -41 -11.5 -55s-17.834 -24.833 -30.501 -32.5s-27.334 -12.834 -44.001 -15.501s-34 -4 -52 -4h-122v214z" />
    <glyph glyph-name="Q" unicode="Q" horiz-adv-x="778" 
d="M736 10l-89.001 80.998c30 34 53 73.333 69 118s24 93 24 145c0 52.667 -8 102 -24 148s-39 86 -69 120s-66.667 60.667 -110 80s-92.666 29 -147.999 29s-104.666 -9.66699 -147.999 -29s-80 -46 -110 -80s-53 -74 -69 -120s-24 -95.333 -24 -148
c0 -51.333 8 -99.666 24 -144.999s39 -84.666 69 -117.999s66.667 -59.666 110 -78.999s92.666 -29 147.999 -29c34 0 65.5 3.66699 94.5 11s55.167 17.666 78.5 30.999l101 -92zM384.999 185.998l67 -61.001c-5.33301 -5.33301 -14.333 -8.33301 -27 -9s-24.667 -1 -36 -1
c-35.333 0 -65.333 6.83301 -90 20.5s-44.667 31.834 -60 54.501s-26.5 48.167 -33.5 76.5s-10.5 57.5 -10.5 87.5c0 31.333 3.5 61.666 10.5 90.999s18.167 55.5 33.5 78.5s35.333 41.333 60 55s54.667 20.5 90 20.5s65.333 -6.83301 90 -20.5s44.667 -32 60 -55
s26.5 -49.167 33.5 -78.5s10.5 -59.666 10.5 -90.999c0 -37.333 -4 -69.5 -12 -96.5s-18.667 -49.5 -32 -67.5l-81 74z" />
    <glyph glyph-name="R" unicode="R" horiz-adv-x="722" 
d="M69 0l157.005 -0.000976562v279h157c39.333 0 67.666 -8.66699 84.999 -26s28.666 -44.666 33.999 -81.999c2 -14 3.5 -28.833 4.5 -44.5s2.33301 -31 4 -46s3.66699 -29.333 6 -43s5.83301 -26.167 10.5 -37.5h157c-7.33301 10 -12.833 22.333 -16.5 37
s-6.33398 29.834 -8.00098 45.501s-2.83398 31.167 -3.50098 46.5s-1.33398 28.666 -2.00098 39.999c-1.33301 18 -3.83301 35.833 -7.5 53.5s-9.5 34.167 -17.5 49.5s-18.333 28.5 -31 39.5s-28.667 19.167 -48 24.5v2c40 16 68.833 39.333 86.5 70s26.5 67 26.5 109
c0 26.667 -4.83301 52 -14.5 76s-23.667 45 -42 63s-40.333 32.167 -66 42.5s-54.5 15.5 -86.5 15.5h-385v-714zM226.005 591.999l172 0.000976562c35.333 0 62.166 -7.83301 80.499 -23.5s27.5 -40.834 27.5 -75.501c0 -36 -9.16699 -62 -27.5 -78s-45.166 -24 -80.499 -24
h-172v201z" />
    <glyph glyph-name="S" unicode="S" horiz-adv-x="649" 
d="M24 237c-0.666992 -44 7.49902 -81.999 24.499 -113.999s39.5 -58.333 67.5 -79s60.5 -36 97.5 -46s75.167 -15 114.5 -15c48.667 0 91.5 5.83301 128.5 17.5s68 27.667 93 48s43.833 44.5 56.5 72.5s19 58.333 19 91c0 26.667 -4 50.167 -12 70.5
s-18.5 37.833 -31.5 52.5s-27.333 27 -43 37s-31.334 18.167 -47.001 24.5s-30.5 11.333 -44.5 15s-25.333 6.5 -34 8.5c-44.667 11.333 -80.834 20.833 -108.501 28.5s-49.334 15 -65.001 22s-26.167 14.833 -31.5 23.5s-8 20 -8 34c0 14.667 3.33301 27.167 10 37.5
s15.167 18.833 25.5 25.5s21.833 11.334 34.5 14.001s25.334 4 38.001 4c18.667 0 36.334 -1.66699 53.001 -5s31.334 -9 44.001 -17s22.834 -19 30.501 -33s12.167 -31.667 13.5 -53h152c0 41.333 -7.83301 76.5 -23.5 105.5s-36.834 52.833 -63.501 71.5
s-57.167 32.167 -91.5 40.5s-70.166 12.5 -107.499 12.5c-32 0 -64 -4.33301 -96 -13s-60.667 -22 -86 -40s-45.833 -40.5 -61.5 -67.5s-23.5 -58.833 -23.5 -95.5c0 -33.333 6.16699 -61.333 18.5 -84s28.5 -41.667 48.5 -57s42.667 -27.833 68 -37.5
s51.333 -17.834 78 -24.501c26 -7.33301 51.667 -13.833 77 -19.5s48 -12.667 68 -21s36.167 -18.5 48.5 -30.5s18.5 -27.667 18.5 -47c0 -18 -4.66699 -32.833 -14 -44.5s-21 -20.834 -35 -27.501s-29 -11.167 -45 -13.5s-31 -3.5 -45 -3.5c-21.333 0 -41.5 2.5 -60.5 7.5
s-35.667 12.667 -50 23s-25.833 23.833 -34.5 40.5s-13 37 -13 61h-152z" />
    <glyph glyph-name="T" unicode="T" horiz-adv-x="611" 
d="M227 0h157v582h214v132h-585v-132h214v-582z" />
    <glyph glyph-name="U" unicode="U" horiz-adv-x="741" 
d="M675 714l-157 -0.00195312v-444c0 -53.333 -10.667 -92.5 -32 -117.5s-60 -37.5 -116 -37.5c-32 0 -57.5 4.33301 -76.5 13s-33.833 20.334 -44.5 35.001s-17.667 31.334 -21 50.001s-5 37.667 -5 57v444h-157v-444c0 -97.333 26.5 -169.5 79.5 -216.5
s127.833 -70.5 224.5 -70.5c95.333 0 170 23.667 224 71s81 119.333 81 216v444z" />
    <glyph glyph-name="V" unicode="V" horiz-adv-x="630" 
d="M638 714h-162l-161 -502h-2l-159 502h-162l232 -714h177z" />
    <glyph glyph-name="W" unicode="W" horiz-adv-x="944" 
d="M941 714h-154l-117 -492h-2l-122 492h-147l-124 -486h-2l-113 486h-157l189 -714h159l119 486h2l121 -486h156z" />
    <glyph glyph-name="X" unicode="X" horiz-adv-x="667" 
d="M-6 0h177l159 247l156 -247h187l-249 373l229 341h-172l-145 -228l-140 228h-182l230 -340z" />
    <glyph glyph-name="Y" unicode="Y" horiz-adv-x="667" 
d="M254 0h157v274l265 440h-175l-166 -282l-167 282h-177l263 -436v-278z" />
    <glyph glyph-name="Z" unicode="Z" horiz-adv-x="648" 
d="M23 0h602v132h-393l383 458v124h-562v-132h353l-383 -458v-124z" />
    <glyph glyph-name="bracketleft" unicode="[" horiz-adv-x="333" 
d="M68 -182h264v112h-122v689h122v112h-264v-913z" />
    <glyph glyph-name="backslash" unicode="\" horiz-adv-x="371" 
d="M103 731h-114l279 -748h114z" />
    <glyph glyph-name="bracketright" unicode="]" horiz-adv-x="333" 
d="M265 731h-264v-112h122v-689h-122v-112h264v913z" />
    <glyph glyph-name="asciicircum" unicode="^" horiz-adv-x="600" 
d="M61 315h117l122 275l122 -275h117l-172 385h-134z" />
    <glyph glyph-name="underscore" unicode="_" horiz-adv-x="500" 
d="M0 -125h500v50h-500v-50z" />
    <glyph glyph-name="grave" unicode="`" horiz-adv-x="259" 
d="M106 581h99l-96 142h-157z" />
    <glyph glyph-name="a" unicode="a" 
d="M376 200c0 -8 -0.835938 -18.666 -2.50293 -31.999s-6.16699 -26.5 -13.5 -39.5s-18.666 -24.167 -33.999 -33.5s-37 -14 -65 -14c-11.333 0 -22.333 1 -33 3s-20 5.5 -28 10.5s-14.333 11.667 -19 20s-7 19.166 -7 32.499c0 12.667 2.33301 23.5 7 32.5
s10.834 16.333 18.501 22s16.5 10.167 26.5 13.5s20.667 6 32 8c10.667 2 21.834 3.66699 33.501 5s22.667 3 33 5s20 4.5 29 7.5s16.5 7.16699 22.5 12.5v-53zM189.997 358.001c2.66699 28 12.167 48.001 28.5 60.001s38.166 18 65.499 18
c12.667 0 24.5 -0.833008 35.5 -2.5s20.667 -5 29 -10s15 -12 20 -21s7.5 -21.167 7.5 -36.5c0 -14.667 -4.66699 -25.834 -14 -33.501s-21.833 -13.5 -37.5 -17.5s-33.5 -7 -53.5 -9s-41 -4.66699 -63 -8s-43.5 -7.83301 -64.5 -13.5s-39.833 -14.167 -56.5 -25.5
s-30 -26.5 -40 -45.5s-15 -43.167 -15 -72.5c0 -26.667 4.5 -49.667 13.5 -69s21.5 -35.333 37.5 -48s34.667 -22.167 56 -28.5s44.333 -9.5 69 -9.5c32 0 63.333 4.83301 94 14.5s57.334 26.167 80.001 49.5c0.666992 -8.66699 1.83398 -17.167 3.50098 -25.5
s3.83398 -16.5 6.50098 -24.5h144c-6.66699 10.667 -11.334 26.667 -14.001 48s-4 43.666 -4 66.999v269c0 30.667 -7 55.667 -21 75s-32 34.333 -54 45s-46.333 17.834 -73 21.501s-53 5.5 -79 5.5c-29.333 0 -58 -2.83301 -86 -8.5s-53.333 -15.167 -76 -28.5
s-41.334 -31 -56.001 -53s-23 -49.667 -25 -83h142z" />
    <glyph glyph-name="b" unicode="b" horiz-adv-x="611" 
d="M54 0l135 0.00292969v66h2c15.333 -28.667 38 -49.167 68 -61.5s64 -18.5 102 -18.5c26 0 51.667 5.33301 77 16s48.166 27.167 68.499 49.5s36.833 50.666 49.5 84.999s19 75.166 19 122.499s-6.33301 88.166 -19 122.499s-29.167 62.5 -49.5 84.5
s-43.166 38.333 -68.499 49s-51 16 -77 16c-32 0 -62.833 -6.16699 -92.5 -18.5s-53.167 -31.833 -70.5 -58.5h-2v260h-142v-714zM433 258.003c0 -21.333 -2.33301 -42 -7 -62s-12 -37.667 -22 -53s-22.667 -27.5 -38 -36.5s-33.333 -13.5 -54 -13.5
c-21.333 0 -39.5 4.5 -54.5 13.5s-27.5 21.167 -37.5 36.5s-17.333 33 -22 53s-7 40.667 -7 62c0 22 2.33301 43 7 63s12 37.667 22 53s22.5 27.5 37.5 36.5s33.167 13.5 54.5 13.5c20.667 0 38.667 -4.5 54 -13.5s28 -21.167 38 -36.5s17.333 -33 22 -53s7 -41 7 -63z" />
    <glyph glyph-name="c" unicode="c" 
d="M545 335c-2 32.667 -10.165 61.334 -24.498 86.001s-32.5 45.167 -54.5 61.5s-47.167 28.5 -75.5 36.5s-57.833 12 -88.5 12c-42 0 -79.333 -7 -112 -21s-60.334 -33.5 -83.001 -58.5s-39.834 -54.667 -51.501 -89s-17.5 -71.5 -17.5 -111.5
c0 -38.667 6.33301 -74.167 19 -106.5s30.334 -60.333 53.001 -84s50 -42 82 -55s67.667 -19.5 107 -19.5c68.667 0 125 18.167 169 54.5s70.667 88.833 80 157.5h-137c-4.66699 -32 -16.334 -57.5 -35.001 -76.5s-44.667 -28.5 -78 -28.5c-22 0 -40.667 5 -56 15
s-27.5 22.833 -36.5 38.5s-15.5 33.167 -19.5 52.5s-6 38.333 -6 57s2 38 6 58s10.833 38.167 20.5 54.5s22.167 29.666 37.5 39.999s34.333 15.5 57 15.5c60.667 0 95.667 -29.667 105 -89h139z" />
    <glyph glyph-name="d" unicode="d" horiz-adv-x="611" 
d="M423 0h135.002v714h-142v-260h-2c-16 25.333 -37.833 44.5 -65.5 57.5s-56.834 19.5 -87.501 19.5c-38 0 -71.333 -7.5 -100 -22.5s-52.5 -34.833 -71.5 -59.5s-33.333 -53.167 -43 -85.5s-14.5 -65.833 -14.5 -100.5c0 -36 4.83301 -70.667 14.5 -104
s24 -62.833 43 -88.5s43 -46.167 72 -61.5s63.167 -23 102.5 -23c33.333 0 63.666 6.33301 90.999 19s49.333 33 66 61h2v-66zM421.002 260c0 -21.333 -2.00195 -42 -6.00195 -62s-10.667 -37.833 -20 -53.5s-21.833 -28.167 -37.5 -37.5s-35.167 -14 -58.5 -14
c-22 0 -40.833 4.83301 -56.5 14.5s-28.667 22.334 -39 38.001s-17.833 33.5 -22.5 53.5s-7 40 -7 60c0 21.333 2.16699 41.833 6.5 61.5s11.333 37.167 21 52.5s22.5 27.666 38.5 36.999s35.667 14 59 14c22.667 0 41.834 -4.66699 57.501 -14s28.334 -21.5 38.001 -36.5
s16.5 -32.5 20.5 -52.5s6 -40.333 6 -61z" />
    <glyph glyph-name="e" unicode="e" 
d="M544 224c2.66699 40 -0.668945 78.332 -10.002 114.999s-24.5 69.334 -45.5 98.001s-47.833 51.5 -80.5 68.5s-71 25.5 -115 25.5c-39.333 0 -75.166 -7 -107.499 -21s-60.166 -33.167 -83.499 -57.5s-41.333 -53.166 -54 -86.499s-19 -69.333 -19 -108
c0 -40 6.16699 -76.667 18.5 -110s29.833 -62 52.5 -86s50.334 -42.667 83.001 -56s69.334 -20 110.001 -20c58.667 0 108.667 13.667 150 41s72 71.666 92 132.999h-125c-4.66699 -16 -17.334 -31.167 -38.001 -45.5s-45.334 -21.5 -74.001 -21.5
c-40 0 -70.667 10.5 -92 31.5s-33 54.167 -35 99.5h373zM170.997 313.999c0.666992 10 2.83301 21.333 6.5 34s10 24.667 19 36s21 20.833 36 28.5s33.833 11.5 56.5 11.5c34.667 0 60.5 -9.33301 77.5 -28s28.833 -46 35.5 -82h-231z" />
    <glyph glyph-name="f" unicode="f" horiz-adv-x="333" 
d="M85 0h142.002v422h98v95h-98v31c0 21.333 4.16699 36.5 12.5 45.5s22.166 13.5 41.499 13.5c17.333 0 34.666 -1 51.999 -3v106c-12 0.666992 -24.333 1.5 -37 2.5s-25.334 1.5 -38.001 1.5c-29.333 0 -54.666 -3.83301 -75.999 -11.5s-39.333 -18.5 -54 -32.5
s-25.5 -30.667 -32.5 -50s-10.5 -40.333 -10.5 -63v-40h-85v-95h85v-422z" />
    <glyph glyph-name="g" unicode="g" horiz-adv-x="611" 
d="M551 517l-134.996 0.00195312v-69h-2c-17.333 30 -38.833 51.333 -64.5 64s-55.5 19 -89.5 19c-36 0 -67.833 -7 -95.5 -21s-50.834 -32.833 -69.501 -56.5s-32.834 -51 -42.501 -82s-14.5 -63.167 -14.5 -96.5c0 -35.333 4.16699 -68.833 12.5 -100.5
s21.5 -59.334 39.5 -83.001s41 -42.334 69 -56.001s61.333 -20.5 100 -20.5c31.333 0 61.166 6.5 89.499 19.5s50.166 33.167 65.499 60.5h2v-68c0.666992 -37.333 -8.33301 -68 -27 -92s-47.667 -36 -87 -36c-25.333 0 -47.666 5.16699 -66.999 15.5
s-32.333 28.833 -39 55.5h-141c2 -29.333 10.167 -54.5 24.5 -75.5s32.333 -38.167 54 -51.5s45.667 -23.166 72 -29.499s52.166 -9.5 77.499 -9.5c39.333 0 73.333 3.66699 102 11s53 17.166 73 29.499s36 26.333 48 42s21.333 32 28 49s11.167 34 13.5 51
s3.5 32.5 3.5 46.5v484zM295.004 122.002c-22 0 -40.334 4.66699 -55.001 14s-26.5 21.333 -35.5 36s-15.333 31.167 -19 49.5s-5.5 36.833 -5.5 55.5c0 19.333 2.16699 37.833 6.5 55.5s11.333 33.334 21 47.001s21.667 24.5 36 32.5s31.5 12 51.5 12
c22.667 0 41.834 -4.33301 57.501 -13s28.167 -20.334 37.5 -35.001s16 -31.667 20 -51s6 -39.333 6 -60c0 -18.667 -2.5 -36.5 -7.5 -53.5s-12.5 -32.167 -22.5 -45.5s-22.667 -24 -38 -32s-33 -12 -53 -12z" />
    <glyph glyph-name="h" unicode="h" horiz-adv-x="593" 
d="M54 0l142 0.00195312v271c0 52.667 8.66699 90.5 26 113.5s45.333 34.5 84 34.5c33.333 0 56.833 -10.5 70.5 -31.5s20.5 -52.833 20.5 -95.5v-292h142v318c0 32 -2.83301 61.167 -8.5 87.5s-15.5 48.666 -29.5 66.999s-33.167 32.666 -57.5 42.999
s-55.5 15.5 -93.5 15.5c-26.667 0 -54 -7 -82 -21s-51 -35.667 -69 -65h-3v269h-142v-714z" />
    <glyph glyph-name="i" unicode="i" horiz-adv-x="258" 
d="M58 0h142v517h-142v-517zM200 714h-142v-117h142v117z" />
    <glyph glyph-name="j" unicode="j" horiz-adv-x="278" 
d="M-19 -178c7.33301 -1.33301 14.999 -2.33301 22.999 -3s15.667 -1 23 -1c36 0 65.667 3.16699 89 9.5s41.833 16 55.5 29s23.334 29.167 29.001 48.5s8.5 42.333 8.5 69v543h-142v-536c0 -19.333 -5.5 -31.833 -16.5 -37.5s-23.833 -8.5 -38.5 -8.5
c-12.667 0 -23 1.33301 -31 4v-117zM208.999 714h-142v-117h142v117z" />
    <glyph glyph-name="k" unicode="k" 
d="M67 0h142v178l55 53l142 -231h172l-217 327l195 190h-168l-179 -186v383h-142v-714z" />
    <glyph glyph-name="l" unicode="l" horiz-adv-x="258" 
d="M58 0h142v714h-142v-714z" />
    <glyph glyph-name="m" unicode="m" horiz-adv-x="906" 
d="M58 0l141.998 -0.00195312v300c0 25.333 3.66699 45.833 11 61.5s16.166 27.667 26.499 36s20.833 14 31.5 17s19.667 4.5 27 4.5c22.667 0 39.834 -3.83301 51.501 -11.5s20 -17.834 25 -30.501s7.83301 -26.667 8.5 -42s1 -30.333 1 -45v-290h142v288
c0 16 1.16699 31.833 3.5 47.5s7 29.667 14 42s16.667 22.333 29 30s28.5 11.5 48.5 11.5s35.833 -3.33301 47.5 -10s20.5 -15.667 26.5 -27s9.66699 -24.666 11 -39.999s2 -31.666 2 -48.999v-293h142v346c0 33.333 -4.66699 61.833 -14 85.5s-22.333 42.834 -39 57.501
s-36.667 25.334 -60 32.001s-48.666 10 -75.999 10c-36 0 -67.167 -8.66699 -93.5 -26s-47.166 -37.333 -62.499 -60c-14 31.333 -34.5 53.5 -61.5 66.5s-56.833 19.5 -89.5 19.5c-34 0 -64.167 -7.33301 -90.5 -22s-48.833 -35.334 -67.5 -62.001h-2v70h-134v-517z" />
    <glyph glyph-name="n" unicode="n" horiz-adv-x="593" 
d="M54 0l142 0.00195312v271c0 52.667 8.66699 90.5 26 113.5s45.333 34.5 84 34.5c33.333 0 56.833 -10.5 70.5 -31.5s20.5 -52.833 20.5 -95.5v-292h142v318c0 32 -2.83301 61.167 -8.5 87.5s-15.5 48.666 -29.5 66.999s-33.167 32.666 -57.5 42.999
s-55.5 15.5 -93.5 15.5c-30 0 -59.333 -7 -88 -21s-52 -35.667 -70 -65h-3v72h-135v-517z" />
    <glyph glyph-name="o" unicode="o" horiz-adv-x="611" 
d="M38 258c0 -41.333 6.33301 -78.666 19 -111.999s30.667 -61.833 54 -85.5s51.333 -42 84 -55s69.334 -19.5 110.001 -19.5s77.5 6.5 110.5 19.5s61.167 31.333 84.5 55s41.333 52.167 54 85.5s19 70.666 19 111.999s-6.33301 78.833 -19 112.5s-30.667 62.334 -54 86.001
s-51.5 42 -84.5 55s-69.833 19.5 -110.5 19.5s-77.334 -6.5 -110.001 -19.5s-60.667 -31.333 -84 -55s-41.333 -52.334 -54 -86.001s-19 -71.167 -19 -112.5zM180 258c0 20.667 2 41 6 61s10.833 37.667 20.5 53s22.5 27.833 38.5 37.5s36 14.5 60 14.5
s44.167 -4.83301 60.5 -14.5s29.333 -22.167 39 -37.5s16.5 -33 20.5 -53s6 -40.333 6 -61s-2 -40.834 -6 -60.501s-10.833 -37.334 -20.5 -53.001s-22.667 -28.167 -39 -37.5s-36.5 -14 -60.5 -14s-44 4.66699 -60 14s-28.833 21.833 -38.5 37.5s-16.5 33.334 -20.5 53.001
s-6 39.834 -6 60.501z" />
    <glyph glyph-name="p" unicode="p" horiz-adv-x="611" 
d="M54 -182l142 -0.000976562v246h2c17.333 -25.333 39.666 -44.666 66.999 -57.999s56.666 -20 87.999 -20c38 0 71.167 7.5 99.5 22.5s52 34.833 71 59.5s33.167 53 42.5 85s14 65.333 14 100c0 36.667 -4.66699 71.834 -14 105.501s-23.666 63.167 -42.999 88.5
s-43.666 45.666 -72.999 60.999s-64.333 23 -105 23c-32 0 -61.333 -6.33301 -88 -19s-48.667 -33 -66 -61h-2v66h-135v-699zM315 92.999c-23.333 0 -42.833 4.66895 -58.5 14.002s-28.334 21.5 -38.001 36.5s-16.667 32.333 -21 52s-6.5 40.167 -6.5 61.5
c0 20.667 2 41.167 6 61.5s10.833 38.166 20.5 53.499s22.334 27.833 38.001 37.5s35.167 14.5 58.5 14.5c22.667 0 41.834 -4.83301 57.501 -14.5s28.5 -22.334 38.5 -38.001s17.167 -33.5 21.5 -53.5s6.5 -40.333 6.5 -61c0 -21.333 -2 -41.833 -6 -61.5
s-10.833 -37 -20.5 -52s-22.334 -27.167 -38.001 -36.5s-35.167 -14 -58.5 -14z" />
    <glyph glyph-name="q" unicode="q" horiz-adv-x="611" 
d="M558 517l-135 -0.000976562v-66h-2c-16 28.667 -38.167 49.167 -66.5 61.5s-58.5 18.5 -90.5 18.5c-39.333 0 -73.5 -7.66699 -102.5 -23s-53.167 -35.833 -72.5 -61.5s-33.666 -55.167 -42.999 -88.5s-14 -67.666 -14 -102.999c0 -50 7 -92.167 21 -126.5
s31.667 -62 53 -83s44.833 -36.167 70.5 -45.5s50.5 -14 74.5 -14c31.333 0 62.166 6.16699 92.499 18.5s53.833 32.5 70.5 60.5h2v-247h142v699zM174 257.999c0 20.667 2.16895 40.998 6.50195 60.998s11.5 37.833 21.5 53.5s23 28.167 39 37.5s35.667 14 59 14
c22 0 40.833 -5 56.5 -15s28.167 -23 37.5 -39s16.166 -34 20.499 -54s6.5 -40 6.5 -60c0 -21.333 -2.16699 -41.833 -6.5 -61.5s-11.333 -37 -21 -52s-22.5 -27 -38.5 -36s-35.333 -13.5 -58 -13.5c-23.333 0 -42.833 4.66699 -58.5 14s-28.334 21.833 -38.001 37.5
s-16.5 33.334 -20.5 53.001s-6 39.834 -6 60.501z" />
    <glyph glyph-name="r" unicode="r" horiz-adv-x="389" 
d="M54 0l142 0.000976562v233c0 22.667 2.33301 44.167 7 64.5s12.5 38 23.5 53s25.5 26.833 43.5 35.5s40 13 66 13c8.66699 0 17.667 -0.5 27 -1.5s17.333 -2.16699 24 -3.5v132c-10 3.33301 -20.333 5 -31 5c-17.333 0 -34.5 -2.66699 -51.5 -8
s-32.833 -12.833 -47.5 -22.5s-27.667 -21.334 -39 -35.001s-20.333 -28.5 -27 -44.5h-2v96h-135v-517z" />
    <glyph glyph-name="s" unicode="s" horiz-adv-x="537" 
d="M29 168c1.33301 -34 9.1709 -62.666 23.5039 -85.999s32.666 -42.166 54.999 -56.499s47.833 -24.5 76.5 -30.5s58 -9 88 -9c29.333 0 58.166 3 86.499 9s53.5 16 75.5 30s39.833 32.5 53.5 55.5s20.5 51.5 20.5 85.5c0 24 -4.66699 44.167 -14 60.5
s-21.666 30 -36.999 41s-32.833 19.833 -52.5 26.5s-39.834 12.334 -60.501 17.001c-20 4.66699 -39.667 9 -59 13s-36.5 8.5 -51.5 13.5s-27.167 11.5 -36.5 19.5s-14 18.333 -14 31c0 10.667 2.66699 19.167 8 25.5s11.833 11.166 19.5 14.499s16.167 5.5 25.5 6.5
s18 1.5 26 1.5c25.333 0 47.333 -4.83301 66 -14.5s29 -28.167 31 -55.5h135c-2.66699 32 -10.834 58.5 -24.501 79.5s-30.834 37.833 -51.501 50.5s-44.167 21.667 -70.5 27s-53.5 8 -81.5 8s-55.333 -2.5 -82 -7.5s-50.667 -13.667 -72 -26s-38.5 -29.333 -51.5 -51
s-19.5 -48.834 -19.5 -81.501c0 -22.667 4.66699 -41.834 14 -57.501s21.666 -28.667 36.999 -39s32.833 -18.666 52.5 -24.999s39.834 -11.833 60.501 -16.5c25.333 -5.33301 48 -10.5 68 -15.5s36.833 -10.5 50.5 -16.5s24.167 -12.833 31.5 -20.5s11 -16.834 11 -27.501
c0 -12.667 -3 -23.167 -9 -31.5s-13.5 -15 -22.5 -20s-19 -8.66699 -30 -11s-21.5 -3.5 -31.5 -3.5c-14 0 -27.5 1.66699 -40.5 5s-24.5 8.5 -34.5 15.5s-18.167 16 -24.5 27s-9.5 24.167 -9.5 39.5h-135z" />
    <glyph glyph-name="t" unicode="t" horiz-adv-x="352" 
d="M234 672h-142v-155h-86v-95h86v-305c0 -26 4.33301 -47 13 -63s20.5 -28.5 35.5 -37.5s32.333 -15 52 -18s40.5 -4.5 62.5 -4.5c14 0 28.333 0.333008 43 1s28 2 40 4v111c-13.333 -2.66699 -28 -4 -44 -4c-24 0 -40 4 -48 12s-12 24 -12 48v256h104v95h-104v155z" />
    <glyph glyph-name="u" unicode="u" horiz-adv-x="593" 
d="M539 517l-142 -0.00195312v-271c0 -52.667 -8.66699 -90.5 -26 -113.5s-45.333 -34.5 -84 -34.5c-33.333 0 -56.833 10.5 -70.5 31.5s-20.5 52.833 -20.5 95.5v292h-142v-318c0 -32 2.83301 -61.167 8.5 -87.5s15.5 -48.666 29.5 -66.999s33.167 -32.666 57.5 -42.999
s55.5 -15.5 93.5 -15.5c30 0 59.333 7 88 21s52 35.667 70 65h3v-72h135v517z" />
    <glyph glyph-name="v" unicode="v" horiz-adv-x="520" 
d="M515 517h-141l-109 -353h-2l-109 353h-149l177 -517h158z" />
    <glyph glyph-name="w" unicode="w" horiz-adv-x="814" 
d="M808 517h-146l-95 -350h-2l-88 350h-138l-86 -351h-2l-95 351h-150l164 -517h147l88 347h2l92 -347h146z" />
    <glyph glyph-name="x" unicode="x" horiz-adv-x="537" 
d="M0 0h159l108 163l108 -163h162l-191 275l170 242h-157l-90 -135l-91 135h-162l170 -245z" />
    <glyph glyph-name="y" unicode="y" horiz-adv-x="519" 
d="M525 517h-146.999l-113 -354h-2l-117 354h-152l182 -485c4 -10 6 -20.667 6 -32c0 -10.667 -2 -20.667 -6 -30s-10.167 -17.166 -18.5 -23.499s-18.5 -10.166 -30.5 -11.499c-14 -0.666992 -28 -0.333984 -42 0.999023l-41 4v-117c14.667 -1.33301 29.167 -2.5 43.5 -3.5
s28.833 -1.5 43.5 -1.5c48.667 0 86.667 9.16699 114 27.5s48.666 48.166 63.999 89.499z" />
    <glyph glyph-name="z" unicode="z" horiz-adv-x="519" 
d="M22 0h475v107h-288l269 303v107h-436v-107h249l-269 -303v-107z" />
    <glyph glyph-name="braceleft" unicode="{" horiz-adv-x="333" 
d="M333 731l-127 0.000976562c-11.333 0 -24.166 -2.83301 -38.499 -8.5s-27.666 -14 -39.999 -25s-22.833 -25 -31.5 -42s-13 -36.833 -13 -59.5v-188c0 -16.667 -3.33301 -30.834 -10 -42.501s-14.667 -21 -24 -28s-19.333 -12 -30 -15s-20 -4.5 -28 -4.5v-87
c8 0 17.333 -1.5 28 -4.5s20.667 -7.66699 30 -14s17.333 -14.833 24 -25.5s10 -23.667 10 -39v-195c0 -22.667 4.33301 -42.5 13 -59.5s19.167 -31 31.5 -42s25.666 -19.333 39.999 -25s27.166 -8.5 38.499 -8.5h127v112h-54c-12 0 -21.5 2.33301 -28.5 7
s-12.5 10.5 -16.5 17.5s-6.5 14.833 -7.5 23.5s-1.5 17 -1.5 25v160c0 20.667 -3.83301 38 -11.5 52s-16.667 25.167 -27 33.5s-21.166 14.333 -32.499 18s-20.666 5.83398 -27.999 6.50098v3c7.33301 0.666992 16.666 2.66699 27.999 6s22.166 9.16602 32.499 17.499
s19.333 20 27 35s11.5 34.833 11.5 59.5v152c0 8 0.5 16.333 1.5 25s3.5 16.5 7.5 23.5s9.5 12.833 16.5 17.5s16.5 7 28.5 7h54v112z" />
    <glyph glyph-name="bar" unicode="|" horiz-adv-x="223" 
d="M58 -214h107v1000h-107v-1000z" />
    <glyph glyph-name="braceright" unicode="}" horiz-adv-x="333" 
d="M0 -182l127 -0.000976562c11.333 0 24.166 2.83301 38.499 8.5s27.666 14 39.999 25s22.833 25 31.5 42s13 36.833 13 59.5v195c0 15.333 3.33301 28.333 10 39s14.667 19.167 24 25.5s19.333 11 30 14s20 4.5 28 4.5v87c-8 0 -17.333 1.5 -28 4.5s-20.667 8 -30 15
s-17.333 16.333 -24 28s-10 25.834 -10 42.501v188c0 22.667 -4.33301 42.5 -13 59.5s-19.167 31 -31.5 42s-25.666 19.333 -39.999 25s-27.166 8.5 -38.499 8.5h-127v-112h54c12 0 21.5 -2.33301 28.5 -7s12.5 -10.5 16.5 -17.5s6.5 -14.833 7.5 -23.5s1.5 -17 1.5 -25
v-152c0 -24.667 3.66699 -44.5 11 -59.5s16.333 -26.667 27 -35s21.667 -14.166 33 -17.499s20.666 -5.33301 27.999 -6v-3c-7.33301 -0.666992 -16.666 -2.83398 -27.999 -6.50098s-22.333 -9.66699 -33 -18s-19.667 -19.5 -27 -33.5s-11 -31.333 -11 -52v-160
c0 -8 -0.5 -16.333 -1.5 -25s-3.5 -16.5 -7.5 -23.5s-9.5 -12.833 -16.5 -17.5s-16.5 -7 -28.5 -7h-54v-112z" />
    <glyph glyph-name="asciitilde" unicode="~" horiz-adv-x="600" 
d="M493 344l-17.9971 -26.002c-6 -8.66699 -12.5 -16.334 -19.5 -23.001s-14.667 -12.167 -23 -16.5s-17.5 -6.5 -27.5 -6.5c-13.333 0 -29 4 -47 12l-55 24c-19.333 8.66699 -38.333 16.167 -57 22.5s-36.667 9.5 -54 9.5c-16.667 0 -31.5 -2.5 -44.5 -7.5
s-24.5 -11.5 -34.5 -19.5s-18.833 -17.167 -26.5 -27.5s-14.167 -20.833 -19.5 -31.5l40 -93c4 8.66699 8.5 17.334 13.5 26.001s11 16.334 18 23.001s14.667 12.167 23 16.5s18.166 6.5 29.499 6.5c23.333 0 44.333 -3.5 63 -10.5s36 -15.167 52 -24.5
c16.667 -9.33301 33.167 -17.166 49.5 -23.499s33.833 -9.5 52.5 -9.5c15.333 0 29.166 2.5 41.499 7.5s23.333 11.5 33 19.5s18.667 17.167 27 27.5s16.166 20.833 23.499 31.5z" />
    <glyph glyph-name="quotesinglbase" horiz-adv-x="278" 
d="M68 0l65.9971 -0.00195312c0 -24.667 -4.66699 -45.5 -14 -62.5s-26.666 -29.833 -51.999 -38.5v-66c20.667 2.66699 39.834 8.83398 57.501 18.501s32.834 21.834 45.501 36.501s22.5 31.667 29.5 51s10.167 40 9.5 62v153h-142v-154z" />
    <glyph glyph-name="quotesinglbase" unicode="&#x201a;" horiz-adv-x="278" 
d="M68 0l65.9971 -0.00195312c0 -24.667 -4.66699 -45.5 -14 -62.5s-26.666 -29.833 -51.999 -38.5v-66c20.667 2.66699 39.834 8.83398 57.501 18.501s32.834 21.834 45.501 36.501s22.5 31.667 29.5 51s10.167 40 9.5 62v153h-142v-154z" />
    <glyph glyph-name="quotedblbase" horiz-adv-x="463" 
d="M267 0l65.9971 -0.00195312c0 -24.667 -4.66699 -45.5 -14 -62.5s-26.666 -29.833 -51.999 -38.5v-66c20.667 2.66699 39.834 8.83398 57.501 18.501s32.834 21.834 45.501 36.501s22.5 31.667 29.5 51s10.167 40 9.5 62v153h-142v-154zM53.9971 -0.00195312
l65.9971 -0.00195312c0 -24.667 -4.66699 -45.5 -14 -62.5s-26.666 -29.833 -51.999 -38.5v-66c20.667 2.66699 39.834 8.83398 57.501 18.501s32.834 21.834 45.501 36.501s22.5 31.667 29.5 51s10.167 40 9.5 62v153h-142v-154z" />
    <glyph glyph-name="quotedblbase" unicode="&#x201e;" horiz-adv-x="463" 
d="M267 0l65.9971 -0.00195312c0 -24.667 -4.66699 -45.5 -14 -62.5s-26.666 -29.833 -51.999 -38.5v-66c20.667 2.66699 39.834 8.83398 57.501 18.501s32.834 21.834 45.501 36.501s22.5 31.667 29.5 51s10.167 40 9.5 62v153h-142v-154zM53.9971 -0.00195312
l65.9971 -0.00195312c0 -24.667 -4.66699 -45.5 -14 -62.5s-26.666 -29.833 -51.999 -38.5v-66c20.667 2.66699 39.834 8.83398 57.501 18.501s32.834 21.834 45.501 36.501s22.5 31.667 29.5 51s10.167 40 9.5 62v153h-142v-154z" />
    <glyph glyph-name="ellipsis" unicode="&#x85;" horiz-adv-x="1000" 
d="M88 0h157v154h-157v-154zM421 0h157v154h-157v-154zM754 0h157v154h-157v-154z" />
    <glyph glyph-name="ellipsis" unicode="&#x2026;" horiz-adv-x="1000" 
d="M88 0h157v154h-157v-154zM421 0h157v154h-157v-154zM754 0h157v154h-157v-154z" />
    <glyph glyph-name="dagger" horiz-adv-x="556" 
d="M210 -166h135v566h187v117h-187v197h-135v-197h-186v-117h186v-566z" />
    <glyph glyph-name="dagger" unicode="&#x2020;" horiz-adv-x="556" 
d="M210 -166h135v566h187v117h-187v197h-135v-197h-186v-117h186v-566z" />
    <glyph glyph-name="daggerdbl" horiz-adv-x="556" 
d="M210 -166h135v193h187v117h-187v256h187v117h-187v197h-135v-197h-186v-117h186v-256h-186v-117h186v-193z" />
    <glyph glyph-name="daggerdbl" unicode="&#x2021;" horiz-adv-x="556" 
d="M210 -166h135v193h187v117h-187v256h187v117h-187v197h-135v-197h-186v-117h186v-256h-186v-117h186v-193z" />
    <glyph glyph-name="perthousand" horiz-adv-x="1147" 
d="M530 172c0 9.33301 0.334961 19.501 1.00195 30.501s3 21.167 7 30.5s9.83301 17 17.5 23s18.5 9 32.5 9c13.333 0 23.666 -3.16699 30.999 -9.5s12.666 -14.5 15.999 -24.5s5.33301 -21.5 6 -34.5s1 -25.833 1 -38.5c0 -12 -0.166992 -24.333 -0.5 -37
s-2.33301 -24.167 -6 -34.5s-9.33398 -18.833 -17.001 -25.5s-18.5 -10 -32.5 -10c-13.333 0 -23.666 3.66699 -30.999 11s-12.833 16.666 -16.5 27.999s-6 24.333 -7 39s-1.5 29 -1.5 43zM440.002 155.001c0 -50 12.666 -90.668 37.999 -122.001s61.333 -47 108 -47
c26 0 48.167 4.33301 66.5 13s33.333 20.5 45 35.5s20.334 33 26.001 54s8.5 43.5 8.5 67.5s-2.5 46.667 -7.5 68s-13.167 39.833 -24.5 55.5s-26.166 28 -44.499 37s-41.166 13.5 -68.499 13.5c-26 0 -48.333 -4.66699 -67 -14s-33.834 -22 -45.501 -38
s-20.334 -34.667 -26.001 -56s-8.5 -43.666 -8.5 -66.999zM786.001 155c0 -50 12.666 -90.668 37.999 -122.001s61.333 -47 108 -47c26 0 48.167 4.33301 66.5 13s33.333 20.5 45 35.5s20.334 33 26.001 54s8.5 43.5 8.5 67.5s-2.5 46.667 -7.5 68
s-13.167 39.833 -24.5 55.5s-26.166 28 -44.499 37s-41.166 13.5 -68.499 13.5c-26 0 -48.333 -4.66699 -67 -14s-33.834 -22 -45.501 -38s-20.334 -34.667 -26.001 -56s-8.5 -43.666 -8.5 -66.999zM876 171.999c0 9.33301 0.334961 19.501 1.00195 30.501s3 21.167 7 30.5
s9.83301 17 17.5 23s18.5 9 32.5 9c13.333 0 23.666 -3.16699 30.999 -9.5s12.666 -14.5 15.999 -24.5s5.33301 -21.5 6 -34.5s1 -25.833 1 -38.5c0 -12 -0.166992 -24.333 -0.5 -37s-2.33301 -24.167 -6 -34.5s-9.33398 -18.833 -17.001 -25.5s-18.5 -10 -32.5 -10
c-13.333 0 -23.666 3.66699 -30.999 11s-12.833 16.666 -16.5 27.999s-6 24.333 -7 39s-1.5 29 -1.5 43zM69.002 539c0 -50 12.666 -90.668 37.999 -122.001s61.333 -47 108 -47c26 0 48.167 4.33301 66.5 13s33.333 20.5 45 35.5s20.334 33 26.001 54s8.5 43.5 8.5 67.5
s-2.5 46.667 -7.5 68s-13.167 39.833 -24.5 55.5s-26.166 28 -44.499 37s-41.166 13.5 -68.499 13.5c-26 0 -48.333 -4.66699 -67 -14s-33.834 -22 -45.501 -38s-20.334 -34.667 -26.001 -56s-8.5 -43.666 -8.5 -66.999zM159.001 555.999
c0 9.33301 0.334961 19.501 1.00195 30.501s3 21.167 7 30.5s9.83301 17 17.5 23s18.5 9 32.5 9c13.333 0 23.666 -3.16699 30.999 -9.5s12.666 -14.5 15.999 -24.5s5.33301 -21.5 6 -34.5s1 -25.833 1 -38.5c0 -12 -0.166992 -24.333 -0.5 -37s-2.33301 -24.167 -6 -34.5
s-9.33398 -18.833 -17.001 -25.5s-18.5 -10 -32.5 -10c-13.333 0 -23.666 3.66699 -30.999 11s-12.833 16.666 -16.5 27.999s-6 24.333 -7 39s-1.5 29 -1.5 43zM150.003 -22h87l412 744h-85z" />
    <glyph glyph-name="perthousand" unicode="&#x2030;" horiz-adv-x="1147" 
d="M530 172c0 9.33301 0.334961 19.501 1.00195 30.501s3 21.167 7 30.5s9.83301 17 17.5 23s18.5 9 32.5 9c13.333 0 23.666 -3.16699 30.999 -9.5s12.666 -14.5 15.999 -24.5s5.33301 -21.5 6 -34.5s1 -25.833 1 -38.5c0 -12 -0.166992 -24.333 -0.5 -37
s-2.33301 -24.167 -6 -34.5s-9.33398 -18.833 -17.001 -25.5s-18.5 -10 -32.5 -10c-13.333 0 -23.666 3.66699 -30.999 11s-12.833 16.666 -16.5 27.999s-6 24.333 -7 39s-1.5 29 -1.5 43zM440.002 155.001c0 -50 12.666 -90.668 37.999 -122.001s61.333 -47 108 -47
c26 0 48.167 4.33301 66.5 13s33.333 20.5 45 35.5s20.334 33 26.001 54s8.5 43.5 8.5 67.5s-2.5 46.667 -7.5 68s-13.167 39.833 -24.5 55.5s-26.166 28 -44.499 37s-41.166 13.5 -68.499 13.5c-26 0 -48.333 -4.66699 -67 -14s-33.834 -22 -45.501 -38
s-20.334 -34.667 -26.001 -56s-8.5 -43.666 -8.5 -66.999zM786.001 155c0 -50 12.666 -90.668 37.999 -122.001s61.333 -47 108 -47c26 0 48.167 4.33301 66.5 13s33.333 20.5 45 35.5s20.334 33 26.001 54s8.5 43.5 8.5 67.5s-2.5 46.667 -7.5 68
s-13.167 39.833 -24.5 55.5s-26.166 28 -44.499 37s-41.166 13.5 -68.499 13.5c-26 0 -48.333 -4.66699 -67 -14s-33.834 -22 -45.501 -38s-20.334 -34.667 -26.001 -56s-8.5 -43.666 -8.5 -66.999zM876 171.999c0 9.33301 0.334961 19.501 1.00195 30.501s3 21.167 7 30.5
s9.83301 17 17.5 23s18.5 9 32.5 9c13.333 0 23.666 -3.16699 30.999 -9.5s12.666 -14.5 15.999 -24.5s5.33301 -21.5 6 -34.5s1 -25.833 1 -38.5c0 -12 -0.166992 -24.333 -0.5 -37s-2.33301 -24.167 -6 -34.5s-9.33398 -18.833 -17.001 -25.5s-18.5 -10 -32.5 -10
c-13.333 0 -23.666 3.66699 -30.999 11s-12.833 16.666 -16.5 27.999s-6 24.333 -7 39s-1.5 29 -1.5 43zM69.002 539c0 -50 12.666 -90.668 37.999 -122.001s61.333 -47 108 -47c26 0 48.167 4.33301 66.5 13s33.333 20.5 45 35.5s20.334 33 26.001 54s8.5 43.5 8.5 67.5
s-2.5 46.667 -7.5 68s-13.167 39.833 -24.5 55.5s-26.166 28 -44.499 37s-41.166 13.5 -68.499 13.5c-26 0 -48.333 -4.66699 -67 -14s-33.834 -22 -45.501 -38s-20.334 -34.667 -26.001 -56s-8.5 -43.666 -8.5 -66.999zM159.001 555.999
c0 9.33301 0.334961 19.501 1.00195 30.501s3 21.167 7 30.5s9.83301 17 17.5 23s18.5 9 32.5 9c13.333 0 23.666 -3.16699 30.999 -9.5s12.666 -14.5 15.999 -24.5s5.33301 -21.5 6 -34.5s1 -25.833 1 -38.5c0 -12 -0.166992 -24.333 -0.5 -37s-2.33301 -24.167 -6 -34.5
s-9.33398 -18.833 -17.001 -25.5s-18.5 -10 -32.5 -10c-13.333 0 -23.666 3.66699 -30.999 11s-12.833 16.666 -16.5 27.999s-6 24.333 -7 39s-1.5 29 -1.5 43zM150.003 -22h87l412 744h-85z" />
    <glyph glyph-name="Scaron" horiz-adv-x="649" 
d="M24 237c0 -44 8.50098 -82.001 25.501 -114.001s39.5 -58.333 67.5 -79s60.333 -36 97 -46s74.667 -15 114 -15c48.667 0 91.5 5.83301 128.5 17.5s68 27.667 93 48s43.833 44.5 56.5 72.5s19 58.333 19 91c0 30 -4.83301 56.333 -14.5 79s-23.334 42 -41.001 58
s-38.834 29.5 -63.501 40.5s-51.667 20.167 -81 27.5l-120.5 31c-29.667 8 -52.334 15.833 -68.001 23.5s-25.667 15.667 -30 24s-6.5 19.166 -6.5 32.499c0 14.667 3.33301 27.167 10 37.5s15.167 18.833 25.5 25.5s21.833 11.334 34.5 14.001s25.334 4 38.001 4
c18.667 0 36.334 -1.66699 53.001 -5s31.334 -9 44.001 -17s22.834 -19 30.501 -33s12.167 -31.667 13.5 -53h152c0 41.333 -7.83301 76.5 -23.5 105.5s-36.834 52.833 -63.501 71.5s-57.167 32.167 -91.5 40.5s-70.166 12.5 -107.499 12.5c-32 0 -64 -4.33301 -96 -13
s-60.667 -22 -86 -40s-45.833 -40.5 -61.5 -67.5s-23.5 -58.833 -23.5 -95.5c0 -33.333 6.16699 -61.5 18.5 -84.5s29 -42.5 50 -58.5s45.667 -29 74 -39s58.166 -18.667 89.499 -26c36 -8.66699 66.167 -16.667 90.5 -24s44.166 -15.166 59.499 -23.499
s26.333 -17.666 33 -27.999s10 -22.833 10 -37.5c0 -18 -4.66699 -32.833 -14 -44.5s-21 -20.834 -35 -27.501s-29 -11.167 -45 -13.5s-31 -3.5 -45 -3.5c-21.333 0 -41.5 2.5 -60.5 7.5s-35.667 12.667 -50 23s-25.833 23.833 -34.5 40.5s-13 37 -13 61h-152z
M261.001 777.999h129l110 142h-111l-64 -82l-64 82h-112z" />
    <glyph glyph-name="Scaron" unicode="&#x160;" horiz-adv-x="649" 
d="M24 237c0 -44 8.50098 -82.001 25.501 -114.001s39.5 -58.333 67.5 -79s60.333 -36 97 -46s74.667 -15 114 -15c48.667 0 91.5 5.83301 128.5 17.5s68 27.667 93 48s43.833 44.5 56.5 72.5s19 58.333 19 91c0 30 -4.83301 56.333 -14.5 79s-23.334 42 -41.001 58
s-38.834 29.5 -63.501 40.5s-51.667 20.167 -81 27.5l-120.5 31c-29.667 8 -52.334 15.833 -68.001 23.5s-25.667 15.667 -30 24s-6.5 19.166 -6.5 32.499c0 14.667 3.33301 27.167 10 37.5s15.167 18.833 25.5 25.5s21.833 11.334 34.5 14.001s25.334 4 38.001 4
c18.667 0 36.334 -1.66699 53.001 -5s31.334 -9 44.001 -17s22.834 -19 30.501 -33s12.167 -31.667 13.5 -53h152c0 41.333 -7.83301 76.5 -23.5 105.5s-36.834 52.833 -63.501 71.5s-57.167 32.167 -91.5 40.5s-70.166 12.5 -107.499 12.5c-32 0 -64 -4.33301 -96 -13
s-60.667 -22 -86 -40s-45.833 -40.5 -61.5 -67.5s-23.5 -58.833 -23.5 -95.5c0 -33.333 6.16699 -61.5 18.5 -84.5s29 -42.5 50 -58.5s45.667 -29 74 -39s58.166 -18.667 89.499 -26c36 -8.66699 66.167 -16.667 90.5 -24s44.166 -15.166 59.499 -23.499
s26.333 -17.666 33 -27.999s10 -22.833 10 -37.5c0 -18 -4.66699 -32.833 -14 -44.5s-21 -20.834 -35 -27.501s-29 -11.167 -45 -13.5s-31 -3.5 -45 -3.5c-21.333 0 -41.5 2.5 -60.5 7.5s-35.667 12.667 -50 23s-25.833 23.833 -34.5 40.5s-13 37 -13 61h-152z
M261.001 777.999h129l110 142h-111l-64 -82l-64 82h-112z" />
    <glyph glyph-name="guilsinglleft" horiz-adv-x="241" 
d="M199 80v120l-90 72l90 71v120l-157 -123v-135z" />
    <glyph glyph-name="guilsinglleft" unicode="&#x2039;" horiz-adv-x="241" 
d="M199 80v120l-90 72l90 71v120l-157 -123v-135z" />
    <glyph glyph-name="Sacute" horiz-adv-x="649" 
d="M24 237c0 -44 8.50098 -82.001 25.501 -114.001s39.5 -58.333 67.5 -79s60.333 -36 97 -46s74.667 -15 114 -15c48.667 0 91.5 5.83301 128.5 17.5s68 27.667 93 48s43.833 44.5 56.5 72.5s19 58.333 19 91c0 30 -4.83301 56.333 -14.5 79s-23.334 42 -41.001 58
s-38.834 29.5 -63.501 40.5s-51.667 20.167 -81 27.5l-120.5 31c-29.667 8 -52.334 15.833 -68.001 23.5s-25.667 15.667 -30 24s-6.5 19.166 -6.5 32.499c0 14.667 3.33301 27.167 10 37.5s15.167 18.833 25.5 25.5s21.833 11.334 34.5 14.001s25.334 4 38.001 4
c18.667 0 36.334 -1.66699 53.001 -5s31.334 -9 44.001 -17s22.834 -19 30.501 -33s12.167 -31.667 13.5 -53h152c0 41.333 -7.83301 76.5 -23.5 105.5s-36.834 52.833 -63.501 71.5s-57.167 32.167 -91.5 40.5s-70.166 12.5 -107.499 12.5c-32 0 -64 -4.33301 -96 -13
s-60.667 -22 -86 -40s-45.833 -40.5 -61.5 -67.5s-23.5 -58.833 -23.5 -95.5c0 -33.333 6.16699 -61.5 18.5 -84.5s29 -42.5 50 -58.5s45.667 -29 74 -39s58.166 -18.667 89.499 -26c36 -8.66699 66.167 -16.667 90.5 -24s44.166 -15.166 59.499 -23.499
s26.333 -17.666 33 -27.999s10 -22.833 10 -37.5c0 -18 -4.66699 -32.833 -14 -44.5s-21 -20.834 -35 -27.501s-29 -11.167 -45 -13.5s-31 -3.5 -45 -3.5c-21.333 0 -41.5 2.5 -60.5 7.5s-35.667 12.667 -50 23s-25.833 23.833 -34.5 40.5s-13 37 -13 61h-152z
M249.001 777.999h99l154 142h-157z" />
    <glyph glyph-name="Sacute" unicode="&#x15a;" horiz-adv-x="649" 
d="M24 237c0 -44 8.50098 -82.001 25.501 -114.001s39.5 -58.333 67.5 -79s60.333 -36 97 -46s74.667 -15 114 -15c48.667 0 91.5 5.83301 128.5 17.5s68 27.667 93 48s43.833 44.5 56.5 72.5s19 58.333 19 91c0 30 -4.83301 56.333 -14.5 79s-23.334 42 -41.001 58
s-38.834 29.5 -63.501 40.5s-51.667 20.167 -81 27.5l-120.5 31c-29.667 8 -52.334 15.833 -68.001 23.5s-25.667 15.667 -30 24s-6.5 19.166 -6.5 32.499c0 14.667 3.33301 27.167 10 37.5s15.167 18.833 25.5 25.5s21.833 11.334 34.5 14.001s25.334 4 38.001 4
c18.667 0 36.334 -1.66699 53.001 -5s31.334 -9 44.001 -17s22.834 -19 30.501 -33s12.167 -31.667 13.5 -53h152c0 41.333 -7.83301 76.5 -23.5 105.5s-36.834 52.833 -63.501 71.5s-57.167 32.167 -91.5 40.5s-70.166 12.5 -107.499 12.5c-32 0 -64 -4.33301 -96 -13
s-60.667 -22 -86 -40s-45.833 -40.5 -61.5 -67.5s-23.5 -58.833 -23.5 -95.5c0 -33.333 6.16699 -61.5 18.5 -84.5s29 -42.5 50 -58.5s45.667 -29 74 -39s58.166 -18.667 89.499 -26c36 -8.66699 66.167 -16.667 90.5 -24s44.166 -15.166 59.499 -23.499
s26.333 -17.666 33 -27.999s10 -22.833 10 -37.5c0 -18 -4.66699 -32.833 -14 -44.5s-21 -20.834 -35 -27.501s-29 -11.167 -45 -13.5s-31 -3.5 -45 -3.5c-21.333 0 -41.5 2.5 -60.5 7.5s-35.667 12.667 -50 23s-25.833 23.833 -34.5 40.5s-13 37 -13 61h-152z
M249.001 777.999h99l154 142h-157z" />
    <glyph glyph-name="Tcaron" horiz-adv-x="611" 
d="M227 0h157v582h214v132h-585v-132h214v-582zM242 778h129l110 142h-111l-64 -82l-64 82h-112z" />
    <glyph glyph-name="Tcaron" unicode="&#x164;" horiz-adv-x="611" 
d="M227 0h157v582h214v132h-585v-132h214v-582zM242 778h129l110 142h-111l-64 -82l-64 82h-112z" />
    <glyph glyph-name="Zcaron" horiz-adv-x="648" 
d="M23 0h602v132h-393l383 458v124h-562v-132h353l-383 -458v-124zM261 778h129l110 142h-111l-64 -82l-64 82h-112z" />
    <glyph glyph-name="Zcaron" unicode="&#x17d;" horiz-adv-x="648" 
d="M23 0h602v132h-393l383 458v124h-562v-132h353l-383 -458v-124zM261 778h129l110 142h-111l-64 -82l-64 82h-112z" />
    <glyph glyph-name="Zacute" horiz-adv-x="648" 
d="M23 0h602v132h-393l383 458v124h-562v-132h353l-383 -458v-124zM249 778h99l154 142h-157z" />
    <glyph glyph-name="Zacute" unicode="&#x179;" horiz-adv-x="648" 
d="M23 0h602v132h-393l383 458v124h-562v-132h353l-383 -458v-124zM249 778h99l154 142h-157z" />
    <glyph glyph-name="quoteleft" horiz-adv-x="278" 
d="M210 547l-65.9971 0.00195312c0 24.667 4.66699 45.5 14 62.5s26.666 29.833 51.999 38.5v66c-20.667 -2.66699 -39.834 -8.83398 -57.501 -18.501s-32.834 -21.834 -45.501 -36.501s-22.5 -31.667 -29.5 -51s-10.167 -40 -9.5 -62v-153h142v154z" />
    <glyph glyph-name="quoteleft" unicode="&#x2018;" horiz-adv-x="278" 
d="M210 547l-65.9971 0.00195312c0 24.667 4.66699 45.5 14 62.5s26.666 29.833 51.999 38.5v66c-20.667 -2.66699 -39.834 -8.83398 -57.501 -18.501s-32.834 -21.834 -45.501 -36.501s-22.5 -31.667 -29.5 -51s-10.167 -40 -9.5 -62v-153h142v154z" />
    <glyph glyph-name="quoteright" horiz-adv-x="278" 
d="M68 560l65.9971 -0.00195312c0 -24.667 -4.66699 -45.5 -14 -62.5s-26.666 -29.833 -51.999 -38.5v-66c20.667 2.66699 39.834 8.83398 57.501 18.501s32.834 21.834 45.501 36.501s22.5 31.667 29.5 51s10.167 40 9.5 62v153h-142v-154z" />
    <glyph glyph-name="quoteright" unicode="&#x2019;" horiz-adv-x="278" 
d="M68 560l65.9971 -0.00195312c0 -24.667 -4.66699 -45.5 -14 -62.5s-26.666 -29.833 -51.999 -38.5v-66c20.667 2.66699 39.834 8.83398 57.501 18.501s32.834 21.834 45.501 36.501s22.5 31.667 29.5 51s10.167 40 9.5 62v153h-142v-154z" />
    <glyph glyph-name="quotedblleft" horiz-adv-x="463" 
d="M409 547l-65.9971 0.00195312c0 24.667 4.66699 45.5 14 62.5s26.666 29.833 51.999 38.5v66c-20.667 -2.66699 -39.834 -8.83398 -57.501 -18.501s-32.834 -21.834 -45.501 -36.501s-22.5 -31.667 -29.5 -51s-10.167 -40 -9.5 -62v-153h142v154zM196.003 547.002
l-65.9971 0.00195312c0 24.667 4.66699 45.5 14 62.5s26.666 29.833 51.999 38.5v66c-20.667 -2.66699 -39.834 -8.83398 -57.501 -18.501s-32.834 -21.834 -45.501 -36.501s-22.5 -31.667 -29.5 -51s-10.167 -40 -9.5 -62v-153h142v154z" />
    <glyph glyph-name="quotedblleft" unicode="&#x201c;" horiz-adv-x="463" 
d="M409 547l-65.9971 0.00195312c0 24.667 4.66699 45.5 14 62.5s26.666 29.833 51.999 38.5v66c-20.667 -2.66699 -39.834 -8.83398 -57.501 -18.501s-32.834 -21.834 -45.501 -36.501s-22.5 -31.667 -29.5 -51s-10.167 -40 -9.5 -62v-153h142v154zM196.003 547.002
l-65.9971 0.00195312c0 24.667 4.66699 45.5 14 62.5s26.666 29.833 51.999 38.5v66c-20.667 -2.66699 -39.834 -8.83398 -57.501 -18.501s-32.834 -21.834 -45.501 -36.501s-22.5 -31.667 -29.5 -51s-10.167 -40 -9.5 -62v-153h142v154z" />
    <glyph glyph-name="quotedblright" horiz-adv-x="463" 
d="M267 560l65.9971 -0.00195312c0 -24.667 -4.66699 -45.5 -14 -62.5s-26.666 -29.833 -51.999 -38.5v-66c20.667 2.66699 39.834 8.83398 57.501 18.501s32.834 21.834 45.501 36.501s22.5 31.667 29.5 51s10.167 40 9.5 62v153h-142v-154zM53.9971 559.998
l65.9971 -0.00195312c0 -24.667 -4.66699 -45.5 -14 -62.5s-26.666 -29.833 -51.999 -38.5v-66c20.667 2.66699 39.834 8.83398 57.501 18.501s32.834 21.834 45.501 36.501s22.5 31.667 29.5 51s10.167 40 9.5 62v153h-142v-154z" />
    <glyph glyph-name="quotedblright" unicode="&#x201d;" horiz-adv-x="463" 
d="M267 560l65.9971 -0.00195312c0 -24.667 -4.66699 -45.5 -14 -62.5s-26.666 -29.833 -51.999 -38.5v-66c20.667 2.66699 39.834 8.83398 57.501 18.501s32.834 21.834 45.501 36.501s22.5 31.667 29.5 51s10.167 40 9.5 62v153h-142v-154zM53.9971 559.998
l65.9971 -0.00195312c0 -24.667 -4.66699 -45.5 -14 -62.5s-26.666 -29.833 -51.999 -38.5v-66c20.667 2.66699 39.834 8.83398 57.501 18.501s32.834 21.834 45.501 36.501s22.5 31.667 29.5 51s10.167 40 9.5 62v153h-142v-154z" />
    <glyph glyph-name="bullet" horiz-adv-x="501" 
d="M72 357c0 -24.667 4.66699 -47.834 14 -69.501s22 -40.667 38 -57s34.833 -29.166 56.5 -38.499s44.834 -14 69.501 -14s47.834 4.66699 69.501 14s40.667 22.166 57 38.499s29.166 35.333 38.499 57s14 44.834 14 69.501s-4.66699 47.834 -14 69.501
s-22.166 40.5 -38.499 56.5s-35.333 28.667 -57 38s-44.834 14 -69.501 14s-47.834 -4.66699 -69.501 -14s-40.5 -22 -56.5 -38s-28.667 -34.833 -38 -56.5s-14 -44.834 -14 -69.501z" />
    <glyph glyph-name="bullet" unicode="&#x2022;" horiz-adv-x="501" 
d="M72 357c0 -24.667 4.66699 -47.834 14 -69.501s22 -40.667 38 -57s34.833 -29.166 56.5 -38.499s44.834 -14 69.501 -14s47.834 4.66699 69.501 14s40.667 22.166 57 38.499s29.166 35.333 38.499 57s14 44.834 14 69.501s-4.66699 47.834 -14 69.501
s-22.166 40.5 -38.499 56.5s-35.333 28.667 -57 38s-44.834 14 -69.501 14s-47.834 -4.66699 -69.501 -14s-40.5 -22 -56.5 -38s-28.667 -34.833 -38 -56.5s-14 -44.834 -14 -69.501z" />
    <glyph glyph-name="endash" horiz-adv-x="500" 
d="M0 212h500v122h-500v-122z" />
    <glyph glyph-name="endash" unicode="&#x2013;" horiz-adv-x="500" 
d="M0 212h500v122h-500v-122z" />
    <glyph glyph-name="emdash" horiz-adv-x="1000" 
d="M130 212h740v122h-740v-122z" />
    <glyph glyph-name="emdash" unicode="&#x2014;" horiz-adv-x="1000" 
d="M130 212h740v122h-740v-122z" />
    <glyph glyph-name="trademark" horiz-adv-x="1000" 
d="M928 714h-135l-103 -271l-103 271h-136v-412h96v292h2l106 -292h69l106 292h2v-292h96v412zM398 714h-336v-80h117v-332h102v332h117v80z" />
    <glyph glyph-name="trademark" unicode="&#x2122;" horiz-adv-x="1000" 
d="M928 714h-135l-103 -271l-103 271h-136v-412h96v292h2l106 -292h69l106 292h2v-292h96v412zM398 714h-336v-80h117v-332h102v332h117v80z" />
    <glyph glyph-name="scaron" horiz-adv-x="537" 
d="M29 168c1.33301 -34 9.17188 -62.665 23.5049 -85.998s32.666 -42.166 54.999 -56.499s47.833 -24.5 76.5 -30.5s58 -9 88 -9c29.333 0 58.166 3 86.499 9s53.5 16 75.5 30s39.833 32.5 53.5 55.5s20.5 51.5 20.5 85.5c0 23.333 -4.5 43.166 -13.5 59.499
s-21.667 30.333 -38 42s-36.333 21.334 -60 29.001s-49.834 14.5 -78.501 20.5c-48 9.33301 -82.5 18.666 -103.5 27.999s-31.5 23.666 -31.5 42.999c0 18.667 7.33301 31.334 22 38.001s33.667 10 57 10c25.333 0 47.333 -4.83301 66 -14.5s29 -28.167 31 -55.5h135
c-2.66699 32 -10.834 58.5 -24.501 79.5s-30.834 37.833 -51.501 50.5s-44.167 21.667 -70.5 27s-53.5 8 -81.5 8s-55.333 -2.5 -82 -7.5s-50.667 -13.667 -72 -26s-38.5 -29.333 -51.5 -51s-19.5 -48.834 -19.5 -81.501c0 -22.667 4.66699 -41.834 14 -57.501
s21.666 -28.667 36.999 -39s32.833 -18.666 52.5 -24.999s39.834 -11.833 60.501 -16.5c25.333 -5.33301 48 -10.5 68 -15.5s36.833 -10.5 50.5 -16.5s24.167 -12.833 31.5 -20.5s11 -16.834 11 -27.501c0 -12.667 -3 -23.167 -9 -31.5s-13.5 -15 -22.5 -20
s-19 -8.66699 -30 -11s-21.5 -3.5 -31.5 -3.5c-14 0 -27.5 1.66699 -40.5 5s-24.5 8.5 -34.5 15.5s-18.167 16 -24.5 27s-9.5 24.167 -9.5 39.5h-135zM205.006 581.002h129l110 142h-111l-64 -82l-64 82h-112z" />
    <glyph glyph-name="scaron" unicode="&#x161;" horiz-adv-x="537" 
d="M29 168c1.33301 -34 9.17188 -62.665 23.5049 -85.998s32.666 -42.166 54.999 -56.499s47.833 -24.5 76.5 -30.5s58 -9 88 -9c29.333 0 58.166 3 86.499 9s53.5 16 75.5 30s39.833 32.5 53.5 55.5s20.5 51.5 20.5 85.5c0 23.333 -4.5 43.166 -13.5 59.499
s-21.667 30.333 -38 42s-36.333 21.334 -60 29.001s-49.834 14.5 -78.501 20.5c-48 9.33301 -82.5 18.666 -103.5 27.999s-31.5 23.666 -31.5 42.999c0 18.667 7.33301 31.334 22 38.001s33.667 10 57 10c25.333 0 47.333 -4.83301 66 -14.5s29 -28.167 31 -55.5h135
c-2.66699 32 -10.834 58.5 -24.501 79.5s-30.834 37.833 -51.501 50.5s-44.167 21.667 -70.5 27s-53.5 8 -81.5 8s-55.333 -2.5 -82 -7.5s-50.667 -13.667 -72 -26s-38.5 -29.333 -51.5 -51s-19.5 -48.834 -19.5 -81.501c0 -22.667 4.66699 -41.834 14 -57.501
s21.666 -28.667 36.999 -39s32.833 -18.666 52.5 -24.999s39.834 -11.833 60.501 -16.5c25.333 -5.33301 48 -10.5 68 -15.5s36.833 -10.5 50.5 -16.5s24.167 -12.833 31.5 -20.5s11 -16.834 11 -27.501c0 -12.667 -3 -23.167 -9 -31.5s-13.5 -15 -22.5 -20
s-19 -8.66699 -30 -11s-21.5 -3.5 -31.5 -3.5c-14 0 -27.5 1.66699 -40.5 5s-24.5 8.5 -34.5 15.5s-18.167 16 -24.5 27s-9.5 24.167 -9.5 39.5h-135zM205.006 581.002h129l110 142h-111l-64 -82l-64 82h-112z" />
    <glyph glyph-name="guilsinglright" horiz-adv-x="241" 
d="M42 463v-120l90 -71l-90 -72v-120l157 125v135z" />
    <glyph glyph-name="guilsinglright" unicode="&#x203a;" horiz-adv-x="241" 
d="M42 463v-120l90 -71l-90 -72v-120l157 125v135z" />
    <glyph glyph-name="sacute" horiz-adv-x="537" 
d="M29 168c1.33301 -34 9.17188 -62.665 23.5049 -85.998s32.666 -42.166 54.999 -56.499s47.833 -24.5 76.5 -30.5s58 -9 88 -9c29.333 0 58.166 3 86.499 9s53.5 16 75.5 30s39.833 32.5 53.5 55.5s20.5 51.5 20.5 85.5c0 23.333 -4.5 43.166 -13.5 59.499
s-21.667 30.333 -38 42s-36.333 21.334 -60 29.001s-49.834 14.5 -78.501 20.5c-48 9.33301 -82.5 18.666 -103.5 27.999s-31.5 23.666 -31.5 42.999c0 18.667 7.33301 31.334 22 38.001s33.667 10 57 10c25.333 0 47.333 -4.83301 66 -14.5s29 -28.167 31 -55.5h135
c-2.66699 32 -10.834 58.5 -24.501 79.5s-30.834 37.833 -51.501 50.5s-44.167 21.667 -70.5 27s-53.5 8 -81.5 8s-55.333 -2.5 -82 -7.5s-50.667 -13.667 -72 -26s-38.5 -29.333 -51.5 -51s-19.5 -48.834 -19.5 -81.501c0 -22.667 4.66699 -41.834 14 -57.501
s21.666 -28.667 36.999 -39s32.833 -18.666 52.5 -24.999s39.834 -11.833 60.501 -16.5c25.333 -5.33301 48 -10.5 68 -15.5s36.833 -10.5 50.5 -16.5s24.167 -12.833 31.5 -20.5s11 -16.834 11 -27.501c0 -12.667 -3 -23.167 -9 -31.5s-13.5 -15 -22.5 -20
s-19 -8.66699 -30 -11s-21.5 -3.5 -31.5 -3.5c-14 0 -27.5 1.66699 -40.5 5s-24.5 8.5 -34.5 15.5s-18.167 16 -24.5 27s-9.5 24.167 -9.5 39.5h-135zM193.006 581.002h99l154 142h-157z" />
    <glyph glyph-name="sacute" unicode="&#x15b;" horiz-adv-x="537" 
d="M29 168c1.33301 -34 9.17188 -62.665 23.5049 -85.998s32.666 -42.166 54.999 -56.499s47.833 -24.5 76.5 -30.5s58 -9 88 -9c29.333 0 58.166 3 86.499 9s53.5 16 75.5 30s39.833 32.5 53.5 55.5s20.5 51.5 20.5 85.5c0 23.333 -4.5 43.166 -13.5 59.499
s-21.667 30.333 -38 42s-36.333 21.334 -60 29.001s-49.834 14.5 -78.501 20.5c-48 9.33301 -82.5 18.666 -103.5 27.999s-31.5 23.666 -31.5 42.999c0 18.667 7.33301 31.334 22 38.001s33.667 10 57 10c25.333 0 47.333 -4.83301 66 -14.5s29 -28.167 31 -55.5h135
c-2.66699 32 -10.834 58.5 -24.501 79.5s-30.834 37.833 -51.501 50.5s-44.167 21.667 -70.5 27s-53.5 8 -81.5 8s-55.333 -2.5 -82 -7.5s-50.667 -13.667 -72 -26s-38.5 -29.333 -51.5 -51s-19.5 -48.834 -19.5 -81.501c0 -22.667 4.66699 -41.834 14 -57.501
s21.666 -28.667 36.999 -39s32.833 -18.666 52.5 -24.999s39.834 -11.833 60.501 -16.5c25.333 -5.33301 48 -10.5 68 -15.5s36.833 -10.5 50.5 -16.5s24.167 -12.833 31.5 -20.5s11 -16.834 11 -27.501c0 -12.667 -3 -23.167 -9 -31.5s-13.5 -15 -22.5 -20
s-19 -8.66699 -30 -11s-21.5 -3.5 -31.5 -3.5c-14 0 -27.5 1.66699 -40.5 5s-24.5 8.5 -34.5 15.5s-18.167 16 -24.5 27s-9.5 24.167 -9.5 39.5h-135zM193.006 581.002h99l154 142h-157z" />
    <glyph glyph-name="tcaron" horiz-adv-x="408" 
d="M92 117c0 -26 4.33301 -47.001 13 -63.001s20.5 -28.5 35.5 -37.5s32.333 -15 52 -18s40.5 -4.5 62.5 -4.5c14 0 28.333 0.333008 43 1s28 2.33398 40 5.00098v110c-13.333 -2.66699 -28 -4 -44 -4c-24 0 -40 4 -48 12s-12 24 -12 48v256h104v95h-104v155h-142v-155h-86
v-95h86v-305zM302 672.999l56 0.000976562c-0.666992 -27.333 -5.5 -46.333 -14.5 -57s-22.833 -18.334 -41.5 -23.001v-52c24 3.33301 43.667 9.33301 59 18s27.333 19.5 36 32.5s14.667 27.667 18 44s5 33.5 5 51.5v103h-118v-117z" />
    <glyph glyph-name="tcaron" unicode="&#x165;" horiz-adv-x="408" 
d="M92 117c0 -26 4.33301 -47.001 13 -63.001s20.5 -28.5 35.5 -37.5s32.333 -15 52 -18s40.5 -4.5 62.5 -4.5c14 0 28.333 0.333008 43 1s28 2.33398 40 5.00098v110c-13.333 -2.66699 -28 -4 -44 -4c-24 0 -40 4 -48 12s-12 24 -12 48v256h104v95h-104v155h-142v-155h-86
v-95h86v-305zM302 672.999l56 0.000976562c-0.666992 -27.333 -5.5 -46.333 -14.5 -57s-22.833 -18.334 -41.5 -23.001v-52c24 3.33301 43.667 9.33301 59 18s27.333 19.5 36 32.5s14.667 27.667 18 44s5 33.5 5 51.5v103h-118v-117z" />
    <glyph glyph-name="zcaron" horiz-adv-x="519" 
d="M22 0h475v107h-288l269 303v107h-436v-107h249l-269 -303v-107zM196 581h129l110 142h-111l-64 -82l-64 82h-112z" />
    <glyph glyph-name="zcaron" unicode="&#x17e;" horiz-adv-x="519" 
d="M22 0h475v107h-288l269 303v107h-436v-107h249l-269 -303v-107zM196 581h129l110 142h-111l-64 -82l-64 82h-112z" />
    <glyph glyph-name="zacute" horiz-adv-x="519" 
d="M22 0h475v107h-288l269 303v107h-436v-107h249l-269 -303v-107zM184 581h99l154 142h-157z" />
    <glyph glyph-name="zacute" unicode="&#x17a;" horiz-adv-x="519" 
d="M22 0h475v107h-288l269 303v107h-436v-107h249l-269 -303v-107zM184 581h99l154 142h-157z" />
    <glyph glyph-name="caron" unicode="&#xa1;" horiz-adv-x="259" 
d="M305 723h-110l-65 -81l-64 81h-112l111 -142h130z" />
    <glyph glyph-name="caron" unicode="&#x2c7;" horiz-adv-x="259" 
d="M305 723h-110l-65 -81l-64 81h-112l111 -142h130z" />
    <glyph glyph-name="breve" unicode="&#xa2;" horiz-adv-x="259" 
d="M-39 727c4 -48 19.5029 -84.3301 46.5029 -108.997s64.5 -37 112.5 -37c49.333 0 89.666 11.5 120.999 34.5s50.333 60.167 57 111.5h-63c-6 -25.333 -18.333 -43.5 -37 -54.5s-43 -16.5 -73 -16.5c-10 0 -20.333 1.16699 -31 3.5s-20.834 6.16602 -30.501 11.499
s-17.834 12.666 -24.501 21.999s-11 20.666 -13 33.999h-65z" />
    <glyph glyph-name="breve" unicode="&#x2d8;" horiz-adv-x="259" 
d="M-39 727c4 -48 19.5029 -84.3301 46.5029 -108.997s64.5 -37 112.5 -37c49.333 0 89.666 11.5 120.999 34.5s50.333 60.167 57 111.5h-63c-6 -25.333 -18.333 -43.5 -37 -54.5s-43 -16.5 -73 -16.5c-10 0 -20.333 1.16699 -31 3.5s-20.834 6.16602 -30.501 11.499
s-17.834 12.666 -24.501 21.999s-11 20.666 -13 33.999h-65z" />
    <glyph glyph-name="Lslash" unicode="&#xa3;" horiz-adv-x="593" 
d="M69 0h505v132h-348v192l211 148v112l-211 -148v278h-157v-388l-80 -56v-112l80 56v-214z" />
    <glyph glyph-name="Lslash" unicode="&#x141;" horiz-adv-x="593" 
d="M69 0h505v132h-348v192l211 148v112l-211 -148v278h-157v-388l-80 -56v-112l80 56v-214z" />
    <glyph glyph-name="currency" unicode="&#xa4;" horiz-adv-x="556" 
d="M20 149l56.0039 -55.998l56 58c17.333 -16 38.833 -28.167 64.5 -36.5s53.167 -12.5 82.5 -12.5c28 0 54.667 4.33301 80 13s46.333 21 63 37l57 -58l55 55l-55 56c15.333 18.667 26.833 40.667 34.5 66s11.5 52 11.5 80s-3.83301 54.833 -11.5 80.5
s-18.834 46.5 -33.501 62.5l56 55l-61 61l-58 -57c-15.333 13.333 -35.333 24.166 -60 32.499s-50.334 12.5 -77.001 12.5c-28 0 -55.167 -4.16699 -81.5 -12.5s-47.833 -19.5 -64.5 -33.5l-57 56l-57 -57l57 -58c-16.667 -16.667 -28.834 -37.834 -36.501 -63.501
s-11.5 -52.5 -11.5 -80.5s4.16699 -54.167 12.5 -78.5s20.166 -45.5 35.499 -63.5zM280.004 491.002c20 0 37.668 -4 53.001 -12s28 -18.5 38 -31.5s17.5 -28 22.5 -45s7.5 -34.167 7.5 -51.5c0 -18 -2.5 -35.5 -7.5 -52.5s-12.5 -32.167 -22.5 -45.5s-22.667 -24 -38 -32
s-33.333 -12 -54 -12s-38.834 3.83301 -54.501 11.5s-28.834 18 -39.501 31s-18.667 28 -24 45s-8 34.5 -8 52.5c0 18.667 2.66699 36.5 8 53.5s13.333 32 24 45s23.834 23.5 39.501 31.5s34.167 12 55.5 12z" />
    <glyph glyph-name="Aogonek" unicode="&#xa5;" horiz-adv-x="685" 
d="M342 538h2l90 -262h-185zM-7 0l159.001 0.00195312l56 159h267l54 -159h49c-26.667 -16 -47.334 -30.833 -62.001 -44.5s-25.5 -26 -32.5 -37s-11.167 -20.333 -12.5 -28s-2 -13.834 -2 -18.501c0 -21.333 4.33301 -38 13 -50s19 -21 31 -27s24 -9.66699 36 -11
s21 -2 27 -2c22.667 0 45.667 5 69 15s45 27.667 65 53l-48 22c-9.33301 -12.667 -18.666 -20.834 -27.999 -24.501s-19.333 -5.5 -30 -5.5c-10 0 -19 3.16699 -27 9.5s-12 14.5 -12 24.5c0 8 1.33301 16.333 4 25s7 18 13 28s14.167 20.833 24.5 32.5
s23.166 24.5 38.499 38.5h47l-267 714h-161z" />
    <glyph glyph-name="Aogonek" unicode="&#x104;" horiz-adv-x="685" 
d="M342 538h2l90 -262h-185zM-7 0l159.001 0.00195312l56 159h267l54 -159h49c-26.667 -16 -47.334 -30.833 -62.001 -44.5s-25.5 -26 -32.5 -37s-11.167 -20.333 -12.5 -28s-2 -13.834 -2 -18.501c0 -21.333 4.33301 -38 13 -50s19 -21 31 -27s24 -9.66699 36 -11
s21 -2 27 -2c22.667 0 45.667 5 69 15s45 27.667 65 53l-48 22c-9.33301 -12.667 -18.666 -20.834 -27.999 -24.501s-19.333 -5.5 -30 -5.5c-10 0 -19 3.16699 -27 9.5s-12 14.5 -12 24.5c0 8 1.33301 16.333 4 25s7 18 13 28s14.167 20.833 24.5 32.5
s23.166 24.5 38.499 38.5h47l-267 714h-161z" />
    <glyph glyph-name="brokenbar" unicode="&#xa6;" horiz-adv-x="223" 
d="M58 -89h107v250h-107v-250zM165 661h-107v-250h107v250z" />
    <glyph glyph-name="section" unicode="&#xa7;" horiz-adv-x="556" 
d="M377 287c12 -6.66699 22.5029 -14.999 31.5029 -24.999s13.5 -22.667 13.5 -38c0 -5.33301 -1.16699 -11.333 -3.5 -18s-5.5 -12.667 -9.5 -18s-8.83301 -9.83301 -14.5 -13.5s-11.834 -5.5 -18.501 -5.5c-6 0 -11.667 0.833008 -17 2.5s-9.66602 3.16699 -12.999 4.5
l-180 98c-11.333 6 -19.5 13.333 -24.5 22s-7.5 17.667 -7.5 27c0 7.33301 1.33301 14.833 4 22.5s6.16699 14.667 10.5 21s9.66602 11.666 15.999 15.999s13.166 6.83301 20.499 7.5c5.33301 0.666992 10.166 -0.333008 14.499 -3s8.5 -5 12.5 -7zM494.003 538.001
c0 30.667 -5.49805 58.0039 -16.498 82.0039s-26 44.333 -45 61s-41.333 29.167 -67 37.5s-53.167 12.5 -82.5 12.5c-25.333 0 -50.5 -3.66699 -75.5 -11s-47.333 -18.333 -67 -33s-35.667 -32.834 -48 -54.501s-18.5 -46.5 -18.5 -74.5
c0 -21.333 3.66699 -39.666 11 -54.999s18 -30.666 32 -45.999c-34 -12 -60.333 -30.333 -79 -55s-28 -55 -28 -91c0 -24.667 5 -46.5 15 -65.5s23.333 -36 40 -51s35.334 -28.5 56.001 -40.5s42 -23 64 -33l63.5 -29c20.333 -9.33301 38.5 -19 54.5 -29
s28.667 -20.833 38 -32.5s14 -24.834 14 -39.501c0 -22 -7.16699 -38.5 -21.5 -49.5s-31.833 -16.5 -52.5 -16.5c-30 0 -53.5 7.16699 -70.5 21.5s-26.167 36.166 -27.5 65.499h-124c0 -34 5.66699 -63.167 17 -87.5s27.166 -44.5 47.499 -60.5s44.166 -27.667 71.499 -35
s57 -11 89 -11c25.333 0 50.666 3.5 75.999 10.5s48.166 17.5 68.499 31.5s36.833 31.5 49.5 52.5s19 45.5 19 73.5c0 24 -4.33301 46 -13 66s-22.667 37.333 -42 52c31.333 11.333 56.5 30.166 75.5 56.499s28.5 56.166 28.5 89.499c0 24 -4.83301 45.167 -14.5 63.5
s-22.167 34.666 -37.5 48.999s-33.166 27.333 -53.499 39s-40.833 22.5 -61.5 32.5l-61.5 28.5c-20.333 9 -38.5 18.5 -54.5 28.5s-29 20.5 -39 31.5s-15 23.5 -15 37.5c0 20 8.16699 35.667 24.5 47s33.5 17 51.5 17c26.667 0 47.5 -8.16699 62.5 -24.5
s22.5 -36.833 22.5 -61.5h124z" />
    <glyph glyph-name="dieresis" unicode="&#xa8;" horiz-adv-x="259" 
d="M165 597h135v117h-135v-117zM-41 597h135v117h-135v-117z" />
    <glyph glyph-name="copyright" unicode="&#xa9;" horiz-adv-x="800" 
d="M16 357c0 -56.667 10.5 -108 31.5 -154s49.167 -85.333 84.5 -118s76.166 -57.834 122.499 -75.501s94.833 -26.5 145.5 -26.5s99.167 8.83301 145.5 26.5s87.166 42.834 122.499 75.501s63.5 72 84.5 118s31.5 97.333 31.5 154s-10.5 108.167 -31.5 154.5
s-49.167 85.666 -84.5 117.999s-76.166 57.333 -122.499 75s-94.833 26.5 -145.5 26.5s-99.167 -8.83301 -145.5 -26.5s-87.166 -42.667 -122.499 -75s-63.5 -71.666 -84.5 -117.999s-31.5 -97.833 -31.5 -154.5zM118 357c0 42.667 7.33301 82 22 118s34.667 67 60 93
s55.166 46.333 89.499 61s71.166 22 110.499 22c38.667 0 75.167 -7.33301 109.5 -22s64.166 -35 89.499 -61s45.5 -57 60.5 -93s22.5 -75.333 22.5 -118s-7.5 -82 -22.5 -118s-35.167 -67 -60.5 -93s-55.166 -46.333 -89.499 -61s-70.833 -22 -109.5 -22
c-39.333 0 -76.166 7.33301 -110.499 22s-64.166 35 -89.499 61s-45.333 57 -60 93s-22 75.333 -22 118zM515 295c-3.33301 -24 -14 -42.999 -32 -56.999s-41 -21 -69 -21c-18 0 -34.333 3.83301 -49 11.5s-27.167 18 -37.5 31s-18.333 28.333 -24 46s-8.5 36.167 -8.5 55.5
c0 41.333 10 75.333 30 102s49 40 87 40c26 0 48.333 -6.66699 67 -20s30.667 -31.666 36 -54.999h78c-3.33301 25.333 -10.333 47.666 -21 66.999s-24 35.5 -40 48.5s-34.333 22.833 -55 29.5s-42.334 10 -65.001 10c-33.333 0 -63.166 -5.66699 -89.499 -17
s-48.666 -27 -66.999 -47s-32.333 -43.667 -42 -71s-14.5 -57 -14.5 -89c0 -31.333 5.16699 -60.5 15.5 -87.5s24.833 -50.5 43.5 -70.5s41.167 -35.667 67.5 -47s55.833 -17 88.5 -17c22 0 43.167 3.5 63.5 10.5s38.666 17.333 54.999 31s30 30.167 41 49.5
s18.5 41.666 22.5 66.999h-81z" />
    <glyph glyph-name="Scedilla" unicode="&#xaa;" horiz-adv-x="649" 
d="M24 237c-0.666992 -40.667 6.16602 -76.167 20.499 -106.5s33.833 -55.833 58.5 -76.5s53.334 -36.667 86.001 -48s67 -18.333 103 -21l-47 -68l21 -24c12.667 4.66699 26 7 40 7c11.333 0 20.833 -2.16699 28.5 -6.5s11.5 -12.833 11.5 -25.5
c0 -12 -3.66699 -20.667 -11 -26s-17 -8 -29 -8c-17.333 0 -33 1.83301 -47 5.5s-26.333 7.83398 -37 12.501l-21 -48c9.33301 -3.33301 18.166 -6.33301 26.499 -9s17 -5 26 -7s19.167 -3.5 30.5 -4.5s25 -1.5 41 -1.5c14.667 0 29 1.5 43 4.5s26.5 8.33301 37.5 16
s19.833 18 26.5 31s10 29.167 10 48.5c0 12 -2.66699 22.5 -8 31.5s-12.333 16.333 -21 22s-18.5 9.83398 -29.5 12.501s-22.167 4 -33.5 4c-16 0 -27.333 -1.66699 -34 -5h-2l26 37c46.667 0.666992 87.667 7 123 19s65 28.167 89 48.5s42.167 44.166 54.5 71.499
s18.5 57 18.5 89c0 26.667 -4 50.167 -12 70.5s-18.5 37.833 -31.5 52.5s-27.333 27 -43 37s-31.334 18.167 -47.001 24.5s-30.5 11.333 -44.5 15s-25.333 6.5 -34 8.5c-44.667 11.333 -80.834 20.833 -108.501 28.5s-49.334 15 -65.001 22s-26.167 14.833 -31.5 23.5
s-8 20 -8 34c0 14.667 3.33301 27.167 10 37.5s15.167 18.833 25.5 25.5s21.833 11.334 34.5 14.001s25.334 4 38.001 4c18.667 0 36.334 -1.66699 53.001 -5s31.334 -9 44.001 -17s22.834 -19 30.501 -33s12.167 -31.667 13.5 -53h152c0 41.333 -7.83301 76.5 -23.5 105.5
s-36.834 52.833 -63.501 71.5s-57.167 32.167 -91.5 40.5s-70.166 12.5 -107.499 12.5c-32 0 -64 -4.33301 -96 -13s-60.667 -22 -86 -40s-45.833 -40.5 -61.5 -67.5s-23.5 -58.833 -23.5 -95.5c0 -33.333 6.16699 -61.333 18.5 -84s28.5 -41.667 48.5 -57
s42.667 -27.833 68 -37.5s51.333 -17.834 78 -24.501c26 -7.33301 51.667 -13.833 77 -19.5s48 -12.667 68 -21s36.167 -18.5 48.5 -30.5s18.5 -27.667 18.5 -47c0 -18 -4.66699 -32.833 -14 -44.5s-21 -20.834 -35 -27.501s-29 -11.167 -45 -13.5s-31 -3.5 -45 -3.5
c-21.333 0 -41.5 2.5 -60.5 7.5s-35.667 12.667 -50 23s-25.833 23.833 -34.5 40.5s-13 37 -13 61h-152z" />
    <glyph glyph-name="Scedilla" unicode="&#xf6c1;" horiz-adv-x="649" 
d="M24 237c-0.666992 -40.667 6.16602 -76.167 20.499 -106.5s33.833 -55.833 58.5 -76.5s53.334 -36.667 86.001 -48s67 -18.333 103 -21l-47 -68l21 -24c12.667 4.66699 26 7 40 7c11.333 0 20.833 -2.16699 28.5 -6.5s11.5 -12.833 11.5 -25.5
c0 -12 -3.66699 -20.667 -11 -26s-17 -8 -29 -8c-17.333 0 -33 1.83301 -47 5.5s-26.333 7.83398 -37 12.501l-21 -48c9.33301 -3.33301 18.166 -6.33301 26.499 -9s17 -5 26 -7s19.167 -3.5 30.5 -4.5s25 -1.5 41 -1.5c14.667 0 29 1.5 43 4.5s26.5 8.33301 37.5 16
s19.833 18 26.5 31s10 29.167 10 48.5c0 12 -2.66699 22.5 -8 31.5s-12.333 16.333 -21 22s-18.5 9.83398 -29.5 12.501s-22.167 4 -33.5 4c-16 0 -27.333 -1.66699 -34 -5h-2l26 37c46.667 0.666992 87.667 7 123 19s65 28.167 89 48.5s42.167 44.166 54.5 71.499
s18.5 57 18.5 89c0 26.667 -4 50.167 -12 70.5s-18.5 37.833 -31.5 52.5s-27.333 27 -43 37s-31.334 18.167 -47.001 24.5s-30.5 11.333 -44.5 15s-25.333 6.5 -34 8.5c-44.667 11.333 -80.834 20.833 -108.501 28.5s-49.334 15 -65.001 22s-26.167 14.833 -31.5 23.5
s-8 20 -8 34c0 14.667 3.33301 27.167 10 37.5s15.167 18.833 25.5 25.5s21.833 11.334 34.5 14.001s25.334 4 38.001 4c18.667 0 36.334 -1.66699 53.001 -5s31.334 -9 44.001 -17s22.834 -19 30.501 -33s12.167 -31.667 13.5 -53h152c0 41.333 -7.83301 76.5 -23.5 105.5
s-36.834 52.833 -63.501 71.5s-57.167 32.167 -91.5 40.5s-70.166 12.5 -107.499 12.5c-32 0 -64 -4.33301 -96 -13s-60.667 -22 -86 -40s-45.833 -40.5 -61.5 -67.5s-23.5 -58.833 -23.5 -95.5c0 -33.333 6.16699 -61.333 18.5 -84s28.5 -41.667 48.5 -57
s42.667 -27.833 68 -37.5s51.333 -17.834 78 -24.501c26 -7.33301 51.667 -13.833 77 -19.5s48 -12.667 68 -21s36.167 -18.5 48.5 -30.5s18.5 -27.667 18.5 -47c0 -18 -4.66699 -32.833 -14 -44.5s-21 -20.834 -35 -27.501s-29 -11.167 -45 -13.5s-31 -3.5 -45 -3.5
c-21.333 0 -41.5 2.5 -60.5 7.5s-35.667 12.667 -50 23s-25.833 23.833 -34.5 40.5s-13 37 -13 61h-152z" />
    <glyph glyph-name="Scedilla" unicode="&#x15e;" horiz-adv-x="649" 
d="M24 237c-0.666992 -40.667 6.16602 -76.167 20.499 -106.5s33.833 -55.833 58.5 -76.5s53.334 -36.667 86.001 -48s67 -18.333 103 -21l-47 -68l21 -24c12.667 4.66699 26 7 40 7c11.333 0 20.833 -2.16699 28.5 -6.5s11.5 -12.833 11.5 -25.5
c0 -12 -3.66699 -20.667 -11 -26s-17 -8 -29 -8c-17.333 0 -33 1.83301 -47 5.5s-26.333 7.83398 -37 12.501l-21 -48c9.33301 -3.33301 18.166 -6.33301 26.499 -9s17 -5 26 -7s19.167 -3.5 30.5 -4.5s25 -1.5 41 -1.5c14.667 0 29 1.5 43 4.5s26.5 8.33301 37.5 16
s19.833 18 26.5 31s10 29.167 10 48.5c0 12 -2.66699 22.5 -8 31.5s-12.333 16.333 -21 22s-18.5 9.83398 -29.5 12.501s-22.167 4 -33.5 4c-16 0 -27.333 -1.66699 -34 -5h-2l26 37c46.667 0.666992 87.667 7 123 19s65 28.167 89 48.5s42.167 44.166 54.5 71.499
s18.5 57 18.5 89c0 26.667 -4 50.167 -12 70.5s-18.5 37.833 -31.5 52.5s-27.333 27 -43 37s-31.334 18.167 -47.001 24.5s-30.5 11.333 -44.5 15s-25.333 6.5 -34 8.5c-44.667 11.333 -80.834 20.833 -108.501 28.5s-49.334 15 -65.001 22s-26.167 14.833 -31.5 23.5
s-8 20 -8 34c0 14.667 3.33301 27.167 10 37.5s15.167 18.833 25.5 25.5s21.833 11.334 34.5 14.001s25.334 4 38.001 4c18.667 0 36.334 -1.66699 53.001 -5s31.334 -9 44.001 -17s22.834 -19 30.501 -33s12.167 -31.667 13.5 -53h152c0 41.333 -7.83301 76.5 -23.5 105.5
s-36.834 52.833 -63.501 71.5s-57.167 32.167 -91.5 40.5s-70.166 12.5 -107.499 12.5c-32 0 -64 -4.33301 -96 -13s-60.667 -22 -86 -40s-45.833 -40.5 -61.5 -67.5s-23.5 -58.833 -23.5 -95.5c0 -33.333 6.16699 -61.333 18.5 -84s28.5 -41.667 48.5 -57
s42.667 -27.833 68 -37.5s51.333 -17.834 78 -24.501c26 -7.33301 51.667 -13.833 77 -19.5s48 -12.667 68 -21s36.167 -18.5 48.5 -30.5s18.5 -27.667 18.5 -47c0 -18 -4.66699 -32.833 -14 -44.5s-21 -20.834 -35 -27.501s-29 -11.167 -45 -13.5s-31 -3.5 -45 -3.5
c-21.333 0 -41.5 2.5 -60.5 7.5s-35.667 12.667 -50 23s-25.833 23.833 -34.5 40.5s-13 37 -13 61h-152z" />
    <glyph glyph-name="guillemotleft" unicode="&#xab;" horiz-adv-x="444" 
d="M402 80v120l-90 72l90 71v120l-157 -123v-135zM199 80v120l-90 72l90 71v120l-157 -123v-135z" />
    <glyph glyph-name="registered" unicode="&#xae;" horiz-adv-x="800" 
d="M208 545c0 -28.667 5.33301 -54.5 16 -77.5s24.834 -42.667 42.501 -59s38 -29 61 -38s47.167 -13.5 72.5 -13.5s49.666 4.5 72.999 13.5s43.833 21.667 61.5 38s31.667 36 42 59s15.5 48.833 15.5 77.5c0 28 -5.16699 53.5 -15.5 76.5s-24.333 42.667 -42 59
s-38.167 28.833 -61.5 37.5s-47.666 13 -72.999 13s-49.5 -4.33301 -72.5 -13s-43.333 -21.167 -61 -37.5s-31.834 -36 -42.501 -59s-16 -48.5 -16 -76.5zM259 545c0 21.333 3.66699 40.833 11 58.5s17.333 33 30 46s27.667 23.167 45 30.5s35.666 11 54.999 11
s37.666 -3.66699 54.999 -11s32.333 -17.5 45 -30.5s22.667 -28.333 30 -46s11 -37.167 11 -58.5s-3.66699 -41.166 -11 -59.499s-17.333 -34 -30 -47s-27.667 -23.167 -45 -30.5s-35.666 -11 -54.999 -11s-37.666 3.66699 -54.999 11s-32.333 17.5 -45 30.5
s-22.667 28.667 -30 47s-11 38.166 -11 59.499zM326 440l41 0.00195312v90h26l51 -90h44l-56 92c15.333 1.33301 28.333 6.16602 39 14.499s16 22.166 16 41.499c0 22.667 -7.16699 38.667 -21.5 48s-34.5 14 -60.5 14h-79v-210zM367 617.002h35
c9.33301 0 18.833 -1.5 28.5 -4.5s14.5 -10.167 14.5 -21.5c0 -12.667 -3.83301 -20.667 -11.5 -24s-17.5 -5 -29.5 -5h-37v55z" />
    <glyph glyph-name="Zdotaccent" unicode="&#xaf;" horiz-adv-x="648" 
d="M23 0h602v132h-393l383 458v124h-562v-132h353l-383 -458v-124zM257 794h135v117h-135v-117z" />
    <glyph glyph-name="Zdotaccent" unicode="&#x17b;" horiz-adv-x="648" 
d="M23 0h602v132h-393l383 458v124h-562v-132h353l-383 -458v-124zM257 794h135v117h-135v-117z" />
    <glyph glyph-name="degree" unicode="&#xb0;" horiz-adv-x="400" 
d="M52 566c0 -20.667 3.83301 -40 11.5 -58s18.167 -33.667 31.5 -47s29 -23.833 47 -31.5s37.333 -11.5 58 -11.5s40 3.83301 58 11.5s33.667 18.167 47 31.5s23.833 29 31.5 47s11.5 37.333 11.5 58s-3.83301 40 -11.5 58s-18.167 33.667 -31.5 47s-29 23.833 -47 31.5
s-37.333 11.5 -58 11.5s-40 -3.83301 -58 -11.5s-33.667 -18.167 -47 -31.5s-23.833 -29 -31.5 -47s-11.5 -37.333 -11.5 -58zM117 566c0 12 2.33301 23.333 7 34s10.834 20 18.501 28s16.5 14.333 26.5 19s20.333 7 31 7s21 -2.33301 31 -7s18.833 -11 26.5 -19
s13.834 -17.333 18.501 -28s7 -22 7 -34s-2.33301 -23.333 -7 -34s-10.834 -20 -18.501 -28s-16.5 -14.333 -26.5 -19s-20.333 -7 -31 -7s-21 2.33301 -31 7s-18.833 11 -26.5 19s-13.834 17.333 -18.501 28s-7 22 -7 34z" />
    <glyph glyph-name="plusminus" unicode="&#xb1;" horiz-adv-x="600" 
d="M354 506h-107v-131h-199v-107h199v-131h107v131h199v107h-199v131zM48 0h505v107h-505v-107z" />
    <glyph glyph-name="ogonek" unicode="&#xb2;" horiz-adv-x="259" 
d="M202 -128c-9.33301 -12.667 -18.6689 -20.833 -28.002 -24.5s-19.333 -5.5 -30 -5.5c-10 0 -19 3.16699 -27 9.5s-12 14.5 -12 24.5c0 17.333 5.83301 35.5 17.5 54.5s33.5 43.167 65.5 72.5h-65c-28 -16.667 -49.667 -32 -65 -46s-26.666 -26.5 -33.999 -37.5
s-11.666 -20.5 -12.999 -28.5s-2 -14.333 -2 -19c0 -21.333 4.33301 -38 13 -50s19 -21 31 -27s24 -9.66699 36 -11s21 -2 27 -2c22.667 0 45.667 5 69 15s45 27.667 65 53z" />
    <glyph glyph-name="ogonek" unicode="&#x2db;" horiz-adv-x="259" 
d="M202 -128c-9.33301 -12.667 -18.6689 -20.833 -28.002 -24.5s-19.333 -5.5 -30 -5.5c-10 0 -19 3.16699 -27 9.5s-12 14.5 -12 24.5c0 17.333 5.83301 35.5 17.5 54.5s33.5 43.167 65.5 72.5h-65c-28 -16.667 -49.667 -32 -65 -46s-26.666 -26.5 -33.999 -37.5
s-11.666 -20.5 -12.999 -28.5s-2 -14.333 -2 -19c0 -21.333 4.33301 -38 13 -50s19 -21 31 -27s24 -9.66699 36 -11s21 -2 27 -2c22.667 0 45.667 5 69 15s45 27.667 65 53z" />
    <glyph glyph-name="lslash" unicode="&#xb3;" horiz-adv-x="258" 
d="M58 0h142v398l67 53v102l-67 -53v214h-142v-326l-67 -53v-102l67 53v-286z" />
    <glyph glyph-name="lslash" unicode="&#x142;" horiz-adv-x="258" 
d="M58 0h142v398l67 53v102l-67 -53v214h-142v-326l-67 -53v-102l67 53v-286z" />
    <glyph glyph-name="acute" unicode="&#xb4;" horiz-adv-x="259" 
d="M307 723h-157l-96 -142h99z" />
    <glyph glyph-name="mu" unicode="&#xb5;" horiz-adv-x="593" 
d="M539 517h-142v-271c0 -52.667 -8.66699 -90.5 -26 -113.5s-45.333 -34.5 -84 -34.5c-33.333 0 -56.833 10.5 -70.5 31.5s-20.5 52.833 -20.5 95.5v292h-142v-699h142v192c6 -6.66699 15 -12.334 27 -17.001s28 -7 48 -7c8 0 17.5 1.83301 28.5 5.5s22.5 9 34.5 16
s23.833 15.833 35.5 26.5s22.167 23.334 31.5 38.001h3v-72h135v517z" />
    <glyph glyph-name="mu" unicode="&#x3bc;" horiz-adv-x="593" 
d="M539 517h-142v-271c0 -52.667 -8.66699 -90.5 -26 -113.5s-45.333 -34.5 -84 -34.5c-33.333 0 -56.833 10.5 -70.5 31.5s-20.5 52.833 -20.5 95.5v292h-142v-699h142v192c6 -6.66699 15 -12.334 27 -17.001s28 -7 48 -7c8 0 17.5 1.83301 28.5 5.5s22.5 9 34.5 16
s23.833 15.833 35.5 26.5s22.167 23.334 31.5 38.001h3v-72h135v517z" />
    <glyph glyph-name="paragraph" unicode="&#xb6;" horiz-adv-x="620" 
d="M221 -166h101.999v800h110v-800h102v880h-293c-34.667 0 -66.667 -3 -96 -9s-54.666 -16 -75.999 -30s-38 -32.667 -50 -56s-18 -52.333 -18 -87c0 -53.333 19 -95.833 57 -127.5s92 -47.5 162 -47.5v-523z" />
    <glyph glyph-name="periodcentered" unicode="&#xb7;" horiz-adv-x="278" 
d="M55 287c0 -11.333 2.33398 -22.167 7.00098 -32.5s10.834 -19.333 18.501 -27s16.667 -13.667 27 -18s21.5 -6.5 33.5 -6.5c10.667 0 21.167 2.33301 31.5 7s19.166 11 26.499 19s13.333 17 18 27s7 20.333 7 31c0 23.333 -8.33301 43.333 -25 60s-36.334 25 -59.001 25
c-11.333 0 -22.166 -2.16699 -32.499 -6.5s-19.333 -10.333 -27 -18s-13.834 -16.667 -18.501 -27s-7 -21.5 -7 -33.5z" />
    <glyph glyph-name="periodcentered" unicode="&#x22c5;" horiz-adv-x="278" 
d="M55 287c0 -11.333 2.33398 -22.167 7.00098 -32.5s10.834 -19.333 18.501 -27s16.667 -13.667 27 -18s21.5 -6.5 33.5 -6.5c10.667 0 21.167 2.33301 31.5 7s19.166 11 26.499 19s13.333 17 18 27s7 20.333 7 31c0 23.333 -8.33301 43.333 -25 60s-36.334 25 -59.001 25
c-11.333 0 -22.166 -2.16699 -32.499 -6.5s-19.333 -10.333 -27 -18s-13.834 -16.667 -18.501 -27s-7 -21.5 -7 -33.5z" />
    <glyph glyph-name="cedilla" unicode="&#xb8;" horiz-adv-x="259" 
d="M12 -196c9.33301 -3.33301 18.167 -6.33496 26.5 -9.00195s17 -5 26 -7s19.167 -3.5 30.5 -4.5s25 -1.5 41 -1.5c14.667 0 29 1.5 43 4.5s26.5 8.33301 37.5 16s19.833 18 26.5 31s10 29.167 10 48.5c0 12 -2.66699 22.5 -8 31.5s-12.333 16.333 -21 22
s-18.5 9.83398 -29.5 12.501s-22.167 4 -33.5 4c-16 0 -27.333 -1.66699 -34 -5h-2l39 55h-49l-59 -85l21 -24c12.667 4.66699 26 7 40 7c11.333 0 20.833 -2.16699 28.5 -6.5s11.5 -12.833 11.5 -25.5c0 -12 -3.66699 -20.667 -11 -26s-17 -8 -29 -8
c-17.333 0 -33 1.83301 -47 5.5s-26.333 7.83398 -37 12.501z" />
    <glyph glyph-name="aogonek" unicode="&#xb9;" 
d="M376 200c0 -8 -0.835938 -18.666 -2.50293 -31.999s-6.16699 -26.5 -13.5 -39.5s-18.666 -24.167 -33.999 -33.5s-37 -14 -65 -14c-11.333 0 -22.333 1 -33 3s-20 5.5 -28 10.5s-14.333 11.667 -19 20s-7 19.166 -7 32.499c0 12.667 2.33301 23.5 7 32.5
s10.834 16.333 18.501 22s16.5 10.167 26.5 13.5s20.667 6 32 8c10.667 2 21.834 3.66699 33.501 5s22.667 3 33 5s20 4.5 29 7.5s16.5 7.16699 22.5 12.5v-53zM189.997 358.001c2.66699 28 12.168 48.0029 28.501 60.0029s38.166 18 65.499 18
c12.667 0 24.5 -0.833008 35.5 -2.5s20.667 -5 29 -10s15 -12 20 -21s7.5 -21.167 7.5 -36.5c0 -14.667 -4.66699 -25.834 -14 -33.501s-21.833 -13.5 -37.5 -17.5s-33.5 -7 -53.5 -9s-41 -4.66699 -63 -8s-43.5 -7.83301 -64.5 -13.5s-39.833 -14.167 -56.5 -25.5
s-30 -26.5 -40 -45.5s-15 -43.167 -15 -72.5c0 -26.667 4.5 -49.667 13.5 -69s21.5 -35.333 37.5 -48s34.667 -22.167 56 -28.5s44.333 -9.5 69 -9.5c32 0 63.333 4.83301 94 14.5s57.334 26.167 80.001 49.5c0.666992 -8.66699 1.83398 -17.167 3.50098 -25.5
s3.83398 -16.5 6.50098 -24.5h38c-26.667 -16 -47.334 -30.833 -62.001 -44.5s-25.5 -26 -32.5 -37s-11.167 -20.333 -12.5 -28s-2 -13.834 -2 -18.501c0 -21.333 4.33301 -38 13 -50s19 -21 31 -27s24 -9.66699 36 -11s21 -2 27 -2c22.667 0 45.667 5 69 15
s45 27.667 65 53l-48 22c-9.33301 -12.667 -18.666 -20.834 -27.999 -24.501s-19.333 -5.5 -30 -5.5c-10 0 -19 3.16699 -27 9.5s-12 14.5 -12 24.5c0 8 1.33301 16.333 4 25s7 18 13 28s14.167 20.833 24.5 32.5s23.166 24.5 38.499 38.5h39
c-6.66699 10.667 -11.334 26.667 -14.001 48s-4 43.666 -4 66.999v269c0 30.667 -7 55.667 -21 75s-32 34.333 -54 45s-46.333 17.834 -73 21.501s-53 5.5 -79 5.5c-29.333 0 -58 -2.83301 -86 -8.5s-53.333 -15.167 -76 -28.5s-41.334 -31 -56.001 -53s-23 -49.667 -25 -83
h142z" />
    <glyph glyph-name="aogonek" unicode="&#x105;" 
d="M376 200c0 -8 -0.835938 -18.666 -2.50293 -31.999s-6.16699 -26.5 -13.5 -39.5s-18.666 -24.167 -33.999 -33.5s-37 -14 -65 -14c-11.333 0 -22.333 1 -33 3s-20 5.5 -28 10.5s-14.333 11.667 -19 20s-7 19.166 -7 32.499c0 12.667 2.33301 23.5 7 32.5
s10.834 16.333 18.501 22s16.5 10.167 26.5 13.5s20.667 6 32 8c10.667 2 21.834 3.66699 33.501 5s22.667 3 33 5s20 4.5 29 7.5s16.5 7.16699 22.5 12.5v-53zM189.997 358.001c2.66699 28 12.168 48.0029 28.501 60.0029s38.166 18 65.499 18
c12.667 0 24.5 -0.833008 35.5 -2.5s20.667 -5 29 -10s15 -12 20 -21s7.5 -21.167 7.5 -36.5c0 -14.667 -4.66699 -25.834 -14 -33.501s-21.833 -13.5 -37.5 -17.5s-33.5 -7 -53.5 -9s-41 -4.66699 -63 -8s-43.5 -7.83301 -64.5 -13.5s-39.833 -14.167 -56.5 -25.5
s-30 -26.5 -40 -45.5s-15 -43.167 -15 -72.5c0 -26.667 4.5 -49.667 13.5 -69s21.5 -35.333 37.5 -48s34.667 -22.167 56 -28.5s44.333 -9.5 69 -9.5c32 0 63.333 4.83301 94 14.5s57.334 26.167 80.001 49.5c0.666992 -8.66699 1.83398 -17.167 3.50098 -25.5
s3.83398 -16.5 6.50098 -24.5h38c-26.667 -16 -47.334 -30.833 -62.001 -44.5s-25.5 -26 -32.5 -37s-11.167 -20.333 -12.5 -28s-2 -13.834 -2 -18.501c0 -21.333 4.33301 -38 13 -50s19 -21 31 -27s24 -9.66699 36 -11s21 -2 27 -2c22.667 0 45.667 5 69 15
s45 27.667 65 53l-48 22c-9.33301 -12.667 -18.666 -20.834 -27.999 -24.501s-19.333 -5.5 -30 -5.5c-10 0 -19 3.16699 -27 9.5s-12 14.5 -12 24.5c0 8 1.33301 16.333 4 25s7 18 13 28s14.167 20.833 24.5 32.5s23.166 24.5 38.499 38.5h39
c-6.66699 10.667 -11.334 26.667 -14.001 48s-4 43.666 -4 66.999v269c0 30.667 -7 55.667 -21 75s-32 34.333 -54 45s-46.333 17.834 -73 21.501s-53 5.5 -79 5.5c-29.333 0 -58 -2.83301 -86 -8.5s-53.333 -15.167 -76 -28.5s-41.334 -31 -56.001 -53s-23 -49.667 -25 -83
h142z" />
    <glyph glyph-name="scedilla" unicode="&#xba;" horiz-adv-x="537" 
d="M29 168c1.33301 -31.333 8.1709 -58.168 20.5039 -80.501s28.333 -40.5 48 -54.5s42.167 -24.667 67.5 -32s51.666 -11.666 78.999 -12.999l-49 -71l21 -24c12.667 4.66699 26 7 40 7c11.333 0 20.833 -2.16699 28.5 -6.5s11.5 -12.833 11.5 -25.5
c0 -12 -3.66699 -20.667 -11 -26s-17 -8 -29 -8c-17.333 0 -33 1.83301 -47 5.5s-26.333 7.83398 -37 12.501l-21 -48c9.33301 -3.33301 18.166 -6.33301 26.499 -9s17 -5 26 -7s19.167 -3.5 30.5 -4.5s25 -1.5 41 -1.5c14.667 0 29 1.5 43 4.5s26.5 8.33301 37.5 16
s19.833 18 26.5 31s10 29.167 10 48.5c0 12 -2.66699 22.5 -8 31.5s-12.333 16.333 -21 22s-18.5 9.83398 -29.5 12.501s-22.167 4 -33.5 4c-16 0 -27.333 -1.66699 -34 -5h-2l28 40c28 0.666992 55 4.5 81 11.5s49 17.5 69 31.5s36 32.167 48 54.5s18 49.5 18 81.5
c0 24 -4.66699 44.167 -14 60.5s-21.666 30 -36.999 41s-32.833 19.833 -52.5 26.5s-39.834 12.334 -60.501 17.001c-20 4.66699 -39.667 9 -59 13s-36.5 8.5 -51.5 13.5s-27.167 11.5 -36.5 19.5s-14 18.333 -14 31c0 10.667 2.66699 19.167 8 25.5
s11.833 11.166 19.5 14.499s16.167 5.5 25.5 6.5s18 1.5 26 1.5c25.333 0 47.333 -4.83301 66 -14.5s29 -28.167 31 -55.5h135c-2.66699 32 -10.834 58.5 -24.501 79.5s-30.834 37.833 -51.501 50.5s-44.167 21.667 -70.5 27s-53.5 8 -81.5 8s-55.333 -2.5 -82 -7.5
s-50.667 -13.667 -72 -26s-38.5 -29.333 -51.5 -51s-19.5 -48.834 -19.5 -81.501c0 -22.667 4.66699 -41.834 14 -57.501s21.666 -28.667 36.999 -39s32.833 -18.666 52.5 -24.999s39.834 -11.833 60.501 -16.5c25.333 -5.33301 48 -10.5 68 -15.5s36.833 -10.5 50.5 -16.5
s24.167 -12.833 31.5 -20.5s11 -16.834 11 -27.501c0 -12.667 -3 -23.167 -9 -31.5s-13.5 -15 -22.5 -20s-19 -8.66699 -30 -11s-21.5 -3.5 -31.5 -3.5c-14 0 -27.5 1.66699 -40.5 5s-24.5 8.5 -34.5 15.5s-18.167 16 -24.5 27s-9.5 24.167 -9.5 39.5h-135z" />
    <glyph glyph-name="scedilla" unicode="&#xf6c2;" horiz-adv-x="537" 
d="M29 168c1.33301 -31.333 8.1709 -58.168 20.5039 -80.501s28.333 -40.5 48 -54.5s42.167 -24.667 67.5 -32s51.666 -11.666 78.999 -12.999l-49 -71l21 -24c12.667 4.66699 26 7 40 7c11.333 0 20.833 -2.16699 28.5 -6.5s11.5 -12.833 11.5 -25.5
c0 -12 -3.66699 -20.667 -11 -26s-17 -8 -29 -8c-17.333 0 -33 1.83301 -47 5.5s-26.333 7.83398 -37 12.501l-21 -48c9.33301 -3.33301 18.166 -6.33301 26.499 -9s17 -5 26 -7s19.167 -3.5 30.5 -4.5s25 -1.5 41 -1.5c14.667 0 29 1.5 43 4.5s26.5 8.33301 37.5 16
s19.833 18 26.5 31s10 29.167 10 48.5c0 12 -2.66699 22.5 -8 31.5s-12.333 16.333 -21 22s-18.5 9.83398 -29.5 12.501s-22.167 4 -33.5 4c-16 0 -27.333 -1.66699 -34 -5h-2l28 40c28 0.666992 55 4.5 81 11.5s49 17.5 69 31.5s36 32.167 48 54.5s18 49.5 18 81.5
c0 24 -4.66699 44.167 -14 60.5s-21.666 30 -36.999 41s-32.833 19.833 -52.5 26.5s-39.834 12.334 -60.501 17.001c-20 4.66699 -39.667 9 -59 13s-36.5 8.5 -51.5 13.5s-27.167 11.5 -36.5 19.5s-14 18.333 -14 31c0 10.667 2.66699 19.167 8 25.5
s11.833 11.166 19.5 14.499s16.167 5.5 25.5 6.5s18 1.5 26 1.5c25.333 0 47.333 -4.83301 66 -14.5s29 -28.167 31 -55.5h135c-2.66699 32 -10.834 58.5 -24.501 79.5s-30.834 37.833 -51.501 50.5s-44.167 21.667 -70.5 27s-53.5 8 -81.5 8s-55.333 -2.5 -82 -7.5
s-50.667 -13.667 -72 -26s-38.5 -29.333 -51.5 -51s-19.5 -48.834 -19.5 -81.501c0 -22.667 4.66699 -41.834 14 -57.501s21.666 -28.667 36.999 -39s32.833 -18.666 52.5 -24.999s39.834 -11.833 60.501 -16.5c25.333 -5.33301 48 -10.5 68 -15.5s36.833 -10.5 50.5 -16.5
s24.167 -12.833 31.5 -20.5s11 -16.834 11 -27.501c0 -12.667 -3 -23.167 -9 -31.5s-13.5 -15 -22.5 -20s-19 -8.66699 -30 -11s-21.5 -3.5 -31.5 -3.5c-14 0 -27.5 1.66699 -40.5 5s-24.5 8.5 -34.5 15.5s-18.167 16 -24.5 27s-9.5 24.167 -9.5 39.5h-135z" />
    <glyph glyph-name="scedilla" unicode="&#x15f;" horiz-adv-x="537" 
d="M29 168c1.33301 -31.333 8.1709 -58.168 20.5039 -80.501s28.333 -40.5 48 -54.5s42.167 -24.667 67.5 -32s51.666 -11.666 78.999 -12.999l-49 -71l21 -24c12.667 4.66699 26 7 40 7c11.333 0 20.833 -2.16699 28.5 -6.5s11.5 -12.833 11.5 -25.5
c0 -12 -3.66699 -20.667 -11 -26s-17 -8 -29 -8c-17.333 0 -33 1.83301 -47 5.5s-26.333 7.83398 -37 12.501l-21 -48c9.33301 -3.33301 18.166 -6.33301 26.499 -9s17 -5 26 -7s19.167 -3.5 30.5 -4.5s25 -1.5 41 -1.5c14.667 0 29 1.5 43 4.5s26.5 8.33301 37.5 16
s19.833 18 26.5 31s10 29.167 10 48.5c0 12 -2.66699 22.5 -8 31.5s-12.333 16.333 -21 22s-18.5 9.83398 -29.5 12.501s-22.167 4 -33.5 4c-16 0 -27.333 -1.66699 -34 -5h-2l28 40c28 0.666992 55 4.5 81 11.5s49 17.5 69 31.5s36 32.167 48 54.5s18 49.5 18 81.5
c0 24 -4.66699 44.167 -14 60.5s-21.666 30 -36.999 41s-32.833 19.833 -52.5 26.5s-39.834 12.334 -60.501 17.001c-20 4.66699 -39.667 9 -59 13s-36.5 8.5 -51.5 13.5s-27.167 11.5 -36.5 19.5s-14 18.333 -14 31c0 10.667 2.66699 19.167 8 25.5
s11.833 11.166 19.5 14.499s16.167 5.5 25.5 6.5s18 1.5 26 1.5c25.333 0 47.333 -4.83301 66 -14.5s29 -28.167 31 -55.5h135c-2.66699 32 -10.834 58.5 -24.501 79.5s-30.834 37.833 -51.501 50.5s-44.167 21.667 -70.5 27s-53.5 8 -81.5 8s-55.333 -2.5 -82 -7.5
s-50.667 -13.667 -72 -26s-38.5 -29.333 -51.5 -51s-19.5 -48.834 -19.5 -81.501c0 -22.667 4.66699 -41.834 14 -57.501s21.666 -28.667 36.999 -39s32.833 -18.666 52.5 -24.999s39.834 -11.833 60.501 -16.5c25.333 -5.33301 48 -10.5 68 -15.5s36.833 -10.5 50.5 -16.5
s24.167 -12.833 31.5 -20.5s11 -16.834 11 -27.501c0 -12.667 -3 -23.167 -9 -31.5s-13.5 -15 -22.5 -20s-19 -8.66699 -30 -11s-21.5 -3.5 -31.5 -3.5c-14 0 -27.5 1.66699 -40.5 5s-24.5 8.5 -34.5 15.5s-18.167 16 -24.5 27s-9.5 24.167 -9.5 39.5h-135z" />
    <glyph glyph-name="guillemotright" unicode="&#xbb;" horiz-adv-x="444" 
d="M245 463v-120l90 -71l-90 -72v-120l157 125v135zM42 463v-120l90 -71l-90 -72v-120l157 125v135z" />
    <glyph glyph-name="Lcaron" unicode="&#xbc;" horiz-adv-x="593" 
d="M69 0h505v132h-348v582h-157v-714zM294 597l56 0.000976562c-0.666992 -27.333 -5.5 -46.333 -14.5 -57s-22.833 -18.334 -41.5 -23.001v-52c24 3.33301 43.667 9.33301 59 18s27.333 19.5 36 32.5s14.667 27.667 18 44s5 33.5 5 51.5v103h-118v-117z" />
    <glyph glyph-name="Lcaron" unicode="&#x13d;" horiz-adv-x="593" 
d="M69 0h505v132h-348v582h-157v-714zM294 597l56 0.000976562c-0.666992 -27.333 -5.5 -46.333 -14.5 -57s-22.833 -18.334 -41.5 -23.001v-52c24 3.33301 43.667 9.33301 59 18s27.333 19.5 36 32.5s14.667 27.667 18 44s5 33.5 5 51.5v103h-118v-117z" />
    <glyph glyph-name="hungarumlaut" unicode="&#xbd;" horiz-adv-x="259" 
d="M192 723h-157l-91 -142h99zM399 723h-157l-91 -142h99z" />
    <glyph glyph-name="hungarumlaut" unicode="&#x2dd;" horiz-adv-x="259" 
d="M192 723h-157l-91 -142h99zM399 723h-157l-91 -142h99z" />
    <glyph glyph-name="lcaron" unicode="&#xbe;" horiz-adv-x="389" 
d="M58 0h142v714h-142v-714zM269 597l56 0.000976562c-0.666992 -27.333 -5.5 -46.333 -14.5 -57s-22.833 -18.334 -41.5 -23.001v-52c24 3.33301 43.667 9.33301 59 18s27.333 19.5 36 32.5s14.667 27.667 18 44s5 33.5 5 51.5v103h-118v-117z" />
    <glyph glyph-name="lcaron" unicode="&#x13e;" horiz-adv-x="389" 
d="M58 0h142v714h-142v-714zM269 597l56 0.000976562c-0.666992 -27.333 -5.5 -46.333 -14.5 -57s-22.833 -18.334 -41.5 -23.001v-52c24 3.33301 43.667 9.33301 59 18s27.333 19.5 36 32.5s14.667 27.667 18 44s5 33.5 5 51.5v103h-118v-117z" />
    <glyph glyph-name="zdotaccent" unicode="&#xbf;" horiz-adv-x="519" 
d="M22 0h475v107h-288l269 303v107h-436v-107h249l-269 -303v-107zM192 597h135v117h-135v-117z" />
    <glyph glyph-name="zdotaccent" unicode="&#x17c;" horiz-adv-x="519" 
d="M22 0h475v107h-288l269 303v107h-436v-107h249l-269 -303v-107zM192 597h135v117h-135v-117z" />
    <glyph glyph-name="Racute" unicode="&#xc0;" horiz-adv-x="722" 
d="M69 0h157.002v280h158c22.667 0 41.667 -3.5 57 -10.5s27.666 -16.5 36.999 -28.5s16.166 -26.333 20.499 -43s6.83301 -34.667 7.5 -54c1.33301 -32 3.5 -60 6.5 -84s7.83301 -44 14.5 -60h157c-10.667 16.667 -18 38 -22 64s-6.66699 61 -8 105
c0 14.667 -1.83301 30.5 -5.5 47.5s-9.5 33.5 -17.5 49.5s-18.5 30.333 -31.5 43s-29.5 21.667 -49.5 27v2c40 16 68.833 39.333 86.5 70s26.5 67 26.5 109c0 26.667 -4.83301 52 -14.5 76s-23.667 45 -42 63s-40.333 32.167 -66 42.5s-54.5 15.5 -86.5 15.5h-385v-714z
M226.002 592l172 0.000976562c35.333 0 62.166 -7.83301 80.499 -23.5s27.5 -40.834 27.5 -75.501c0 -36 -9.16699 -61.833 -27.5 -77.5s-45.166 -23.5 -80.499 -23.5h-172v200zM286.002 778.001h99l154 142h-157z" />
    <glyph glyph-name="Racute" unicode="&#x154;" horiz-adv-x="722" 
d="M69 0h157.002v280h158c22.667 0 41.667 -3.5 57 -10.5s27.666 -16.5 36.999 -28.5s16.166 -26.333 20.499 -43s6.83301 -34.667 7.5 -54c1.33301 -32 3.5 -60 6.5 -84s7.83301 -44 14.5 -60h157c-10.667 16.667 -18 38 -22 64s-6.66699 61 -8 105
c0 14.667 -1.83301 30.5 -5.5 47.5s-9.5 33.5 -17.5 49.5s-18.5 30.333 -31.5 43s-29.5 21.667 -49.5 27v2c40 16 68.833 39.333 86.5 70s26.5 67 26.5 109c0 26.667 -4.83301 52 -14.5 76s-23.667 45 -42 63s-40.333 32.167 -66 42.5s-54.5 15.5 -86.5 15.5h-385v-714z
M226.002 592l172 0.000976562c35.333 0 62.166 -7.83301 80.499 -23.5s27.5 -40.834 27.5 -75.501c0 -36 -9.16699 -61.833 -27.5 -77.5s-45.166 -23.5 -80.499 -23.5h-172v200zM286.002 778.001h99l154 142h-157z" />
    <glyph glyph-name="Aacute" unicode="&#xc1;" horiz-adv-x="685" 
d="M267 778h99l154 142h-157zM-7 0h157l58 159h267l54 -159h163l-267 714h-161zM249 276l93 262h2l90 -262h-185z" />
    <glyph glyph-name="Acircumflex" unicode="&#xc2;" horiz-adv-x="685" 
d="M-7 0h157l58 159h267l54 -159h163l-267 714h-161zM249 276l93 262h2l90 -262h-185zM167 778h107l68 82l59 -82h116l-110 142h-129z" />
    <glyph glyph-name="Abreve" unicode="&#xc3;" horiz-adv-x="685" 
d="M-7 0h157l58 159h267l54 -159h163l-267 714h-161zM249 276l93 262h2l90 -262h-185zM174 924c4 -48 19.501 -84.333 46.501 -109s64.5 -37 112.5 -37c50.667 0 91 11.667 121 35c32 24.667 51 61.667 57 111h-65c-6 -25.333 -18.333 -43.5 -37 -54.5
s-42.334 -16.5 -71.001 -16.5c-24 0 -45.333 5.66699 -64 17c-19.333 12 -31 30 -35 54h-65z" />
    <glyph glyph-name="Abreve" unicode="&#x102;" horiz-adv-x="685" 
d="M-7 0h157l58 159h267l54 -159h163l-267 714h-161zM249 276l93 262h2l90 -262h-185zM174 924c4 -48 19.501 -84.333 46.501 -109s64.5 -37 112.5 -37c50.667 0 91 11.667 121 35c32 24.667 51 61.667 57 111h-65c-6 -25.333 -18.333 -43.5 -37 -54.5
s-42.334 -16.5 -71.001 -16.5c-24 0 -45.333 5.66699 -64 17c-19.333 12 -31 30 -35 54h-65z" />
    <glyph glyph-name="Adieresis" unicode="&#xc4;" horiz-adv-x="685" 
d="M-7 0h157l58 159h267l54 -159h163l-267 714h-161zM249 276l93 262h2l90 -262h-185zM378 794h135v117h-135v-117zM172 794h135v117h-135v-117z" />
    <glyph glyph-name="Lacute" unicode="&#xc5;" horiz-adv-x="593" 
d="M69 0h505v132h-348v582h-157v-714zM325 920h-157l-96 -142h99z" />
    <glyph glyph-name="Lacute" unicode="&#x139;" horiz-adv-x="593" 
d="M69 0h505v132h-348v582h-157v-714zM325 920h-157l-96 -142h99z" />
    <glyph glyph-name="Cacute" unicode="&#xc6;" horiz-adv-x="741" 
d="M697 474c-4.66699 41.333 -16 77.9961 -34 109.996s-40.833 58.833 -68.5 80.5s-59 38.167 -94 49.5s-72.167 17 -111.5 17c-55.333 0 -104.666 -9.66699 -147.999 -29s-80 -46 -110 -80s-53 -74 -69 -120s-24 -95.333 -24 -148c0 -51.333 8 -99.666 24 -144.999
s39 -84.666 69 -117.999s66.667 -59.666 110 -78.999s92.666 -29 147.999 -29c44 0 84.333 6.83301 121 20.5s68.667 33.167 96 58.5s49.333 56 66 92s27 76.333 31 121h-152c-6 -47.333 -22.5 -85.833 -49.5 -115.5s-64.5 -44.5 -112.5 -44.5
c-35.333 0 -65.333 6.83301 -90 20.5s-44.667 31.834 -60 54.501s-26.5 48.167 -33.5 76.5s-10.5 57.5 -10.5 87.5c0 31.333 3.5 61.666 10.5 90.999s18.167 55.5 33.5 78.5s35.333 41.333 60 55s54.667 20.5 90 20.5c19.333 0 37.833 -3.16699 55.5 -9.5
s33.5 -15.166 47.5 -26.499s25.667 -24.5 35 -39.5s15.333 -31.5 18 -49.5h152zM548 919.996h-157l-96 -142h99z" />
    <glyph glyph-name="Cacute" unicode="&#x106;" horiz-adv-x="741" 
d="M697 474c-4.66699 41.333 -16 77.9961 -34 109.996s-40.833 58.833 -68.5 80.5s-59 38.167 -94 49.5s-72.167 17 -111.5 17c-55.333 0 -104.666 -9.66699 -147.999 -29s-80 -46 -110 -80s-53 -74 -69 -120s-24 -95.333 -24 -148c0 -51.333 8 -99.666 24 -144.999
s39 -84.666 69 -117.999s66.667 -59.666 110 -78.999s92.666 -29 147.999 -29c44 0 84.333 6.83301 121 20.5s68.667 33.167 96 58.5s49.333 56 66 92s27 76.333 31 121h-152c-6 -47.333 -22.5 -85.833 -49.5 -115.5s-64.5 -44.5 -112.5 -44.5
c-35.333 0 -65.333 6.83301 -90 20.5s-44.667 31.834 -60 54.501s-26.5 48.167 -33.5 76.5s-10.5 57.5 -10.5 87.5c0 31.333 3.5 61.666 10.5 90.999s18.167 55.5 33.5 78.5s35.333 41.333 60 55s54.667 20.5 90 20.5c19.333 0 37.833 -3.16699 55.5 -9.5
s33.5 -15.166 47.5 -26.499s25.667 -24.5 35 -39.5s15.333 -31.5 18 -49.5h152zM548 919.996h-157l-96 -142h99z" />
    <glyph glyph-name="Ccedilla" unicode="&#xc7;" horiz-adv-x="741" 
d="M697 474c-4.66699 41.333 -15.999 77.9961 -33.999 109.996s-40.833 58.833 -68.5 80.5s-59 38.167 -94 49.5s-72.167 17 -111.5 17c-55.333 0 -104.666 -9.66699 -147.999 -29s-80 -46 -110 -80s-53 -74 -69 -120s-24 -95.333 -24 -148
c0 -48 6.83301 -93.167 20.5 -135.5s33.667 -80 60 -113s58.5 -60 96.5 -81s81.333 -33.833 130 -38.5l-48 -69l21 -24c12.667 4.66699 26 7 40 7c11.333 0 20.833 -2.16699 28.5 -6.5s11.5 -12.833 11.5 -25.5c0 -12 -3.66699 -20.667 -11 -26s-17 -8 -29 -8
c-17.333 0 -33 1.83301 -47 5.5s-26.333 7.83398 -37 12.501l-21 -48c9.33301 -3.33301 18.166 -6.33301 26.499 -9s17 -5 26 -7s19.167 -3.5 30.5 -4.5s25 -1.5 41 -1.5c14.667 0 29 1.5 43 4.5s26.5 8.33301 37.5 16s19.833 18 26.5 31s10 29.167 10 48.5
c0 12 -2.66699 22.5 -8 31.5s-12.333 16.333 -21 22s-18.5 9.83398 -29.5 12.501s-22.167 4 -33.5 4c-16 0 -27.333 -1.66699 -34 -5h-2l26 36c43.333 0.666992 83.166 7.83398 119.499 21.501s68 33.167 95 58.5s48.833 56 65.5 92s27 76 31 120h-152
c-6 -47.333 -22.5 -85.833 -49.5 -115.5s-64.5 -44.5 -112.5 -44.5c-35.333 0 -65.333 6.83301 -90 20.5s-44.667 31.834 -60 54.501s-26.5 48.167 -33.5 76.5s-10.5 57.5 -10.5 87.5c0 31.333 3.5 61.666 10.5 90.999s18.167 55.5 33.5 78.5s35.333 41.333 60 55
s54.667 20.5 90 20.5c19.333 0 37.833 -3.16699 55.5 -9.5s33.5 -15.166 47.5 -26.499s25.667 -24.5 35 -39.5s15.333 -31.5 18 -49.5h152z" />
    <glyph glyph-name="Ccaron" unicode="&#xc8;" horiz-adv-x="741" 
d="M697 474c-4.66699 41.333 -16 77.9961 -34 109.996s-40.833 58.833 -68.5 80.5s-59 38.167 -94 49.5s-72.167 17 -111.5 17c-55.333 0 -104.666 -9.66699 -147.999 -29s-80 -46 -110 -80s-53 -74 -69 -120s-24 -95.333 -24 -148c0 -51.333 8 -99.666 24 -144.999
s39 -84.666 69 -117.999s66.667 -59.666 110 -78.999s92.666 -29 147.999 -29c44 0 84.333 6.83301 121 20.5s68.667 33.167 96 58.5s49.333 56 66 92s27 76.333 31 121h-152c-6 -47.333 -22.5 -85.833 -49.5 -115.5s-64.5 -44.5 -112.5 -44.5
c-35.333 0 -65.333 6.83301 -90 20.5s-44.667 31.834 -60 54.501s-26.5 48.167 -33.5 76.5s-10.5 57.5 -10.5 87.5c0 31.333 3.5 61.666 10.5 90.999s18.167 55.5 33.5 78.5s35.333 41.333 60 55s54.667 20.5 90 20.5c19.333 0 37.833 -3.16699 55.5 -9.5
s33.5 -15.166 47.5 -26.499s25.667 -24.5 35 -39.5s15.333 -31.5 18 -49.5h152zM307 777.996h129l110 142h-111l-64 -82l-64 82h-112z" />
    <glyph glyph-name="Ccaron" unicode="&#x10c;" horiz-adv-x="741" 
d="M697 474c-4.66699 41.333 -16 77.9961 -34 109.996s-40.833 58.833 -68.5 80.5s-59 38.167 -94 49.5s-72.167 17 -111.5 17c-55.333 0 -104.666 -9.66699 -147.999 -29s-80 -46 -110 -80s-53 -74 -69 -120s-24 -95.333 -24 -148c0 -51.333 8 -99.666 24 -144.999
s39 -84.666 69 -117.999s66.667 -59.666 110 -78.999s92.666 -29 147.999 -29c44 0 84.333 6.83301 121 20.5s68.667 33.167 96 58.5s49.333 56 66 92s27 76.333 31 121h-152c-6 -47.333 -22.5 -85.833 -49.5 -115.5s-64.5 -44.5 -112.5 -44.5
c-35.333 0 -65.333 6.83301 -90 20.5s-44.667 31.834 -60 54.501s-26.5 48.167 -33.5 76.5s-10.5 57.5 -10.5 87.5c0 31.333 3.5 61.666 10.5 90.999s18.167 55.5 33.5 78.5s35.333 41.333 60 55s54.667 20.5 90 20.5c19.333 0 37.833 -3.16699 55.5 -9.5
s33.5 -15.166 47.5 -26.499s25.667 -24.5 35 -39.5s15.333 -31.5 18 -49.5h152zM307 777.996h129l110 142h-111l-64 -82l-64 82h-112z" />
    <glyph glyph-name="Eacute" unicode="&#xc9;" horiz-adv-x="648" 
d="M69 0h542v132h-385v175h346v122h-346v153h377v132h-534v-714zM249 778h99l154 142h-157z" />
    <glyph glyph-name="Eogonek" unicode="&#xca;" horiz-adv-x="648" 
d="M69 0h475c-38 -21.333 -65.667 -43.166 -83 -65.499s-26 -43.166 -26 -62.499c0 -28.667 9.33301 -50.834 28 -66.501s45 -23.5 79 -23.5c22.667 0 45.667 5 69 15s45 27.667 65 53l-48 22c-9.33301 -12.667 -18.666 -20.834 -27.999 -24.501s-19.333 -5.5 -30 -5.5
c-10 0 -19 3.16699 -27 9.5s-12 14.5 -12 24.5c0 8 1.33301 16.333 4 25s7 18 13 28s14.167 20.833 24.5 32.5s23.166 24.5 38.499 38.5v132h-385v175h346v122h-346v153h377v132h-534v-714z" />
    <glyph glyph-name="Eogonek" unicode="&#x118;" horiz-adv-x="648" 
d="M69 0h475c-38 -21.333 -65.667 -43.166 -83 -65.499s-26 -43.166 -26 -62.499c0 -28.667 9.33301 -50.834 28 -66.501s45 -23.5 79 -23.5c22.667 0 45.667 5 69 15s45 27.667 65 53l-48 22c-9.33301 -12.667 -18.666 -20.834 -27.999 -24.501s-19.333 -5.5 -30 -5.5
c-10 0 -19 3.16699 -27 9.5s-12 14.5 -12 24.5c0 8 1.33301 16.333 4 25s7 18 13 28s14.167 20.833 24.5 32.5s23.166 24.5 38.499 38.5v132h-385v175h346v122h-346v153h377v132h-534v-714z" />
    <glyph glyph-name="Edieresis" unicode="&#xcb;" horiz-adv-x="648" 
d="M69 0h542v132h-385v175h346v122h-346v153h377v132h-534v-714zM360 794h135v117h-135v-117zM154 794h135v117h-135v-117z" />
    <glyph glyph-name="Ecaron" unicode="&#xcc;" horiz-adv-x="648" 
d="M69 0h542v132h-385v175h346v122h-346v153h377v132h-534v-714zM261 778h129l110 142h-111l-64 -82l-64 82h-112z" />
    <glyph glyph-name="Ecaron" unicode="&#x11a;" horiz-adv-x="648" 
d="M69 0h542v132h-385v175h346v122h-346v153h377v132h-534v-714zM261 778h129l110 142h-111l-64 -82l-64 82h-112z" />
    <glyph glyph-name="Iacute" unicode="&#xcd;" horiz-adv-x="295" 
d="M69 0h157v714h-157v-714zM325 920h-157l-96 -142h99z" />
    <glyph glyph-name="Icircumflex" unicode="&#xce;" horiz-adv-x="295" 
d="M69 0h157v714h-157v-714zM-28 778h107l68 82l59 -82h116l-110 142h-129z" />
    <glyph glyph-name="Dcaron" unicode="&#xcf;" horiz-adv-x="741" 
d="M69 0h308c54.667 0 102.167 9.16699 142.5 27.5s74 43.5 101 75.5s47.167 70 60.5 114s20 92 20 144c0 59.333 -8.16699 111 -24.5 155s-39 80.667 -68 110s-63.333 51.333 -103 66s-82.5 22 -128.5 22h-308v-714zM226 582l112 -0.000976562
c38.667 0 71.167 -5.5 97.5 -16.5s47.5 -26.833 63.5 -47.5s27.5 -45.5 34.5 -74.5s10.5 -61.5 10.5 -97.5c0 -39.333 -5 -72.666 -15 -99.999s-23.333 -49.5 -40 -66.5s-35.667 -29.167 -57 -36.5s-43.333 -11 -66 -11h-140v450zM307 777.999h129l110 142h-111l-64 -82
l-64 82h-112z" />
    <glyph glyph-name="Dcaron" unicode="&#x10e;" horiz-adv-x="741" 
d="M69 0h308c54.667 0 102.167 9.16699 142.5 27.5s74 43.5 101 75.5s47.167 70 60.5 114s20 92 20 144c0 59.333 -8.16699 111 -24.5 155s-39 80.667 -68 110s-63.333 51.333 -103 66s-82.5 22 -128.5 22h-308v-714zM226 582l112 -0.000976562
c38.667 0 71.167 -5.5 97.5 -16.5s47.5 -26.833 63.5 -47.5s27.5 -45.5 34.5 -74.5s10.5 -61.5 10.5 -97.5c0 -39.333 -5 -72.666 -15 -99.999s-23.333 -49.5 -40 -66.5s-35.667 -29.167 -57 -36.5s-43.333 -11 -66 -11h-140v450zM307 777.999h129l110 142h-111l-64 -82
l-64 82h-112z" />
    <glyph glyph-name="Dcroat" unicode="&#xd0;" horiz-adv-x="741" 
d="M69 0h308c54.667 0 102.167 9.16699 142.5 27.5s74 43.5 101 75.5s47.167 70 60.5 114s20 92 20 144c0 59.333 -8.16699 111 -24.5 155s-39 80.667 -68 110s-63.333 51.333 -103 66s-82.5 22 -128.5 22h-308v-287h-66v-116h66v-311zM226 582l112 -0.000976562
c38.667 0 71.167 -5.5 97.5 -16.5s47.5 -26.833 63.5 -47.5s27.5 -45.5 34.5 -74.5s10.5 -61.5 10.5 -97.5c0 -39.333 -5 -72.666 -15 -99.999s-23.333 -49.5 -40 -66.5s-35.667 -29.167 -57 -36.5s-43.333 -11 -66 -11h-140v178h160v117h-160v155z" />
    <glyph glyph-name="Dcroat" unicode="&#x110;" horiz-adv-x="741" 
d="M69 0h308c54.667 0 102.167 9.16699 142.5 27.5s74 43.5 101 75.5s47.167 70 60.5 114s20 92 20 144c0 59.333 -8.16699 111 -24.5 155s-39 80.667 -68 110s-63.333 51.333 -103 66s-82.5 22 -128.5 22h-308v-287h-66v-116h66v-311zM226 582l112 -0.000976562
c38.667 0 71.167 -5.5 97.5 -16.5s47.5 -26.833 63.5 -47.5s27.5 -45.5 34.5 -74.5s10.5 -61.5 10.5 -97.5c0 -39.333 -5 -72.666 -15 -99.999s-23.333 -49.5 -40 -66.5s-35.667 -29.167 -57 -36.5s-43.333 -11 -66 -11h-140v178h160v117h-160v155z" />
    <glyph glyph-name="Nacute" unicode="&#xd1;" horiz-adv-x="741" 
d="M69 0h147v478h2l297 -478h157v714h-147v-479h-2l-297 479h-157v-714zM295 778h99l154 142h-157z" />
    <glyph glyph-name="Nacute" unicode="&#x143;" horiz-adv-x="741" 
d="M69 0h147v478h2l297 -478h157v714h-147v-479h-2l-297 479h-157v-714zM295 778h99l154 142h-157z" />
    <glyph glyph-name="Ncaron" unicode="&#xd2;" horiz-adv-x="741" 
d="M69 0h147v478h2l297 -478h157v714h-147v-479h-2l-297 479h-157v-714zM307 778h129l110 142h-111l-64 -82l-64 82h-112z" />
    <glyph glyph-name="Ncaron" unicode="&#x147;" horiz-adv-x="741" 
d="M69 0h147v478h2l297 -478h157v714h-147v-479h-2l-297 479h-157v-714zM307 778h129l110 142h-111l-64 -82l-64 82h-112z" />
    <glyph glyph-name="Oacute" unicode="&#xd3;" horiz-adv-x="778" 
d="M38 354c0 -51.333 8 -99.666 24 -144.999s39 -84.666 69 -117.999s66.667 -59.666 110 -78.999s92.666 -29 147.999 -29s104.666 9.66699 147.999 29s80 45.666 110 78.999s53 72.666 69 117.999s24 93.666 24 144.999c0 52.667 -8 102 -24 148s-39 86 -69 120
s-66.667 60.667 -110 80s-92.666 29 -147.999 29s-104.666 -9.66699 -147.999 -29s-80 -46 -110 -80s-53 -74 -69 -120s-24 -95.333 -24 -148zM195 354c0 31.333 3.5 61.666 10.5 90.999s18.167 55.5 33.5 78.5s35.333 41.333 60 55s54.667 20.5 90 20.5
s65.333 -6.83301 90 -20.5s44.667 -32 60 -55s26.5 -49.167 33.5 -78.5s10.5 -59.666 10.5 -90.999c0 -30 -3.5 -59.167 -10.5 -87.5s-18.167 -53.833 -33.5 -76.5s-35.333 -40.834 -60 -54.501s-54.667 -20.5 -90 -20.5s-65.333 6.83301 -90 20.5
s-44.667 31.834 -60 54.501s-26.5 48.167 -33.5 76.5s-10.5 57.5 -10.5 87.5zM314 778h99l154 142h-157z" />
    <glyph glyph-name="Ocircumflex" unicode="&#xd4;" horiz-adv-x="778" 
d="M38 354c0 -51.333 8 -99.666 24 -144.999s39 -84.666 69 -117.999s66.667 -59.666 110 -78.999s92.666 -29 147.999 -29s104.666 9.66699 147.999 29s80 45.666 110 78.999s53 72.666 69 117.999s24 93.666 24 144.999c0 52.667 -8 102 -24 148s-39 86 -69 120
s-66.667 60.667 -110 80s-92.666 29 -147.999 29s-104.666 -9.66699 -147.999 -29s-80 -46 -110 -80s-53 -74 -69 -120s-24 -95.333 -24 -148zM195 354c0 31.333 3.5 61.666 10.5 90.999s18.167 55.5 33.5 78.5s35.333 41.333 60 55s54.667 20.5 90 20.5
s65.333 -6.83301 90 -20.5s44.667 -32 60 -55s26.5 -49.167 33.5 -78.5s10.5 -59.666 10.5 -90.999c0 -30 -3.5 -59.167 -10.5 -87.5s-18.167 -53.833 -33.5 -76.5s-35.333 -40.834 -60 -54.501s-54.667 -20.5 -90 -20.5s-65.333 6.83301 -90 20.5
s-44.667 31.834 -60 54.501s-26.5 48.167 -33.5 76.5s-10.5 57.5 -10.5 87.5zM214 778h107l68 82l59 -82h116l-110 142h-129z" />
    <glyph glyph-name="Ohungarumlaut" unicode="&#xd5;" horiz-adv-x="778" 
d="M38 354c0 -51.333 8 -99.666 24 -144.999s39 -84.666 69 -117.999s66.667 -59.666 110 -78.999s92.666 -29 147.999 -29s104.666 9.66699 147.999 29s80 45.666 110 78.999s53 72.666 69 117.999s24 93.666 24 144.999c0 52.667 -8 102 -24 148s-39 86 -69 120
s-66.667 60.667 -110 80s-92.666 29 -147.999 29s-104.666 -9.66699 -147.999 -29s-80 -46 -110 -80s-53 -74 -69 -120s-24 -95.333 -24 -148zM195 354c0 31.333 3.5 61.666 10.5 90.999s18.167 55.5 33.5 78.5s35.333 41.333 60 55s54.667 20.5 90 20.5
s65.333 -6.83301 90 -20.5s44.667 -32 60 -55s26.5 -49.167 33.5 -78.5s10.5 -59.666 10.5 -90.999c0 -30 -3.5 -59.167 -10.5 -87.5s-18.167 -53.833 -33.5 -76.5s-35.333 -40.834 -60 -54.501s-54.667 -20.5 -90 -20.5s-65.333 6.83301 -90 20.5
s-44.667 31.834 -60 54.501s-26.5 48.167 -33.5 76.5s-10.5 57.5 -10.5 87.5zM204 778h99l149 142h-157zM411 778h99l149 142h-157z" />
    <glyph glyph-name="Ohungarumlaut" unicode="&#x150;" horiz-adv-x="778" 
d="M38 354c0 -51.333 8 -99.666 24 -144.999s39 -84.666 69 -117.999s66.667 -59.666 110 -78.999s92.666 -29 147.999 -29s104.666 9.66699 147.999 29s80 45.666 110 78.999s53 72.666 69 117.999s24 93.666 24 144.999c0 52.667 -8 102 -24 148s-39 86 -69 120
s-66.667 60.667 -110 80s-92.666 29 -147.999 29s-104.666 -9.66699 -147.999 -29s-80 -46 -110 -80s-53 -74 -69 -120s-24 -95.333 -24 -148zM195 354c0 31.333 3.5 61.666 10.5 90.999s18.167 55.5 33.5 78.5s35.333 41.333 60 55s54.667 20.5 90 20.5
s65.333 -6.83301 90 -20.5s44.667 -32 60 -55s26.5 -49.167 33.5 -78.5s10.5 -59.666 10.5 -90.999c0 -30 -3.5 -59.167 -10.5 -87.5s-18.167 -53.833 -33.5 -76.5s-35.333 -40.834 -60 -54.501s-54.667 -20.5 -90 -20.5s-65.333 6.83301 -90 20.5
s-44.667 31.834 -60 54.501s-26.5 48.167 -33.5 76.5s-10.5 57.5 -10.5 87.5zM204 778h99l149 142h-157zM411 778h99l149 142h-157z" />
    <glyph glyph-name="Odieresis" unicode="&#xd6;" horiz-adv-x="778" 
d="M38 354c0 -51.333 8 -99.666 24 -144.999s39 -84.666 69 -117.999s66.667 -59.666 110 -78.999s92.666 -29 147.999 -29s104.666 9.66699 147.999 29s80 45.666 110 78.999s53 72.666 69 117.999s24 93.666 24 144.999c0 52.667 -8 102 -24 148s-39 86 -69 120
s-66.667 60.667 -110 80s-92.666 29 -147.999 29s-104.666 -9.66699 -147.999 -29s-80 -46 -110 -80s-53 -74 -69 -120s-24 -95.333 -24 -148zM195 354c0 31.333 3.5 61.666 10.5 90.999s18.167 55.5 33.5 78.5s35.333 41.333 60 55s54.667 20.5 90 20.5
s65.333 -6.83301 90 -20.5s44.667 -32 60 -55s26.5 -49.167 33.5 -78.5s10.5 -59.666 10.5 -90.999c0 -30 -3.5 -59.167 -10.5 -87.5s-18.167 -53.833 -33.5 -76.5s-35.333 -40.834 -60 -54.501s-54.667 -20.5 -90 -20.5s-65.333 6.83301 -90 20.5
s-44.667 31.834 -60 54.501s-26.5 48.167 -33.5 76.5s-10.5 57.5 -10.5 87.5zM425 794h135v117h-135v-117zM219 794h135v117h-135v-117z" />
    <glyph glyph-name="multiply" unicode="&#xd7;" horiz-adv-x="600" 
d="M140 17l161 161l160 -161l76 76l-161 160l161 160l-76 76l-160 -160l-159 160l-76 -76l159 -160l-161 -160z" />
    <glyph glyph-name="Rcaron" unicode="&#xd8;" horiz-adv-x="722" 
d="M69 0h157.002v280h158c22.667 0 41.667 -3.5 57 -10.5s27.666 -16.5 36.999 -28.5s16.166 -26.333 20.499 -43s6.83301 -34.667 7.5 -54c1.33301 -32 3.5 -60 6.5 -84s7.83301 -44 14.5 -60h157c-10.667 16.667 -18 38 -22 64s-6.66699 61 -8 105
c0 14.667 -1.83301 30.5 -5.5 47.5s-9.5 33.5 -17.5 49.5s-18.5 30.333 -31.5 43s-29.5 21.667 -49.5 27v2c40 16 68.833 39.333 86.5 70s26.5 67 26.5 109c0 26.667 -4.83301 52 -14.5 76s-23.667 45 -42 63s-40.333 32.167 -66 42.5s-54.5 15.5 -86.5 15.5h-385v-714z
M226.002 592l172 0.000976562c35.333 0 62.166 -7.83301 80.499 -23.5s27.5 -40.834 27.5 -75.501c0 -36 -9.16699 -61.833 -27.5 -77.5s-45.166 -23.5 -80.499 -23.5h-172v200zM298.002 778.001h129l110 142h-111l-64 -82l-64 82h-112z" />
    <glyph glyph-name="Rcaron" unicode="&#x158;" horiz-adv-x="722" 
d="M69 0h157.002v280h158c22.667 0 41.667 -3.5 57 -10.5s27.666 -16.5 36.999 -28.5s16.166 -26.333 20.499 -43s6.83301 -34.667 7.5 -54c1.33301 -32 3.5 -60 6.5 -84s7.83301 -44 14.5 -60h157c-10.667 16.667 -18 38 -22 64s-6.66699 61 -8 105
c0 14.667 -1.83301 30.5 -5.5 47.5s-9.5 33.5 -17.5 49.5s-18.5 30.333 -31.5 43s-29.5 21.667 -49.5 27v2c40 16 68.833 39.333 86.5 70s26.5 67 26.5 109c0 26.667 -4.83301 52 -14.5 76s-23.667 45 -42 63s-40.333 32.167 -66 42.5s-54.5 15.5 -86.5 15.5h-385v-714z
M226.002 592l172 0.000976562c35.333 0 62.166 -7.83301 80.499 -23.5s27.5 -40.834 27.5 -75.501c0 -36 -9.16699 -61.833 -27.5 -77.5s-45.166 -23.5 -80.499 -23.5h-172v200zM298.002 778.001h129l110 142h-111l-64 -82l-64 82h-112z" />
    <glyph glyph-name="Uring" unicode="&#xd9;" horiz-adv-x="741" 
d="M66 270c0 -97.333 26.5 -169.502 79.5 -216.502s127.833 -70.5 224.5 -70.5c95.333 0 170 23.667 224 71s81 119.333 81 216v444h-157v-444c0 -53.333 -10.667 -92.5 -32 -117.5s-60 -37.5 -116 -37.5c-32 0 -57.5 4.33301 -76.5 13s-33.833 20.334 -44.5 35.001
s-17.667 31.334 -21 50.001s-5 37.667 -5 57v444h-157v-444zM307 852.998c0 19.333 5.66699 35.833 17 49.5s26.666 20.5 45.999 20.5s34.833 -6.83301 46.5 -20.5s17.5 -30.167 17.5 -49.5s-5.83301 -35.833 -17.5 -49.5s-27.167 -20.5 -46.5 -20.5
s-34.666 6.83301 -45.999 20.5s-17 30.167 -17 49.5zM248 852.998c0 -16.667 3.16699 -32.5 9.5 -47.5s15 -28 26 -39s24 -19.667 39 -26s30.833 -9.5 47.5 -9.5s32.5 3.16699 47.5 9.5s28.167 15 39.5 26s20.166 24 26.499 39s9.5 30.833 9.5 47.5s-3.16699 32.5 -9.5 47.5
s-15.166 28 -26.499 39s-24.5 19.667 -39.5 26s-30.833 9.5 -47.5 9.5s-32.5 -3.16699 -47.5 -9.5s-28 -15 -39 -26s-19.667 -24 -26 -39s-9.5 -30.833 -9.5 -47.5z" />
    <glyph glyph-name="Uring" unicode="&#x16e;" horiz-adv-x="741" 
d="M66 270c0 -97.333 26.5 -169.502 79.5 -216.502s127.833 -70.5 224.5 -70.5c95.333 0 170 23.667 224 71s81 119.333 81 216v444h-157v-444c0 -53.333 -10.667 -92.5 -32 -117.5s-60 -37.5 -116 -37.5c-32 0 -57.5 4.33301 -76.5 13s-33.833 20.334 -44.5 35.001
s-17.667 31.334 -21 50.001s-5 37.667 -5 57v444h-157v-444zM307 852.998c0 19.333 5.66699 35.833 17 49.5s26.666 20.5 45.999 20.5s34.833 -6.83301 46.5 -20.5s17.5 -30.167 17.5 -49.5s-5.83301 -35.833 -17.5 -49.5s-27.167 -20.5 -46.5 -20.5
s-34.666 6.83301 -45.999 20.5s-17 30.167 -17 49.5zM248 852.998c0 -16.667 3.16699 -32.5 9.5 -47.5s15 -28 26 -39s24 -19.667 39 -26s30.833 -9.5 47.5 -9.5s32.5 3.16699 47.5 9.5s28.167 15 39.5 26s20.166 24 26.499 39s9.5 30.833 9.5 47.5s-3.16699 32.5 -9.5 47.5
s-15.166 28 -26.499 39s-24.5 19.667 -39.5 26s-30.833 9.5 -47.5 9.5s-32.5 -3.16699 -47.5 -9.5s-28 -15 -39 -26s-19.667 -24 -26 -39s-9.5 -30.833 -9.5 -47.5z" />
    <glyph glyph-name="Uacute" unicode="&#xda;" horiz-adv-x="741" 
d="M66 270c0 -97.333 26.5 -169.502 79.5 -216.502s127.833 -70.5 224.5 -70.5c95.333 0 170 23.667 224 71s81 119.333 81 216v444h-157v-444c0 -53.333 -10.667 -92.5 -32 -117.5s-60 -37.5 -116 -37.5c-32 0 -57.5 4.33301 -76.5 13s-33.833 20.334 -44.5 35.001
s-17.667 31.334 -21 50.001s-5 37.667 -5 57v444h-157v-444zM295 777.998h99l154 142h-157z" />
    <glyph glyph-name="Uhungarumlaut" unicode="&#xdb;" horiz-adv-x="741" 
d="M66 270c0 -97.333 26.5 -169.502 79.5 -216.502s127.833 -70.5 224.5 -70.5c95.333 0 170 23.667 224 71s81 119.333 81 216v444h-157v-444c0 -53.333 -10.667 -92.5 -32 -117.5s-60 -37.5 -116 -37.5c-32 0 -57.5 4.33301 -76.5 13s-33.833 20.334 -44.5 35.001
s-17.667 31.334 -21 50.001s-5 37.667 -5 57v444h-157v-444zM185 777.998h99l149 142h-157zM392 777.998h99l149 142h-157z" />
    <glyph glyph-name="Uhungarumlaut" unicode="&#x170;" horiz-adv-x="741" 
d="M66 270c0 -97.333 26.5 -169.502 79.5 -216.502s127.833 -70.5 224.5 -70.5c95.333 0 170 23.667 224 71s81 119.333 81 216v444h-157v-444c0 -53.333 -10.667 -92.5 -32 -117.5s-60 -37.5 -116 -37.5c-32 0 -57.5 4.33301 -76.5 13s-33.833 20.334 -44.5 35.001
s-17.667 31.334 -21 50.001s-5 37.667 -5 57v444h-157v-444zM185 777.998h99l149 142h-157zM392 777.998h99l149 142h-157z" />
    <glyph glyph-name="Udieresis" unicode="&#xdc;" horiz-adv-x="741" 
d="M66 270c0 -97.333 26.5 -169.502 79.5 -216.502s127.833 -70.5 224.5 -70.5c95.333 0 170 23.667 224 71s81 119.333 81 216v444h-157v-444c0 -53.333 -10.667 -92.5 -32 -117.5s-60 -37.5 -116 -37.5c-32 0 -57.5 4.33301 -76.5 13s-33.833 20.334 -44.5 35.001
s-17.667 31.334 -21 50.001s-5 37.667 -5 57v444h-157v-444zM406 793.998h135v117h-135v-117zM200 793.998h135v117h-135v-117z" />
    <glyph glyph-name="Yacute" unicode="&#xdd;" horiz-adv-x="667" 
d="M254 0h157v274l265 440h-177l-164 -282l-167 282h-177l263 -436v-278zM258 778h99l154 142h-157z" />
    <glyph glyph-name="Tcommaaccent" unicode="&#xde;" horiz-adv-x="611" 
d="M227 0h157v582h214v132h-585v-132h214v-582zM247 -157l56 0.000976562c-0.666992 -27.333 -5.5 -46.333 -14.5 -57s-22.833 -18.334 -41.5 -23.001v-52c24 3.33301 43.667 9.33301 59 18s27.333 19.5 36 32.5s14.667 27.667 18 44s5 33.5 5 51.5v103h-118v-117z" />
    <glyph glyph-name="Tcommaaccent" unicode="&#x162;" horiz-adv-x="611" 
d="M227 0h157v582h214v132h-585v-132h214v-582zM247 -157l56 0.000976562c-0.666992 -27.333 -5.5 -46.333 -14.5 -57s-22.833 -18.334 -41.5 -23.001v-52c24 3.33301 43.667 9.33301 59 18s27.333 19.5 36 32.5s14.667 27.667 18 44s5 33.5 5 51.5v103h-118v-117z" />
    <glyph glyph-name="germandbls" unicode="&#xdf;" horiz-adv-x="611" 
d="M56 0l142.002 -0.00292969v516c0 30 7.66699 53.833 23 71.5s37.333 26.5 66 26.5c7.33301 0 16.5 -0.666992 27.5 -2s21.5 -5 31.5 -11s18.667 -15 26 -27s11 -28.333 11 -49c0 -15.333 -3 -28.666 -9 -39.999s-13.833 -20.666 -23.5 -27.999
s-20.834 -12.666 -33.501 -15.999s-25.667 -5 -39 -5c-3.33301 0 -6.83301 0.166992 -10.5 0.5s-7.5 0.833008 -11.5 1.5v-94c6 0.666992 12 1.16699 18 1.5s11.667 0.5 17 0.5c42 0 72.833 -11.333 92.5 -34s29.5 -52 29.5 -88c0 -16.667 -2.83301 -32.334 -8.5 -47.001
s-13.667 -27.5 -24 -38.5s-22.666 -19.667 -36.999 -26s-29.833 -9.5 -46.5 -9.5c-7.33301 0 -14.333 0.333008 -21 1s-13.334 2 -20.001 4v-116c26.667 -4 54 -6 82 -6c32 0 61.167 6.33301 87.5 19s49.166 29.667 68.499 51s34.333 46 45 74s16 57.667 16 89
c0 21.333 -2.66699 41.833 -8 61.5s-13.5 37.334 -24.5 53.001s-24.5 29.167 -40.5 40.5s-35 19.333 -57 24v2c28 8.66699 50.5 26.167 67.5 52.5s25.5 55.166 25.5 86.499c0 32.667 -6.16699 61.167 -18.5 85.5s-29 44.333 -50 60s-45.167 27.334 -72.5 35.001
s-56 11.5 -86 11.5c-50 0 -90.333 -7.33301 -121 -22s-54.5 -33.5 -71.5 -56.5s-28.333 -48.667 -34 -77s-8.5 -56.5 -8.5 -84.5v-491z" />
    <glyph glyph-name="racute" unicode="&#xe0;" horiz-adv-x="389" 
d="M54 0l142 0.000976562v233c0 22.667 2.33301 44.167 7 64.5s12.5 38 23.5 53s25.5 26.833 43.5 35.5s40 13 66 13c8.66699 0 17.667 -0.5 27 -1.5s17.333 -2.16699 24 -3.5v132c-10 3.33301 -20.333 5 -31 5c-17.333 0 -34.5 -2.66699 -51.5 -8
s-32.833 -12.833 -47.5 -22.5s-27.667 -21.334 -39 -35.001s-20.333 -28.5 -27 -44.5h-2v96h-135v-517zM119 581.001h99l154 142h-157z" />
    <glyph glyph-name="racute" unicode="&#x155;" horiz-adv-x="389" 
d="M54 0l142 0.000976562v233c0 22.667 2.33301 44.167 7 64.5s12.5 38 23.5 53s25.5 26.833 43.5 35.5s40 13 66 13c8.66699 0 17.667 -0.5 27 -1.5s17.333 -2.16699 24 -3.5v132c-10 3.33301 -20.333 5 -31 5c-17.333 0 -34.5 -2.66699 -51.5 -8
s-32.833 -12.833 -47.5 -22.5s-27.667 -21.334 -39 -35.001s-20.333 -28.5 -27 -44.5h-2v96h-135v-517zM119 581.001h99l154 142h-157z" />
    <glyph glyph-name="aacute" unicode="&#xe1;" 
d="M376 200c0 -8 -0.835938 -18.666 -2.50293 -31.999s-6.16699 -26.5 -13.5 -39.5s-18.666 -24.167 -33.999 -33.5s-37 -14 -65 -14c-11.333 0 -22.333 1 -33 3s-20 5.5 -28 10.5s-14.333 11.667 -19 20s-7 19.166 -7 32.499c0 12.667 2.33301 23.5 7 32.5
s10.834 16.333 18.501 22s16.5 10.167 26.5 13.5s20.667 6 32 8c10.667 2 21.834 3.66699 33.501 5s22.667 3 33 5s20 4.5 29 7.5s16.5 7.16699 22.5 12.5v-53zM189.997 358.001c2.66699 28 12.1689 48.001 28.502 60.001s38.166 18 65.499 18
c12.667 0 24.5 -0.833008 35.5 -2.5s20.667 -5 29 -10s15 -12 20 -21s7.5 -21.167 7.5 -36.5c0 -14.667 -4.66699 -25.834 -14 -33.501s-21.833 -13.5 -37.5 -17.5s-33.5 -7 -53.5 -9s-41 -4.66699 -63 -8s-43.5 -7.83301 -64.5 -13.5s-39.833 -14.167 -56.5 -25.5
s-30 -26.5 -40 -45.5s-15 -43.167 -15 -72.5c0 -26.667 4.5 -49.667 13.5 -69s21.5 -35.333 37.5 -48s34.667 -22.167 56 -28.5s44.333 -9.5 69 -9.5c32 0 63.333 4.83301 94 14.5s57.334 26.167 80.001 49.5c1.33301 -17.333 5.33301 -34 12 -50h142
c-6.66699 10.667 -11.334 26.667 -14.001 48s-4 43.666 -4 66.999v269c0 30.667 -7 55.667 -21 75s-32 34.333 -54 45s-46.333 17.834 -73 21.501s-53 5.5 -79 5.5c-29.333 0 -58 -2.83301 -86 -8.5s-53.333 -15.167 -76 -28.5s-41.334 -31 -56.001 -53s-23 -49.667 -25 -83
h142zM211.999 581.002h99l154 142h-157z" />
    <glyph glyph-name="acircumflex" unicode="&#xe2;" 
d="M376 200c0 -8 -0.835938 -18.666 -2.50293 -31.999s-6.16699 -26.5 -13.5 -39.5s-18.666 -24.167 -33.999 -33.5s-37 -14 -65 -14c-11.333 0 -22.333 1 -33 3s-20 5.5 -28 10.5s-14.333 11.667 -19 20s-7 19.166 -7 32.499c0 12.667 2.33301 23.5 7 32.5
s10.834 16.333 18.501 22s16.5 10.167 26.5 13.5s20.667 6 32 8c10.667 2 21.834 3.66699 33.501 5s22.667 3 33 5s20 4.5 29 7.5s16.5 7.16699 22.5 12.5v-53zM189.997 358.001c2.66699 28 12.1689 48.001 28.502 60.001s38.166 18 65.499 18
c12.667 0 24.5 -0.833008 35.5 -2.5s20.667 -5 29 -10s15 -12 20 -21s7.5 -21.167 7.5 -36.5c0 -14.667 -4.66699 -25.834 -14 -33.501s-21.833 -13.5 -37.5 -17.5s-33.5 -7 -53.5 -9s-41 -4.66699 -63 -8s-43.5 -7.83301 -64.5 -13.5s-39.833 -14.167 -56.5 -25.5
s-30 -26.5 -40 -45.5s-15 -43.167 -15 -72.5c0 -26.667 4.5 -49.667 13.5 -69s21.5 -35.333 37.5 -48s34.667 -22.167 56 -28.5s44.333 -9.5 69 -9.5c32 0 63.333 4.83301 94 14.5s57.334 26.167 80.001 49.5c1.33301 -17.333 5.33301 -34 12 -50h142
c-6.66699 10.667 -11.334 26.667 -14.001 48s-4 43.666 -4 66.999v269c0 30.667 -7 55.667 -21 75s-32 34.333 -54 45s-46.333 17.834 -73 21.501s-53 5.5 -79 5.5c-29.333 0 -58 -2.83301 -86 -8.5s-53.333 -15.167 -76 -28.5s-41.334 -31 -56.001 -53s-23 -49.667 -25 -83
h142zM111.999 581.002h107l68 82l59 -82h116l-110 142h-129z" />
    <glyph glyph-name="abreve" unicode="&#xe3;" 
d="M376 200c0 -8 -0.835938 -18.666 -2.50293 -31.999s-6.16699 -26.5 -13.5 -39.5s-18.666 -24.167 -33.999 -33.5s-37 -14 -65 -14c-11.333 0 -22.333 1 -33 3s-20 5.5 -28 10.5s-14.333 11.667 -19 20s-7 19.166 -7 32.499c0 12.667 2.33301 23.5 7 32.5
s10.834 16.333 18.501 22s16.5 10.167 26.5 13.5s20.667 6 32 8c10.667 2 21.834 3.66699 33.501 5s22.667 3 33 5s20 4.5 29 7.5s16.5 7.16699 22.5 12.5v-53zM189.997 358.001c2.66699 28 12.1689 48.001 28.502 60.001s38.166 18 65.499 18
c12.667 0 24.5 -0.833008 35.5 -2.5s20.667 -5 29 -10s15 -12 20 -21s7.5 -21.167 7.5 -36.5c0 -14.667 -4.66699 -25.834 -14 -33.501s-21.833 -13.5 -37.5 -17.5s-33.5 -7 -53.5 -9s-41 -4.66699 -63 -8s-43.5 -7.83301 -64.5 -13.5s-39.833 -14.167 -56.5 -25.5
s-30 -26.5 -40 -45.5s-15 -43.167 -15 -72.5c0 -26.667 4.5 -49.667 13.5 -69s21.5 -35.333 37.5 -48s34.667 -22.167 56 -28.5s44.333 -9.5 69 -9.5c32 0 63.333 4.83301 94 14.5s57.334 26.167 80.001 49.5c1.33301 -17.333 5.33301 -34 12 -50h142
c-6.66699 10.667 -11.334 26.667 -14.001 48s-4 43.666 -4 66.999v269c0 30.667 -7 55.667 -21 75s-32 34.333 -54 45s-46.333 17.834 -73 21.501s-53 5.5 -79 5.5c-29.333 0 -58 -2.83301 -86 -8.5s-53.333 -15.167 -76 -28.5s-41.334 -31 -56.001 -53s-23 -49.667 -25 -83
h142zM118.999 727.002c4 -48 19.501 -84.3301 46.501 -108.997s64.5 -37 112.5 -37c50.667 0 91 11.667 121 35c32 24.667 51 61.667 57 111h-65c-6 -25.333 -18.333 -43.5 -37 -54.5s-42.334 -16.5 -71.001 -16.5c-9.33301 0 -19.5 1.16699 -30.5 3.5
s-21.167 6.16602 -30.5 11.499s-17.5 12.666 -24.5 21.999s-11.5 20.666 -13.5 33.999h-65z" />
    <glyph glyph-name="abreve" unicode="&#x103;" 
d="M376 200c0 -8 -0.835938 -18.666 -2.50293 -31.999s-6.16699 -26.5 -13.5 -39.5s-18.666 -24.167 -33.999 -33.5s-37 -14 -65 -14c-11.333 0 -22.333 1 -33 3s-20 5.5 -28 10.5s-14.333 11.667 -19 20s-7 19.166 -7 32.499c0 12.667 2.33301 23.5 7 32.5
s10.834 16.333 18.501 22s16.5 10.167 26.5 13.5s20.667 6 32 8c10.667 2 21.834 3.66699 33.501 5s22.667 3 33 5s20 4.5 29 7.5s16.5 7.16699 22.5 12.5v-53zM189.997 358.001c2.66699 28 12.1689 48.001 28.502 60.001s38.166 18 65.499 18
c12.667 0 24.5 -0.833008 35.5 -2.5s20.667 -5 29 -10s15 -12 20 -21s7.5 -21.167 7.5 -36.5c0 -14.667 -4.66699 -25.834 -14 -33.501s-21.833 -13.5 -37.5 -17.5s-33.5 -7 -53.5 -9s-41 -4.66699 -63 -8s-43.5 -7.83301 -64.5 -13.5s-39.833 -14.167 -56.5 -25.5
s-30 -26.5 -40 -45.5s-15 -43.167 -15 -72.5c0 -26.667 4.5 -49.667 13.5 -69s21.5 -35.333 37.5 -48s34.667 -22.167 56 -28.5s44.333 -9.5 69 -9.5c32 0 63.333 4.83301 94 14.5s57.334 26.167 80.001 49.5c1.33301 -17.333 5.33301 -34 12 -50h142
c-6.66699 10.667 -11.334 26.667 -14.001 48s-4 43.666 -4 66.999v269c0 30.667 -7 55.667 -21 75s-32 34.333 -54 45s-46.333 17.834 -73 21.501s-53 5.5 -79 5.5c-29.333 0 -58 -2.83301 -86 -8.5s-53.333 -15.167 -76 -28.5s-41.334 -31 -56.001 -53s-23 -49.667 -25 -83
h142zM118.999 727.002c4 -48 19.501 -84.3301 46.501 -108.997s64.5 -37 112.5 -37c50.667 0 91 11.667 121 35c32 24.667 51 61.667 57 111h-65c-6 -25.333 -18.333 -43.5 -37 -54.5s-42.334 -16.5 -71.001 -16.5c-9.33301 0 -19.5 1.16699 -30.5 3.5
s-21.167 6.16602 -30.5 11.499s-17.5 12.666 -24.5 21.999s-11.5 20.666 -13.5 33.999h-65z" />
    <glyph glyph-name="adieresis" unicode="&#xe4;" 
d="M376 200c0 -8 -0.835938 -18.666 -2.50293 -31.999s-6.16699 -26.5 -13.5 -39.5s-18.666 -24.167 -33.999 -33.5s-37 -14 -65 -14c-11.333 0 -22.333 1 -33 3s-20 5.5 -28 10.5s-14.333 11.667 -19 20s-7 19.166 -7 32.499c0 12.667 2.33301 23.5 7 32.5
s10.834 16.333 18.501 22s16.5 10.167 26.5 13.5s20.667 6 32 8c10.667 2 21.834 3.66699 33.501 5s22.667 3 33 5s20 4.5 29 7.5s16.5 7.16699 22.5 12.5v-53zM189.997 358.001c2.66699 28 12.1689 48.001 28.502 60.001s38.166 18 65.499 18
c12.667 0 24.5 -0.833008 35.5 -2.5s20.667 -5 29 -10s15 -12 20 -21s7.5 -21.167 7.5 -36.5c0 -14.667 -4.66699 -25.834 -14 -33.501s-21.833 -13.5 -37.5 -17.5s-33.5 -7 -53.5 -9s-41 -4.66699 -63 -8s-43.5 -7.83301 -64.5 -13.5s-39.833 -14.167 -56.5 -25.5
s-30 -26.5 -40 -45.5s-15 -43.167 -15 -72.5c0 -26.667 4.5 -49.667 13.5 -69s21.5 -35.333 37.5 -48s34.667 -22.167 56 -28.5s44.333 -9.5 69 -9.5c32 0 63.333 4.83301 94 14.5s57.334 26.167 80.001 49.5c1.33301 -17.333 5.33301 -34 12 -50h142
c-6.66699 10.667 -11.334 26.667 -14.001 48s-4 43.666 -4 66.999v269c0 30.667 -7 55.667 -21 75s-32 34.333 -54 45s-46.333 17.834 -73 21.501s-53 5.5 -79 5.5c-29.333 0 -58 -2.83301 -86 -8.5s-53.333 -15.167 -76 -28.5s-41.334 -31 -56.001 -53s-23 -49.667 -25 -83
h142zM322.999 597.002h135v117h-135v-117zM116.999 597.002h135v117h-135v-117z" />
    <glyph glyph-name="lacute" unicode="&#xe5;" horiz-adv-x="258" 
d="M58 0h142v714h-142v-714zM74 778h99l154 142h-157z" />
    <glyph glyph-name="lacute" unicode="&#x13a;" horiz-adv-x="258" 
d="M58 0h142v714h-142v-714zM74 778h99l154 142h-157z" />
    <glyph glyph-name="cacute" unicode="&#xe6;" 
d="M545 335c-2 32.667 -10.166 61.334 -24.499 86.001s-32.5 45.167 -54.5 61.5s-47.167 28.5 -75.5 36.5s-57.833 12 -88.5 12c-42 0 -79.333 -7 -112 -21s-60.334 -33.5 -83.001 -58.5s-39.834 -54.667 -51.501 -89s-17.5 -71.5 -17.5 -111.5
c0 -38.667 6.33301 -74.167 19 -106.5s30.334 -60.333 53.001 -84s50 -42 82 -55s67.667 -19.5 107 -19.5c68.667 0 125 18.167 169 54.5s70.667 88.833 80 157.5h-135c-5.33301 -32 -17.5 -57.5 -36.5 -76.5s-45.167 -28.5 -78.5 -28.5c-22 0 -40.667 5 -56 15
s-27.5 22.833 -36.5 38.5s-15.5 33.167 -19.5 52.5s-6 38.333 -6 57s2 38 6 58s10.833 38.167 20.5 54.5s22.167 29.666 37.5 39.999s34.333 15.5 57 15.5c60.667 0 95.667 -29.667 105 -89h139zM212.001 581h99l154 142h-157z" />
    <glyph glyph-name="cacute" unicode="&#x107;" 
d="M545 335c-2 32.667 -10.166 61.334 -24.499 86.001s-32.5 45.167 -54.5 61.5s-47.167 28.5 -75.5 36.5s-57.833 12 -88.5 12c-42 0 -79.333 -7 -112 -21s-60.334 -33.5 -83.001 -58.5s-39.834 -54.667 -51.501 -89s-17.5 -71.5 -17.5 -111.5
c0 -38.667 6.33301 -74.167 19 -106.5s30.334 -60.333 53.001 -84s50 -42 82 -55s67.667 -19.5 107 -19.5c68.667 0 125 18.167 169 54.5s70.667 88.833 80 157.5h-135c-5.33301 -32 -17.5 -57.5 -36.5 -76.5s-45.167 -28.5 -78.5 -28.5c-22 0 -40.667 5 -56 15
s-27.5 22.833 -36.5 38.5s-15.5 33.167 -19.5 52.5s-6 38.333 -6 57s2 38 6 58s10.833 38.167 20.5 54.5s22.167 29.666 37.5 39.999s34.333 15.5 57 15.5c60.667 0 95.667 -29.667 105 -89h139zM212.001 581h99l154 142h-157z" />
    <glyph glyph-name="ccedilla" unicode="&#xe7;" 
d="M545 335c-2 32.667 -10.1631 61.3311 -24.4961 85.998s-32.5 45.167 -54.5 61.5s-47.167 28.5 -75.5 36.5s-57.833 12 -88.5 12c-42 0 -79.333 -7 -112 -21s-60.334 -33.5 -83.001 -58.5s-39.834 -54.667 -51.501 -89s-17.5 -71.5 -17.5 -111.5
c0 -36 5.33301 -69.167 16 -99.5s26 -57 46 -80s43.833 -41.667 71.5 -56s58.5 -23.166 92.5 -26.499l-50 -72l21 -24c12.667 4.66699 26 7 40 7c11.333 0 20.833 -2.16699 28.5 -6.5s11.5 -12.833 11.5 -25.5c0 -12 -3.66699 -20.667 -11 -26s-17 -8 -29 -8
c-17.333 0 -33 1.83301 -47 5.5s-26.333 7.83398 -37 12.501l-21 -48c9.33301 -3.33301 18.166 -6.33301 26.499 -9s17 -5 26 -7s19.167 -3.5 30.5 -4.5s25 -1.5 41 -1.5c14.667 0 29 1.5 43 4.5s26.5 8.33301 37.5 16s19.833 18 26.5 31s10 29.167 10 48.5
c0 12 -2.66699 22.5 -8 31.5s-12.333 16.333 -21 22s-18.5 9.83398 -29.5 12.501s-22.167 4 -33.5 4c-16 0 -27.333 -1.66699 -34 -5h-2l28 40c65.333 2 119 21 161 57s67.333 87.333 76 154h-137c-4.66699 -32 -16.334 -57.5 -35.001 -76.5s-44.667 -28.5 -78 -28.5
c-22 0 -40.667 5 -56 15s-27.5 22.833 -36.5 38.5s-15.5 33.167 -19.5 52.5s-6 38.333 -6 57s2 38 6 58s10.833 38.167 20.5 54.5s22.167 29.666 37.5 39.999s34.333 15.5 57 15.5c60.667 0 95.667 -29.667 105 -89h139z" />
    <glyph glyph-name="ccaron" unicode="&#xe8;" 
d="M545 335c-2 32.667 -10.166 61.334 -24.499 86.001s-32.5 45.167 -54.5 61.5s-47.167 28.5 -75.5 36.5s-57.833 12 -88.5 12c-42 0 -79.333 -7 -112 -21s-60.334 -33.5 -83.001 -58.5s-39.834 -54.667 -51.501 -89s-17.5 -71.5 -17.5 -111.5
c0 -38.667 6.33301 -74.167 19 -106.5s30.334 -60.333 53.001 -84s50 -42 82 -55s67.667 -19.5 107 -19.5c68.667 0 125 18.167 169 54.5s70.667 88.833 80 157.5h-135c-5.33301 -32 -17.5 -57.5 -36.5 -76.5s-45.167 -28.5 -78.5 -28.5c-22 0 -40.667 5 -56 15
s-27.5 22.833 -36.5 38.5s-15.5 33.167 -19.5 52.5s-6 38.333 -6 57s2 38 6 58s10.833 38.167 20.5 54.5s22.167 29.666 37.5 39.999s34.333 15.5 57 15.5c60.667 0 95.667 -29.667 105 -89h139zM224.001 581h129l110 142h-111l-64 -82l-64 82h-112z" />
    <glyph glyph-name="ccaron" unicode="&#x10d;" 
d="M545 335c-2 32.667 -10.166 61.334 -24.499 86.001s-32.5 45.167 -54.5 61.5s-47.167 28.5 -75.5 36.5s-57.833 12 -88.5 12c-42 0 -79.333 -7 -112 -21s-60.334 -33.5 -83.001 -58.5s-39.834 -54.667 -51.501 -89s-17.5 -71.5 -17.5 -111.5
c0 -38.667 6.33301 -74.167 19 -106.5s30.334 -60.333 53.001 -84s50 -42 82 -55s67.667 -19.5 107 -19.5c68.667 0 125 18.167 169 54.5s70.667 88.833 80 157.5h-135c-5.33301 -32 -17.5 -57.5 -36.5 -76.5s-45.167 -28.5 -78.5 -28.5c-22 0 -40.667 5 -56 15
s-27.5 22.833 -36.5 38.5s-15.5 33.167 -19.5 52.5s-6 38.333 -6 57s2 38 6 58s10.833 38.167 20.5 54.5s22.167 29.666 37.5 39.999s34.333 15.5 57 15.5c60.667 0 95.667 -29.667 105 -89h139zM224.001 581h129l110 142h-111l-64 -82l-64 82h-112z" />
    <glyph glyph-name="eacute" unicode="&#xe9;" 
d="M545 224l-0.00292969 45c0 30.667 -5.33301 61.667 -16 93s-26.5 59.5 -47.5 84.5s-47.333 45.333 -79 61s-68.167 23.5 -109.5 23.5c-39.333 0 -75.166 -7 -107.499 -21s-60.166 -33.167 -83.499 -57.5s-41.333 -53.166 -54 -86.499s-19 -69.333 -19 -108
c0 -40 6.16699 -76.667 18.5 -110s29.833 -62 52.5 -86s50.334 -42.667 83.001 -56s69.334 -20 110.001 -20c58.667 0 108.667 13.667 150 41s72 71.666 92 132.999h-124c-5.33301 -16 -18.333 -31.167 -39 -45.5s-45.334 -21.5 -74.001 -21.5c-40 0 -70.667 10.5 -92 31.5
s-33 54.167 -35 99.5h374zM170.997 314c0.666992 10 2.83301 21.333 6.5 34s10 24.667 19 36s21 20.833 36 28.5s33.833 11.5 56.5 11.5c34.667 0 60.5 -9.33301 77.5 -28s29.167 -46 36.5 -82h-232zM211.996 581h99l154 142h-157z" />
    <glyph glyph-name="eogonek" unicode="&#xea;" 
d="M171 314c0.666992 10 2.83301 21.333 6.5 34s10 24.667 19 36s21 20.833 36 28.5s33.833 11.5 56.5 11.5c34.667 0 60.5 -9.33301 77.5 -28s29.167 -46 36.5 -82h-232zM409.999 -128c-9.33301 -12.667 -18.6699 -20.833 -28.0029 -24.5s-19.333 -5.5 -30 -5.5
c-10 0 -19 3.16699 -27 9.5s-12 14.5 -12 24.5c0 8 2 17.833 6 29.5s10.167 23.834 18.5 36.501s19 25 32 37s28.167 22.333 45.5 31c23.333 12 45.833 29.667 67.5 53s39.167 55.666 52.5 96.999h-124c-5.33301 -16 -18.333 -31.167 -39 -45.5s-45.334 -21.5 -74.001 -21.5
c-40 0 -70.667 10.5 -92 31.5s-33 54.167 -35 99.5h374v45c0 30.667 -5.33301 61.667 -16 93s-26.5 59.5 -47.5 84.5s-47.333 45.333 -79 61s-68.167 23.5 -109.5 23.5c-39.333 0 -75.166 -7 -107.499 -21s-60.166 -33.167 -83.499 -57.5s-41.333 -53.166 -54 -86.499
s-19 -69.333 -19 -108c0 -40 6.16699 -76.667 18.5 -110s29.833 -62 52.5 -86s50.334 -42.667 83.001 -56s69.334 -20 110.001 -20c6 0 9.66699 0.333008 11 1l2 -2c-31.333 -18 -54 -36.833 -68 -56.5s-21 -38.5 -21 -56.5c0 -28.667 9.33301 -50.834 28 -66.501
s45 -23.5 79 -23.5c22.667 0 45.667 5 69 15s45 27.667 65 53z" />
    <glyph glyph-name="eogonek" unicode="&#x119;" 
d="M171 314c0.666992 10 2.83301 21.333 6.5 34s10 24.667 19 36s21 20.833 36 28.5s33.833 11.5 56.5 11.5c34.667 0 60.5 -9.33301 77.5 -28s29.167 -46 36.5 -82h-232zM409.999 -128c-9.33301 -12.667 -18.6699 -20.833 -28.0029 -24.5s-19.333 -5.5 -30 -5.5
c-10 0 -19 3.16699 -27 9.5s-12 14.5 -12 24.5c0 8 2 17.833 6 29.5s10.167 23.834 18.5 36.501s19 25 32 37s28.167 22.333 45.5 31c23.333 12 45.833 29.667 67.5 53s39.167 55.666 52.5 96.999h-124c-5.33301 -16 -18.333 -31.167 -39 -45.5s-45.334 -21.5 -74.001 -21.5
c-40 0 -70.667 10.5 -92 31.5s-33 54.167 -35 99.5h374v45c0 30.667 -5.33301 61.667 -16 93s-26.5 59.5 -47.5 84.5s-47.333 45.333 -79 61s-68.167 23.5 -109.5 23.5c-39.333 0 -75.166 -7 -107.499 -21s-60.166 -33.167 -83.499 -57.5s-41.333 -53.166 -54 -86.499
s-19 -69.333 -19 -108c0 -40 6.16699 -76.667 18.5 -110s29.833 -62 52.5 -86s50.334 -42.667 83.001 -56s69.334 -20 110.001 -20c6 0 9.66699 0.333008 11 1l2 -2c-31.333 -18 -54 -36.833 -68 -56.5s-21 -38.5 -21 -56.5c0 -28.667 9.33301 -50.834 28 -66.501
s45 -23.5 79 -23.5c22.667 0 45.667 5 69 15s45 27.667 65 53z" />
    <glyph glyph-name="edieresis" unicode="&#xeb;" 
d="M545 224l-0.00292969 45c0 30.667 -5.33301 61.667 -16 93s-26.5 59.5 -47.5 84.5s-47.333 45.333 -79 61s-68.167 23.5 -109.5 23.5c-39.333 0 -75.166 -7 -107.499 -21s-60.166 -33.167 -83.499 -57.5s-41.333 -53.166 -54 -86.499s-19 -69.333 -19 -108
c0 -40 6.16699 -76.667 18.5 -110s29.833 -62 52.5 -86s50.334 -42.667 83.001 -56s69.334 -20 110.001 -20c58.667 0 108.667 13.667 150 41s72 71.666 92 132.999h-124c-5.33301 -16 -18.333 -31.167 -39 -45.5s-45.334 -21.5 -74.001 -21.5c-40 0 -70.667 10.5 -92 31.5
s-33 54.167 -35 99.5h374zM170.997 314c0.666992 10 2.83301 21.333 6.5 34s10 24.667 19 36s21 20.833 36 28.5s33.833 11.5 56.5 11.5c34.667 0 60.5 -9.33301 77.5 -28s29.167 -46 36.5 -82h-232zM322.996 597h135v117h-135v-117zM116.996 597h135v117h-135v-117z" />
    <glyph glyph-name="ecaron" unicode="&#xec;" 
d="M545 224l-0.00292969 45c0 30.667 -5.33301 61.667 -16 93s-26.5 59.5 -47.5 84.5s-47.333 45.333 -79 61s-68.167 23.5 -109.5 23.5c-39.333 0 -75.166 -7 -107.499 -21s-60.166 -33.167 -83.499 -57.5s-41.333 -53.166 -54 -86.499s-19 -69.333 -19 -108
c0 -40 6.16699 -76.667 18.5 -110s29.833 -62 52.5 -86s50.334 -42.667 83.001 -56s69.334 -20 110.001 -20c58.667 0 108.667 13.667 150 41s72 71.666 92 132.999h-124c-5.33301 -16 -18.333 -31.167 -39 -45.5s-45.334 -21.5 -74.001 -21.5c-40 0 -70.667 10.5 -92 31.5
s-33 54.167 -35 99.5h374zM170.997 314c0.666992 10 2.83301 21.333 6.5 34s10 24.667 19 36s21 20.833 36 28.5s33.833 11.5 56.5 11.5c34.667 0 60.5 -9.33301 77.5 -28s29.167 -46 36.5 -82h-232zM223.996 581h129l110 142h-111l-64 -82l-64 82h-112z" />
    <glyph glyph-name="ecaron" unicode="&#x11b;" 
d="M545 224l-0.00292969 45c0 30.667 -5.33301 61.667 -16 93s-26.5 59.5 -47.5 84.5s-47.333 45.333 -79 61s-68.167 23.5 -109.5 23.5c-39.333 0 -75.166 -7 -107.499 -21s-60.166 -33.167 -83.499 -57.5s-41.333 -53.166 -54 -86.499s-19 -69.333 -19 -108
c0 -40 6.16699 -76.667 18.5 -110s29.833 -62 52.5 -86s50.334 -42.667 83.001 -56s69.334 -20 110.001 -20c58.667 0 108.667 13.667 150 41s72 71.666 92 132.999h-124c-5.33301 -16 -18.333 -31.167 -39 -45.5s-45.334 -21.5 -74.001 -21.5c-40 0 -70.667 10.5 -92 31.5
s-33 54.167 -35 99.5h374zM170.997 314c0.666992 10 2.83301 21.333 6.5 34s10 24.667 19 36s21 20.833 36 28.5s33.833 11.5 56.5 11.5c34.667 0 60.5 -9.33301 77.5 -28s29.167 -46 36.5 -82h-232zM223.996 581h129l110 142h-111l-64 -82l-64 82h-112z" />
    <glyph glyph-name="iacute" unicode="&#xed;" horiz-adv-x="258" 
d="M58 0h142v517h-142v-517zM54 581h99l154 142h-157z" />
    <glyph glyph-name="icircumflex" unicode="&#xee;" horiz-adv-x="258" 
d="M58 0h142v517h-142v-517zM-46 581h107l68 82l59 -82h116l-110 142h-129z" />
    <glyph glyph-name="dcaron" unicode="&#xef;" horiz-adv-x="741" 
d="M626 597l56 0.000976562c-0.666992 -27.333 -5.5 -46.333 -14.5 -57s-22.833 -18.334 -41.5 -23.001v-52c24 3.33301 43.667 9.33301 59 18s27.333 19.5 36 32.5s14.667 27.667 18 44s5 33.5 5 51.5v103h-118v-117zM423 0.000976562h135.002v714h-142v-260h-2
c-16 25.333 -37.833 44.5 -65.5 57.5s-56.834 19.5 -87.501 19.5c-38 0 -71.333 -7.5 -100 -22.5s-52.5 -34.833 -71.5 -59.5s-33.333 -53.167 -43 -85.5s-14.5 -65.833 -14.5 -100.5c0 -36 4.83301 -70.667 14.5 -104s24 -62.833 43 -88.5s43 -46.167 72 -61.5
s63.167 -23 102.5 -23c33.333 0 63.666 6.33301 90.999 19s49.333 33 66 61h2v-66zM421.002 260.001c0 -21.333 -2.00195 -42 -6.00195 -62s-10.667 -37.833 -20 -53.5s-21.833 -28.167 -37.5 -37.5s-35.167 -14 -58.5 -14c-22 0 -40.833 4.83301 -56.5 14.5
s-28.667 22.334 -39 38.001s-17.833 33.5 -22.5 53.5s-7 40 -7 60c0 21.333 2.16699 41.833 6.5 61.5s11.333 37.167 21 52.5s22.5 27.666 38.5 36.999s35.667 14 59 14c22.667 0 41.834 -4.66699 57.501 -14s28.334 -21.5 38.001 -36.5s16.5 -32.5 20.5 -52.5
s6 -40.333 6 -61z" />
    <glyph glyph-name="dcaron" unicode="&#x10f;" horiz-adv-x="741" 
d="M626 597l56 0.000976562c-0.666992 -27.333 -5.5 -46.333 -14.5 -57s-22.833 -18.334 -41.5 -23.001v-52c24 3.33301 43.667 9.33301 59 18s27.333 19.5 36 32.5s14.667 27.667 18 44s5 33.5 5 51.5v103h-118v-117zM423 0.000976562h135.002v714h-142v-260h-2
c-16 25.333 -37.833 44.5 -65.5 57.5s-56.834 19.5 -87.501 19.5c-38 0 -71.333 -7.5 -100 -22.5s-52.5 -34.833 -71.5 -59.5s-33.333 -53.167 -43 -85.5s-14.5 -65.833 -14.5 -100.5c0 -36 4.83301 -70.667 14.5 -104s24 -62.833 43 -88.5s43 -46.167 72 -61.5
s63.167 -23 102.5 -23c33.333 0 63.666 6.33301 90.999 19s49.333 33 66 61h2v-66zM421.002 260.001c0 -21.333 -2.00195 -42 -6.00195 -62s-10.667 -37.833 -20 -53.5s-21.833 -28.167 -37.5 -37.5s-35.167 -14 -58.5 -14c-22 0 -40.833 4.83301 -56.5 14.5
s-28.667 22.334 -39 38.001s-17.833 33.5 -22.5 53.5s-7 40 -7 60c0 21.333 2.16699 41.833 6.5 61.5s11.333 37.167 21 52.5s22.5 27.666 38.5 36.999s35.667 14 59 14c22.667 0 41.834 -4.66699 57.501 -14s28.334 -21.5 38.001 -36.5s16.5 -32.5 20.5 -52.5
s6 -40.333 6 -61z" />
    <glyph glyph-name="dcroat" unicode="&#xf0;" horiz-adv-x="611" 
d="M421 260c0 -21.333 -2.00195 -42 -6.00195 -62s-10.667 -37.833 -20 -53.5s-21.833 -28.167 -37.5 -37.5s-35.167 -14 -58.5 -14c-22 0 -40.833 4.83301 -56.5 14.5s-28.667 22.334 -39 38.001s-17.833 33.5 -22.5 53.5s-7 40 -7 60c0 21.333 2.16699 41.833 6.5 61.5
s11.333 37.167 21 52.5s22.5 27.666 38.5 36.999s35.667 14 59 14c22.667 0 41.834 -4.66699 57.501 -14s28.334 -21.5 38.001 -36.5s16.5 -32.5 20.5 -52.5s6 -40.333 6 -61zM415.998 454h-1.99707h1c-16.667 25.333 -38.834 44.5 -66.501 57.5s-56.834 19.5 -87.501 19.5
c-38 0 -71.333 -7.5 -100 -22.5s-52.5 -34.833 -71.5 -59.5s-33.333 -53.167 -43 -85.5s-14.5 -65.833 -14.5 -100.5c0 -36 4.83301 -70.667 14.5 -104s24 -62.833 43 -88.5s43 -46.167 72 -61.5s63.167 -23 102.5 -23c33.333 0 63.666 6.33301 90.999 19s49.333 33 66 61h2
v-66h135v592h98v65h-98v57h-142v-57h-164v-65h164v-138z" />
    <glyph glyph-name="dcroat" unicode="&#x111;" horiz-adv-x="611" 
d="M421 260c0 -21.333 -2.00195 -42 -6.00195 -62s-10.667 -37.833 -20 -53.5s-21.833 -28.167 -37.5 -37.5s-35.167 -14 -58.5 -14c-22 0 -40.833 4.83301 -56.5 14.5s-28.667 22.334 -39 38.001s-17.833 33.5 -22.5 53.5s-7 40 -7 60c0 21.333 2.16699 41.833 6.5 61.5
s11.333 37.167 21 52.5s22.5 27.666 38.5 36.999s35.667 14 59 14c22.667 0 41.834 -4.66699 57.501 -14s28.334 -21.5 38.001 -36.5s16.5 -32.5 20.5 -52.5s6 -40.333 6 -61zM415.998 454h-1.99707h1c-16.667 25.333 -38.834 44.5 -66.501 57.5s-56.834 19.5 -87.501 19.5
c-38 0 -71.333 -7.5 -100 -22.5s-52.5 -34.833 -71.5 -59.5s-33.333 -53.167 -43 -85.5s-14.5 -65.833 -14.5 -100.5c0 -36 4.83301 -70.667 14.5 -104s24 -62.833 43 -88.5s43 -46.167 72 -61.5s63.167 -23 102.5 -23c33.333 0 63.666 6.33301 90.999 19s49.333 33 66 61h2
v-66h135v592h98v65h-98v57h-142v-57h-164v-65h164v-138z" />
    <glyph glyph-name="nacute" unicode="&#xf1;" horiz-adv-x="593" 
d="M54 0l142 0.00195312v271c0 52.667 8.66699 90.5 26 113.5s45.333 34.5 84 34.5c33.333 0 56.833 -10.5 70.5 -31.5s20.5 -52.833 20.5 -95.5v-292h142v318c0 32 -2.83301 61.167 -8.5 87.5s-15.5 48.666 -29.5 66.999s-33.167 32.666 -57.5 42.999
s-55.5 15.5 -93.5 15.5c-30 0 -59.333 -7 -88 -21s-52 -35.667 -70 -65h-3v72h-135v-517zM221 581.002h99l154 142h-157z" />
    <glyph glyph-name="nacute" unicode="&#x144;" horiz-adv-x="593" 
d="M54 0l142 0.00195312v271c0 52.667 8.66699 90.5 26 113.5s45.333 34.5 84 34.5c33.333 0 56.833 -10.5 70.5 -31.5s20.5 -52.833 20.5 -95.5v-292h142v318c0 32 -2.83301 61.167 -8.5 87.5s-15.5 48.666 -29.5 66.999s-33.167 32.666 -57.5 42.999
s-55.5 15.5 -93.5 15.5c-30 0 -59.333 -7 -88 -21s-52 -35.667 -70 -65h-3v72h-135v-517zM221 581.002h99l154 142h-157z" />
    <glyph glyph-name="ncaron" unicode="&#xf2;" horiz-adv-x="593" 
d="M54 0l142 0.00195312v271c0 52.667 8.66699 90.5 26 113.5s45.333 34.5 84 34.5c33.333 0 56.833 -10.5 70.5 -31.5s20.5 -52.833 20.5 -95.5v-292h142v318c0 32 -2.83301 61.167 -8.5 87.5s-15.5 48.666 -29.5 66.999s-33.167 32.666 -57.5 42.999
s-55.5 15.5 -93.5 15.5c-30 0 -59.333 -7 -88 -21s-52 -35.667 -70 -65h-3v72h-135v-517zM233 581.002h129l110 142h-111l-64 -82l-64 82h-112z" />
    <glyph glyph-name="ncaron" unicode="&#x148;" horiz-adv-x="593" 
d="M54 0l142 0.00195312v271c0 52.667 8.66699 90.5 26 113.5s45.333 34.5 84 34.5c33.333 0 56.833 -10.5 70.5 -31.5s20.5 -52.833 20.5 -95.5v-292h142v318c0 32 -2.83301 61.167 -8.5 87.5s-15.5 48.666 -29.5 66.999s-33.167 32.666 -57.5 42.999
s-55.5 15.5 -93.5 15.5c-30 0 -59.333 -7 -88 -21s-52 -35.667 -70 -65h-3v72h-135v-517zM233 581.002h129l110 142h-111l-64 -82l-64 82h-112z" />
    <glyph glyph-name="oacute" unicode="&#xf3;" horiz-adv-x="611" 
d="M38 258c0 -41.333 6.33301 -78.666 19 -111.999s30.667 -61.833 54 -85.5s51.333 -42 84 -55s69.334 -19.5 110.001 -19.5s77.5 6.5 110.5 19.5s61.167 31.333 84.5 55s41.333 52.167 54 85.5s19 70.666 19 111.999s-6.33301 78.833 -19 112.5s-30.667 62.334 -54 86.001
s-51.5 42 -84.5 55s-69.833 19.5 -110.5 19.5s-77.334 -6.5 -110.001 -19.5s-60.667 -31.333 -84 -55s-41.333 -52.334 -54 -86.001s-19 -71.167 -19 -112.5zM180 258c0 20.667 2 41 6 61s10.833 37.667 20.5 53s22.5 27.833 38.5 37.5s36 14.5 60 14.5
s44.167 -4.83301 60.5 -14.5s29.333 -22.167 39 -37.5s16.5 -33 20.5 -53s6 -40.333 6 -61s-2 -40.834 -6 -60.501s-10.833 -37.334 -20.5 -53.001s-22.667 -28.167 -39 -37.5s-36.5 -14 -60.5 -14s-44 4.66699 -60 14s-28.833 21.833 -38.5 37.5s-16.5 33.334 -20.5 53.001
s-6 39.834 -6 60.501zM230 581h99l154 142h-157z" />
    <glyph glyph-name="ocircumflex" unicode="&#xf4;" horiz-adv-x="611" 
d="M38 258c0 -41.333 6.33301 -78.666 19 -111.999s30.667 -61.833 54 -85.5s51.333 -42 84 -55s69.334 -19.5 110.001 -19.5s77.5 6.5 110.5 19.5s61.167 31.333 84.5 55s41.333 52.167 54 85.5s19 70.666 19 111.999s-6.33301 78.833 -19 112.5s-30.667 62.334 -54 86.001
s-51.5 42 -84.5 55s-69.833 19.5 -110.5 19.5s-77.334 -6.5 -110.001 -19.5s-60.667 -31.333 -84 -55s-41.333 -52.334 -54 -86.001s-19 -71.167 -19 -112.5zM180 258c0 20.667 2 41 6 61s10.833 37.667 20.5 53s22.5 27.833 38.5 37.5s36 14.5 60 14.5
s44.167 -4.83301 60.5 -14.5s29.333 -22.167 39 -37.5s16.5 -33 20.5 -53s6 -40.333 6 -61s-2 -40.834 -6 -60.501s-10.833 -37.334 -20.5 -53.001s-22.667 -28.167 -39 -37.5s-36.5 -14 -60.5 -14s-44 4.66699 -60 14s-28.833 21.833 -38.5 37.5s-16.5 33.334 -20.5 53.001
s-6 39.834 -6 60.501zM130 581h107l68 82l59 -82h116l-110 142h-129z" />
    <glyph glyph-name="ohungarumlaut" unicode="&#xf5;" horiz-adv-x="611" 
d="M38 258c0 -41.333 6.33301 -78.666 19 -111.999s30.667 -61.833 54 -85.5s51.333 -42 84 -55s69.334 -19.5 110.001 -19.5s77.5 6.5 110.5 19.5s61.167 31.333 84.5 55s41.333 52.167 54 85.5s19 70.666 19 111.999s-6.33301 78.833 -19 112.5s-30.667 62.334 -54 86.001
s-51.5 42 -84.5 55s-69.833 19.5 -110.5 19.5s-77.334 -6.5 -110.001 -19.5s-60.667 -31.333 -84 -55s-41.333 -52.334 -54 -86.001s-19 -71.167 -19 -112.5zM180 258c0 20.667 2 41 6 61s10.833 37.667 20.5 53s22.5 27.833 38.5 37.5s36 14.5 60 14.5
s44.167 -4.83301 60.5 -14.5s29.333 -22.167 39 -37.5s16.5 -33 20.5 -53s6 -40.333 6 -61s-2 -40.834 -6 -60.501s-10.833 -37.334 -20.5 -53.001s-22.667 -28.167 -39 -37.5s-36.5 -14 -60.5 -14s-44 4.66699 -60 14s-28.833 21.833 -38.5 37.5s-16.5 33.334 -20.5 53.001
s-6 39.834 -6 60.501zM120 581h99l149 142h-157zM327 581h99l149 142h-157z" />
    <glyph glyph-name="ohungarumlaut" unicode="&#x151;" horiz-adv-x="611" 
d="M38 258c0 -41.333 6.33301 -78.666 19 -111.999s30.667 -61.833 54 -85.5s51.333 -42 84 -55s69.334 -19.5 110.001 -19.5s77.5 6.5 110.5 19.5s61.167 31.333 84.5 55s41.333 52.167 54 85.5s19 70.666 19 111.999s-6.33301 78.833 -19 112.5s-30.667 62.334 -54 86.001
s-51.5 42 -84.5 55s-69.833 19.5 -110.5 19.5s-77.334 -6.5 -110.001 -19.5s-60.667 -31.333 -84 -55s-41.333 -52.334 -54 -86.001s-19 -71.167 -19 -112.5zM180 258c0 20.667 2 41 6 61s10.833 37.667 20.5 53s22.5 27.833 38.5 37.5s36 14.5 60 14.5
s44.167 -4.83301 60.5 -14.5s29.333 -22.167 39 -37.5s16.5 -33 20.5 -53s6 -40.333 6 -61s-2 -40.834 -6 -60.501s-10.833 -37.334 -20.5 -53.001s-22.667 -28.167 -39 -37.5s-36.5 -14 -60.5 -14s-44 4.66699 -60 14s-28.833 21.833 -38.5 37.5s-16.5 33.334 -20.5 53.001
s-6 39.834 -6 60.501zM120 581h99l149 142h-157zM327 581h99l149 142h-157z" />
    <glyph glyph-name="odieresis" unicode="&#xf6;" horiz-adv-x="611" 
d="M38 258c0 -41.333 6.33301 -78.666 19 -111.999s30.667 -61.833 54 -85.5s51.333 -42 84 -55s69.334 -19.5 110.001 -19.5s77.5 6.5 110.5 19.5s61.167 31.333 84.5 55s41.333 52.167 54 85.5s19 70.666 19 111.999s-6.33301 78.833 -19 112.5s-30.667 62.334 -54 86.001
s-51.5 42 -84.5 55s-69.833 19.5 -110.5 19.5s-77.334 -6.5 -110.001 -19.5s-60.667 -31.333 -84 -55s-41.333 -52.334 -54 -86.001s-19 -71.167 -19 -112.5zM180 258c0 20.667 2 41 6 61s10.833 37.667 20.5 53s22.5 27.833 38.5 37.5s36 14.5 60 14.5
s44.167 -4.83301 60.5 -14.5s29.333 -22.167 39 -37.5s16.5 -33 20.5 -53s6 -40.333 6 -61s-2 -40.834 -6 -60.501s-10.833 -37.334 -20.5 -53.001s-22.667 -28.167 -39 -37.5s-36.5 -14 -60.5 -14s-44 4.66699 -60 14s-28.833 21.833 -38.5 37.5s-16.5 33.334 -20.5 53.001
s-6 39.834 -6 60.501zM341 597h135v117h-135v-117zM135 597h135v117h-135v-117z" />
    <glyph glyph-name="divide" unicode="&#xf7;" horiz-adv-x="600" 
d="M48 199h505v107h-505v-107zM216 460c0 -11.333 2.33398 -22.167 7.00098 -32.5s10.834 -19.333 18.501 -27s16.667 -13.667 27 -18s21.5 -6.5 33.5 -6.5c10.667 0 21.167 2.33301 31.5 7s19.166 11 26.499 19s13.333 17 18 27s7 20.333 7 31
c0 23.333 -8.33301 43.333 -25 60s-36.334 25 -59.001 25c-11.333 0 -22.166 -2.16699 -32.499 -6.5s-19.333 -10.333 -27 -18s-13.834 -16.667 -18.501 -27s-7 -21.5 -7 -33.5zM216.001 44.999c0 -11.333 2.33398 -22.165 7.00098 -32.498s10.834 -19.333 18.501 -27
s16.667 -13.834 27 -18.501s21.5 -7 33.5 -7c10.667 0 21.167 2.5 31.5 7.5s19.166 11.5 26.499 19.5s13.333 17 18 27s7 20.333 7 31c0 23.333 -8.33301 43.166 -25 59.499s-36.334 24.5 -59.001 24.5c-11.333 0 -22.166 -2.16699 -32.499 -6.5s-19.333 -10.333 -27 -18
s-13.834 -16.5 -18.501 -26.5s-7 -21 -7 -33z" />
    <glyph glyph-name="rcaron" unicode="&#xf8;" horiz-adv-x="389" 
d="M54 0l142 0.000976562v233c0 22.667 2.33301 44.167 7 64.5s12.5 38 23.5 53s25.5 26.833 43.5 35.5s40 13 66 13c8.66699 0 17.667 -0.5 27 -1.5s17.333 -2.16699 24 -3.5v132c-10 3.33301 -20.333 5 -31 5c-17.333 0 -34.5 -2.66699 -51.5 -8
s-32.833 -12.833 -47.5 -22.5s-27.667 -21.334 -39 -35.001s-20.333 -28.5 -27 -44.5h-2v96h-135v-517zM131 581.001h129l110 142h-111l-64 -82l-64 82h-112z" />
    <glyph glyph-name="rcaron" unicode="&#x159;" horiz-adv-x="389" 
d="M54 0l142 0.000976562v233c0 22.667 2.33301 44.167 7 64.5s12.5 38 23.5 53s25.5 26.833 43.5 35.5s40 13 66 13c8.66699 0 17.667 -0.5 27 -1.5s17.333 -2.16699 24 -3.5v132c-10 3.33301 -20.333 5 -31 5c-17.333 0 -34.5 -2.66699 -51.5 -8
s-32.833 -12.833 -47.5 -22.5s-27.667 -21.334 -39 -35.001s-20.333 -28.5 -27 -44.5h-2v96h-135v-517zM131 581.001h129l110 142h-111l-64 -82l-64 82h-112z" />
    <glyph glyph-name="uring" unicode="&#xf9;" horiz-adv-x="593" 
d="M54 199c0 -32 2.83301 -61.1689 8.5 -87.502s15.5 -48.666 29.5 -66.999s33.167 -32.666 57.5 -42.999s55.5 -15.5 93.5 -15.5c30 0 59.333 7 88 21s52 35.667 70 65h3v-72h135v517h-142v-271c0 -52.667 -8.66699 -90.5 -26 -113.5s-45.333 -34.5 -84 -34.5
c-33.333 0 -56.833 10.5 -70.5 31.5s-20.5 52.833 -20.5 95.5v292h-142v-318zM233 655.998c0 19.333 5.66699 35.833 17 49.5s26.666 20.5 45.999 20.5s34.833 -6.83301 46.5 -20.5s17.5 -30.167 17.5 -49.5s-5.83301 -35.833 -17.5 -49.5s-27.167 -20.5 -46.5 -20.5
s-34.666 6.83301 -45.999 20.5s-17 30.167 -17 49.5zM174 655.998c0 -16.667 3.16699 -32.5 9.5 -47.5s15 -28 26 -39s24 -19.667 39 -26s30.833 -9.5 47.5 -9.5s32.5 3.16699 47.5 9.5s28.167 15 39.5 26s20.166 24 26.499 39s9.5 30.833 9.5 47.5s-3.16699 32.5 -9.5 47.5
s-15.166 28 -26.499 39s-24.5 19.667 -39.5 26s-30.833 9.5 -47.5 9.5s-32.5 -3.16699 -47.5 -9.5s-28 -15 -39 -26s-19.667 -24 -26 -39s-9.5 -30.833 -9.5 -47.5z" />
    <glyph glyph-name="uring" unicode="&#x16f;" horiz-adv-x="593" 
d="M54 199c0 -32 2.83301 -61.1689 8.5 -87.502s15.5 -48.666 29.5 -66.999s33.167 -32.666 57.5 -42.999s55.5 -15.5 93.5 -15.5c30 0 59.333 7 88 21s52 35.667 70 65h3v-72h135v517h-142v-271c0 -52.667 -8.66699 -90.5 -26 -113.5s-45.333 -34.5 -84 -34.5
c-33.333 0 -56.833 10.5 -70.5 31.5s-20.5 52.833 -20.5 95.5v292h-142v-318zM233 655.998c0 19.333 5.66699 35.833 17 49.5s26.666 20.5 45.999 20.5s34.833 -6.83301 46.5 -20.5s17.5 -30.167 17.5 -49.5s-5.83301 -35.833 -17.5 -49.5s-27.167 -20.5 -46.5 -20.5
s-34.666 6.83301 -45.999 20.5s-17 30.167 -17 49.5zM174 655.998c0 -16.667 3.16699 -32.5 9.5 -47.5s15 -28 26 -39s24 -19.667 39 -26s30.833 -9.5 47.5 -9.5s32.5 3.16699 47.5 9.5s28.167 15 39.5 26s20.166 24 26.499 39s9.5 30.833 9.5 47.5s-3.16699 32.5 -9.5 47.5
s-15.166 28 -26.499 39s-24.5 19.667 -39.5 26s-30.833 9.5 -47.5 9.5s-32.5 -3.16699 -47.5 -9.5s-28 -15 -39 -26s-19.667 -24 -26 -39s-9.5 -30.833 -9.5 -47.5z" />
    <glyph glyph-name="uacute" unicode="&#xfa;" horiz-adv-x="593" 
d="M54 199c0 -32 2.83301 -61.1689 8.5 -87.502s15.5 -48.666 29.5 -66.999s33.167 -32.666 57.5 -42.999s55.5 -15.5 93.5 -15.5c30 0 59.333 7 88 21s52 35.667 70 65h3v-72h135v517h-142v-271c0 -52.667 -8.66699 -90.5 -26 -113.5s-45.333 -34.5 -84 -34.5
c-33.333 0 -56.833 10.5 -70.5 31.5s-20.5 52.833 -20.5 95.5v292h-142v-318zM221 580.998h99l154 142h-157z" />
    <glyph glyph-name="uhungarumlaut" unicode="&#xfb;" horiz-adv-x="593" 
d="M54 199c0 -32 2.83301 -61.1689 8.5 -87.502s15.5 -48.666 29.5 -66.999s33.167 -32.666 57.5 -42.999s55.5 -15.5 93.5 -15.5c30 0 59.333 7 88 21s52 35.667 70 65h3v-72h135v517h-142v-271c0 -52.667 -8.66699 -90.5 -26 -113.5s-45.333 -34.5 -84 -34.5
c-33.333 0 -56.833 10.5 -70.5 31.5s-20.5 52.833 -20.5 95.5v292h-142v-318zM111 580.998h99l149 142h-157zM318 580.998h99l149 142h-157z" />
    <glyph glyph-name="uhungarumlaut" unicode="&#x171;" horiz-adv-x="593" 
d="M54 199c0 -32 2.83301 -61.1689 8.5 -87.502s15.5 -48.666 29.5 -66.999s33.167 -32.666 57.5 -42.999s55.5 -15.5 93.5 -15.5c30 0 59.333 7 88 21s52 35.667 70 65h3v-72h135v517h-142v-271c0 -52.667 -8.66699 -90.5 -26 -113.5s-45.333 -34.5 -84 -34.5
c-33.333 0 -56.833 10.5 -70.5 31.5s-20.5 52.833 -20.5 95.5v292h-142v-318zM111 580.998h99l149 142h-157zM318 580.998h99l149 142h-157z" />
    <glyph glyph-name="udieresis" unicode="&#xfc;" horiz-adv-x="593" 
d="M54 199c0 -32 2.83301 -61.1689 8.5 -87.502s15.5 -48.666 29.5 -66.999s33.167 -32.666 57.5 -42.999s55.5 -15.5 93.5 -15.5c30 0 59.333 7 88 21s52 35.667 70 65h3v-72h135v517h-142v-271c0 -52.667 -8.66699 -90.5 -26 -113.5s-45.333 -34.5 -84 -34.5
c-33.333 0 -56.833 10.5 -70.5 31.5s-20.5 52.833 -20.5 95.5v292h-142v-318zM332 596.998h135v117h-135v-117zM126 596.998h135v117h-135v-117z" />
    <glyph glyph-name="yacute" unicode="&#xfd;" horiz-adv-x="519" 
d="M176 32c4 -10 6.00098 -20.666 6.00098 -31.999c0 -19.333 -5.5 -35 -16.5 -47s-23.833 -18 -38.5 -18c-13.333 0 -27 0.5 -41 1.5s-28 2.83301 -42 5.5v-117c27.333 -4.66699 56.333 -7 87 -7c48.667 0 86.667 9.16699 114 27.5s48.666 48.166 63.999 89.499l216 582
h-147l-113 -354h-2l-117 354h-152zM184.001 581.001h99l154 142h-157z" />
    <glyph glyph-name="tcommaaccent" unicode="&#xfe;" horiz-adv-x="352" 
d="M92 117c0 -26 4.33301 -47.001 13 -63.001s20.5 -28.5 35.5 -37.5s32.333 -15 52 -18s40.5 -4.5 62.5 -4.5c14 0 28.333 0.333008 43 1s28 2.33398 40 5.00098v110c-13.333 -2.66699 -28 -4 -44 -4c-24 0 -40 4 -48 12s-12 24 -12 48v256h104v95h-104v155h-142v-155h-86
v-95h86v-305zM163 -157.001l56 0.000976562c-0.666992 -27.333 -5.5 -46.333 -14.5 -57s-22.833 -18.334 -41.5 -23.001v-52c24 3.33301 43.667 9.33301 59 18s27.333 19.5 36 32.5s14.667 27.667 18 44s5 33.5 5 51.5v103h-118v-117z" />
    <glyph glyph-name="tcommaaccent" unicode="&#x163;" horiz-adv-x="352" 
d="M92 117c0 -26 4.33301 -47.001 13 -63.001s20.5 -28.5 35.5 -37.5s32.333 -15 52 -18s40.5 -4.5 62.5 -4.5c14 0 28.333 0.333008 43 1s28 2.33398 40 5.00098v110c-13.333 -2.66699 -28 -4 -44 -4c-24 0 -40 4 -48 12s-12 24 -12 48v256h104v95h-104v155h-142v-155h-86
v-95h86v-305zM163 -157.001l56 0.000976562c-0.666992 -27.333 -5.5 -46.333 -14.5 -57s-22.833 -18.334 -41.5 -23.001v-52c24 3.33301 43.667 9.33301 59 18s27.333 19.5 36 32.5s14.667 27.667 18 44s5 33.5 5 51.5v103h-118v-117z" />
    <glyph glyph-name="dotaccent" unicode="&#xff;" horiz-adv-x="259" 
d="M62 597h135v117h-135v-117z" />
    <glyph glyph-name="dotaccent" unicode="&#x2d9;" horiz-adv-x="259" 
d="M62 597h135v117h-135v-117z" />
    <glyph glyph-name="Amacron" unicode="&#x100;" horiz-adv-x="685" 
d="M-7 0h159l56 159h267l54 -159h163l-267 714h-161zM342 538h2l90 -262h-185zM156 815h373v75h-373v-75z" />
    <glyph glyph-name="amacron" unicode="&#x101;" 
d="M376 200c0 -8 -0.835938 -18.666 -2.50293 -31.999s-6.16699 -26.5 -13.5 -39.5s-18.666 -24.167 -33.999 -33.5s-37 -14 -65 -14c-11.333 0 -22.333 1 -33 3s-20 5.5 -28 10.5s-14.333 11.667 -19 20s-7 19.166 -7 32.499c0 12.667 2.33301 23.5 7 32.5
s10.834 16.333 18.501 22s16.5 10.167 26.5 13.5s20.667 6 32 8c10.667 2 21.834 3.66699 33.501 5s22.667 3 33 5s20 4.5 29 7.5s16.5 7.16699 22.5 12.5v-53zM189.997 358.001c2.66699 28 12.167 48.001 28.5 60.001s38.166 18 65.499 18
c12.667 0 24.5 -0.833008 35.5 -2.5s20.667 -5 29 -10s15 -12 20 -21s7.5 -21.167 7.5 -36.5c0 -14.667 -4.66699 -25.834 -14 -33.501s-21.833 -13.5 -37.5 -17.5s-33.5 -7 -53.5 -9s-41 -4.66699 -63 -8s-43.5 -7.83301 -64.5 -13.5s-39.833 -14.167 -56.5 -25.5
s-30 -26.5 -40 -45.5s-15 -43.167 -15 -72.5c0 -26.667 4.5 -49.667 13.5 -69s21.5 -35.333 37.5 -48s34.667 -22.167 56 -28.5s44.333 -9.5 69 -9.5c32 0 63.333 4.83301 94 14.5s57.334 26.167 80.001 49.5c0.666992 -8.66699 1.83398 -17.167 3.50098 -25.5
s3.83398 -16.5 6.50098 -24.5h144c-6.66699 10.667 -11.334 26.667 -14.001 48s-4 43.666 -4 66.999v269c0 30.667 -7 55.667 -21 75s-32 34.333 -54 45s-46.333 17.834 -73 21.501s-53 5.5 -79 5.5c-29.333 0 -58 -2.83301 -86 -8.5s-53.333 -15.167 -76 -28.5
s-41.334 -31 -56.001 -53s-23 -49.667 -25 -83h142zM124.997 616.002h373v75h-373v-75z" />
    <glyph glyph-name="Emacron" unicode="&#x112;" horiz-adv-x="648" 
d="M69 0h542v132h-385v175h346v122h-346v153h377v132h-534v-714zM138 813h373v75h-373v-75z" />
    <glyph glyph-name="emacron" unicode="&#x113;" 
d="M544 224c2.66699 40 -0.668945 78.332 -10.002 114.999s-24.5 69.334 -45.5 98.001s-47.833 51.5 -80.5 68.5s-71 25.5 -115 25.5c-39.333 0 -75.166 -7 -107.499 -21s-60.166 -33.167 -83.499 -57.5s-41.333 -53.166 -54 -86.499s-19 -69.333 -19 -108
c0 -40 6.16699 -76.667 18.5 -110s29.833 -62 52.5 -86s50.334 -42.667 83.001 -56s69.334 -20 110.001 -20c58.667 0 108.667 13.667 150 41s72 71.666 92 132.999h-125c-4.66699 -16 -17.334 -31.167 -38.001 -45.5s-45.334 -21.5 -74.001 -21.5
c-40 0 -70.667 10.5 -92 31.5s-33 54.167 -35 99.5h373zM170.997 313.999c0.666992 10 2.83301 21.333 6.5 34s10 24.667 19 36s21 20.833 36 28.5s33.833 11.5 56.5 11.5c34.667 0 60.5 -9.33301 77.5 -28s28.833 -46 35.5 -82h-231zM106.996 615.999h373v75h-373v-75z" />
    <glyph glyph-name="Edotaccent" unicode="&#x116;" horiz-adv-x="648" 
d="M69 0h542v132h-385v175h346v122h-346v153h377v132h-534v-714zM257 794h135v117h-135v-117z" />
    <glyph glyph-name="edotaccent" unicode="&#x117;" 
d="M544 224c2.66699 40 -0.668945 78.332 -10.002 114.999s-24.5 69.334 -45.5 98.001s-47.833 51.5 -80.5 68.5s-71 25.5 -115 25.5c-39.333 0 -75.166 -7 -107.499 -21s-60.166 -33.167 -83.499 -57.5s-41.333 -53.166 -54 -86.499s-19 -69.333 -19 -108
c0 -40 6.16699 -76.667 18.5 -110s29.833 -62 52.5 -86s50.334 -42.667 83.001 -56s69.334 -20 110.001 -20c58.667 0 108.667 13.667 150 41s72 71.666 92 132.999h-125c-4.66699 -16 -17.334 -31.167 -38.001 -45.5s-45.334 -21.5 -74.001 -21.5
c-40 0 -70.667 10.5 -92 31.5s-33 54.167 -35 99.5h373zM170.997 313.999c0.666992 10 2.83301 21.333 6.5 34s10 24.667 19 36s21 20.833 36 28.5s33.833 11.5 56.5 11.5c34.667 0 60.5 -9.33301 77.5 -28s28.833 -46 35.5 -82h-231zM231.996 596.999h135v117h-135v-117z
" />
    <glyph glyph-name="Gbreve" unicode="&#x11e;" horiz-adv-x="759" 
d="M601 0l99.999 -0.00195312v386h-300v-117h158c-4.66699 -50 -21.334 -88.167 -50.001 -114.5s-68.667 -39.5 -120 -39.5c-35.333 0 -65.333 6.83301 -90 20.5s-44.667 31.834 -60 54.501s-26.5 48.167 -33.5 76.5s-10.5 57.5 -10.5 87.5c0 31.333 3.5 61.666 10.5 90.999
s18.167 55.5 33.5 78.5s35.333 41.333 60 55s54.667 20.5 90 20.5c37.333 0 69.5 -10 96.5 -30s45.167 -50 54.5 -90h150c-4 40.667 -15.167 76.667 -33.5 108s-41.166 57.666 -68.499 78.999s-58.166 37.5 -92.499 48.5s-69.833 16.5 -106.5 16.5
c-55.333 0 -104.666 -9.66699 -147.999 -29s-80 -46 -110 -80s-53 -74 -69 -120s-24 -95.333 -24 -148c0 -51.333 8 -99.666 24 -144.999s39 -84.666 69 -117.999s66.667 -59.666 110 -78.999s92.666 -29 147.999 -29c34.667 0 69 7.33301 103 22s65 40 93 76z
M210.999 923.998c4 -48 19.5029 -84.3301 46.5029 -108.997s64.5 -37 112.5 -37c49.333 0 89.666 11.5 120.999 34.5s50.333 60.167 57 111.5h-63c-6 -25.333 -18.333 -43.5 -37 -54.5s-43 -16.5 -73 -16.5c-10 0 -20.333 1.16699 -31 3.5s-20.834 6.16602 -30.501 11.499
s-17.834 12.666 -24.501 21.999s-11 20.666 -13 33.999h-65z" />
    <glyph glyph-name="gbreve" unicode="&#x11f;" horiz-adv-x="611" 
d="M551 517l-134.996 0.00195312v-69h-2c-17.333 30 -38.833 51.333 -64.5 64s-55.5 19 -89.5 19c-36 0 -67.833 -7 -95.5 -21s-50.834 -32.833 -69.501 -56.5s-32.834 -51 -42.501 -82s-14.5 -63.167 -14.5 -96.5c0 -35.333 4.16699 -68.833 12.5 -100.5
s21.5 -59.334 39.5 -83.001s41 -42.334 69 -56.001s61.333 -20.5 100 -20.5c31.333 0 61.166 6.5 89.499 19.5s50.166 33.167 65.499 60.5h2v-68c0.666992 -37.333 -8.33301 -68 -27 -92s-47.667 -36 -87 -36c-25.333 0 -47.666 5.16699 -66.999 15.5
s-32.333 28.833 -39 55.5h-141c2 -29.333 10.167 -54.5 24.5 -75.5s32.333 -38.167 54 -51.5s45.667 -23.166 72 -29.499s52.166 -9.5 77.499 -9.5c39.333 0 73.333 3.66699 102 11s53 17.166 73 29.499s36 26.333 48 42s21.333 32 28 49s11.167 34 13.5 51
s3.5 32.5 3.5 46.5v484zM295.004 122.002c-22 0 -40.334 4.66699 -55.001 14s-26.5 21.333 -35.5 36s-15.333 31.167 -19 49.5s-5.5 36.833 -5.5 55.5c0 19.333 2.16699 37.833 6.5 55.5s11.333 33.334 21 47.001s21.667 24.5 36 32.5s31.5 12 51.5 12
c22.667 0 41.834 -4.33301 57.501 -13s28.167 -20.334 37.5 -35.001s16 -31.667 20 -51s6 -39.333 6 -60c0 -18.667 -2.5 -36.5 -7.5 -53.5s-12.5 -32.167 -22.5 -45.5s-22.667 -24 -38 -32s-33 -12 -53 -12zM137.003 727.002c4 -48 19.5029 -84.3301 46.5029 -108.997
s64.5 -37 112.5 -37c49.333 0 89.666 11.5 120.999 34.5s50.333 60.167 57 111.5h-63c-6 -25.333 -18.333 -43.5 -37 -54.5s-43 -16.5 -73 -16.5c-10 0 -20.333 1.16699 -31 3.5s-20.834 6.16602 -30.501 11.499s-17.834 12.666 -24.501 21.999s-11 20.666 -13 33.999h-65z
" />
    <glyph glyph-name="Gcommaaccent" unicode="&#x122;" horiz-adv-x="759" 
d="M601 0l99.999 -0.00195312v386h-300v-117h158c-4.66699 -50 -21.334 -88.167 -50.001 -114.5s-68.667 -39.5 -120 -39.5c-35.333 0 -65.333 6.83301 -90 20.5s-44.667 31.834 -60 54.501s-26.5 48.167 -33.5 76.5s-10.5 57.5 -10.5 87.5c0 31.333 3.5 61.666 10.5 90.999
s18.167 55.5 33.5 78.5s35.333 41.333 60 55s54.667 20.5 90 20.5c37.333 0 69.5 -10 96.5 -30s45.167 -50 54.5 -90h150c-4 40.667 -15.167 76.667 -33.5 108s-41.166 57.666 -68.499 78.999s-58.166 37.5 -92.499 48.5s-69.833 16.5 -106.5 16.5
c-55.333 0 -104.666 -9.66699 -147.999 -29s-80 -46 -110 -80s-53 -74 -69 -120s-24 -95.333 -24 -148c0 -51.333 8 -99.666 24 -144.999s39 -84.666 69 -117.999s66.667 -59.666 110 -78.999s92.666 -29 147.999 -29c34.667 0 69 7.33301 103 22s65 40 93 76z
M320.999 -157.002l56 0.000976562c-0.666992 -27.333 -5.5 -46.333 -14.5 -57s-22.833 -18.334 -41.5 -23.001v-52c24 3.33301 43.667 9.33301 59 18s27.333 19.5 36 32.5s14.667 27.667 18 44s5 33.5 5 51.5v103h-118v-117z" />
    <glyph glyph-name="gcommaaccent" unicode="&#x123;" horiz-adv-x="611" 
d="M551 517l-134.996 0.00195312v-69h-2c-17.333 30 -38.833 51.333 -64.5 64s-55.5 19 -89.5 19c-36 0 -67.833 -7 -95.5 -21s-50.834 -32.833 -69.501 -56.5s-32.834 -51 -42.501 -82s-14.5 -63.167 -14.5 -96.5c0 -35.333 4.16699 -68.833 12.5 -100.5
s21.5 -59.334 39.5 -83.001s41 -42.334 69 -56.001s61.333 -20.5 100 -20.5c31.333 0 61.166 6.5 89.499 19.5s50.166 33.167 65.499 60.5h2v-68c0.666992 -37.333 -8.33301 -68 -27 -92s-47.667 -36 -87 -36c-25.333 0 -47.666 5.16699 -66.999 15.5
s-32.333 28.833 -39 55.5h-141c2 -29.333 10.167 -54.5 24.5 -75.5s32.333 -38.167 54 -51.5s45.667 -23.166 72 -29.499s52.166 -9.5 77.499 -9.5c39.333 0 73.333 3.66699 102 11s53 17.166 73 29.499s36 26.333 48 42s21.333 32 28 49s11.167 34 13.5 51
s3.5 32.5 3.5 46.5v484zM295.004 122.002c-22 0 -40.334 4.66699 -55.001 14s-26.5 21.333 -35.5 36s-15.333 31.167 -19 49.5s-5.5 36.833 -5.5 55.5c0 19.333 2.16699 37.833 6.5 55.5s11.333 33.334 21 47.001s21.667 24.5 36 32.5s31.5 12 51.5 12
c22.667 0 41.834 -4.33301 57.501 -13s28.167 -20.334 37.5 -35.001s16 -31.667 20 -51s6 -39.333 6 -60c0 -18.667 -2.5 -36.5 -7.5 -53.5s-12.5 -32.167 -22.5 -45.5s-22.667 -24 -38 -32s-33 -12 -53 -12zM367.003 698.002h-56c0 14 1.16699 25.5 3.5 34.5
s5.83301 16.5 10.5 22.5s10.5 10.667 17.5 14s15.167 6.33301 24.5 9v52c-24 -3.33301 -43.667 -9.33301 -59 -18s-27.333 -19.5 -36 -32.5s-14.667 -27.667 -18 -44s-5 -33.5 -5 -51.5v-103h118v117z" />
    <glyph glyph-name="Imacron" unicode="&#x12a;" horiz-adv-x="295" 
d="M69 0h157v714h-157v-714zM-39 813h373v75h-373v-75z" />
    <glyph glyph-name="imacron" unicode="&#x12b;" horiz-adv-x="258" 
d="M58 0h142v517h-142v-517zM-17 616h293v75h-293v-75z" />
    <glyph glyph-name="Iogonek" unicode="&#x12e;" horiz-adv-x="295" 
d="M69 0l49.001 0.00195312c-26.667 -16 -47.334 -30.833 -62.001 -44.5s-25.5 -26 -32.5 -37s-11.167 -20.333 -12.5 -28s-2 -13.834 -2 -18.501c0 -21.333 4.33301 -38 13 -50s19 -21 31 -27s24 -9.66699 36 -11s21 -2 27 -2c22.667 0 45.667 5 69 15s45 27.667 65 53
l-48 22c-9.33301 -12.667 -18.666 -20.834 -27.999 -24.501s-19.333 -5.5 -30 -5.5c-10 0 -19 3.16699 -27 9.5s-12 14.5 -12 24.5c0 8 1.33301 16.333 4 25s7 18 13 28s14.167 20.833 24.5 32.5s23.166 24.5 38.499 38.5h41v714h-157v-714z" />
    <glyph glyph-name="iogonek" unicode="&#x12f;" horiz-adv-x="258" 
d="M200 714h-142v-117h142v117zM58 0l39.001 0.00195312c-27.333 -16 -48.333 -30.833 -63 -44.5s-25.334 -26 -32.001 -37s-10.667 -20.333 -12 -28s-2 -13.834 -2 -18.501c0 -21.333 4.33301 -38 13 -50s19 -21 31 -27s24 -9.66699 36 -11s21 -2 27 -2
c22.667 0 45.667 5 69 15s45 27.667 65 53l-48 22c-9.33301 -12.667 -18.666 -20.834 -27.999 -24.501s-19.333 -5.5 -30 -5.5c-10 0 -19 3.16699 -27 9.5s-12 14.5 -12 24.5c0 8 1.33301 16.333 4 25s7 18 13 28s14.167 20.833 24.5 32.5s23.166 24.5 38.499 38.5h36v517
h-142v-517z" />
    <glyph glyph-name="Idotaccent" unicode="&#x130;" horiz-adv-x="295" 
d="M69 0h157v714h-157v-714zM80 794h135v117h-135v-117z" />
    <glyph glyph-name="dotlessi" unicode="&#x131;" horiz-adv-x="258" 
d="M58 0h142v517h-142v-517z" />
    <glyph glyph-name="Kcommaaccent" unicode="&#x136;" horiz-adv-x="722" 
d="M69 0h157v230l90 91l215 -321h197l-306 432l279 282h-196l-279 -296v296h-157v-714zM302 -157l56 0.000976562c-0.666992 -27.333 -5.5 -46.333 -14.5 -57s-22.833 -18.334 -41.5 -23.001v-52c24 3.33301 43.667 9.33301 59 18s27.333 19.5 36 32.5s14.667 27.667 18 44
s5 33.5 5 51.5v103h-118v-117z" />
    <glyph glyph-name="kcommaaccent" unicode="&#x137;" 
d="M67 0h142v178l55 53l142 -231h172l-217 327l195 190h-168l-179 -186v383h-142v-714zM228 -157l56 0.000976562c-0.666992 -27.333 -5.5 -46.333 -14.5 -57s-22.833 -18.334 -41.5 -23.001v-52c24 3.33301 43.667 9.33301 59 18s27.333 19.5 36 32.5s14.667 27.667 18 44
s5 33.5 5 51.5v103h-118v-117z" />
    <glyph glyph-name="Lcommaaccent" unicode="&#x13b;" horiz-adv-x="593" 
d="M69 0h505v132h-348v582h-157v-714zM238 -157l56 0.000976562c-0.666992 -27.333 -5.5 -46.333 -14.5 -57s-22.833 -18.334 -41.5 -23.001v-52c24 3.33301 43.667 9.33301 59 18s27.333 19.5 36 32.5s14.667 27.667 18 44s5 33.5 5 51.5v103h-118v-117z" />
    <glyph glyph-name="lcommaaccent" unicode="&#x13c;" horiz-adv-x="258" 
d="M58 0h142v714h-142v-714zM70 -157l56 0.000976562c-0.666992 -27.333 -5.5 -46.333 -14.5 -57s-22.833 -18.334 -41.5 -23.001v-52c24 3.33301 43.667 9.33301 59 18s27.333 19.5 36 32.5s14.667 27.667 18 44s5 33.5 5 51.5v103h-118v-117z" />
    <glyph glyph-name="Ncommaaccent" unicode="&#x145;" horiz-adv-x="741" 
d="M69 0h147v478h2l297 -478h157v714h-147v-479h-2l-298 479h-156v-714zM312 -157l56 0.000976562c-0.666992 -27.333 -5.5 -46.333 -14.5 -57s-22.833 -18.334 -41.5 -23.001v-52c24 3.33301 43.667 9.33301 59 18s27.333 19.5 36 32.5s14.667 27.667 18 44s5 33.5 5 51.5
v103h-118v-117z" />
    <glyph glyph-name="ncommaaccent" unicode="&#x146;" horiz-adv-x="593" 
d="M54 0l142 0.00195312v271c0 52.667 8.66699 90.5 26 113.5s45.333 34.5 84 34.5c33.333 0 56.833 -10.5 70.5 -31.5s20.5 -52.833 20.5 -95.5v-292h142v318c0 32 -2.83301 61.167 -8.5 87.5s-15.5 48.666 -29.5 66.999s-33.167 32.666 -57.5 42.999
s-55.5 15.5 -93.5 15.5c-30 0 -59.333 -7 -88 -21s-52 -35.667 -70 -65h-3v72h-135v-517zM238 -156.998l56 0.000976562c-0.666992 -27.333 -5.5 -46.333 -14.5 -57s-22.833 -18.334 -41.5 -23.001v-52c24 3.33301 43.667 9.33301 59 18s27.333 19.5 36 32.5
s14.667 27.667 18 44s5 33.5 5 51.5v103h-118v-117z" />
    <glyph glyph-name="Omacron" unicode="&#x14c;" horiz-adv-x="778" 
d="M38 354c0 -51.333 8 -99.666 24 -144.999s39 -84.666 69 -117.999s66.667 -59.666 110 -78.999s92.666 -29 147.999 -29s104.666 9.66699 147.999 29s80 45.666 110 78.999s53 72.666 69 117.999s24 93.666 24 144.999c0 52.667 -8 102 -24 148s-39 86 -69 120
s-66.667 60.667 -110 80s-92.666 29 -147.999 29s-104.666 -9.66699 -147.999 -29s-80 -46 -110 -80s-53 -74 -69 -120s-24 -95.333 -24 -148zM195 354c0 31.333 3.5 61.666 10.5 90.999s18.167 55.5 33.5 78.5s35.333 41.333 60 55s54.667 20.5 90 20.5
s65.333 -6.83301 90 -20.5s44.667 -32 60 -55s26.5 -49.167 33.5 -78.5s10.5 -59.666 10.5 -90.999c0 -30 -3.5 -59.167 -10.5 -87.5s-18.167 -53.833 -33.5 -76.5s-35.333 -40.834 -60 -54.501s-54.667 -20.5 -90 -20.5s-65.333 6.83301 -90 20.5
s-44.667 31.834 -60 54.501s-26.5 48.167 -33.5 76.5s-10.5 57.5 -10.5 87.5zM202 815h373v75h-373v-75z" />
    <glyph glyph-name="omacron" unicode="&#x14d;" horiz-adv-x="611" 
d="M38 258c0 -41.333 6.33301 -78.666 19 -111.999s30.667 -61.833 54 -85.5s51.333 -42 84 -55s69.334 -19.5 110.001 -19.5s77.5 6.5 110.5 19.5s61.167 31.333 84.5 55s41.333 52.167 54 85.5s19 70.666 19 111.999s-6.33301 78.833 -19 112.5s-30.667 62.334 -54 86.001
s-51.5 42 -84.5 55s-69.833 19.5 -110.5 19.5s-77.334 -6.5 -110.001 -19.5s-60.667 -31.333 -84 -55s-41.333 -52.334 -54 -86.001s-19 -71.167 -19 -112.5zM180 258c0 20.667 2 41 6 61s10.833 37.667 20.5 53s22.5 27.833 38.5 37.5s36 14.5 60 14.5
s44.167 -4.83301 60.5 -14.5s29.333 -22.167 39 -37.5s16.5 -33 20.5 -53s6 -40.333 6 -61s-2 -40.834 -6 -60.501s-10.833 -37.334 -20.5 -53.001s-22.667 -28.167 -39 -37.5s-36.5 -14 -60.5 -14s-44 4.66699 -60 14s-28.833 21.833 -38.5 37.5s-16.5 33.334 -20.5 53.001
s-6 39.834 -6 60.501zM125 616h373v75h-373v-75z" />
    <glyph glyph-name="OE" unicode="&#x152;" horiz-adv-x="649" 
d="M24 237c0 -44 8.50098 -82.001 25.501 -114.001s39.5 -58.333 67.5 -79s60.333 -36 97 -46s74.667 -15 114 -15c48.667 0 91.5 5.83301 128.5 17.5s68 27.667 93 48s43.833 44.5 56.5 72.5s19 58.333 19 91c0 30 -4.83301 56.333 -14.5 79s-23.334 42 -41.001 58
s-38.834 29.5 -63.501 40.5s-51.667 20.167 -81 27.5l-120.5 31c-29.667 8 -52.334 15.833 -68.001 23.5s-25.667 15.667 -30 24s-6.5 19.166 -6.5 32.499c0 14.667 3.33301 27.167 10 37.5s15.167 18.833 25.5 25.5s21.833 11.334 34.5 14.001s25.334 4 38.001 4
c18.667 0 36.334 -1.66699 53.001 -5s31.334 -9 44.001 -17s22.834 -19 30.501 -33s12.167 -31.667 13.5 -53h152c0 41.333 -7.83301 76.5 -23.5 105.5s-36.834 52.833 -63.501 71.5s-57.167 32.167 -91.5 40.5s-70.166 12.5 -107.499 12.5c-32 0 -64 -4.33301 -96 -13
s-60.667 -22 -86 -40s-45.833 -40.5 -61.5 -67.5s-23.5 -58.833 -23.5 -95.5c0 -33.333 6.16699 -61.5 18.5 -84.5s29 -42.5 50 -58.5s45.667 -29 74 -39s58.166 -18.667 89.499 -26c36 -8.66699 66.167 -16.667 90.5 -24s44.166 -15.166 59.499 -23.499
s26.333 -17.666 33 -27.999s10 -22.833 10 -37.5c0 -18 -4.66699 -32.833 -14 -44.5s-21 -20.834 -35 -27.501s-29 -11.167 -45 -13.5s-31 -3.5 -45 -3.5c-21.333 0 -41.5 2.5 -60.5 7.5s-35.667 12.667 -50 23s-25.833 23.833 -34.5 40.5s-13 37 -13 61h-152z
M249.001 777.999h99l154 142h-157z" />
    <glyph glyph-name="oe" unicode="&#x153;" horiz-adv-x="537" 
d="M29 168c1.33301 -34 9.17188 -62.665 23.5049 -85.998s32.666 -42.166 54.999 -56.499s47.833 -24.5 76.5 -30.5s58 -9 88 -9c29.333 0 58.166 3 86.499 9s53.5 16 75.5 30s39.833 32.5 53.5 55.5s20.5 51.5 20.5 85.5c0 23.333 -4.5 43.166 -13.5 59.499
s-21.667 30.333 -38 42s-36.333 21.334 -60 29.001s-49.834 14.5 -78.501 20.5c-48 9.33301 -82.5 18.666 -103.5 27.999s-31.5 23.666 -31.5 42.999c0 18.667 7.33301 31.334 22 38.001s33.667 10 57 10c25.333 0 47.333 -4.83301 66 -14.5s29 -28.167 31 -55.5h135
c-2.66699 32 -10.834 58.5 -24.501 79.5s-30.834 37.833 -51.501 50.5s-44.167 21.667 -70.5 27s-53.5 8 -81.5 8s-55.333 -2.5 -82 -7.5s-50.667 -13.667 -72 -26s-38.5 -29.333 -51.5 -51s-19.5 -48.834 -19.5 -81.501c0 -22.667 4.66699 -41.834 14 -57.501
s21.666 -28.667 36.999 -39s32.833 -18.666 52.5 -24.999s39.834 -11.833 60.501 -16.5c25.333 -5.33301 48 -10.5 68 -15.5s36.833 -10.5 50.5 -16.5s24.167 -12.833 31.5 -20.5s11 -16.834 11 -27.501c0 -12.667 -3 -23.167 -9 -31.5s-13.5 -15 -22.5 -20
s-19 -8.66699 -30 -11s-21.5 -3.5 -31.5 -3.5c-14 0 -27.5 1.66699 -40.5 5s-24.5 8.5 -34.5 15.5s-18.167 16 -24.5 27s-9.5 24.167 -9.5 39.5h-135zM193.006 581.002h99l154 142h-157z" />
    <glyph glyph-name="Rcommaaccent" unicode="&#x156;" horiz-adv-x="722" 
d="M69 0l157.005 -0.000976562v279h157c39.333 0 67.666 -8.66699 84.999 -26s28.666 -44.666 33.999 -81.999c2 -14 3.5 -28.833 4.5 -44.5s2.33301 -31 4 -46s3.66699 -29.333 6 -43s5.83301 -26.167 10.5 -37.5h157c-7.33301 10 -12.833 22.333 -16.5 37
s-6.33398 29.834 -8.00098 45.501s-2.83398 31.167 -3.50098 46.5s-1.33398 28.666 -2.00098 39.999c-1.33301 18 -3.83301 35.833 -7.5 53.5s-9.5 34.167 -17.5 49.5s-18.333 28.5 -31 39.5s-28.667 19.167 -48 24.5v2c40 16 68.833 39.333 86.5 70s26.5 67 26.5 109
c0 26.667 -4.83301 52 -14.5 76s-23.667 45 -42 63s-40.333 32.167 -66 42.5s-54.5 15.5 -86.5 15.5h-385v-714zM226.005 591.999l172 0.000976562c35.333 0 62.166 -7.83301 80.499 -23.5s27.5 -40.834 27.5 -75.501c0 -36 -9.16699 -62 -27.5 -78s-45.166 -24 -80.499 -24
h-172v201zM302.005 -157l56 0.000976562c-0.666992 -27.333 -5.5 -46.333 -14.5 -57s-22.833 -18.334 -41.5 -23.001v-52c24 3.33301 43.667 9.33301 59 18s27.333 19.5 36 32.5s14.667 27.667 18 44s5 33.5 5 51.5v103h-118v-117z" />
    <glyph glyph-name="rcommaaccent" unicode="&#x157;" horiz-adv-x="389" 
d="M54 0l142 0.000976562v233c0 22.667 2.33301 44.167 7 64.5s12.5 38 23.5 53s25.5 26.833 43.5 35.5s40 13 66 13c8.66699 0 17.667 -0.5 27 -1.5s17.333 -2.16699 24 -3.5v132c-10 3.33301 -20.333 5 -31 5c-17.333 0 -34.5 -2.66699 -51.5 -8
s-32.833 -12.833 -47.5 -22.5s-27.667 -21.334 -39 -35.001s-20.333 -28.5 -27 -44.5h-2v96h-135v-517zM66 -156.999l56 0.000976562c-0.666992 -27.333 -5.5 -46.333 -14.5 -57s-22.833 -18.334 -41.5 -23.001v-52c24 3.33301 43.667 9.33301 59 18s27.333 19.5 36 32.5
s14.667 27.667 18 44s5 33.5 5 51.5v103h-118v-117z" />
    <glyph glyph-name="Umacron" unicode="&#x16a;" horiz-adv-x="741" 
d="M675 714l-157 -0.00195312v-444c0 -53.333 -10.667 -92.5 -32 -117.5s-60 -37.5 -116 -37.5c-32 0 -57.5 4.33301 -76.5 13s-33.833 20.334 -44.5 35.001s-17.667 31.334 -21 50.001s-5 37.667 -5 57v444h-157v-444c0 -97.333 26.5 -169.5 79.5 -216.5
s127.833 -70.5 224.5 -70.5c95.333 0 170 23.667 224 71s81 119.333 81 216v444zM184 812.998h373v75h-373v-75z" />
    <glyph glyph-name="umacron" unicode="&#x16b;" horiz-adv-x="593" 
d="M539 517l-142 -0.00195312v-271c0 -52.667 -8.66699 -90.5 -26 -113.5s-45.333 -34.5 -84 -34.5c-33.333 0 -56.833 10.5 -70.5 31.5s-20.5 52.833 -20.5 95.5v292h-142v-318c0 -32 2.83301 -61.167 8.5 -87.5s15.5 -48.666 29.5 -66.999s33.167 -32.666 57.5 -42.999
s55.5 -15.5 93.5 -15.5c30 0 59.333 7 88 21s52 35.667 70 65h3v-72h135v517zM110 615.998h373v75h-373v-75z" />
    <glyph glyph-name="Uogonek" unicode="&#x172;" horiz-adv-x="741" 
d="M66 270c0 -97.333 26.501 -169.502 79.501 -216.502s127.833 -70.5 224.5 -70.5h19c6 0 12 0.666992 18 2c-21.333 -14 -37.833 -27.167 -49.5 -39.5s-20.334 -23.166 -26.001 -32.499s-9 -17.5 -10 -24.5s-1.5 -12.5 -1.5 -16.5c0 -21.333 4.33301 -38 13 -50
s19 -21 31 -27s24 -9.66699 36 -11s21 -2 27 -2c22.667 0 45.667 5 69 15s45 27.667 65 53l-48 22c-9.33301 -12.667 -18.666 -20.834 -27.999 -24.501s-19.333 -5.5 -30 -5.5c-10 0 -19 3.16699 -27 9.5s-12 14.5 -12 24.5c0 8 1.33301 16.333 4 25s7 18 13 28
s14.167 20.833 24.5 32.5s23.166 24.5 38.499 38.5c57.333 17.333 101.5 48.333 132.5 93s46.5 103.667 46.5 177v444h-157v-444c0 -53.333 -10.667 -92.5 -32 -117.5s-60 -37.5 -116 -37.5c-32 0 -57.5 4.33301 -76.5 13s-33.833 20.334 -44.5 35.001
s-17.667 31.334 -21 50.001s-5 37.667 -5 57v444h-157v-444z" />
    <glyph glyph-name="uogonek" unicode="&#x173;" horiz-adv-x="593" 
d="M539 517h-141.999v-271c0 -52.667 -8.66699 -90.5 -26 -113.5s-45.333 -34.5 -84 -34.5c-33.333 0 -56.833 10.5 -70.5 31.5s-20.5 52.833 -20.5 95.5v292h-142v-318c0 -32 2.83301 -61.167 8.5 -87.5s15.5 -48.666 29.5 -66.999s33.167 -32.666 57.5 -42.999
s55.5 -15.5 93.5 -15.5c30 0 59.333 7 88 21s52 35.667 70 65h3v-72h32c-26.667 -16 -47.334 -30.833 -62.001 -44.5s-25.5 -26 -32.5 -37s-11.167 -20.333 -12.5 -28s-2 -13.834 -2 -18.501c0 -21.333 4.33301 -38 13 -50s19 -21 31 -27s24 -9.66699 36 -11s21 -2 27 -2
c22.667 0 45.667 5 69 15s45 27.667 65 53l-48 22c-9.33301 -12.667 -18.666 -20.834 -27.999 -24.501s-19.333 -5.5 -30 -5.5c-10 0 -19 3.16699 -27 9.5s-12 14.5 -12 24.5c0 8 1.33301 16.333 4 25s7 18 13 28s14.167 20.833 24.5 32.5s23.166 24.5 38.499 38.5h36v517z
" />
    <glyph glyph-name="Ydieresis" unicode="&#x178;" horiz-adv-x="519" 
d="M22 0h475v107h-288l269 303v107h-436v-107h249l-269 -303v-107zM184 581h99l154 142h-157z" />
    <glyph glyph-name="florin" unicode="&#x192;" horiz-adv-x="556" 
d="M-5 -167c14 -1.33301 26.668 -2.16895 38.001 -2.50195s23.333 -0.5 36 -0.5c36.667 0 67.167 4 91.5 12s44.166 20.167 59.499 36.5s27.333 36.833 36 61.5s16 53.667 22 87l56 310h100l16 95h-98l25 130c4 21.333 11.167 37 21.5 47s28.5 15 54.5 15
c6.66699 0 13.167 -0.333008 19.5 -1s13.166 -2.66699 20.499 -6l18 107c-23.333 4.66699 -48.333 7 -75 7c-32.667 0 -60.667 -3 -84 -9s-43 -15.833 -59 -29.5s-29 -31.5 -39 -53.5s-18 -48.667 -24 -80l-24 -127h-91l-18 -95h92l-63 -329
c-4 -23.333 -10.667 -41.166 -20 -53.499s-26.666 -18.166 -51.999 -17.499c-14 0 -27.333 1 -40 3z" />
    <glyph glyph-name="circumflex" unicode="&#x2c6;" horiz-adv-x="259" 
d="M-46 581h108l64 81l62 -81h117l-110 142h-130z" />
    <glyph glyph-name="macron" unicode="&#x2c9;" horiz-adv-x="259" 
d="M-57 616h373v75h-373v-75z" />
    <glyph glyph-name="ring" unicode="&#x2da;" horiz-adv-x="259" 
d="M66 656c0 19.333 5.66699 35.833 17 49.5s26.666 20.5 45.999 20.5s34.833 -6.83301 46.5 -20.5s17.5 -30.167 17.5 -49.5s-5.83301 -35.833 -17.5 -49.5s-27.167 -20.5 -46.5 -20.5s-34.666 6.83301 -45.999 20.5s-17 30.167 -17 49.5zM7 656
c0 -16.667 3.16699 -32.5 9.5 -47.5s15 -28 26 -39s24 -19.667 39 -26s30.833 -9.5 47.5 -9.5s32.5 3.16699 47.5 9.5s28.167 15 39.5 26s20.166 24 26.499 39s9.5 30.833 9.5 47.5s-3.16699 32.5 -9.5 47.5s-15.166 28 -26.499 39s-24.5 19.667 -39.5 26
s-30.833 9.5 -47.5 9.5s-32.5 -3.16699 -47.5 -9.5s-28 -15 -39 -26s-19.667 -24 -26 -39s-9.5 -30.833 -9.5 -47.5z" />
    <glyph glyph-name="tilde" unicode="&#x2dc;" horiz-adv-x="259" 
d="M244 714c0.666992 -9.33301 -2.33496 -17.5 -9.00195 -24.5s-17.667 -10.5 -33 -10.5c-11.333 0 -22.5 1.83301 -33.5 5.5s-21.833 7.83398 -32.5 12.501l-31.5 11.5c-10.333 3.66699 -21.166 5.5 -32.499 5.5c-22 0 -40.333 -3.66699 -55 -11s-26.667 -16.833 -36 -28.5
s-16.666 -24.667 -21.999 -39s-9.66602 -28.833 -12.999 -43.5h61c3.33301 12.667 7.83301 22.834 13.5 30.501s15.167 11.5 28.5 11.5c11.333 0 22.666 -1.66699 33.999 -5s23.333 -7.33301 36 -12c12.667 -4 25.667 -7.83301 39 -11.5s27.666 -5.5 42.999 -5.5
c20.667 0 37.334 3.83301 50.001 11.5s23 17.167 31 28.5s14.333 23.666 19 36.999s8.66699 25.666 12 36.999h-69z" />
    <glyph glyph-name="Delta" unicode="&#x394;" horiz-adv-x="740" 
d="M532 122h-329l163 440zM22 0h696l-275 714h-146z" />
    <glyph glyph-name="partialdiff" unicode="&#x2202;" horiz-adv-x="548" 
d="M145 590c6 4.66699 12.832 9.66797 20.499 15.001s16.5 10.5 26.5 15.5s21 9.16699 33 12.5s25 5 39 5c6 0 14.667 -0.833008 26 -2.5s23.5 -5.66699 36.5 -12s25.833 -16.333 38.5 -30s23.667 -32.5 33 -56.5c3.33301 -9.33301 8.16602 -27.166 14.499 -53.499
s8.83301 -62.166 7.5 -107.499c-14.667 13.333 -29 23.833 -43 31.5s-27.333 13.5 -40 17.5s-24.334 6.5 -35.001 7.5s-20 1.5 -28 1.5c-32 0 -61.167 -5.5 -87.5 -16.5s-48.833 -26.333 -67.5 -46s-33.167 -42.834 -43.5 -69.501s-15.5 -55.667 -15.5 -87
c0 -26.667 4.33301 -53.5 13 -80.5s21.834 -51.333 39.501 -73s40.167 -39.334 67.5 -53.001s59.666 -20.5 96.999 -20.5c39.333 0 72.833 6.66699 100.5 20s50.834 30.666 69.501 51.999s33.334 45.5 44.001 72.5s18.834 54.333 24.501 82s9.16699 54.167 10.5 79.5
s2 47 2 65c0 14.667 -0.5 31.5 -1.5 50.5s-3.33301 38.833 -7 59.5s-8.5 41.5 -14.5 62.5s-14 40.5 -24 58.5c-21.333 38 -50.5 69.333 -87.5 94s-81.5 37 -133.5 37c-20.667 0 -39.5 -2 -56.5 -6s-32.5 -9.16699 -46.5 -15.5s-26.5 -13.333 -37.5 -21
s-21.167 -15.167 -30.5 -22.5zM163.999 210.001c0 18 2.50098 35.6689 7.50098 53.002s12.5 32.833 22.5 46.5s22.833 24.5 38.5 32.5s34.5 12 56.5 12c18 0 34 -2.5 48 -7.5s26.167 -11.167 36.5 -18.5s19.166 -14.833 26.499 -22.5l18 -18.5
c0.666992 -26.667 -1.5 -53.167 -6.5 -79.5s-13.167 -49.833 -24.5 -70.5s-25.833 -37.334 -43.5 -50.001s-38.5 -19 -62.5 -19c-14.667 0 -29 2.66699 -43 8s-26.5 13.666 -37.5 24.999s-19.833 26 -26.5 44s-10 39.667 -10 65z" />
    <glyph glyph-name="summation" unicode="&#x2211;" horiz-adv-x="643" 
d="M606 786h-568v-84l293 -411l-306 -420v-85h593v97h-456l298 409l-279 396h425v98z" />
    <glyph glyph-name="minus" unicode="&#x2212;" horiz-adv-x="600" 
d="M48 199h505v107h-505v-107z" />
    <glyph glyph-name="fraction" unicode="&#x2215;" horiz-adv-x="167" 
d="M-166 -22h87l412 744h-85z" />
    <glyph glyph-name="radical" unicode="&#x221a;" horiz-adv-x="531" 
d="M544 786h-110l-171 -835l-132 281l-143 -65l40 -85l49 23l154 -319h101z" />
    <glyph glyph-name="notequal" unicode="&#x2260;" horiz-adv-x="600" 
d="M48 92h106l-48 -95l95 -48l72 143h280v107h-226l54 107h172v107h-117l48 95l-95 48l-72 -143h-269v-107h215l-55 -107h-160v-107z" />
    <glyph glyph-name="lessequal" unicode="&#x2264;" horiz-adv-x="600" 
d="M553 100v113l-348 111l348 117v113l-505 -179v-102zM48 -41h505v107h-505v-107z" />
    <glyph glyph-name="greaterequal" unicode="&#x2265;" horiz-adv-x="600" 
d="M553 273v102l-505 179v-113l348 -117l-348 -111v-113zM553 66h-505v-107h505v107z" />
    <glyph glyph-name="lozenge" unicode="&#x25ca;" horiz-adv-x="600" 
d="M348 747h-96l-176 -391l176 -391h96l176 391zM421 356l-121 -291l-120 291l120 290z" />
    <glyph glyph-name=".361" unicode="&#xe000;" horiz-adv-x="1093" 
d="M544 0h507.003v132h-361v175h324v122h-324v153h354v132h-500v-51h-2c-10 12.667 -21.5 23.334 -34.5 32.001s-26.833 15.667 -41.5 21s-30 9.16602 -46 11.499s-31.667 3.5 -47 3.5c-52.667 0 -99.834 -10.333 -141.501 -31s-76.834 -48.5 -105.501 -83.5
s-50.5 -75.333 -65.5 -121s-22.5 -93.167 -22.5 -142.5s7.33301 -96.333 22 -141s36.167 -84 64.5 -118s63.166 -61 104.499 -81s88.333 -30 141 -30c31.333 0 62.5 6 93.5 18s57.167 29.667 78.5 53h2v-54zM538.003 278c0 -48.667 -14.168 -88.0029 -42.501 -118.003
s-66.5 -45 -114.5 -45c-33.333 0 -61.833 7 -85.5 21s-43 32.333 -58 55s-25.833 48.334 -32.5 77.001s-10 57.667 -10 87c0 30 3.33301 59.5 10 88.5s17.5 55 32.5 78s34.5 41.667 58.5 56s53.333 21.5 88 21.5c22 0 42.5 -3.66699 61.5 -11s35.333 -17.666 49 -30.999
s24.334 -29.166 32.001 -47.499s11.5 -38.833 11.5 -61.5v-170z" />
    <glyph glyph-name=".362" unicode="&#xe001;" horiz-adv-x="926" 
d="M528 314c1.33301 30.667 11.333 56.667 30 78s46 32 82 32c38 0 66.333 -10 85 -30s28.667 -46.667 30 -80h-227zM290 93c-21.333 0 -39.001 5.16602 -53.001 15.499s-25.333 23.5 -34 39.5s-14.667 33.5 -18 52.5s-5 37.5 -5 55.5c0 20 1.83301 40 5.5 60
s9.83398 38 18.501 54s20.167 29 34.5 39s32.5 15 54.5 15c24 0 43.167 -5.33301 57.5 -16s25.5 -24 33.5 -40s13.333 -33.667 16 -53s4 -37.666 4 -54.999c0 -18.667 -1.5 -37.834 -4.5 -57.501s-8.66699 -37.667 -17 -54s-19.833 -29.666 -34.5 -39.999
s-34 -15.5 -58 -15.5zM896.999 223.999c0 41.333 -4.66699 80.499 -14 117.499s-24.166 69.5 -44.499 97.5s-46.5 50.333 -78.5 67s-71 25 -117 25c-15.333 0 -31.333 -1.83301 -48 -5.5s-32.834 -9 -48.501 -16s-30.167 -15.5 -43.5 -25.5s-24.333 -21.667 -33 -35
c-9.33301 14.667 -20.666 27.334 -33.999 38.001s-27.833 19.167 -43.5 25.5s-32.167 11 -49.5 14s-34.333 4.5 -51 4.5c-38.667 0 -73.667 -7 -105 -21s-58 -33 -80 -57s-39 -52.5 -51 -85.5s-18 -68.5 -18 -106.5c0 -36.667 5.16699 -71.667 15.5 -105
s25.666 -62.5 45.999 -87.5s45.666 -45 75.999 -60s65.5 -22.5 105.5 -22.5c17.333 0 34.833 1.66699 52.5 5s34.667 8.5 51 15.5s31.333 16 45 27s25.167 24.5 34.5 40.5c20 -32 47.167 -54.667 81.5 -68s69.5 -20 105.5 -20c58.667 0 109.5 15.5 152.5 46.5
s72.833 74.833 89.5 131.5h-138c-9.33301 -23.333 -22.5 -41 -39.5 -53s-38.5 -18 -64.5 -18c-41.333 0 -72.166 12.5 -92.499 37.5s-30.5 56.167 -30.5 93.5h369z" />
    <glyph glyph-name=".363" unicode="&#xe002;" horiz-adv-x="667" 
d="M254 0h157v274l265 440h-175l-166 -282l-167 282h-177l263 -436v-278zM369 794h135v117h-135v-117zM163 794h135v117h-135v-117z" />
    <glyph glyph-name=".E003h" unicode="&#xe003;" horiz-adv-x="600" 
d="M552 406h-504v-107h397v-200h107v307z" />
    <glyph glyph-name="commaaccent" unicode="&#xf004;" horiz-adv-x="259" 
d="M71 -157l56 0.000976562c-0.666992 -27.333 -5.5 -46.333 -14.5 -57s-22.833 -18.334 -41.5 -23.001v-52c24 3.33301 43.667 9.33301 59 18s27.333 19.5 36 32.5s14.667 27.667 18 44s5 33.5 5 51.5v103h-118v-117z" />
    <glyph glyph-name="commaaccent" unicode="&#xf6c3;" horiz-adv-x="259" 
d="M71 -157l56 0.000976562c-0.666992 -27.333 -5.5 -46.333 -14.5 -57s-22.833 -18.334 -41.5 -23.001v-52c24 3.33301 43.667 9.33301 59 18s27.333 19.5 36 32.5s14.667 27.667 18 44s5 33.5 5 51.5v103h-118v-117z" />
    <glyph glyph-name="fi" unicode="&#xfb01;" horiz-adv-x="611" 
d="M553 714h-142v-117h142v117zM411 0h142v517h-142v-517zM85 0h142.002v422h98v95h-98v31c0 21.333 4.16699 36.5 12.5 45.5s22.166 13.5 41.499 13.5c17.333 0 34.666 -1 51.999 -3v106c-12 0.666992 -24.333 1.5 -37 2.5s-25.334 1.5 -38.001 1.5
c-29.333 0 -54.666 -3.83301 -75.999 -11.5s-39.333 -18.5 -54 -32.5s-25.5 -30.667 -32.5 -50s-10.5 -40.333 -10.5 -63v-40h-85v-95h85v-422z" />
    <glyph glyph-name="fl" unicode="&#xfb02;" horiz-adv-x="611" 
d="M411 0h142v714h-142v-714zM85 0h142.002v422h98v95h-98v31c0 21.333 4.16699 36.5 12.5 45.5s22.166 13.5 41.499 13.5c17.333 0 34.666 -1 51.999 -3v106c-12 0.666992 -24.333 1.5 -37 2.5s-25.334 1.5 -38.001 1.5c-29.333 0 -54.666 -3.83301 -75.999 -11.5
s-39.333 -18.5 -54 -32.5s-25.5 -30.667 -32.5 -50s-10.5 -40.333 -10.5 -63v-40h-85v-95h85v-422z" />
    <glyph glyph-name="logicalnot" horiz-adv-x="600" 
d="M552 406h-504v-107h397v-200h107v307z" />
    <glyph glyph-name="ordfeminine" horiz-adv-x="344" 
d="M230 515c0 -8 -0.666992 -16.333 -2 -25s-4.5 -16.667 -9.5 -24s-12.333 -13.5 -22 -18.5s-22.834 -7.5 -39.501 -7.5c-9.33301 0 -19.166 2.5 -29.499 7.5s-15.5 14.833 -15.5 29.5c0 12.667 5 21.667 15 27s22 9.66602 36 12.999c10 2 21.833 3.83301 35.5 5.5
s24.167 5.83398 31.5 12.501v-20zM122 605c1.33301 15.333 7 26.498 17 33.498s20.667 10.5 32 10.5c16.667 0 30.834 -2.16699 42.501 -6.5s17.5 -15.166 17.5 -32.499c0 -8 -2.83301 -14.167 -8.5 -18.5s-13.167 -7.66602 -22.5 -9.99902s-20.666 -4 -33.999 -5
s-27.333 -2.5 -42 -4.5c-14 -2 -27.833 -4.66699 -41.5 -8s-25.834 -8.5 -36.501 -15.5s-19.334 -16.5 -26.001 -28.5s-10 -27 -10 -45c0 -35.333 10.833 -60.833 32.5 -76.5s48.167 -23.5 79.5 -23.5c18 0 36.833 2.83301 56.5 8.5s36.834 16.167 51.501 31.5
c1.33301 -10.667 3.66602 -21 6.99902 -31h101c-4 7.33301 -7 17.5 -9 30.5s-3 27.833 -3 44.5v166c0 18.667 -4.5 33.834 -13.5 45.501s-20.667 20.667 -35 27s-30.5 10.666 -48.5 12.999s-35.667 3.5 -53 3.5c-18.667 0 -36.667 -1.66699 -54 -5s-33 -9 -47 -17
s-25.833 -19 -35.5 -33s-16.167 -32 -19.5 -54h102z" />
    <glyph glyph-name="ugrave" horiz-adv-x="593" 
d="M539 517l-142 -0.00195312v-271c0 -52.667 -8.66699 -90.5 -26 -113.5s-45.333 -34.5 -84 -34.5c-33.333 0 -56.833 10.5 -70.5 31.5s-20.5 52.833 -20.5 95.5v292h-142v-318c0 -32 2.83301 -61.167 8.5 -87.5s15.5 -48.666 29.5 -66.999s33.167 -32.666 57.5 -42.999
s55.5 -15.5 93.5 -15.5c30 0 59.333 7 88 21s52 35.667 70 65h3v-72h135v517zM273 580.998h99l-96 142h-157z" />
    <glyph glyph-name="atilde" 
d="M376 200c0 -8 -0.835938 -18.666 -2.50293 -31.999s-6.16699 -26.5 -13.5 -39.5s-18.666 -24.167 -33.999 -33.5s-37 -14 -65 -14c-11.333 0 -22.333 1 -33 3s-20 5.5 -28 10.5s-14.333 11.667 -19 20s-7 19.166 -7 32.499c0 12.667 2.33301 23.5 7 32.5
s10.834 16.333 18.501 22s16.5 10.167 26.5 13.5s20.667 6 32 8c10.667 2 21.834 3.66699 33.501 5s22.667 3 33 5s20 4.5 29 7.5s16.5 7.16699 22.5 12.5v-53zM189.997 358.001c2.66699 28 12.167 48.001 28.5 60.001s38.166 18 65.499 18
c12.667 0 24.5 -0.833008 35.5 -2.5s20.667 -5 29 -10s15 -12 20 -21s7.5 -21.167 7.5 -36.5c0 -14.667 -4.66699 -25.834 -14 -33.501s-21.833 -13.5 -37.5 -17.5s-33.5 -7 -53.5 -9s-41 -4.66699 -63 -8s-43.5 -7.83301 -64.5 -13.5s-39.833 -14.167 -56.5 -25.5
s-30 -26.5 -40 -45.5s-15 -43.167 -15 -72.5c0 -26.667 4.5 -49.667 13.5 -69s21.5 -35.333 37.5 -48s34.667 -22.167 56 -28.5s44.333 -9.5 69 -9.5c32 0 63.333 4.83301 94 14.5s57.334 26.167 80.001 49.5c0.666992 -8.66699 1.83398 -17.167 3.50098 -25.5
s3.83398 -16.5 6.50098 -24.5h144c-6.66699 10.667 -11.334 26.667 -14.001 48s-4 43.666 -4 66.999v269c0 30.667 -7 55.667 -21 75s-32 34.333 -54 45s-46.333 17.834 -73 21.501s-53 5.5 -79 5.5c-29.333 0 -58 -2.83301 -86 -8.5s-53.333 -15.167 -76 -28.5
s-41.334 -31 -56.001 -53s-23 -49.667 -25 -83h142zM401.997 714.002c0.666992 -9.33301 -2.33496 -17.5 -9.00195 -24.5s-17.667 -10.5 -33 -10.5c-11.333 0 -22.5 1.83301 -33.5 5.5s-21.833 7.83398 -32.5 12.501l-31.5 11.5c-10.333 3.66699 -21.166 5.5 -32.499 5.5
c-22 0 -40.333 -3.66699 -55 -11s-26.667 -16.833 -36 -28.5s-16.666 -24.667 -21.999 -39s-9.66602 -28.833 -12.999 -43.5h61c3.33301 12.667 7.83301 22.834 13.5 30.501s15.167 11.5 28.5 11.5c11.333 0 22.666 -1.66699 33.999 -5s23.333 -7.33301 36 -12
c12.667 -4 25.667 -7.83301 39 -11.5s27.666 -5.5 42.999 -5.5c20.667 0 37.334 3.83301 50.001 11.5s23 17.167 31 28.5s14.333 23.666 19 36.999s8.66699 25.666 12 36.999h-69z" />
    <glyph glyph-name="igrave" horiz-adv-x="258" 
d="M58 0h142v517h-142v-517zM106 581h99l-96 142h-158z" />
    <glyph glyph-name="Idieresis" horiz-adv-x="295" 
d="M69 0h157v714h-157v-714zM183 794h135v117h-135v-117zM-23 794h135v117h-135v-117z" />
    <glyph glyph-name="ydieresis" horiz-adv-x="519" 
d="M525 517h-146.999l-113 -354h-2l-117 354h-152l182 -485c4 -10 6 -20.667 6 -32c0 -10.667 -2 -20.667 -6 -30s-10.167 -17.166 -18.5 -23.499s-18.5 -10.166 -30.5 -11.499c-14 -0.666992 -28 -0.333984 -42 0.999023l-41 4v-117c14.667 -1.33301 29.167 -2.5 43.5 -3.5
s28.833 -1.5 43.5 -1.5c48.667 0 86.667 9.16699 114 27.5s48.666 48.166 63.999 89.499zM295.001 597h135v117h-135v-117zM89.001 597h135v117h-135v-117z" />
    <glyph glyph-name="sterling" horiz-adv-x="556" 
d="M88 -17c19.333 15.333 38.834 25.5029 58.501 30.5029s38.5 7.5 56.5 7.5c22 0 40.333 -2 55 -6s29.334 -8.66699 44.001 -14c14 -5.33301 29.333 -9.66602 46 -12.999s37.667 -5 63 -5s51.666 4.83301 78.999 14.5s53 26.167 77 49.5l-60 101
c-18 -19.333 -33.833 -31.333 -47.5 -36s-27.167 -7 -40.5 -7s-26.333 1.16699 -39 3.5s-25.667 5.16602 -39 8.49902c-13.333 2.66699 -26.5 5.16699 -39.5 7.5s-26.167 3.5 -39.5 3.5c-9.33301 0 -19 -1.33301 -29 -4s-23 -9 -39 -19l-2 2
c22 17.333 41.167 37.166 57.5 59.499s24.5 49.166 24.5 80.499c0 11.333 -0.5 22 -1.5 32s-3.16699 20 -6.5 30h105v85h-133c-10 18 -17.833 33.333 -23.5 46s-9.66699 23.834 -12 33.501s-3.83301 18.167 -4.5 25.5s-1 15 -1 23c0 28 9 50.333 27 67s41.667 25 71 25
c25.333 0 45.166 -5.16699 59.499 -15.5s25 -22.5 32 -36.5s11.5 -28.5 13.5 -43.5s3.33301 -27.5 4 -37.5h135c0 40.667 -5.5 76.5 -16.5 107.5s-27 57 -48 78s-46.5 37 -76.5 48s-64 16.5 -102 16.5c-42 0 -79 -5.33301 -111 -16s-58.667 -25.167 -80 -43.5
s-37.5 -39.5 -48.5 -63.5s-16.5 -49.333 -16.5 -76c0 -30 5 -57.333 15 -82s20 -43.334 30 -56.001h-64v-85h99c5.33301 -11.333 9.83301 -22.5 13.5 -33.5s5.5 -22.167 5.5 -33.5c0 -18 -3.33301 -35.167 -10 -51.5s-15.167 -31.5 -25.5 -45.5s-22.333 -26.833 -36 -38.5
s-27.5 -21.834 -41.5 -30.501z" />
    </font>
</defs>
</svg>
